# WaveFront *.obj file (generated by Autodesk ATF)

mtllib bague_3x6x5_2.mtl

g Body1

v -3.000000 0.000000 5.000000
v -2.598076 -1.500000 5.000000
v -1.500000 -2.598076 5.000000
v 0.000000 -3.000000 5.000000
v 1.500000 -2.598076 5.000000
v 2.598076 -1.500000 5.000000
v 3.000000 0.000000 5.000000
v 2.598076 1.500000 5.000000
v 1.500000 2.598076 5.000000
v -0.000000 3.000000 5.000000
v -1.500000 2.598076 5.000000
v -2.598076 1.500000 5.000000
v -1.500000 0.000000 5.000000
v -1.299038 0.750000 5.000000
v -0.750000 1.299038 5.000000
v -0.000000 1.500000 5.000000
v 0.750000 1.299038 5.000000
v 1.299038 0.750000 5.000000
v 1.500000 0.000000 5.000000
v 1.299038 -0.750000 5.000000
v 0.750000 -1.299038 5.000000
v 0.000000 -1.500000 5.000000
v -0.750000 -1.299038 5.000000
v -1.299038 -0.750000 5.000000
v -1.500000 0.000000 0.000000
v -1.299038 0.750000 0.000000
v -0.750000 1.299038 0.000000
v -0.000000 1.500000 0.000000
v 0.750000 1.299038 0.000000
v 1.299038 0.750000 0.000000
v 1.500000 0.000000 0.000000
v 1.299038 -0.750000 0.000000
v 0.750000 -1.299038 0.000000
v 0.000000 -1.500000 0.000000
v -0.750000 -1.299038 0.000000
v -1.299038 -0.750000 0.000000
v -3.000000 0.000000 0.000000
v -2.598076 1.500000 0.000000
v -1.500000 2.598076 0.000000
v -0.000000 3.000000 0.000000
v 1.500000 2.598076 0.000000
v 2.598076 1.500000 0.000000
v 3.000000 0.000000 0.000000
v 2.598076 -1.500000 0.000000
v 1.500000 -2.598076 0.000000
v 0.000000 -3.000000 0.000000
v -1.500000 -2.598076 0.000000
v -2.598076 -1.500000 0.000000
vt -0.484808 -0.150000 0.000000
vt -0.354904 -0.075000 0.000000
vt -0.525000 0.000000 0.000000
vt -0.375000 0.000000 0.000000
vt -0.354904 0.075000 0.000000
vt -0.300000 -0.129904 0.000000
vt -0.375000 -0.259808 0.000000
vt -0.225000 -0.150000 0.000000
vt -0.225000 -0.300000 0.000000
vt -0.075000 -0.259808 0.000000
vt -0.150000 -0.129904 0.000000
vt 0.034808 -0.150000 0.000000
vt -0.095096 -0.075000 0.000000
vt -0.075000 0.000000 0.000000
vt 0.075000 0.000000 0.000000
vt -0.095096 0.075000 0.000000
vt 0.034808 0.150000 0.000000
vt -0.150000 0.129904 0.000000
vt -0.075000 0.259808 0.000000
vt -0.225000 0.150000 0.000000
vt -0.225000 0.300000 0.000000
vt -0.375000 0.259808 0.000000
vt -0.300000 0.129904 0.000000
vt -0.484808 0.150000 0.000000
vt 0.250000 0.078540 0.000000
vt -0.250000 0.078540 0.000000
vt 0.250000 0.000000 0.000000
vt -0.250000 0.000000 0.000000
vt 0.250000 -0.078540 0.000000
vt -0.250000 -0.078540 0.000000
vt 0.250000 -0.157080 0.000000
vt -0.250000 -0.157080 0.000000
vt 0.250000 -0.235619 0.000000
vt -0.250000 -0.235619 0.000000
vt 0.250000 -0.314159 0.000000
vt -0.250000 -0.314159 0.000000
vt 0.250000 -0.392699 0.000000
vt -0.250000 -0.392699 0.000000
vt 0.250000 -0.471239 0.000000
vt -0.250000 -0.471239 0.000000
vt 0.250000 0.471239 0.000000
vt -0.250000 0.471239 0.000000
vt 0.250000 0.392699 0.000000
vt -0.250000 0.392699 0.000000
vt 0.250000 0.314159 0.000000
vt -0.250000 0.314159 0.000000
vt 0.250000 0.235619 0.000000
vt -0.250000 0.235619 0.000000
vt 0.250000 0.157080 0.000000
vt -0.250000 0.157080 0.000000
vt 0.484808 0.150000 0.000000
vt 0.354904 0.075000 0.000000
vt 0.525000 0.000000 0.000000
vt 0.375000 0.000000 0.000000
vt 0.484808 -0.150000 0.000000
vt 0.354904 -0.075000 0.000000
vt 0.300000 -0.129904 0.000000
vt 0.300000 0.129904 0.000000
vt 0.375000 0.259808 0.000000
vt 0.225000 0.150000 0.000000
vt 0.225000 0.300000 0.000000
vt 0.075000 0.259808 0.000000
vt 0.150000 0.129904 0.000000
vt -0.034808 0.150000 0.000000
vt 0.095096 0.075000 0.000000
vt -0.075000 0.000000 0.000000
vt 0.075000 0.000000 0.000000
vt 0.095096 -0.075000 0.000000
vt -0.034808 -0.150000 0.000000
vt 0.150000 -0.129904 0.000000
vt 0.075000 -0.259808 0.000000
vt 0.225000 -0.150000 0.000000
vt 0.225000 -0.300000 0.000000
vt 0.375000 -0.259808 0.000000
vt -0.250000 -0.157080 0.000000
vt 0.250000 -0.157080 0.000000
vt -0.250000 0.000000 0.000000
vt 0.250000 0.000000 0.000000
vt -0.250000 0.157080 0.000000
vt 0.250000 0.157080 0.000000
vt -0.250000 0.314159 0.000000
vt 0.250000 0.314159 0.000000
vt -0.250000 0.471239 0.000000
vt 0.250000 0.471239 0.000000
vt -0.250000 0.628319 0.000000
vt 0.250000 0.628319 0.000000
vt -0.250000 0.785398 0.000000
vt 0.250000 0.785398 0.000000
vt -0.250000 0.942478 0.000000
vt 0.250000 0.942478 0.000000
vt -0.250000 -0.942478 0.000000
vt 0.250000 -0.942478 0.000000
vt -0.250000 -0.785398 0.000000
vt 0.250000 -0.785398 0.000000
vt -0.250000 -0.628319 0.000000
vt 0.250000 -0.628319 0.000000
vt -0.250000 -0.471239 0.000000
vt 0.250000 -0.471239 0.000000
vt -0.250000 -0.314159 0.000000
vt 0.250000 -0.314159 0.000000
vn 0.000000 0.000000 0.100000
vn 0.000000 0.000000 0.100000
vn 0.000000 0.000000 0.100000
vn 0.000000 0.000000 0.100000
vn 0.000000 0.000000 0.100000
vn 0.000000 0.000000 0.100000
vn 0.000000 0.000000 0.100000
vn 0.000000 0.000000 0.100000
vn 0.000000 0.000000 0.100000
vn 0.000000 0.000000 0.100000
vn 0.000000 0.000000 0.100000
vn 0.000000 0.000000 0.100000
vn 0.000000 0.000000 0.100000
vn 0.000000 0.000000 0.100000
vn 0.000000 0.000000 0.100000
vn 0.000000 0.000000 0.100000
vn 0.000000 0.000000 0.100000
vn 0.000000 0.000000 0.100000
vn 0.000000 0.000000 0.100000
vn 0.000000 0.000000 0.100000
vn 0.000000 0.000000 0.100000
vn 0.000000 0.000000 0.100000
vn 0.000000 0.000000 0.100000
vn 0.000000 0.000000 0.100000
vn 0.086603 -0.050000 0.000000
vn 0.086603 -0.050000 0.000000
vn 0.100000 -0.000000 0.000000
vn 0.100000 -0.000000 0.000000
vn 0.086603 0.050000 0.000000
vn 0.086603 0.050000 0.000000
vn 0.050000 0.086603 0.000000
vn 0.050000 0.086603 0.000000
vn -0.000000 0.100000 0.000000
vn -0.000000 0.100000 0.000000
vn -0.050000 0.086603 0.000000
vn -0.050000 0.086603 0.000000
vn -0.086603 0.050000 0.000000
vn -0.086603 0.050000 0.000000
vn -0.100000 0.000000 0.000000
vn -0.100000 0.000000 0.000000
vn -0.086603 -0.050000 0.000000
vn -0.086603 -0.050000 0.000000
vn -0.050000 -0.086603 0.000000
vn -0.050000 -0.086603 0.000000
vn 0.000000 -0.100000 0.000000
vn 0.000000 -0.100000 0.000000
vn 0.050000 -0.086603 0.000000
vn 0.050000 -0.086603 0.000000
vn 0.000000 0.000000 -0.100000
vn 0.000000 0.000000 -0.100000
vn 0.000000 0.000000 -0.100000
vn 0.000000 0.000000 -0.100000
vn 0.000000 0.000000 -0.100000
vn 0.000000 0.000000 -0.100000
vn 0.000000 0.000000 -0.100000
vn 0.000000 0.000000 -0.100000
vn 0.000000 0.000000 -0.100000
vn 0.000000 0.000000 -0.100000
vn 0.000000 0.000000 -0.100000
vn 0.000000 0.000000 -0.100000
vn 0.000000 0.000000 -0.100000
vn 0.000000 0.000000 -0.100000
vn 0.000000 0.000000 -0.100000
vn 0.000000 0.000000 -0.100000
vn 0.000000 0.000000 -0.100000
vn 0.000000 0.000000 -0.100000
vn 0.000000 0.000000 -0.100000
vn 0.000000 0.000000 -0.100000
vn 0.000000 0.000000 -0.100000
vn 0.000000 0.000000 -0.100000
vn 0.000000 0.000000 -0.100000
vn 0.000000 0.000000 -0.100000
vn -0.086603 -0.050000 0.000000
vn -0.086603 -0.050000 0.000000
vn -0.100000 0.000000 -0.000000
vn -0.100000 0.000000 -0.000000
vn -0.086603 0.050000 -0.000000
vn -0.086603 0.050000 -0.000000
vn -0.050000 0.086603 -0.000000
vn -0.050000 0.086603 -0.000000
vn -0.000000 0.100000 -0.000000
vn -0.000000 0.100000 -0.000000
vn 0.050000 0.086603 0.000000
vn 0.050000 0.086603 0.000000
vn 0.086603 0.050000 0.000000
vn 0.086603 0.050000 0.000000
vn 0.100000 0.000000 0.000000
vn 0.100000 0.000000 0.000000
vn 0.086603 -0.050000 0.000000
vn 0.086603 -0.050000 0.000000
vn 0.050000 -0.086603 0.000000
vn 0.050000 -0.086603 0.000000
vn 0.000000 -0.100000 0.000000
vn 0.000000 -0.100000 0.000000
vn -0.050000 -0.086603 0.000000
vn -0.050000 -0.086603 0.000000
usemtl Opaque(223,114,81)
f 2/1/1 24/2/2 1/3/3
f 1/3/3 24/2/2 13/4/4
f 1/3/3 13/4/4 14/5/5
f 24/2/2 2/1/1 23/6/6
f 23/6/6 2/1/1 3/7/7
f 23/6/6 3/7/7 22/8/8
f 22/8/8 3/7/7 4/9/9
f 22/8/8 4/9/9 5/10/10
f 22/8/8 5/10/10 21/11/11
f 21/11/11 5/10/10 6/12/12
f 21/11/11 6/12/12 20/13/13
f 20/13/13 6/12/12 19/14/14
f 19/14/14 6/12/12 7/15/15
f 19/14/14 7/15/15 18/16/16
f 18/16/16 7/15/15 8/17/17
f 18/16/16 8/17/17 17/18/18
f 17/18/18 8/17/17 9/19/19
f 17/18/18 9/19/19 16/20/20
f 16/20/20 9/19/19 10/21/21
f 16/20/20 10/21/21 11/22/22
f 16/20/20 11/22/22 15/23/23
f 15/23/23 11/22/22 12/24/24
f 15/23/23 12/24/24 14/5/5
f 14/5/5 12/24/24 1/3/3
f 26/25/25 14/26/26 25/27/27
f 25/27/27 14/26/26 13/28/28
f 25/27/27 13/28/28 36/29/29
f 36/29/29 13/28/28 24/30/30
f 36/29/29 24/30/30 35/31/31
f 35/31/31 24/30/30 23/32/32
f 35/31/31 23/32/32 34/33/33
f 34/33/33 23/32/32 22/34/34
f 34/33/33 22/34/34 33/35/35
f 33/35/35 22/34/34 21/36/36
f 33/35/35 21/36/36 32/37/37
f 32/37/37 21/36/36 20/38/38
f 32/37/37 20/38/38 31/39/39
f 31/39/39 20/38/38 19/40/40
f 31/41/39 19/42/40 30/43/41
f 30/43/41 19/42/40 18/44/42
f 30/43/41 18/44/42 29/45/43
f 29/45/43 18/44/42 17/46/44
f 29/45/43 17/46/44 28/47/45
f 28/47/45 17/46/44 16/48/46
f 28/47/45 16/48/46 27/49/47
f 27/49/47 16/48/46 15/50/48
f 27/49/47 15/50/48 26/25/25
f 26/25/25 15/50/48 14/26/26
f 38/51/49 26/52/50 37/53/51
f 37/53/51 26/52/50 25/54/52
f 37/53/51 25/54/52 48/55/53
f 48/55/53 25/54/52 36/56/54
f 48/55/53 36/56/54 35/57/55
f 26/52/50 38/51/49 27/58/56
f 27/58/56 38/51/49 39/59/57
f 27/58/56 39/59/57 28/60/58
f 28/60/58 39/59/57 40/61/59
f 28/60/58 40/61/59 41/62/60
f 28/60/58 41/62/60 29/63/61
f 29/63/61 41/62/60 42/64/62
f 29/63/61 42/64/62 30/65/63
f 30/65/63 42/64/62 43/66/64
f 30/65/63 43/66/64 31/67/65
f 31/67/65 43/66/64 32/68/66
f 32/68/66 43/66/64 44/69/67
f 32/68/66 44/69/67 33/70/68
f 33/70/68 44/69/67 45/71/69
f 33/70/68 45/71/69 34/72/70
f 34/72/70 45/71/69 46/73/71
f 34/72/70 46/73/71 47/74/72
f 34/72/70 47/74/72 35/57/55
f 35/57/55 47/74/72 48/55/53
f 48/75/73 2/76/74 37/77/75
f 37/77/75 2/76/74 1/78/76
f 37/77/75 1/78/76 38/79/77
f 38/79/77 1/78/76 12/80/78
f 38/79/77 12/80/78 39/81/79
f 39/81/79 12/80/78 11/82/80
f 39/81/79 11/82/80 40/83/81
f 40/83/81 11/82/80 10/84/82
f 40/83/81 10/84/82 41/85/83
f 41/85/83 10/84/82 9/86/84
f 41/85/83 9/86/84 42/87/85
f 42/87/85 9/86/84 8/88/86
f 42/87/85 8/88/86 43/89/87
f 43/89/87 8/88/86 7/90/88
f 43/91/87 7/92/88 44/93/89
f 44/93/89 7/92/88 6/94/90
f 44/93/89 6/94/90 45/95/91
f 45/95/91 6/94/90 5/96/92
f 45/95/91 5/96/92 46/97/93
f 46/97/93 5/96/92 4/98/94
f 46/97/93 4/98/94 47/99/95
f 47/99/95 4/98/94 3/100/96
f 47/99/95 3/100/96 48/75/73
f 48/75/73 3/100/96 2/76/74
# 48 vertices
# 100 texture params
# 96 normals
# 96 facets

# 1 groups
