# WaveFront *.obj file (generated by Autodesk ATF)

mtllib Distal_Rod_2.mtl

g Body1

v 29.891016 -24.000000 8.300000
v 29.891016 -24.000000 5.100000
v 30.527395 -26.375000 5.100000
v 32.266016 -28.113621 5.100000
v 34.641016 -28.750000 5.100000
v 37.016016 -28.113621 5.100000
v 37.016016 -28.113621 8.300000
v 34.641016 -28.750000 8.300000
v 32.266016 -28.113621 8.300000
v 30.527395 -26.375000 8.300000
v 39.891016 -26.453739 -8.300000
v 39.891016 -26.453739 -5.100000
v 37.016016 -28.113621 -5.100000
v 37.016016 -28.113621 -8.300000
v 39.891016 -21.026646 -4.800000
v 39.891016 -26.107328 -4.800000
v 39.891016 -26.107328 -8.600000
v 39.891016 -8.050000 -8.600000
v 39.891016 -7.750000 -8.300000
v 39.891016 -7.750000 8.300000
v 39.891016 -8.050000 8.600000
v 39.891016 -26.107328 8.600000
v 39.891016 -26.453739 8.300000
v 39.891016 -26.453739 5.100000
v 39.891016 -26.107328 4.800000
v 39.891016 -21.026646 4.800000
v 39.891016 -9.850000 4.800000
v 39.891016 -9.850000 -4.800000
v 29.891016 -12.500000 -8.300000
v 29.891016 -12.500000 8.300000
v 30.527395 -10.125000 8.300000
v 32.266016 -8.386379 8.300000
v 34.641016 -7.750000 8.300000
v 34.641016 -7.750000 -8.300000
v 32.266016 -8.386379 -8.300000
v 30.527395 -10.125000 -8.300000
v 29.891016 -24.000000 -8.300000
v 29.891016 -24.000000 -5.100000
v 29.891016 -15.253143 -5.100000
v 29.891016 -15.253143 5.100000
v 34.641016 -28.750000 -5.100000
v 32.266016 -28.113621 -5.100000
v 30.527395 -26.375000 -5.100000
v 30.527395 -26.375000 -8.300000
v 32.266016 -28.113621 -8.300000
v 34.641016 -28.750000 -8.300000
v 34.641016 -8.050000 8.600000
v 32.416016 -8.646187 8.600000
v 30.787203 -10.275000 8.600000
v 30.191016 -12.500000 8.600000
v 30.191016 -24.000000 8.600000
v 30.787203 -26.225000 8.600000
v 32.416016 -27.853813 8.600000
v 34.641016 -28.450000 8.600000
v 36.866016 -27.853813 8.600000
v 36.266016 -12.500000 8.600000
v 36.048307 -13.312500 8.600000
v 35.453516 -13.907291 8.600000
v 34.641016 -14.125000 8.600000
v 33.828516 -13.907291 8.600000
v 33.233725 -13.312500 8.600000
v 33.016016 -12.500000 8.600000
v 33.233725 -11.687500 8.600000
v 33.828516 -11.092709 8.600000
v 34.641016 -10.875000 8.600000
v 35.453516 -11.092709 8.600000
v 36.048307 -11.687500 8.600000
v 36.141016 -24.000000 8.600000
v 35.940054 -24.750000 8.600000
v 35.391016 -25.299038 8.600000
v 34.641016 -25.500000 8.600000
v 33.891016 -25.299038 8.600000
v 33.341978 -24.750000 8.600000
v 33.141016 -24.000000 8.600000
v 33.341978 -23.250000 8.600000
v 33.891016 -22.700962 8.600000
v 34.641016 -22.500000 8.600000
v 35.391016 -22.700962 8.600000
v 35.940054 -23.250000 8.600000
v 30.191016 -12.500000 -8.600000
v 30.787203 -10.275000 -8.600000
v 32.416016 -8.646187 -8.600000
v 34.641016 -8.050000 -8.600000
v 36.866016 -27.853813 -8.600000
v 34.641016 -28.450000 -8.600000
v 32.416016 -27.853813 -8.600000
v 30.787203 -26.225000 -8.600000
v 30.191016 -24.000000 -8.600000
v 36.266016 -12.500000 -8.600000
v 36.048307 -11.687500 -8.600000
v 35.453516 -11.092709 -8.600000
v 34.641016 -10.875000 -8.600000
v 33.828516 -11.092709 -8.600000
v 33.233725 -11.687500 -8.600000
v 33.016016 -12.500000 -8.600000
v 33.233725 -13.312500 -8.600000
v 33.828516 -13.907291 -8.600000
v 34.641016 -14.125000 -8.600000
v 35.453516 -13.907291 -8.600000
v 36.048307 -13.312500 -8.600000
v 36.141016 -24.000000 -8.600000
v 35.940054 -23.250000 -8.600000
v 35.391016 -22.700962 -8.600000
v 34.641016 -22.500000 -8.600000
v 33.891016 -22.700962 -8.600000
v 33.341978 -23.250000 -8.600000
v 33.141016 -24.000000 -8.600000
v 33.341978 -24.750000 -8.600000
v 33.891016 -25.299038 -8.600000
v 34.641016 -25.500000 -8.600000
v 35.391016 -25.299038 -8.600000
v 35.940054 -24.750000 -8.600000
v 30.191016 -15.426349 4.800000
v 30.191016 -15.426349 -4.800000
v 30.191016 -24.000000 -4.800000
v 30.787203 -26.225000 -4.800000
v 32.416016 -27.853813 -4.800000
v 34.641016 -28.450000 -4.800000
v 36.866016 -27.853813 -4.800000
v 36.141016 -24.000000 -4.800000
v 35.940054 -24.750000 -4.800000
v 35.391016 -25.299038 -4.800000
v 34.641016 -25.500000 -4.800000
v 33.891016 -25.299038 -4.800000
v 33.341978 -24.750000 -4.800000
v 33.141016 -24.000000 -4.800000
v 33.341978 -23.250000 -4.800000
v 33.891016 -22.700962 -4.800000
v 34.641016 -22.500000 -4.800000
v 35.391016 -22.700962 -4.800000
v 35.940054 -23.250000 -4.800000
v 36.866016 -27.853813 4.800000
v 34.641016 -28.450000 4.800000
v 32.416016 -27.853813 4.800000
v 30.787203 -26.225000 4.800000
v 30.191016 -24.000000 4.800000
v 36.141016 -24.000000 4.800000
v 35.940054 -23.250000 4.800000
v 35.391016 -22.700962 4.800000
v 34.641016 -22.500000 4.800000
v 33.891016 -22.700962 4.800000
v 33.341978 -23.250000 4.800000
v 33.141016 -24.000000 4.800000
v 33.341978 -24.750000 4.800000
v 33.891016 -25.299038 4.800000
v 34.641016 -25.500000 4.800000
v 35.391016 -25.299038 4.800000
v 35.940054 -24.750000 4.800000
v 45.391016 -9.850000 -4.800000
v 45.391016 -21.026646 -4.800000
v 43.916016 -14.750000 -4.800000
v 43.778692 -14.237500 -4.800000
v 43.403516 -13.862324 -4.800000
v 42.891016 -13.725000 -4.800000
v 42.378516 -13.862324 -4.800000
v 42.003340 -14.237500 -4.800000
v 41.866016 -14.750000 -4.800000
v 42.003340 -15.262500 -4.800000
v 42.378516 -15.637676 -4.800000
v 42.891016 -15.775000 -4.800000
v 43.403516 -15.637676 -4.800000
v 43.778692 -15.262500 -4.800000
v 46.891016 -21.026646 3.300000
v 46.891016 -21.026646 -3.300000
v 46.891016 -9.850000 -3.300000
v 46.891016 -9.850000 3.300000
v 45.391016 -21.026646 4.800000
v 45.391016 -9.850000 4.800000
v 43.916016 -14.750000 4.800000
v 43.778692 -15.262500 4.800000
v 43.403516 -15.637676 4.800000
v 42.891016 -15.775000 4.800000
v 42.378516 -15.637676 4.800000
v 42.003340 -15.262500 4.800000
v 41.866016 -14.750000 4.800000
v 42.003340 -14.237500 4.800000
v 42.378516 -13.862324 4.800000
v 42.891016 -13.725000 4.800000
v 43.403516 -13.862324 4.800000
v 43.778692 -14.237500 4.800000
v 46.141016 -21.026646 -4.599038
v 46.690054 -21.026646 -4.050000
v 46.690054 -21.026646 4.050000
v 46.141016 -21.026646 4.599038
v 46.690054 -9.850000 -4.050000
v 46.141016 -9.850000 -4.599038
v 46.141016 -9.850000 4.599038
v 46.690054 -9.850000 4.050000
vt -0.030000 0.000000 0.000000
vt -0.350000 0.000000 0.000000
vt -0.030000 -0.248709 0.000000
vt -0.350000 -0.248709 0.000000
vt -0.030000 -0.497419 0.000000
vt -0.350000 -0.497419 0.000000
vt -0.030000 -0.746128 0.000000
vt -0.350000 -0.746128 0.000000
vt -0.030000 -0.994838 0.000000
vt -0.350000 -0.994838 0.000000
vt 0.165988 -1.370000 0.000000
vt -0.165988 -1.370000 0.000000
vt 0.165988 -1.690000 0.000000
vt -0.165988 -1.690000 0.000000
vt 1.340000 -0.425546 0.000000
vt 1.720000 -0.425546 0.000000
vt 1.340000 0.082522 0.000000
vt 1.720000 1.380187 0.000000
vt 1.340000 1.200187 0.000000
vt 1.690000 1.410187 0.000000
vt 0.030000 1.410187 0.000000
vt 1.370000 -0.460187 0.000000
vt 1.690000 -0.460187 0.000000
vt 0.380000 1.200187 0.000000
vt -0.000000 1.380187 0.000000
vt 0.380000 0.082522 0.000000
vt -0.000000 -0.425546 0.000000
vt 0.380000 -0.425546 0.000000
vt 0.350000 -0.460187 0.000000
vt 0.030000 -0.460187 0.000000
vt -1.690000 0.000000 0.000000
vt -0.030000 0.000000 0.000000
vt -1.690000 0.248709 0.000000
vt -0.030000 0.248709 0.000000
vt -1.690000 0.497419 0.000000
vt -0.030000 0.497419 0.000000
vt -1.690000 0.746128 0.000000
vt -0.030000 0.746128 0.000000
vt 0.575000 -1.370000 0.000000
vt -0.299686 -1.370000 0.000000
vt 0.575000 -1.690000 0.000000
vt -0.575000 -1.690000 0.000000
vt -0.299686 -0.350000 0.000000
vt -0.575000 -0.030000 0.000000
vt 0.575000 -0.030000 0.000000
vt 0.575000 -0.350000 0.000000
vt -1.690000 -0.994838 0.000000
vt -1.370000 -0.994838 0.000000
vt -1.690000 -0.746128 0.000000
vt -1.370000 -0.746128 0.000000
vt -1.690000 -0.497419 0.000000
vt -1.370000 -0.497419 0.000000
vt -1.690000 -0.248709 0.000000
vt -1.370000 -0.248709 0.000000
vt -1.690000 0.000000 0.000000
vt -1.370000 0.000000 0.000000
vt -0.165988 -0.350000 0.000000
vt 0.165988 -0.350000 0.000000
vt -0.165988 -0.030000 0.000000
vt 0.165988 -0.030000 0.000000
vt 0.262500 -0.030000 0.000000
vt -0.262500 -0.030000 0.000000
vt 0.262500 -1.690000 0.000000
vt -0.262500 -1.690000 0.000000
vt -1.175000 1.020000 0.000000
vt -1.537500 0.575000 0.000000
vt -1.175000 -0.785733 0.000000
vt -1.559271 0.493750 0.000000
vt -1.570096 -0.500000 0.000000
vt -1.618750 0.434271 0.000000
vt -1.625000 -0.445096 0.000000
vt -1.700000 0.412500 0.000000
vt -1.700000 -0.425000 0.000000
vt -1.775000 -0.445096 0.000000
vt -1.781250 0.434271 0.000000
vt -1.829904 -0.500000 0.000000
vt -1.840729 0.493750 0.000000
vt -2.145000 -0.575000 0.000000
vt -2.145000 0.575000 0.000000
vt -1.862500 0.575000 0.000000
vt -2.085381 0.797500 0.000000
vt -1.922500 0.960381 0.000000
vt -1.840729 0.656250 0.000000
vt -1.781250 0.715729 0.000000
vt -1.559271 0.656250 0.000000
vt -1.700000 1.020000 0.000000
vt -1.618750 0.715729 0.000000
vt -1.700000 0.737500 0.000000
vt -1.850000 -0.575000 0.000000
vt -2.085381 -0.797500 0.000000
vt -1.922500 -0.960381 0.000000
vt -1.700000 -1.020000 0.000000
vt -1.775000 -0.704904 0.000000
vt -1.829904 -0.650000 0.000000
vt -1.477500 -0.960381 0.000000
vt -1.625000 -0.704904 0.000000
vt -1.700000 -0.725000 0.000000
vt -1.550000 -0.575000 0.000000
vt -1.570096 -0.650000 0.000000
vt 2.085381 0.797500 0.000000
vt 1.862500 0.575000 0.000000
vt 2.145000 0.575000 0.000000
vt 1.840729 0.493750 0.000000
vt 2.145000 -0.575000 0.000000
vt 1.829904 -0.500000 0.000000
vt 1.850000 -0.575000 0.000000
vt 1.922500 0.960381 0.000000
vt 1.840729 0.656250 0.000000
vt 1.781250 0.715729 0.000000
vt 1.700000 1.020000 0.000000
vt 1.700000 0.737500 0.000000
vt 1.618750 0.715729 0.000000
vt 1.559271 0.656250 0.000000
vt 1.175000 1.020000 0.000000
vt 1.537500 0.575000 0.000000
vt 1.175000 -0.785733 0.000000
vt 1.559271 0.493750 0.000000
vt 1.570096 -0.500000 0.000000
vt 1.618750 0.434271 0.000000
vt 1.625000 -0.445096 0.000000
vt 1.700000 0.412500 0.000000
vt 1.700000 -0.425000 0.000000
vt 1.775000 -0.445096 0.000000
vt 1.550000 -0.575000 0.000000
vt 1.477500 -0.960381 0.000000
vt 1.570096 -0.650000 0.000000
vt 1.625000 -0.704904 0.000000
vt 1.700000 -1.020000 0.000000
vt 1.700000 -0.725000 0.000000
vt 1.775000 -0.704904 0.000000
vt 1.922500 -0.960381 0.000000
vt 1.829904 -0.650000 0.000000
vt 2.085381 -0.797500 0.000000
vt 1.781250 0.434271 0.000000
vt 0.606218 0.910000 0.000000
vt -0.513842 0.910000 0.000000
vt 0.606218 -0.050000 0.000000
vt -0.513842 -0.050000 0.000000
vt -0.548483 -0.080000 0.000000
vt -0.548483 0.940000 0.000000
vt -0.482654 -0.422343 0.000000
vt -0.247272 -0.199843 0.000000
vt -0.542272 -0.199843 0.000000
vt -0.227176 -0.124843 0.000000
vt -0.542272 0.657522 0.000000
vt -0.172272 -0.069939 0.000000
vt -0.097272 -0.049843 0.000000
vt -0.227176 -0.274843 0.000000
vt -0.319772 -0.585224 0.000000
vt -0.172272 -0.329747 0.000000
vt -0.097272 -0.644843 0.000000
vt -0.097272 -0.349843 0.000000
vt -0.022272 -0.329747 0.000000
vt 0.125228 -0.585224 0.000000
vt 0.032631 -0.274843 0.000000
vt 0.427728 -0.410576 0.000000
vt 0.052728 -0.199843 0.000000
vt 0.427728 0.097493 0.000000
vt 0.032631 -0.124843 0.000000
vt -0.022272 -0.069939 0.000000
vt -0.427728 -0.410576 0.000000
vt -0.052728 -0.199843 0.000000
vt -0.427728 0.097493 0.000000
vt -0.032631 -0.124843 0.000000
vt 0.022272 -0.069939 0.000000
vt -0.032631 -0.274843 0.000000
vt -0.125228 -0.585224 0.000000
vt 0.022272 -0.329747 0.000000
vt 0.097272 -0.644843 0.000000
vt 0.097272 -0.349843 0.000000
vt 0.172272 -0.329747 0.000000
vt 0.319772 -0.585224 0.000000
vt 0.227176 -0.274843 0.000000
vt 0.482654 -0.422343 0.000000
vt 0.247272 -0.199843 0.000000
vt 0.542272 -0.199843 0.000000
vt 0.227176 -0.124843 0.000000
vt 0.542272 0.657522 0.000000
vt 0.172272 -0.069939 0.000000
vt 0.097272 -0.049843 0.000000
vt 8.772391 0.078540 0.000000
vt 8.392391 0.078540 0.000000
vt 8.772391 0.000000 0.000000
vt 8.392391 0.000000 0.000000
vt 8.772391 -0.078540 0.000000
vt 8.392391 -0.078540 0.000000
vt 8.772391 -0.157080 0.000000
vt 8.392391 -0.157080 0.000000
vt 8.772391 -0.235619 0.000000
vt 8.392391 -0.235619 0.000000
vt 8.772391 -0.314159 0.000000
vt 8.392391 -0.314159 0.000000
vt 8.772391 -0.392699 0.000000
vt 8.392391 -0.392699 0.000000
vt 8.772391 -0.471239 0.000000
vt 8.392391 -0.471239 0.000000
vt 8.772391 0.471239 0.000000
vt 8.392391 0.471239 0.000000
vt 8.772391 0.392699 0.000000
vt 8.392391 0.392699 0.000000
vt 8.772391 0.314159 0.000000
vt 8.392391 0.314159 0.000000
vt 8.772391 0.235619 0.000000
vt 8.392391 0.235619 0.000000
vt 8.772391 0.157080 0.000000
vt 8.392391 0.157080 0.000000
vt 7.432391 0.078540 0.000000
vt 7.052391 0.078540 0.000000
vt 7.432391 0.000000 0.000000
vt 7.052391 0.000000 0.000000
vt 7.432391 -0.078540 0.000000
vt 7.052391 -0.078540 0.000000
vt 7.432391 -0.157080 0.000000
vt 7.052391 -0.157080 0.000000
vt 7.432391 -0.235619 0.000000
vt 7.052391 -0.235619 0.000000
vt 7.432391 -0.314159 0.000000
vt 7.052391 -0.314159 0.000000
vt 7.432391 -0.392699 0.000000
vt 7.052391 -0.392699 0.000000
vt 7.432391 -0.471239 0.000000
vt 7.052391 -0.471239 0.000000
vt 7.432391 0.471239 0.000000
vt 7.052391 0.471239 0.000000
vt 7.432391 0.392699 0.000000
vt 7.052391 0.392699 0.000000
vt 7.432391 0.314159 0.000000
vt 7.052391 0.314159 0.000000
vt 7.432391 0.235619 0.000000
vt 7.052391 0.235619 0.000000
vt 7.432391 0.157080 0.000000
vt 7.052391 0.157080 0.000000
vt -0.200000 -32.237849 0.000000
vt 0.050000 -32.625349 0.000000
vt 0.350000 -32.237849 0.000000
vt 0.101250 -32.639081 0.000000
vt 0.138768 -32.676599 0.000000
vt -0.200000 -33.355513 0.000000
vt -0.052500 -32.727849 0.000000
vt -0.038768 -32.676599 0.000000
vt -0.001250 -32.639081 0.000000
vt 0.350000 -33.355513 0.000000
vt 0.050000 -32.830349 0.000000
vt -0.001250 -32.816616 0.000000
vt -0.038768 -32.779099 0.000000
vt 0.152500 -32.727849 0.000000
vt 0.138768 -32.779099 0.000000
vt 0.101250 -32.816616 0.000000
vt -0.570000 -33.355513 0.000000
vt 0.090000 -33.355513 0.000000
vt -0.570000 -32.237849 0.000000
vt 0.090000 -32.237849 0.000000
vt 0.200000 -33.355513 0.000000
vt -0.050000 -32.830349 0.000000
vt -0.350000 -33.355513 0.000000
vt -0.101250 -32.816616 0.000000
vt -0.138768 -32.779099 0.000000
vt 0.200000 -32.237849 0.000000
vt 0.052500 -32.727849 0.000000
vt 0.038768 -32.779099 0.000000
vt 0.001250 -32.816616 0.000000
vt -0.350000 -32.237849 0.000000
vt -0.050000 -32.625349 0.000000
vt 0.001250 -32.639081 0.000000
vt 0.038768 -32.676599 0.000000
vt -0.152500 -32.727849 0.000000
vt -0.138768 -32.676599 0.000000
vt -0.101250 -32.639081 0.000000
vt -0.350000 0.480000 0.000000
vt -0.350000 -0.480000 0.000000
vt 0.200000 0.480000 0.000000
vt 0.200000 -0.480000 0.000000
vt 0.350000 -0.330000 0.000000
vt 0.275000 -0.459904 0.000000
vt 0.329904 -0.405000 0.000000
vt 0.350000 0.330000 0.000000
vt 0.275000 0.459904 0.000000
vt 0.329904 0.405000 0.000000
vt -0.700000 -1.190000 0.000000
vt -0.550000 -0.380000 0.000000
vt -0.700000 -0.530000 0.000000
vt -0.625000 -0.400096 0.000000
vt -0.679904 -0.455000 0.000000
vt -0.679904 -1.265000 0.000000
vt -0.625000 -1.319904 0.000000
vt -0.550000 -1.340000 0.000000
vt 0.000000 -1.340000 0.000000
vt 0.000000 -0.380000 0.000000
vt 0.380000 0.268344 0.000000
vt 1.340000 0.268344 0.000000
vt 0.380000 0.322013 0.000000
vt 1.340000 0.322013 0.000000
vt 0.380000 -0.322013 0.000000
vt 1.340000 -0.322013 0.000000
vt 0.380000 -0.268344 0.000000
vt 1.340000 -0.268344 0.000000
vt 0.380000 -0.214675 0.000000
vt 1.340000 -0.214675 0.000000
vt 0.380000 -0.161007 0.000000
vt 1.340000 -0.161007 0.000000
vt 0.380000 -0.107338 0.000000
vt 1.340000 -0.107338 0.000000
vt 0.380000 -0.053669 0.000000
vt 1.340000 -0.053669 0.000000
vt 0.380000 0.000000 0.000000
vt 1.340000 0.000000 0.000000
vt 0.380000 0.053669 0.000000
vt 1.340000 0.053669 0.000000
vt 0.380000 0.107338 0.000000
vt 1.340000 0.107338 0.000000
vt 0.380000 0.161007 0.000000
vt 1.340000 0.161007 0.000000
vt 0.380000 0.214675 0.000000
vt 1.340000 0.214675 0.000000
vt 33.355513 -0.471239 0.000000
vt 32.237849 -0.471239 0.000000
vt 33.355513 -0.549779 0.000000
vt 32.237849 -0.549779 0.000000
vt 33.355513 -0.628319 0.000000
vt 32.237849 -0.628319 0.000000
vt 33.355513 -0.706858 0.000000
vt 32.237849 -0.706858 0.000000
vt -33.355513 0.235619 0.000000
vt -32.237849 0.235619 0.000000
vt -33.355513 0.314159 0.000000
vt -32.237849 0.314159 0.000000
vt -33.355513 0.392699 0.000000
vt -32.237849 0.392699 0.000000
vt -33.355513 0.471239 0.000000
vt -32.237849 0.471239 0.000000
vt 11.220722 0.085085 0.000000
vt 9.500722 0.085085 0.000000
vt 11.220722 0.000000 0.000000
vt 9.500722 0.000000 0.000000
vt 11.220722 -0.085085 0.000000
vt 9.500722 -0.085085 0.000000
vt 11.220722 -0.170170 0.000000
vt 9.500722 -0.170170 0.000000
vt 11.220722 -0.255254 0.000000
vt 9.500722 -0.255254 0.000000
vt 11.220722 -0.340339 0.000000
vt 9.500722 -0.340339 0.000000
vt 11.220722 -0.425424 0.000000
vt 9.500722 -0.425424 0.000000
vt 11.220722 -0.510509 0.000000
vt 9.500722 -0.510509 0.000000
vt 11.220722 0.510509 0.000000
vt 9.500722 0.510509 0.000000
vt 11.220722 0.425424 0.000000
vt 9.500722 0.425424 0.000000
vt 11.220722 0.340339 0.000000
vt 9.500722 0.340339 0.000000
vt 11.220722 0.255254 0.000000
vt 9.500722 0.255254 0.000000
vt 11.220722 0.170170 0.000000
vt 9.500722 0.170170 0.000000
vt 0.674843 0.042426 0.000000
vt -0.199843 0.042426 0.000000
vt 0.657522 -0.000000 0.000000
vt -0.199843 0.000000 0.000000
vt -0.000000 0.000000 0.000000
vt -0.042426 0.000000 0.000000
vt -0.000000 -0.240855 0.000000
vt -0.042426 -0.240855 0.000000
vt 0.000000 -0.481711 0.000000
vt -0.042426 -0.481711 0.000000
vt -0.000000 -0.722566 0.000000
vt -0.042426 -0.722566 0.000000
vt -0.000000 -0.963422 0.000000
vt -0.042426 -0.963422 0.000000
vt 0.183309 0.042426 0.000000
vt -0.165988 0.042426 0.000000
vt 0.165988 -0.000000 0.000000
vt -0.165988 -0.000000 0.000000
vt 0.299686 0.000000 0.000000
vt 0.282365 0.042426 0.000000
vt -0.575000 -0.000000 0.000000
vt -0.575000 0.042426 0.000000
vt 0.000000 -1.445133 0.000000
vt 0.042426 -1.445133 0.000000
vt -0.000000 -1.204277 0.000000
vt 0.042426 -1.204277 0.000000
vt -0.000000 -0.963422 0.000000
vt 0.042426 -0.963422 0.000000
vt -0.000000 -0.722566 0.000000
vt 0.042426 -0.722566 0.000000
vt -0.000000 -0.481711 0.000000
vt 0.042426 -0.481711 0.000000
vt 0.165135 0.000000 0.000000
vt 0.147815 0.042426 0.000000
vt -0.184162 -0.000000 0.000000
vt -0.184162 0.042426 0.000000
vt 0.183309 0.042426 0.000000
vt -0.165988 0.042426 0.000000
vt 0.165988 -0.000000 0.000000
vt -0.165988 -0.000000 0.000000
vt -0.000000 -0.963422 0.000000
vt 0.042426 -0.963422 0.000000
vt -0.000000 -0.722566 0.000000
vt 0.042426 -0.722566 0.000000
vt 0.000000 -0.481711 0.000000
vt 0.042426 -0.481711 0.000000
vt -0.000000 -0.240855 0.000000
vt 0.042426 -0.240855 0.000000
vt 0.000000 0.000000 0.000000
vt 0.042426 0.000000 0.000000
vt -0.575000 -0.000000 0.000000
vt 0.575000 -0.000000 0.000000
vt -0.575000 0.042426 0.000000
vt 0.575000 0.042426 0.000000
vt -0.000000 0.000000 0.000000
vt 0.042426 0.000000 0.000000
vt -0.000000 0.240855 0.000000
vt 0.042426 0.240855 0.000000
vt -0.000000 0.481711 0.000000
vt 0.042426 0.481711 0.000000
vt -0.000000 0.722566 0.000000
vt 0.042426 0.722566 0.000000
vt 0.262500 0.042426 0.000000
vt -0.262500 0.042426 0.000000
vt 0.262500 -0.000000 0.000000
vt -0.262500 0.000000 0.000000
vt -1.410446 0.000000 0.000000
vt -1.427767 0.042426 0.000000
vt -1.759743 0.000000 0.000000
vt -1.759743 0.042426 0.000000
vt -0.000000 -0.481711 0.000000
vt -0.042426 -0.481711 0.000000
vt -0.000000 -0.722566 0.000000
vt -0.042426 -0.722566 0.000000
vt -0.000000 -0.963422 0.000000
vt -0.042426 -0.963422 0.000000
vt -0.000000 -1.204277 0.000000
vt -0.042426 -1.204277 0.000000
vt 0.000000 -1.445133 0.000000
vt -0.042426 -1.445133 0.000000
vt -0.575000 -0.000000 0.000000
vt 0.575000 -0.000000 0.000000
vt -0.575000 0.042426 0.000000
vt 0.575000 0.042426 0.000000
vt -0.000000 -1.445133 0.000000
vt -0.042426 -1.445133 0.000000
vt 0.000000 -1.685988 0.000000
vt -0.042426 -1.685988 0.000000
vt -0.000000 -1.926843 0.000000
vt -0.042426 -1.926843 0.000000
vt -0.000000 -2.167699 0.000000
vt -0.042426 -2.167699 0.000000
vt 1.700000 0.042426 0.000000
vt 1.175000 0.042426 0.000000
vt 1.700000 0.000000 0.000000
vt 1.175000 0.000000 0.000000
vn -0.100000 0.000000 -0.000000
vn -0.100000 0.000000 -0.000000
vn -0.086603 -0.050000 0.000000
vn -0.086603 -0.050000 0.000000
vn -0.050000 -0.086603 0.000000
vn -0.050000 -0.086603 0.000000
vn -0.000000 -0.100000 0.000000
vn -0.000000 -0.100000 0.000000
vn 0.050000 -0.086603 0.000000
vn 0.050000 -0.086603 0.000000
vn 0.050000 -0.086603 0.000000
vn 0.050000 -0.086603 0.000000
vn 0.050000 -0.086603 0.000000
vn 0.050000 -0.086603 0.000000
vn 0.100000 0.000000 0.000000
vn 0.100000 0.000000 0.000000
vn 0.100000 0.000000 0.000000
vn 0.100000 0.000000 0.000000
vn 0.100000 0.000000 0.000000
vn 0.100000 0.000000 0.000000
vn 0.100000 0.000000 0.000000
vn 0.100000 0.000000 0.000000
vn 0.100000 0.000000 0.000000
vn 0.100000 0.000000 0.000000
vn 0.100000 0.000000 0.000000
vn 0.100000 0.000000 0.000000
vn 0.100000 0.000000 0.000000
vn 0.100000 0.000000 0.000000
vn 0.100000 0.000000 0.000000
vn 0.100000 0.000000 0.000000
vn -0.100000 0.000000 -0.000000
vn -0.100000 0.000000 -0.000000
vn -0.086603 0.050000 -0.000000
vn -0.086603 0.050000 -0.000000
vn -0.050000 0.086603 -0.000000
vn -0.050000 0.086603 -0.000000
vn -0.000000 0.100000 -0.000000
vn -0.000000 0.100000 -0.000000
vn -0.100000 -0.000000 0.000000
vn -0.100000 -0.000000 0.000000
vn -0.100000 -0.000000 0.000000
vn -0.100000 -0.000000 0.000000
vn -0.000000 -0.100000 0.000000
vn -0.000000 -0.100000 0.000000
vn -0.050000 -0.086603 0.000000
vn -0.050000 -0.086603 0.000000
vn -0.086603 -0.050000 0.000000
vn -0.086603 -0.050000 0.000000
vn 0.050000 -0.086603 0.000000
vn 0.050000 -0.086603 0.000000
vn -0.000000 0.100000 0.000000
vn -0.000000 0.100000 0.000000
vn 0.000000 0.000000 0.100000
vn 0.000000 0.000000 0.100000
vn 0.000000 0.000000 0.100000
vn 0.000000 0.000000 0.100000
vn 0.000000 0.000000 0.100000
vn 0.000000 0.000000 0.100000
vn 0.000000 0.000000 0.100000
vn 0.000000 0.000000 0.100000
vn 0.000000 0.000000 0.100000
vn 0.000000 0.000000 0.100000
vn 0.000000 0.000000 0.100000
vn 0.000000 0.000000 0.100000
vn 0.000000 0.000000 0.100000
vn 0.000000 0.000000 0.100000
vn 0.000000 0.000000 0.100000
vn 0.000000 0.000000 0.100000
vn 0.000000 0.000000 0.100000
vn 0.000000 0.000000 0.100000
vn 0.000000 0.000000 0.100000
vn 0.000000 0.000000 0.100000
vn 0.000000 0.000000 0.100000
vn 0.000000 0.000000 0.100000
vn 0.000000 0.000000 0.100000
vn 0.000000 0.000000 0.100000
vn 0.000000 0.000000 0.100000
vn 0.000000 0.000000 0.100000
vn 0.000000 0.000000 0.100000
vn 0.000000 0.000000 0.100000
vn 0.000000 0.000000 0.100000
vn 0.000000 0.000000 0.100000
vn 0.000000 0.000000 0.100000
vn 0.000000 0.000000 0.100000
vn 0.000000 0.000000 0.100000
vn 0.000000 0.000000 0.100000
vn 0.000000 0.000000 0.100000
vn 0.000000 0.000000 -0.100000
vn 0.000000 0.000000 -0.100000
vn 0.000000 0.000000 -0.100000
vn 0.000000 0.000000 -0.100000
vn 0.000000 0.000000 -0.100000
vn 0.000000 0.000000 -0.100000
vn 0.000000 0.000000 -0.100000
vn 0.000000 0.000000 -0.100000
vn 0.000000 0.000000 -0.100000
vn 0.000000 0.000000 -0.100000
vn 0.000000 0.000000 -0.100000
vn 0.000000 0.000000 -0.100000
vn 0.000000 0.000000 -0.100000
vn 0.000000 0.000000 -0.100000
vn 0.000000 0.000000 -0.100000
vn 0.000000 0.000000 -0.100000
vn 0.000000 0.000000 -0.100000
vn 0.000000 0.000000 -0.100000
vn 0.000000 0.000000 -0.100000
vn 0.000000 0.000000 -0.100000
vn 0.000000 0.000000 -0.100000
vn 0.000000 0.000000 -0.100000
vn 0.000000 0.000000 -0.100000
vn 0.000000 0.000000 -0.100000
vn 0.000000 0.000000 -0.100000
vn 0.000000 0.000000 -0.100000
vn 0.000000 0.000000 -0.100000
vn 0.000000 0.000000 -0.100000
vn 0.000000 0.000000 -0.100000
vn 0.000000 0.000000 -0.100000
vn 0.000000 0.000000 -0.100000
vn 0.000000 0.000000 -0.100000
vn 0.000000 0.000000 -0.100000
vn 0.000000 0.000000 -0.100000
vn 0.000000 0.000000 -0.100000
vn -0.050000 -0.086603 0.000000
vn -0.050000 -0.086603 0.000000
vn -0.050000 -0.086603 0.000000
vn -0.050000 -0.086603 0.000000
vn -0.050000 -0.086603 0.000000
vn -0.050000 -0.086603 0.000000
vn 0.000000 0.000000 0.100000
vn 0.000000 0.000000 0.100000
vn 0.000000 0.000000 0.100000
vn 0.000000 0.000000 0.100000
vn 0.000000 0.000000 0.100000
vn 0.000000 0.000000 0.100000
vn 0.000000 0.000000 0.100000
vn 0.000000 0.000000 0.100000
vn 0.000000 0.000000 0.100000
vn 0.000000 0.000000 0.100000
vn 0.000000 0.000000 0.100000
vn 0.000000 0.000000 0.100000
vn 0.000000 0.000000 0.100000
vn 0.000000 0.000000 0.100000
vn 0.000000 0.000000 0.100000
vn 0.000000 0.000000 0.100000
vn 0.000000 0.000000 0.100000
vn 0.000000 0.000000 0.100000
vn 0.000000 0.000000 0.100000
vn 0.000000 0.000000 0.100000
vn 0.000000 0.000000 -0.100000
vn 0.000000 0.000000 -0.100000
vn 0.000000 0.000000 -0.100000
vn 0.000000 0.000000 -0.100000
vn 0.000000 0.000000 -0.100000
vn 0.000000 0.000000 -0.100000
vn 0.000000 0.000000 -0.100000
vn 0.000000 0.000000 -0.100000
vn 0.000000 0.000000 -0.100000
vn 0.000000 0.000000 -0.100000
vn 0.000000 0.000000 -0.100000
vn 0.000000 0.000000 -0.100000
vn 0.000000 0.000000 -0.100000
vn 0.000000 0.000000 -0.100000
vn 0.000000 0.000000 -0.100000
vn 0.000000 0.000000 -0.100000
vn 0.000000 0.000000 -0.100000
vn 0.000000 0.000000 -0.100000
vn 0.000000 0.000000 -0.100000
vn 0.000000 0.000000 -0.100000
vn -0.086603 -0.050000 0.000000
vn -0.086603 -0.050000 0.000000
vn -0.100000 0.000000 0.000000
vn -0.100000 0.000000 0.000000
vn -0.086603 0.050000 0.000000
vn -0.086603 0.050000 0.000000
vn -0.050000 0.086603 0.000000
vn -0.050000 0.086603 0.000000
vn -0.000000 0.100000 0.000000
vn -0.000000 0.100000 0.000000
vn 0.050000 0.086603 0.000000
vn 0.050000 0.086603 0.000000
vn 0.086603 0.050000 0.000000
vn 0.086603 0.050000 0.000000
vn 0.100000 0.000000 0.000000
vn 0.100000 0.000000 0.000000
vn 0.086603 -0.050000 0.000000
vn 0.086603 -0.050000 0.000000
vn 0.050000 -0.086603 0.000000
vn 0.050000 -0.086603 0.000000
vn -0.000000 -0.100000 0.000000
vn -0.000000 -0.100000 0.000000
vn -0.050000 -0.086603 0.000000
vn -0.050000 -0.086603 0.000000
vn -0.086603 -0.050000 0.000000
vn -0.086603 -0.050000 0.000000
vn -0.100000 0.000000 0.000000
vn -0.100000 0.000000 0.000000
vn -0.086603 0.050000 0.000000
vn -0.086603 0.050000 0.000000
vn -0.050000 0.086603 0.000000
vn -0.050000 0.086603 0.000000
vn -0.000000 0.100000 0.000000
vn -0.000000 0.100000 0.000000
vn 0.050000 0.086603 0.000000
vn 0.050000 0.086603 0.000000
vn 0.086603 0.050000 0.000000
vn 0.086603 0.050000 0.000000
vn 0.100000 0.000000 0.000000
vn 0.100000 0.000000 0.000000
vn 0.086603 -0.050000 0.000000
vn 0.086603 -0.050000 0.000000
vn 0.050000 -0.086603 0.000000
vn 0.050000 -0.086603 0.000000
vn -0.000000 -0.100000 0.000000
vn -0.000000 -0.100000 0.000000
vn -0.050000 -0.086603 0.000000
vn -0.050000 -0.086603 0.000000
vn 0.000000 0.000000 -0.100000
vn 0.000000 0.000000 -0.100000
vn 0.000000 0.000000 -0.100000
vn 0.000000 0.000000 -0.100000
vn 0.000000 0.000000 -0.100000
vn 0.000000 0.000000 -0.100000
vn 0.000000 0.000000 -0.100000
vn 0.000000 0.000000 -0.100000
vn 0.000000 0.000000 -0.100000
vn 0.000000 0.000000 -0.100000
vn 0.000000 0.000000 -0.100000
vn 0.000000 0.000000 -0.100000
vn 0.000000 0.000000 -0.100000
vn 0.000000 0.000000 -0.100000
vn 0.000000 0.000000 -0.100000
vn 0.000000 0.000000 -0.100000
vn 0.100000 0.000000 0.000000
vn 0.100000 0.000000 0.000000
vn 0.100000 0.000000 0.000000
vn 0.100000 0.000000 0.000000
vn 0.000000 0.000000 0.100000
vn 0.000000 0.000000 0.100000
vn 0.000000 0.000000 0.100000
vn 0.000000 0.000000 0.100000
vn 0.000000 0.000000 0.100000
vn 0.000000 0.000000 0.100000
vn 0.000000 0.000000 0.100000
vn 0.000000 0.000000 0.100000
vn 0.000000 0.000000 0.100000
vn 0.000000 0.000000 0.100000
vn 0.000000 0.000000 0.100000
vn 0.000000 0.000000 0.100000
vn 0.000000 0.000000 0.100000
vn 0.000000 0.000000 0.100000
vn 0.000000 0.000000 0.100000
vn 0.000000 0.000000 0.100000
vn 0.000000 -0.100000 0.000000
vn 0.000000 -0.100000 0.000000
vn 0.000000 -0.100000 0.000000
vn 0.000000 -0.100000 0.000000
vn 0.000000 -0.100000 0.000000
vn 0.000000 -0.100000 0.000000
vn 0.000000 -0.100000 0.000000
vn 0.000000 -0.100000 0.000000
vn 0.000000 -0.100000 0.000000
vn 0.000000 -0.100000 0.000000
vn 0.000000 0.100000 0.000000
vn 0.000000 0.100000 0.000000
vn 0.000000 0.100000 0.000000
vn 0.000000 0.100000 0.000000
vn 0.000000 0.100000 0.000000
vn 0.000000 0.100000 0.000000
vn 0.000000 0.100000 0.000000
vn 0.000000 0.100000 0.000000
vn 0.000000 0.100000 0.000000
vn 0.000000 0.100000 0.000000
vn -0.086603 -0.050000 0.000000
vn -0.086603 -0.050000 0.000000
vn -0.100000 -0.000000 0.000000
vn -0.100000 -0.000000 0.000000
vn -0.086603 0.050000 0.000000
vn -0.086603 0.050000 0.000000
vn -0.050000 0.086603 0.000000
vn -0.050000 0.086603 0.000000
vn 0.000000 0.100000 0.000000
vn 0.000000 0.100000 0.000000
vn 0.050000 0.086603 0.000000
vn 0.050000 0.086603 0.000000
vn 0.086603 0.050000 0.000000
vn 0.086603 0.050000 0.000000
vn 0.100000 -0.000000 0.000000
vn 0.100000 -0.000000 0.000000
vn 0.086603 -0.050000 0.000000
vn 0.086603 -0.050000 0.000000
vn 0.050000 -0.086603 0.000000
vn 0.050000 -0.086603 0.000000
vn 0.000000 -0.100000 0.000000
vn 0.000000 -0.100000 0.000000
vn -0.050000 -0.086603 0.000000
vn -0.050000 -0.086603 0.000000
vn 0.050000 0.000000 -0.086603
vn 0.050000 0.000000 -0.086603
vn 0.086603 0.000000 -0.050000
vn 0.086603 0.000000 -0.050000
vn 0.086603 0.000000 0.050000
vn 0.086603 0.000000 0.050000
vn 0.050000 0.000000 0.086603
vn 0.050000 0.000000 0.086603
vn -0.086603 -0.050000 0.000000
vn -0.086603 -0.050000 0.000000
vn -0.100000 0.000000 0.000000
vn -0.100000 0.000000 0.000000
vn -0.086603 0.050000 0.000000
vn -0.086603 0.050000 0.000000
vn -0.050000 0.086603 0.000000
vn -0.050000 0.086603 0.000000
vn -0.000000 0.100000 0.000000
vn -0.000000 0.100000 0.000000
vn 0.050000 0.086603 0.000000
vn 0.050000 0.086603 0.000000
vn 0.086603 0.050000 0.000000
vn 0.086603 0.050000 0.000000
vn 0.100000 0.000000 0.000000
vn 0.100000 0.000000 0.000000
vn 0.086603 -0.050000 0.000000
vn 0.086603 -0.050000 0.000000
vn 0.050000 -0.086603 0.000000
vn 0.050000 -0.086603 0.000000
vn -0.000000 -0.100000 0.000000
vn -0.000000 -0.100000 0.000000
vn -0.050000 -0.086603 0.000000
vn -0.050000 -0.086603 0.000000
vn -0.070711 -0.000000 0.070711
vn -0.070711 -0.000000 0.070711
vn -0.070711 -0.000000 0.070711
vn -0.070711 -0.000000 0.070711
vn -0.061237 -0.035355 0.070711
vn -0.061237 -0.035355 0.070711
vn -0.035355 -0.061237 0.070711
vn -0.035355 -0.061237 0.070711
vn 0.000000 -0.070711 0.070711
vn -0.000000 -0.070711 0.070711
vn 0.035355 -0.061237 0.070711
vn 0.035355 -0.061237 0.070711
vn 0.035355 -0.061237 0.070711
vn 0.035355 -0.061237 0.070711
vn -0.070711 -0.000000 -0.070711
vn -0.070711 -0.000000 -0.070711
vn -0.070711 -0.000000 -0.070711
vn -0.070711 -0.000000 -0.070711
vn -0.061237 -0.035355 -0.070711
vn -0.061237 -0.035355 -0.070711
vn -0.035355 -0.061237 -0.070711
vn -0.035355 -0.061237 -0.070711
vn -0.000000 -0.070711 -0.070711
vn 0.000000 -0.070711 -0.070711
vn 0.035355 -0.061237 -0.070711
vn 0.035355 -0.061237 -0.070711
vn 0.035355 -0.061237 -0.070711
vn 0.035355 -0.061237 -0.070711
vn 0.035355 -0.061237 0.070711
vn 0.035355 -0.061237 0.070711
vn 0.035355 -0.061237 0.070711
vn 0.035355 -0.061237 0.070711
vn -0.000000 -0.070711 0.070711
vn 0.000000 -0.070711 0.070711
vn -0.035355 -0.061237 0.070711
vn -0.035355 -0.061237 0.070711
vn -0.061237 -0.035355 0.070711
vn -0.061237 -0.035355 0.070711
vn -0.070711 0.000000 0.070711
vn -0.070711 0.000000 0.070711
vn -0.070711 -0.000000 0.070711
vn -0.070711 -0.000000 0.070711
vn -0.061237 0.035355 0.070711
vn -0.061237 0.035355 0.070711
vn -0.035355 0.061237 0.070711
vn -0.035355 0.061237 0.070711
vn -0.000000 0.070711 0.070711
vn -0.000000 0.070711 0.070711
vn -0.000000 0.070711 0.070711
vn -0.000000 0.070711 0.070711
vn 0.035355 -0.061237 -0.070711
vn 0.035355 -0.061237 -0.070711
vn 0.035355 -0.061237 -0.070711
vn 0.035355 -0.061237 -0.070711
vn 0.000000 -0.070711 -0.070711
vn -0.000000 -0.070711 -0.070711
vn -0.035355 -0.061237 -0.070711
vn -0.035355 -0.061237 -0.070711
vn -0.061237 -0.035355 -0.070711
vn -0.061237 -0.035355 -0.070711
vn -0.070711 -0.000000 -0.070711
vn -0.070711 -0.000000 -0.070711
vn -0.070711 -0.000000 -0.070711
vn -0.070711 -0.000000 -0.070711
vn -0.061237 0.035355 -0.070711
vn -0.061237 0.035355 -0.070711
vn -0.035355 0.061237 -0.070711
vn -0.035355 0.061237 -0.070711
vn -0.000000 0.070711 -0.070711
vn -0.000000 0.070711 -0.070711
vn -0.000000 0.070711 -0.070711
vn -0.000000 0.070711 -0.070711
usemtl Opaque(230,230,230)
f 1/1/1 2/2/2 10/3/3
f 10/3/3 2/2/2 3/4/4
f 10/3/3 3/4/4 9/5/5
f 9/5/5 3/4/4 4/6/6
f 9/5/5 4/6/6 8/7/7
f 8/7/7 4/6/6 5/8/8
f 8/7/7 5/8/8 7/9/9
f 7/9/9 5/8/8 6/10/10
f 12/11/11 13/12/12 11/13/13
f 11/13/13 13/12/12 14/14/14
f 16/15/15 17/16/16 15/17/17
f 15/17/17 17/16/16 18/18/18
f 15/17/17 18/18/18 28/19/19
f 28/19/19 18/18/18 19/20/20
f 28/19/19 19/20/20 20/21/21
f 12/22/22 11/23/23 16/15/15
f 16/15/15 11/23/23 17/16/16
f 28/19/19 20/21/21 27/24/24
f 27/24/24 20/21/21 21/25/25
f 27/24/24 21/25/25 26/26/26
f 26/26/26 21/25/25 22/27/27
f 26/26/26 22/27/27 25/28/28
f 25/28/28 22/27/27 24/29/29
f 24/29/29 22/27/27 23/30/30
f 29/31/31 30/32/32 36/33/33
f 36/33/33 30/32/32 31/34/34
f 36/33/33 31/34/34 35/35/35
f 35/35/35 31/34/34 32/36/36
f 35/35/35 32/36/36 34/37/37
f 34/37/37 32/36/36 33/38/38
f 38/39/39 39/40/40 37/41/41
f 37/41/41 39/40/40 29/42/31
f 29/42/31 39/40/40 40/43/42
f 29/42/31 40/43/42 30/44/32
f 30/44/32 40/43/42 1/45/1
f 1/45/1 40/43/42 2/46/2
f 14/47/14 13/48/12 46/49/43
f 46/49/43 13/48/12 41/50/44
f 46/49/43 41/50/44 45/51/45
f 45/51/45 41/50/44 42/52/46
f 45/51/45 42/52/46 44/53/47
f 44/53/47 42/52/46 43/54/48
f 44/53/47 43/54/48 37/55/41
f 37/55/41 43/54/48 38/56/39
f 6/57/10 24/58/49 7/59/9
f 7/59/9 24/58/49 23/60/50
f 33/61/38 20/62/51 34/63/37
f 34/63/37 20/62/51 19/64/52
f 21/65/53 56/66/54 22/67/55
f 22/67/55 56/66/54 57/68/56
f 22/67/55 57/68/56 79/69/57
f 79/69/57 57/68/56 58/70/58
f 79/69/57 58/70/58 78/71/59
f 78/71/59 58/70/58 59/72/60
f 78/71/59 59/72/60 77/73/61
f 77/73/61 59/72/60 76/74/62
f 76/74/62 59/72/60 60/75/63
f 76/74/62 60/75/63 75/76/64
f 75/76/64 60/75/63 61/77/65
f 75/76/64 61/77/65 51/78/66
f 51/78/66 61/77/65 50/79/67
f 50/79/67 61/77/65 62/80/68
f 50/79/67 62/80/68 49/81/69
f 49/81/69 62/80/68 48/82/70
f 48/82/70 62/80/68 63/83/71
f 48/82/70 63/83/71 64/84/72
f 56/66/54 21/65/53 67/85/73
f 67/85/73 21/65/53 47/86/74
f 67/85/73 47/86/74 66/87/75
f 66/87/75 47/86/74 65/88/76
f 65/88/76 47/86/74 64/84/72
f 64/84/72 47/86/74 48/82/70
f 75/76/64 51/78/66 74/89/77
f 74/89/77 51/78/66 52/90/78
f 74/89/77 52/90/78 53/91/79
f 54/92/80 72/93/81 53/91/79
f 53/91/79 72/93/81 73/94/82
f 53/91/79 73/94/82 74/89/77
f 55/95/83 70/96/84 54/92/80
f 54/92/80 70/96/84 71/97/85
f 54/92/80 71/97/85 72/93/81
f 22/67/55 68/98/86 55/95/83
f 55/95/83 68/98/86 69/99/87
f 55/95/83 69/99/87 70/96/84
f 79/69/57 68/98/86 22/67/55
f 81/100/88 95/101/89 80/102/90
f 80/102/90 95/101/89 96/103/91
f 80/102/90 96/103/91 88/104/92
f 88/104/92 96/103/91 106/105/93
f 88/104/92 106/105/93 107/106/94
f 81/100/88 82/107/95 95/101/89
f 95/101/89 82/107/95 94/108/96
f 94/108/96 82/107/95 93/109/97
f 93/109/97 82/107/95 83/110/98
f 93/109/97 83/110/98 92/111/99
f 92/111/99 83/110/98 91/112/100
f 91/112/100 83/110/98 90/113/101
f 90/113/101 83/110/98 18/114/102
f 90/113/101 18/114/102 89/115/103
f 89/115/103 18/114/102 17/116/104
f 89/115/103 17/116/104 100/117/105
f 100/117/105 17/116/104 102/118/106
f 100/117/105 102/118/106 99/119/107
f 99/119/107 102/118/106 103/120/108
f 99/119/107 103/120/108 98/121/109
f 98/121/109 103/120/108 104/122/110
f 98/121/109 104/122/110 105/123/111
f 102/118/106 17/116/104 101/124/112
f 101/124/112 17/116/104 84/125/113
f 101/124/112 84/125/113 112/126/114
f 112/126/114 84/125/113 111/127/115
f 111/127/115 84/125/113 85/128/116
f 111/127/115 85/128/116 110/129/117
f 110/129/117 85/128/116 109/130/118
f 109/130/118 85/128/116 86/131/119
f 109/130/118 86/131/119 108/132/120
f 108/132/120 86/131/119 107/106/94
f 107/106/94 86/131/119 87/133/121
f 107/106/94 87/133/121 88/104/92
f 96/103/91 97/134/122 106/105/93
f 106/105/93 97/134/122 105/123/111
f 105/123/111 97/134/122 98/121/109
f 26/135/123 113/136/124 15/137/125
f 15/137/125 113/136/124 114/138/126
f 114/138/126 113/136/124 39/139/127
f 39/139/127 113/136/124 40/140/128
f 116/141/129 126/142/130 115/143/131
f 115/143/131 126/142/130 127/144/132
f 115/143/131 127/144/132 114/145/133
f 114/145/133 127/144/132 128/146/134
f 114/145/133 128/146/134 129/147/135
f 126/142/130 116/141/129 125/148/136
f 125/148/136 116/141/129 117/149/137
f 125/148/136 117/149/137 124/150/138
f 124/150/138 117/149/137 118/151/139
f 124/150/138 118/151/139 123/152/140
f 123/152/140 118/151/139 122/153/141
f 122/153/141 118/151/139 119/154/142
f 122/153/141 119/154/142 121/155/143
f 121/155/143 119/154/142 16/156/144
f 121/155/143 16/156/144 120/157/145
f 120/157/145 16/156/144 15/158/146
f 120/157/145 15/158/146 131/159/147
f 131/159/147 15/158/146 130/160/148
f 130/160/148 15/158/146 129/147/135
f 129/147/135 15/158/146 114/145/133
f 25/161/149 137/162/150 26/163/151
f 26/163/151 137/162/150 138/164/152
f 26/163/151 138/164/152 139/165/153
f 137/162/150 25/161/149 148/166/154
f 148/166/154 25/161/149 132/167/155
f 148/166/154 132/167/155 147/168/156
f 147/168/156 132/167/155 133/169/157
f 147/168/156 133/169/157 146/170/158
f 146/170/158 133/169/157 145/171/159
f 145/171/159 133/169/157 134/172/160
f 145/171/159 134/172/160 144/173/161
f 144/173/161 134/172/160 135/174/162
f 144/173/161 135/174/162 143/175/163
f 143/175/163 135/174/162 136/176/164
f 143/175/163 136/176/164 142/177/165
f 142/177/165 136/176/164 113/178/166
f 142/177/165 113/178/166 141/179/167
f 141/179/167 113/178/166 140/180/168
f 140/180/168 113/178/166 26/163/151
f 140/180/168 26/163/151 139/165/153
f 79/181/169 138/182/170 68/183/171
f 68/183/171 138/182/170 137/184/172
f 68/183/171 137/184/172 69/185/173
f 69/185/173 137/184/172 148/186/174
f 69/185/173 148/186/174 70/187/175
f 70/187/175 148/186/174 147/188/176
f 70/187/175 147/188/176 71/189/177
f 71/189/177 147/188/176 146/190/178
f 71/189/177 146/190/178 72/191/179
f 72/191/179 146/190/178 145/192/180
f 72/191/179 145/192/180 73/193/181
f 73/193/181 145/192/180 144/194/182
f 73/193/181 144/194/182 74/195/183
f 74/195/183 144/194/182 143/196/184
f 74/197/183 143/198/184 75/199/185
f 75/199/185 143/198/184 142/200/186
f 75/199/185 142/200/186 76/201/187
f 76/201/187 142/200/186 141/202/188
f 76/201/187 141/202/188 77/203/189
f 77/203/189 141/202/188 140/204/190
f 77/203/189 140/204/190 78/205/191
f 78/205/191 140/204/190 139/206/192
f 78/205/191 139/206/192 79/181/169
f 79/181/169 139/206/192 138/182/170
f 131/207/193 102/208/194 120/209/195
f 120/209/195 102/208/194 101/210/196
f 120/209/195 101/210/196 121/211/197
f 121/211/197 101/210/196 112/212/198
f 121/211/197 112/212/198 122/213/199
f 122/213/199 112/212/198 111/214/200
f 122/213/199 111/214/200 123/215/201
f 123/215/201 111/214/200 110/216/202
f 123/215/201 110/216/202 124/217/203
f 124/217/203 110/216/202 109/218/204
f 124/217/203 109/218/204 125/219/205
f 125/219/205 109/218/204 108/220/206
f 125/219/205 108/220/206 126/221/207
f 126/221/207 108/220/206 107/222/208
f 126/223/207 107/224/208 127/225/209
f 127/225/209 107/224/208 106/226/210
f 127/225/209 106/226/210 128/227/211
f 128/227/211 106/226/210 105/228/212
f 128/227/211 105/228/212 129/229/213
f 129/229/213 105/228/212 104/230/214
f 129/229/213 104/230/214 130/231/215
f 130/231/215 104/230/214 103/232/216
f 130/231/215 103/232/216 131/207/193
f 131/207/193 103/232/216 102/208/194
f 149/233/217 154/234/218 28/235/219
f 28/235/219 154/234/218 155/236/220
f 28/235/219 155/236/220 156/237/221
f 150/238/222 151/239/223 149/233/217
f 149/233/217 151/239/223 152/240/224
f 149/233/217 152/240/224 153/241/225
f 15/242/226 160/243/227 150/238/222
f 150/238/222 160/243/227 161/244/228
f 150/238/222 161/244/228 162/245/229
f 28/235/219 157/246/230 15/242/226
f 15/242/226 157/246/230 158/247/231
f 15/242/226 158/247/231 159/248/232
f 153/241/225 154/234/218 149/233/217
f 156/237/221 157/246/230 28/235/219
f 159/248/232 160/243/227 15/242/226
f 162/245/229 151/239/223 150/238/222
f 163/249/233 164/250/234 166/251/235
f 166/251/235 164/250/234 165/252/236
f 167/253/237 172/254/238 26/255/239
f 26/255/239 172/254/238 173/256/240
f 26/255/239 173/256/240 174/257/241
f 168/258/242 169/259/243 167/253/237
f 167/253/237 169/259/243 170/260/244
f 167/253/237 170/260/244 171/261/245
f 27/262/246 178/263/247 168/258/242
f 168/258/242 178/263/247 179/264/248
f 168/258/242 179/264/248 180/265/249
f 26/255/239 175/266/250 27/262/246
f 27/262/246 175/266/250 176/267/251
f 27/262/246 176/267/251 177/268/252
f 171/261/245 172/254/238 167/253/237
f 174/257/241 175/266/250 26/255/239
f 177/268/252 178/263/247 27/262/246
f 180/265/249 169/259/243 168/258/242
f 26/269/253 15/270/254 167/271/255
f 167/271/255 15/270/254 150/272/256
f 167/271/255 150/272/256 164/273/257
f 164/273/257 150/272/256 181/274/258
f 164/273/257 181/274/258 182/275/259
f 164/273/257 163/276/260 167/271/255
f 167/271/255 163/276/260 184/277/261
f 184/277/261 163/276/260 183/278/262
f 165/279/263 168/280/264 166/281/265
f 166/281/265 168/280/264 187/282/266
f 166/281/265 187/282/266 188/283/267
f 185/284/268 186/285/269 165/279/263
f 165/279/263 186/285/269 149/286/270
f 165/279/263 149/286/270 168/280/264
f 168/280/264 149/286/270 28/287/271
f 168/280/264 28/287/271 27/288/272
f 180/289/273 152/290/274 169/291/275
f 169/291/275 152/290/274 151/292/276
f 169/293/275 151/294/276 170/295/277
f 170/295/277 151/294/276 162/296/278
f 170/295/277 162/296/278 171/297/279
f 171/297/279 162/296/278 161/298/280
f 171/297/279 161/298/280 172/299/281
f 172/299/281 161/298/280 160/300/282
f 172/299/281 160/300/282 173/301/283
f 173/301/283 160/300/282 159/302/284
f 173/301/283 159/302/284 174/303/285
f 174/303/285 159/302/284 158/304/286
f 174/303/285 158/304/286 175/305/287
f 175/305/287 158/304/286 157/306/288
f 175/305/287 157/306/288 176/307/289
f 176/307/289 157/306/288 156/308/290
f 176/307/289 156/308/290 177/309/291
f 177/309/291 156/308/290 155/310/292
f 177/309/291 155/310/292 178/311/293
f 178/311/293 155/310/292 154/312/294
f 178/311/293 154/312/294 179/313/295
f 179/313/295 154/312/294 153/314/296
f 179/313/295 153/314/296 180/289/273
f 180/289/273 153/314/296 152/290/274
f 150/315/222 149/316/217 181/317/297
f 181/317/297 149/316/217 186/318/298
f 181/317/297 186/318/298 182/319/299
f 182/319/299 186/318/298 185/320/300
f 182/319/299 185/320/300 164/321/234
f 164/321/234 185/320/300 165/322/236
f 163/323/233 166/324/235 183/325/301
f 183/325/301 166/324/235 188/326/302
f 183/325/301 188/326/302 184/327/303
f 184/327/303 188/326/302 187/328/304
f 184/327/303 187/328/304 167/329/237
f 167/329/237 187/328/304 168/330/242
f 67/331/305 90/332/306 56/333/307
f 56/333/307 90/332/306 89/334/308
f 56/333/307 89/334/308 57/335/309
f 57/335/309 89/334/308 100/336/310
f 57/335/309 100/336/310 58/337/311
f 58/337/311 100/336/310 99/338/312
f 58/337/311 99/338/312 59/339/313
f 59/339/313 99/338/312 98/340/314
f 59/339/313 98/340/314 60/341/315
f 60/341/315 98/340/314 97/342/316
f 60/341/315 97/342/316 61/343/317
f 61/343/317 97/342/316 96/344/318
f 61/343/317 96/344/318 62/345/319
f 62/345/319 96/344/318 95/346/320
f 62/347/319 95/348/320 63/349/321
f 63/349/321 95/348/320 94/350/322
f 63/349/321 94/350/322 64/351/323
f 64/351/323 94/350/322 93/352/324
f 64/351/323 93/352/324 65/353/325
f 65/353/325 93/352/324 92/354/326
f 65/353/325 92/354/326 66/355/327
f 66/355/327 92/354/326 91/356/328
f 66/355/327 91/356/328 67/331/305
f 67/331/305 91/356/328 90/332/306
f 39/357/329 38/358/330 114/359/331
f 114/359/331 38/358/330 115/360/332
f 115/361/332 38/362/330 116/363/333
f 116/363/333 38/362/330 43/364/334
f 116/363/333 43/364/334 117/365/335
f 117/365/335 43/364/334 42/366/336
f 117/365/335 42/366/336 118/367/337
f 118/367/337 42/366/336 41/368/338
f 118/367/337 41/368/338 119/369/339
f 119/369/339 41/368/338 13/370/340
f 16/371/341 119/372/339 12/373/342
f 12/373/342 119/372/339 13/374/340
f 40/375/343 113/376/344 2/377/345
f 2/377/345 113/376/344 136/378/346
f 2/379/345 136/380/346 3/381/347
f 3/381/347 136/380/346 135/382/348
f 3/381/347 135/382/348 4/383/349
f 4/383/349 135/382/348 134/384/350
f 4/383/349 134/384/350 5/385/351
f 5/385/351 134/384/350 133/386/352
f 5/385/351 133/386/352 6/387/353
f 6/387/353 133/386/352 132/388/354
f 25/389/355 24/390/356 132/391/354
f 132/391/354 24/390/356 6/392/353
f 22/393/357 55/394/358 23/395/359
f 23/395/359 55/394/358 7/396/360
f 7/397/360 55/398/358 8/399/361
f 8/399/361 55/398/358 54/400/362
f 8/399/361 54/400/362 9/401/363
f 9/401/363 54/400/362 53/402/364
f 9/401/363 53/402/364 10/403/365
f 10/403/365 53/402/364 52/404/366
f 10/403/365 52/404/366 1/405/367
f 1/405/367 52/404/366 51/406/368
f 51/407/368 50/408/369 1/409/367
f 1/409/367 50/408/369 30/410/370
f 30/411/370 50/412/369 31/413/371
f 31/413/371 50/412/369 49/414/372
f 31/413/371 49/414/372 32/415/373
f 32/415/373 49/414/372 48/416/374
f 32/415/373 48/416/374 33/417/375
f 33/417/375 48/416/374 47/418/376
f 47/419/376 21/420/377 33/421/375
f 33/421/375 21/420/377 20/422/378
f 17/423/379 11/424/380 84/425/381
f 84/425/381 11/424/380 14/426/382
f 84/427/381 14/428/382 85/429/383
f 85/429/383 14/428/382 46/430/384
f 85/429/383 46/430/384 86/431/385
f 86/431/385 46/430/384 45/432/386
f 86/431/385 45/432/386 87/433/387
f 87/433/387 45/432/386 44/434/388
f 87/433/387 44/434/388 88/435/389
f 88/435/389 44/434/388 37/436/390
f 37/437/390 29/438/391 88/439/389
f 88/439/389 29/438/391 80/440/392
f 80/441/392 29/442/391 81/443/393
f 81/443/393 29/442/391 36/444/394
f 81/443/393 36/444/394 82/445/395
f 82/445/395 36/444/394 35/446/396
f 82/445/395 35/446/396 83/447/397
f 83/447/397 35/446/396 34/448/398
f 34/449/398 19/450/399 83/451/397
f 83/451/397 19/450/399 18/452/400
# 188 vertices
# 452 texture params
# 400 normals
# 388 facets

# 1 groups
