# WaveFront *.obj file (generated by Autodesk ATF)

mtllib Driving_Rod_2.mtl

g Body1

v -18.818432 -14.579725 -3.500000
v -18.818432 -14.579725 -7.900000
v -17.255274 -12.916539 -7.900000
v -16.594178 -10.731909 -7.900000
v -16.972908 -8.481083 -7.900000
v -18.312542 -6.633102 -7.900000
v -20.333919 -5.573059 -7.900000
v -22.615811 -5.521852 -7.900000
v -24.682704 -6.490154 -7.900000
v -26.103886 -8.276182 -7.900000
v -26.103886 -8.276182 -3.500000
v -24.682704 -6.490154 -3.500000
v -22.615811 -5.521852 -3.500000
v -20.333919 -5.573059 -3.500000
v -18.312542 -6.633102 -3.500000
v -16.972908 -8.481083 -3.500000
v -16.594178 -10.731909 -3.500000
v -17.255274 -12.916539 -3.500000
v -29.097394 -17.685434 -7.900000
v -29.495773 -27.551356 -7.900000
v -27.270652 -37.171334 -7.900000
v -22.580495 -45.860266 -7.900000
v -22.580495 -45.860266 -3.500000
v -27.270652 -37.171334 -3.500000
v -29.495773 -27.551356 -3.500000
v -29.097394 -17.685434 -3.500000
v -20.852124 -47.351034 -7.900000
v -18.641275 -47.918310 -7.900000
v -16.408659 -47.443883 -7.900000
v -14.619523 -46.026616 -7.900000
v -13.646697 -43.961849 -7.900000
v -13.692905 -41.679850 -7.900000
v -14.748518 -39.656156 -7.900000
v -16.593561 -38.312478 -7.900000
v -16.593561 -38.312478 -3.500000
v -14.748518 -39.656156 -3.500000
v -13.692905 -41.679850 -3.500000
v -13.646697 -43.961849 -3.500000
v -14.619523 -46.026616 -3.500000
v -16.408659 -47.443883 -3.500000
v -18.641275 -47.918310 -3.500000
v -20.852124 -47.351034 -3.500000
v -16.710156 -38.588893 -3.200000
v -17.867999 -37.917018 -3.200000
v -18.820567 -36.976470 -3.200000
v -19.507090 -35.827252 -3.200000
v -21.375546 -29.907521 -3.200000
v -21.954949 -23.727017 -3.200000
v -21.219292 -17.563158 -3.200000
v -20.758324 -16.306367 -3.200000
v -19.997164 -15.205162 -3.200000
v -18.984371 -14.329797 -3.200000
v -17.515002 -12.766401 -3.200000
v -16.893572 -10.712849 -3.200000
v -17.249578 -8.597073 -3.200000
v -18.508834 -6.859970 -3.200000
v -20.408928 -5.863530 -3.200000
v -22.553907 -5.815396 -3.200000
v -24.496786 -6.725599 -3.200000
v -25.832697 -8.404466 -3.200000
v -28.801934 -17.737427 -3.200000
v -29.197083 -27.523355 -3.200000
v -26.990003 -37.065332 -3.200000
v -22.337875 -45.683815 -3.200000
v -20.713206 -47.085136 -3.200000
v -18.635008 -47.618375 -3.200000
v -16.536349 -47.172414 -3.200000
v -14.854560 -45.840183 -3.200000
v -13.940104 -43.899302 -3.200000
v -13.983540 -41.754223 -3.200000
v -14.975816 -39.851951 -3.200000
v -18.534077 -10.414247 -3.200000
v -18.942699 -11.939247 -3.200000
v -20.059077 -13.055624 -3.200000
v -21.584077 -13.464247 -3.200000
v -23.109077 -13.055624 -3.200000
v -24.225454 -11.939247 -3.200000
v -24.634077 -10.414247 -3.200000
v -24.225454 -8.889247 -3.200000
v -23.109077 -7.772869 -3.200000
v -21.584077 -7.364247 -3.200000
v -20.059077 -7.772869 -3.200000
v -18.942699 -8.889247 -3.200000
v -15.986820 -42.919401 -3.200000
v -16.328455 -44.194401 -3.200000
v -17.261820 -45.127766 -3.200000
v -18.536820 -45.469401 -3.200000
v -19.811820 -45.127766 -3.200000
v -20.745184 -44.194401 -3.200000
v -21.086820 -42.919401 -3.200000
v -20.745184 -41.644401 -3.200000
v -19.811820 -40.711036 -3.200000
v -18.536820 -40.369401 -3.200000
v -17.261820 -40.711036 -3.200000
v -16.328455 -41.644401 -3.200000
v -18.984371 -14.329797 -8.200000
v -19.997164 -15.205162 -8.200000
v -20.758324 -16.306367 -8.200000
v -21.219292 -17.563158 -8.200000
v -21.954949 -23.727017 -8.200000
v -21.375546 -29.907521 -8.200000
v -19.507090 -35.827252 -8.200000
v -18.820567 -36.976470 -8.200000
v -17.867999 -37.917018 -8.200000
v -16.710156 -38.588893 -8.200000
v -14.975816 -39.851951 -8.200000
v -13.983540 -41.754223 -8.200000
v -13.940104 -43.899302 -8.200000
v -14.854560 -45.840183 -8.200000
v -16.536349 -47.172414 -8.200000
v -18.635008 -47.618375 -8.200000
v -20.713206 -47.085136 -8.200000
v -22.337875 -45.683815 -8.200000
v -26.990003 -37.065332 -8.200000
v -29.197083 -27.523355 -8.200000
v -28.801934 -17.737427 -8.200000
v -25.832697 -8.404466 -8.200000
v -24.496786 -6.725599 -8.200000
v -22.553907 -5.815396 -8.200000
v -20.408928 -5.863530 -8.200000
v -18.508834 -6.859970 -8.200000
v -17.249578 -8.597073 -8.200000
v -16.893572 -10.712849 -8.200000
v -17.515002 -12.766401 -8.200000
v -20.136820 -42.919401 -8.200000
v -19.922460 -43.719401 -8.200000
v -19.336820 -44.305042 -8.200000
v -18.536820 -44.519401 -8.200000
v -17.736820 -44.305042 -8.200000
v -17.151179 -43.719401 -8.200000
v -16.936820 -42.919401 -8.200000
v -17.151179 -42.119401 -8.200000
v -17.736820 -41.533761 -8.200000
v -18.536820 -41.319401 -8.200000
v -19.336820 -41.533761 -8.200000
v -19.922460 -42.119401 -8.200000
v -24.634077 -10.414247 -8.200000
v -24.225454 -11.939247 -8.200000
v -23.109077 -13.055624 -8.200000
v -21.584077 -13.464247 -8.200000
v -20.059077 -13.055624 -8.200000
v -18.942699 -11.939247 -8.200000
v -18.534077 -10.414247 -8.200000
v -18.942699 -8.889247 -8.200000
v -20.059077 -7.772869 -8.200000
v -21.584077 -7.364247 -8.200000
v -23.109077 -7.772869 -8.200000
v -24.225454 -8.889247 -8.200000
v -19.232178 -35.707156 -3.500000
v -19.232178 -35.707156 -7.900000
v -21.081503 -29.848037 -7.900000
v -21.654973 -23.730814 -7.900000
v -20.926849 -17.630066 -7.900000
v -20.926849 -17.630066 -3.500000
v -21.654973 -23.730814 -3.500000
v -21.081503 -29.848037 -3.500000
v -17.685865 -37.678633 -7.900000
v -18.584514 -36.791324 -7.900000
v -18.584514 -36.791324 -3.500000
v -17.685865 -37.678633 -3.500000
v -20.491973 -16.444414 -7.900000
v -19.773898 -15.405542 -7.900000
v -19.773898 -15.405542 -3.500000
v -20.491973 -16.444414 -3.500000
v -16.536820 -42.919401 -7.400000
v -16.804769 -43.919401 -7.400000
v -17.536820 -44.651452 -7.400000
v -18.536820 -44.919401 -7.400000
v -19.536820 -44.651452 -7.400000
v -20.268870 -43.919401 -7.400000
v -20.536820 -42.919401 -7.400000
v -20.268870 -41.919401 -7.400000
v -19.536820 -41.187350 -7.400000
v -18.536820 -40.919401 -7.400000
v -17.536820 -41.187350 -7.400000
v -16.804769 -41.919401 -7.400000
v -16.536820 -42.919401 -2.900000
v -16.804769 -41.919401 -2.900000
v -17.536820 -41.187350 -2.900000
v -18.536820 -40.919401 -2.900000
v -19.536820 -41.187350 -2.900000
v -20.268870 -41.919401 -2.900000
v -20.536820 -42.919401 -2.900000
v -20.268870 -43.919401 -2.900000
v -19.536820 -44.651452 -2.900000
v -18.536820 -44.919401 -2.900000
v -17.536820 -44.651452 -2.900000
v -16.804769 -43.919401 -2.900000
v -16.936820 -42.919401 -7.400000
v -17.151179 -43.719401 -7.400000
v -17.736820 -44.305042 -7.400000
v -18.536820 -44.519401 -7.400000
v -19.336820 -44.305042 -7.400000
v -19.922460 -43.719401 -7.400000
v -20.136820 -42.919401 -7.400000
v -19.922460 -42.119401 -7.400000
v -19.336820 -41.533761 -7.400000
v -18.536820 -41.319401 -7.400000
v -17.736820 -41.533761 -7.400000
v -17.151179 -42.119401 -7.400000
v -15.986820 -42.919401 -2.900000
v -16.328455 -44.194401 -2.900000
v -17.261820 -45.127766 -2.900000
v -18.536820 -45.469401 -2.900000
v -19.811820 -45.127766 -2.900000
v -20.745184 -44.194401 -2.900000
v -21.086820 -42.919401 -2.900000
v -20.745184 -41.644401 -2.900000
v -19.811820 -40.711036 -2.900000
v -18.536820 -40.369401 -2.900000
v -17.261820 -40.711036 -2.900000
v -16.328455 -41.644401 -2.900000
vt -0.470200 -0.492341 0.000000
vt -0.030200 -0.492341 0.000000
vt -0.470200 -0.262064 0.000000
vt -0.030200 -0.262064 0.000000
vt -0.030200 -0.031788 0.000000
vt -0.470200 -0.031788 0.000000
vt -0.030200 0.198489 0.000000
vt -0.470200 0.198489 0.000000
vt -0.030200 0.428765 0.000000
vt -0.470200 0.428765 0.000000
vt -0.030200 0.659042 0.000000
vt -0.470200 0.659042 0.000000
vt -0.030200 0.889318 0.000000
vt -0.470200 0.889318 0.000000
vt -0.030200 1.119595 0.000000
vt -0.470200 1.119595 0.000000
vt -0.470200 1.349871 0.000000
vt -0.030200 1.349871 0.000000
vt -0.470200 9.989046 0.000000
vt -0.030200 9.989046 0.000000
vt -0.470200 10.979396 0.000000
vt -0.030200 10.979396 0.000000
vt -0.470200 11.969745 0.000000
vt -0.030200 11.969745 0.000000
vt -0.470200 12.960095 0.000000
vt -0.030200 12.960095 0.000000
vt -0.470200 13.950445 0.000000
vt -0.030200 13.950445 0.000000
vt -0.470200 -1.256397 0.000000
vt -0.030200 -1.256397 0.000000
vt -0.470200 -1.026121 0.000000
vt -0.030200 -1.026121 0.000000
vt -0.030200 -0.795844 0.000000
vt -0.470200 -0.795844 0.000000
vt -0.030200 -0.565568 0.000000
vt -0.470200 -0.565568 0.000000
vt -0.030200 -0.335292 0.000000
vt -0.470200 -0.335292 0.000000
vt -0.030200 -0.105015 0.000000
vt -0.470200 -0.105015 0.000000
vt -0.030200 0.125261 0.000000
vt -0.470200 0.125261 0.000000
vt -0.030200 0.355538 0.000000
vt -0.470200 0.355538 0.000000
vt -0.470200 0.585814 0.000000
vt -0.030200 0.585814 0.000000
vt 0.372906 -1.125019 0.000000
vt 0.433524 -1.404421 0.000000
vt 0.488690 -1.192207 0.000000
vt 0.526860 -1.497758 0.000000
vt 0.662124 -1.318513 0.000000
vt 0.561024 -1.625258 0.000000
vt 0.761352 -1.508740 0.000000
vt 0.765695 -1.723248 0.000000
vt 0.674250 -1.917336 0.000000
vt 0.526860 -1.752758 0.000000
vt 0.506071 -2.050559 0.000000
vt 0.433524 -1.846094 0.000000
vt 0.296205 -2.095155 0.000000
vt 0.306024 -1.880258 0.000000
vt 0.178524 -1.846094 0.000000
vt 0.306024 -1.370258 0.000000
vt 0.277649 -1.030965 0.000000
vt 0.178524 -1.404421 0.000000
vt 0.208997 -0.916043 0.000000
vt 0.085187 -1.497758 0.000000
vt 0.022151 -0.324070 0.000000
vt -0.539295 -1.039851 0.000000
vt -0.035789 0.293981 0.000000
vt -0.760002 -0.085653 0.000000
vt -0.720488 0.892940 0.000000
vt -0.262840 1.472758 0.000000
vt -0.303702 1.625258 0.000000
vt -0.151202 1.361120 0.000000
vt 0.037777 0.910367 0.000000
vt 0.001298 1.320258 0.000000
vt 0.083873 1.036046 0.000000
vt 0.159989 1.146166 0.000000
vt 0.153798 1.361120 0.000000
vt 0.261269 1.233703 0.000000
vt 0.265436 1.472758 0.000000
vt 0.408206 1.390042 0.000000
vt 0.306298 1.625258 0.000000
vt 0.470349 1.595397 0.000000
vt 0.434748 1.806975 0.000000
vt 0.308822 1.980685 0.000000
vt 0.265436 1.777758 0.000000
vt 0.153798 1.889395 0.000000
vt 0.118813 2.080329 0.000000
vt 0.001298 1.930258 0.000000
vt -0.095685 2.085143 0.000000
vt -0.151202 1.889395 0.000000
vt -0.289973 1.994122 0.000000
vt -0.262840 1.777758 0.000000
vt -0.423564 1.826236 0.000000
vt 0.051024 -1.625258 0.000000
vt -0.074082 -1.901699 0.000000
vt 0.085187 -1.752758 0.000000
vt 0.088385 -2.041831 0.000000
vt 1.104524 1.520516 0.000000
vt 1.098333 1.305562 0.000000
vt 1.205803 1.432980 0.000000
vt 1.209970 1.193925 0.000000
vt 1.352740 1.276640 0.000000
vt 1.250833 1.041425 0.000000
vt 1.414883 1.071285 0.000000
vt 1.379282 0.859707 0.000000
vt 1.253357 0.685997 0.000000
vt 1.209970 0.888925 0.000000
vt 1.098333 0.777287 0.000000
vt 0.945833 1.346425 0.000000
vt 1.028408 1.630637 0.000000
vt 0.982311 1.756316 0.000000
vt 0.793333 1.305562 0.000000
vt 0.908745 2.372702 0.000000
vt 0.681695 1.193925 0.000000
vt 0.224047 1.773743 0.000000
vt 0.640833 1.041425 0.000000
vt 0.520970 0.840447 0.000000
vt 0.681695 0.888925 0.000000
vt 0.654562 0.672560 0.000000
vt 0.793333 0.777287 0.000000
vt 0.848849 0.581540 0.000000
vt 0.945833 0.736425 0.000000
vt 1.063347 0.586353 0.000000
vt 0.966686 2.990752 0.000000
vt 0.405240 3.706533 0.000000
vt 0.184532 2.752336 0.000000
vt 1.153531 3.582725 0.000000
vt 1.111994 4.211940 0.000000
vt 0.870453 4.568381 0.000000
vt 1.090558 4.291940 0.000000
vt 1.032920 4.708514 0.000000
vt 1.111994 4.371940 0.000000
vt 1.170558 4.430504 0.000000
vt 1.170558 4.153376 0.000000
vt 1.222184 3.697647 0.000000
vt 1.250558 4.131940 0.000000
vt 1.317440 3.791702 0.000000
vt 1.330558 4.153376 0.000000
vt 1.433225 3.858889 0.000000
vt 1.389122 4.211940 0.000000
vt 1.410558 4.291940 0.000000
vt 1.606659 3.985195 0.000000
vt 1.618784 4.584018 0.000000
vt 1.705886 4.175422 0.000000
vt 1.710230 4.389930 0.000000
vt 1.450605 4.717241 0.000000
vt 1.389122 4.371940 0.000000
vt 1.330558 4.430504 0.000000
vt 1.240739 4.761838 0.000000
vt 1.250558 4.451940 0.000000
vt 1.920000 0.798488 0.000000
vt 2.420000 0.798488 0.000000
vt 1.920000 0.958186 0.000000
vt 2.420000 0.958186 0.000000
vt 1.920000 -0.958186 0.000000
vt 2.420000 -0.958186 0.000000
vt 1.920000 -0.798488 0.000000
vt 2.420000 -0.798488 0.000000
vt 1.920000 -0.638791 0.000000
vt 2.420000 -0.638791 0.000000
vt 1.920000 -0.479093 0.000000
vt 2.420000 -0.479093 0.000000
vt 1.920000 -0.319395 0.000000
vt 2.420000 -0.319395 0.000000
vt 1.920000 -0.159698 0.000000
vt 2.420000 -0.159698 0.000000
vt 1.920000 0.000000 0.000000
vt 2.420000 0.000000 0.000000
vt 1.920000 0.159698 0.000000
vt 2.420000 0.159698 0.000000
vt 1.920000 0.319395 0.000000
vt 2.420000 0.319395 0.000000
vt 1.920000 0.479093 0.000000
vt 2.420000 0.479093 0.000000
vt 1.920000 0.638791 0.000000
vt 2.420000 0.638791 0.000000
vt 12.252284 -7.916206 0.000000
vt 11.812284 -7.916206 0.000000
vt 12.252284 -8.531765 0.000000
vt 11.812284 -8.531765 0.000000
vt 11.812284 -9.147325 0.000000
vt 11.812284 -9.762884 0.000000
vt 12.252284 -9.762884 0.000000
vt 12.252284 -9.147325 0.000000
vt 12.252284 -0.984982 0.000000
vt 11.812284 -0.984982 0.000000
vt 12.252284 -1.111609 0.000000
vt 11.812284 -1.111609 0.000000
vt 11.812284 -1.238236 0.000000
vt 11.812284 -1.364863 0.000000
vt 12.252284 -1.364863 0.000000
vt 12.252284 -1.238236 0.000000
vt 12.252284 1.458337 0.000000
vt 11.812284 1.458337 0.000000
vt 12.252284 1.331710 0.000000
vt 11.812284 1.331710 0.000000
vt 11.812284 1.205083 0.000000
vt 11.812284 1.078456 0.000000
vt 12.252284 1.078456 0.000000
vt 12.252284 1.205083 0.000000
vt 0.000000 -0.104720 0.000000
vt 0.450000 -0.104720 0.000000
vt 0.000000 0.000000 0.000000
vt 0.450000 0.000000 0.000000
vt 0.000000 0.104720 0.000000
vt 0.450000 0.104720 0.000000
vt 0.000000 0.209440 0.000000
vt 0.450000 0.209440 0.000000
vt 0.000000 0.314159 0.000000
vt 0.450000 0.314159 0.000000
vt 0.000000 0.418879 0.000000
vt 0.450000 0.418879 0.000000
vt 0.000000 0.523599 0.000000
vt 0.450000 0.523599 0.000000
vt 0.000000 0.628319 0.000000
vt 0.450000 0.628319 0.000000
vt 0.000000 -0.628319 0.000000
vt 0.450000 -0.628319 0.000000
vt 0.000000 -0.523599 0.000000
vt 0.450000 -0.523599 0.000000
vt 0.000000 -0.418879 0.000000
vt 0.450000 -0.418879 0.000000
vt 0.000000 -0.314159 0.000000
vt 0.450000 -0.314159 0.000000
vt 0.000000 -0.209440 0.000000
vt 0.450000 -0.209440 0.000000
vt 0.378068 -1.577758 0.000000
vt 0.343427 -1.597758 0.000000
vt 0.404863 -1.677758 0.000000
vt 0.364863 -1.677758 0.000000
vt 0.378068 -1.777758 0.000000
vt 0.343427 -1.757758 0.000000
vt 0.284863 -1.816322 0.000000
vt 0.284863 -1.539194 0.000000
vt 0.304863 -1.504553 0.000000
vt 0.204863 -1.517758 0.000000
vt 0.204863 -1.477758 0.000000
vt 0.104863 -1.504553 0.000000
vt 0.124863 -1.539194 0.000000
vt 0.031658 -1.577758 0.000000
vt 0.066299 -1.597758 0.000000
vt 0.004863 -1.677758 0.000000
vt 0.044863 -1.677758 0.000000
vt 0.066299 -1.757758 0.000000
vt 0.031658 -1.777758 0.000000
vt 0.124863 -1.816322 0.000000
vt 0.104863 -1.850963 0.000000
vt 0.204863 -1.837758 0.000000
vt 0.204863 -1.877758 0.000000
vt 0.304863 -1.850963 0.000000
vt 1.920000 0.418879 0.000000
vt 2.000000 0.418879 0.000000
vt 1.920000 0.502655 0.000000
vt 2.000000 0.502655 0.000000
vt 1.920000 -0.502655 0.000000
vt 2.000000 -0.502655 0.000000
vt 1.920000 -0.418879 0.000000
vt 2.000000 -0.418879 0.000000
vt 1.920000 -0.335103 0.000000
vt 2.000000 -0.335103 0.000000
vt 1.920000 -0.251327 0.000000
vt 2.000000 -0.251327 0.000000
vt 1.920000 -0.167552 0.000000
vt 2.000000 -0.167552 0.000000
vt 1.920000 -0.083776 0.000000
vt 2.000000 -0.083776 0.000000
vt 1.920000 0.000000 0.000000
vt 2.000000 0.000000 0.000000
vt 1.920000 0.083776 0.000000
vt 2.000000 0.083776 0.000000
vt 1.920000 0.167552 0.000000
vt 2.000000 0.167552 0.000000
vt 1.920000 0.251327 0.000000
vt 2.000000 0.251327 0.000000
vt 1.920000 0.335103 0.000000
vt 2.000000 0.335103 0.000000
vt 0.042426 9.948550 0.000000
vt 0.042426 10.934885 0.000000
vt -0.000000 9.948550 0.000000
vt 0.000000 10.934885 0.000000
vt 0.042426 11.921219 0.000000
vt 0.000000 11.921219 0.000000
vt 0.042426 12.907554 0.000000
vt -0.000000 12.907554 0.000000
vt 0.042426 13.893889 0.000000
vt -0.000000 13.893889 0.000000
vt -0.042426 -1.218705 0.000000
vt -0.000000 -1.218705 0.000000
vt -0.042426 -0.995337 0.000000
vt 0.000000 -0.995337 0.000000
vt 0.000000 -0.771969 0.000000
vt -0.042426 -0.771969 0.000000
vt -0.000000 -0.548601 0.000000
vt -0.042426 -0.548601 0.000000
vt -0.000000 -0.325233 0.000000
vt -0.042426 -0.325233 0.000000
vt -0.000000 -0.101865 0.000000
vt -0.042426 -0.101865 0.000000
vt -0.000000 0.121503 0.000000
vt -0.042426 0.121503 0.000000
vt 0.000000 0.344872 0.000000
vt -0.042426 0.344872 0.000000
vt -0.042426 0.568240 0.000000
vt -0.000000 0.568240 0.000000
vt -0.000000 1.309375 0.000000
vt -0.042426 1.309375 0.000000
vt 0.000000 1.086007 0.000000
vt -0.042426 1.086007 0.000000
vt -0.042426 0.862639 0.000000
vt -0.000000 0.862639 0.000000
vt -0.042426 0.639270 0.000000
vt -0.000000 0.639270 0.000000
vt -0.042426 0.415902 0.000000
vt -0.000000 0.415902 0.000000
vt -0.042426 0.192534 0.000000
vt 0.000000 0.192534 0.000000
vt -0.042426 -0.030834 0.000000
vt 0.000000 -0.030834 0.000000
vt -0.042426 -0.254202 0.000000
vt -0.000000 -0.254202 0.000000
vt -0.000000 -0.477570 0.000000
vt -0.042426 -0.477570 0.000000
vt -0.000000 -0.603389 0.000000
vt 0.042426 -0.603389 0.000000
vt -0.000000 -0.472963 0.000000
vt 0.042426 -0.472963 0.000000
vt 0.042426 -0.342537 0.000000
vt 0.042426 -0.212111 0.000000
vt 0.000000 -0.212111 0.000000
vt -0.000000 -0.342537 0.000000
vt -0.000000 0.507111 0.000000
vt -0.042426 0.507111 0.000000
vt -0.000000 0.376685 0.000000
vt -0.042426 0.376685 0.000000
vt -0.042426 0.246259 0.000000
vt -0.042426 0.115833 0.000000
vt -0.000000 0.115833 0.000000
vt 0.000000 0.246259 0.000000
vt 0.000000 -1.200591 0.000000
vt 0.042426 -1.200591 0.000000
vt 0.000000 -0.581847 0.000000
vt 0.042426 -0.581847 0.000000
vt 0.042426 0.036896 0.000000
vt 0.042426 0.655639 0.000000
vt 0.000000 0.655639 0.000000
vt -0.000000 0.036896 0.000000
vt -0.000000 -2.317120 0.000000
vt 0.000000 -1.330785 0.000000
vt -0.042426 -2.317120 0.000000
vt -0.042426 -1.330785 0.000000
vt 0.000000 -0.344451 0.000000
vt -0.042426 -0.344451 0.000000
vt -0.000000 0.641884 0.000000
vt -0.042426 0.641884 0.000000
vt -0.000000 1.628219 0.000000
vt -0.042426 1.628219 0.000000
vt 0.000000 0.214298 0.000000
vt 0.042426 0.214298 0.000000
vt -0.000000 0.437666 0.000000
vt 0.042426 0.437666 0.000000
vt 0.042426 0.661034 0.000000
vt 0.000000 0.661034 0.000000
vt 0.042426 0.884402 0.000000
vt -0.000000 0.884402 0.000000
vt 0.042426 1.107770 0.000000
vt -0.000000 1.107770 0.000000
vt 0.042426 1.331138 0.000000
vt -0.000000 1.331138 0.000000
vt 0.042426 1.554506 0.000000
vt 0.000000 1.554506 0.000000
vt 0.042426 1.777875 0.000000
vt -0.000000 1.777875 0.000000
vt 0.000000 2.001243 0.000000
vt 0.042426 2.001243 0.000000
vt 0.042426 -0.304967 0.000000
vt 0.000000 -0.304967 0.000000
vt 0.042426 -0.528335 0.000000
vt -0.000000 -0.528335 0.000000
vt 0.000000 -0.751703 0.000000
vt 0.042426 -0.751703 0.000000
vt -0.000000 -0.975071 0.000000
vt 0.042426 -0.975071 0.000000
vt 0.000000 -1.198440 0.000000
vt 0.042426 -1.198440 0.000000
vt -0.000000 -1.421808 0.000000
vt 0.042426 -1.421808 0.000000
vt -0.000000 -1.645176 0.000000
vt 0.042426 -1.645176 0.000000
vt 0.000000 -1.868544 0.000000
vt 0.042426 -1.868544 0.000000
vt 0.042426 -2.091912 0.000000
vt -0.000000 -2.091912 0.000000
vt -0.042426 1.110809 0.000000
vt -0.000000 1.110809 0.000000
vt -0.042426 1.241235 0.000000
vt 0.000000 1.241235 0.000000
vt 0.000000 1.371661 0.000000
vt 0.000000 1.502087 0.000000
vt -0.042426 1.502087 0.000000
vt -0.042426 1.371661 0.000000
vt 0.042426 -1.014532 0.000000
vt -0.000000 -1.014532 0.000000
vt 0.042426 -1.144957 0.000000
vt 0.000000 -1.144957 0.000000
vt -0.000000 -1.275383 0.000000
vt 0.000000 -1.405809 0.000000
vt 0.042426 -1.405809 0.000000
vt 0.042426 -1.275383 0.000000
vt 0.000000 8.502103 0.000000
vt 0.042426 8.502103 0.000000
vt -0.000000 9.120847 0.000000
vt 0.042426 9.120847 0.000000
vt 0.042426 9.739590 0.000000
vt 0.042426 10.358333 0.000000
vt 0.000000 10.358333 0.000000
vt 0.000000 9.739590 0.000000
vt -0.000000 -0.667588 0.000000
vt -0.030000 -0.667588 0.000000
vt -0.000000 -0.801106 0.000000
vt -0.030000 -0.801106 0.000000
vt -0.000000 0.801106 0.000000
vt -0.030000 0.801106 0.000000
vt -0.000000 0.667588 0.000000
vt -0.030000 0.667588 0.000000
vt -0.000000 0.534071 0.000000
vt -0.030000 0.534071 0.000000
vt -0.000000 0.400553 0.000000
vt -0.030000 0.400553 0.000000
vt -0.000000 0.267035 0.000000
vt -0.030000 0.267035 0.000000
vt -0.000000 0.133518 0.000000
vt -0.030000 0.133518 0.000000
vt -0.000000 0.000000 0.000000
vt -0.030000 0.000000 0.000000
vt 0.000000 -0.133518 0.000000
vt -0.030000 -0.133518 0.000000
vt 0.000000 -0.267035 0.000000
vt -0.030000 -0.267035 0.000000
vt -0.000000 -0.400553 0.000000
vt -0.030000 -0.400553 0.000000
vt -0.000000 -0.534071 0.000000
vt -0.030000 -0.534071 0.000000
vt 0.526860 -1.497758 0.000000
vt 0.479229 -1.525258 0.000000
vt 0.561024 -1.625258 0.000000
vt 0.506024 -1.625258 0.000000
vt 0.526860 -1.752758 0.000000
vt 0.479229 -1.725258 0.000000
vt 0.406024 -1.798463 0.000000
vt 0.406024 -1.452053 0.000000
vt 0.433524 -1.404421 0.000000
vt 0.306024 -1.425258 0.000000
vt 0.306024 -1.370258 0.000000
vt 0.178524 -1.404421 0.000000
vt 0.206024 -1.452053 0.000000
vt 0.085187 -1.497758 0.000000
vt 0.132819 -1.525258 0.000000
vt 0.051024 -1.625258 0.000000
vt 0.106024 -1.625258 0.000000
vt 0.132819 -1.725258 0.000000
vt 0.085187 -1.752758 0.000000
vt 0.206024 -1.798463 0.000000
vt 0.178524 -1.846094 0.000000
vt 0.306024 -1.825258 0.000000
vt 0.306024 -1.880258 0.000000
vt 0.433524 -1.846094 0.000000
vn 0.055313 -0.083310 0.000000
vn 0.055313 -0.083310 0.000000
vn 0.086576 -0.050046 0.000000
vn 0.086576 -0.050046 0.000000
vn 0.099798 -0.006353 0.000000
vn 0.099798 -0.006353 0.000000
vn 0.092223 0.038663 0.000000
vn 0.092223 0.038663 0.000000
vn 0.065431 0.075623 0.000000
vn 0.065431 0.075623 0.000000
vn 0.025003 0.096824 0.000000
vn 0.025003 0.096824 0.000000
vn -0.020635 0.097848 -0.000000
vn -0.020635 0.097848 -0.000000
vn -0.061973 0.078482 -0.000000
vn -0.061973 0.078482 -0.000000
vn -0.090396 0.042761 -0.000000
vn -0.090396 0.042761 -0.000000
vn -0.098487 0.017331 -0.000000
vn -0.098487 0.017331 -0.000000
vn -0.099563 -0.009334 0.000000
vn -0.099563 -0.009334 0.000000
vn -0.093550 -0.035334 0.000000
vn -0.093550 -0.035334 0.000000
vn -0.080874 -0.058817 0.000000
vn -0.080874 -0.058817 0.000000
vn -0.046306 -0.088633 0.000000
vn -0.046306 -0.088633 0.000000
vn -0.002089 -0.099978 0.000000
vn -0.002089 -0.099978 0.000000
vn 0.042563 -0.090490 0.000000
vn 0.042563 -0.090490 0.000000
vn 0.078346 -0.062144 0.000000
vn 0.078346 -0.062144 0.000000
vn 0.097802 -0.020849 0.000000
vn 0.097802 -0.020849 0.000000
vn 0.096878 0.024791 0.000000
vn 0.096878 0.024791 0.000000
vn 0.075766 0.065265 0.000000
vn 0.075766 0.065265 0.000000
vn 0.038865 0.092138 0.000000
vn 0.038865 0.092138 0.000000
vn 0.000000 0.000000 0.100000
vn 0.000000 0.000000 0.100000
vn 0.000000 0.000000 0.100000
vn 0.000000 0.000000 0.100000
vn 0.000000 0.000000 0.100000
vn 0.000000 0.000000 0.100000
vn 0.000000 0.000000 0.100000
vn 0.000000 0.000000 0.100000
vn 0.000000 0.000000 0.100000
vn 0.000000 0.000000 0.100000
vn 0.000000 0.000000 0.100000
vn 0.000000 0.000000 0.100000
vn 0.000000 0.000000 0.100000
vn 0.000000 0.000000 0.100000
vn 0.000000 0.000000 0.100000
vn 0.000000 0.000000 0.100000
vn 0.000000 0.000000 0.100000
vn 0.000000 0.000000 0.100000
vn 0.000000 0.000000 0.100000
vn 0.000000 0.000000 0.100000
vn 0.000000 0.000000 0.100000
vn 0.000000 0.000000 0.100000
vn 0.000000 0.000000 0.100000
vn 0.000000 0.000000 0.100000
vn 0.000000 0.000000 0.100000
vn 0.000000 0.000000 0.100000
vn 0.000000 0.000000 0.100000
vn 0.000000 0.000000 0.100000
vn 0.000000 0.000000 0.100000
vn 0.000000 0.000000 0.100000
vn 0.000000 0.000000 0.100000
vn 0.000000 0.000000 0.100000
vn 0.000000 0.000000 0.100000
vn 0.000000 0.000000 0.100000
vn 0.000000 0.000000 0.100000
vn 0.000000 0.000000 0.100000
vn 0.000000 0.000000 0.100000
vn 0.000000 0.000000 0.100000
vn 0.000000 0.000000 0.100000
vn 0.000000 0.000000 0.100000
vn 0.000000 0.000000 0.100000
vn 0.000000 0.000000 0.100000
vn 0.000000 0.000000 0.100000
vn 0.000000 0.000000 0.100000
vn 0.000000 0.000000 0.100000
vn 0.000000 0.000000 0.100000
vn 0.000000 0.000000 0.100000
vn 0.000000 0.000000 0.100000
vn 0.000000 0.000000 0.100000
vn 0.000000 0.000000 0.100000
vn 0.000000 0.000000 0.100000
vn 0.000000 0.000000 0.100000
vn 0.000000 0.000000 0.100000
vn 0.000000 0.000000 -0.100000
vn 0.000000 0.000000 -0.100000
vn 0.000000 0.000000 -0.100000
vn 0.000000 0.000000 -0.100000
vn 0.000000 0.000000 -0.100000
vn 0.000000 0.000000 -0.100000
vn 0.000000 0.000000 -0.100000
vn 0.000000 0.000000 -0.100000
vn 0.000000 0.000000 -0.100000
vn 0.000000 0.000000 -0.100000
vn 0.000000 0.000000 -0.100000
vn 0.000000 0.000000 -0.100000
vn 0.000000 0.000000 -0.100000
vn 0.000000 0.000000 -0.100000
vn 0.000000 0.000000 -0.100000
vn 0.000000 0.000000 -0.100000
vn 0.000000 0.000000 -0.100000
vn 0.000000 0.000000 -0.100000
vn 0.000000 0.000000 -0.100000
vn 0.000000 0.000000 -0.100000
vn 0.000000 0.000000 -0.100000
vn 0.000000 0.000000 -0.100000
vn 0.000000 0.000000 -0.100000
vn 0.000000 0.000000 -0.100000
vn 0.000000 0.000000 -0.100000
vn 0.000000 0.000000 -0.100000
vn 0.000000 0.000000 -0.100000
vn 0.000000 0.000000 -0.100000
vn 0.000000 0.000000 -0.100000
vn 0.000000 0.000000 -0.100000
vn 0.000000 0.000000 -0.100000
vn 0.000000 0.000000 -0.100000
vn 0.000000 0.000000 -0.100000
vn 0.000000 0.000000 -0.100000
vn 0.000000 0.000000 -0.100000
vn 0.000000 0.000000 -0.100000
vn 0.000000 0.000000 -0.100000
vn 0.000000 0.000000 -0.100000
vn 0.000000 0.000000 -0.100000
vn 0.000000 0.000000 -0.100000
vn 0.000000 0.000000 -0.100000
vn 0.000000 0.000000 -0.100000
vn 0.000000 0.000000 -0.100000
vn 0.000000 0.000000 -0.100000
vn 0.000000 0.000000 -0.100000
vn 0.000000 0.000000 -0.100000
vn 0.000000 0.000000 -0.100000
vn 0.000000 0.000000 -0.100000
vn 0.000000 0.000000 -0.100000
vn 0.000000 0.000000 -0.100000
vn 0.000000 0.000000 -0.100000
vn 0.000000 0.000000 -0.100000
vn 0.000000 0.000000 -0.100000
vn 0.086603 -0.050000 0.000000
vn 0.086603 -0.050000 0.000000
vn 0.100000 -0.000000 0.000000
vn 0.100000 -0.000000 0.000000
vn 0.086603 0.050000 0.000000
vn 0.086603 0.050000 0.000000
vn 0.050000 0.086603 0.000000
vn 0.050000 0.086603 0.000000
vn -0.000000 0.100000 0.000000
vn -0.000000 0.100000 0.000000
vn -0.050000 0.086603 0.000000
vn -0.050000 0.086603 0.000000
vn -0.086603 0.050000 0.000000
vn -0.086603 0.050000 0.000000
vn -0.100000 0.000000 0.000000
vn -0.100000 0.000000 0.000000
vn -0.086603 -0.050000 0.000000
vn -0.086603 -0.050000 0.000000
vn -0.050000 -0.086603 0.000000
vn -0.050000 -0.086603 0.000000
vn -0.000000 -0.100000 0.000000
vn -0.000000 -0.100000 0.000000
vn 0.050000 -0.086603 0.000000
vn 0.050000 -0.086603 0.000000
vn 0.091638 0.040032 0.000000
vn 0.091638 0.040032 0.000000
vn 0.098015 0.019828 0.000000
vn 0.098015 0.019828 0.000000
vn 0.099992 -0.001266 0.000000
vn 0.097481 -0.022303 0.000000
vn 0.097481 -0.022303 0.000000
vn 0.099992 -0.001266 0.000000
vn 0.060711 0.079462 0.000000
vn 0.060711 0.079462 0.000000
vn 0.078684 0.061715 0.000000
vn 0.078684 0.061715 0.000000
vn 0.088784 -0.046016 0.000000
vn 0.088784 -0.046016 0.000000
vn 0.074422 -0.066793 0.000000
vn 0.074422 -0.066793 0.000000
vn -0.086603 0.050000 0.000000
vn -0.086603 0.050000 0.000000
vn -0.100000 0.000000 0.000000
vn -0.100000 0.000000 0.000000
vn -0.086603 -0.050000 0.000000
vn -0.086603 -0.050000 0.000000
vn -0.050000 -0.086603 0.000000
vn -0.050000 -0.086603 0.000000
vn -0.000000 -0.100000 0.000000
vn -0.000000 -0.100000 0.000000
vn 0.050000 -0.086603 0.000000
vn 0.050000 -0.086603 0.000000
vn 0.086603 -0.050000 0.000000
vn 0.086603 -0.050000 0.000000
vn 0.100000 -0.000000 0.000000
vn 0.100000 -0.000000 0.000000
vn 0.086603 0.050000 0.000000
vn 0.086603 0.050000 0.000000
vn 0.050000 0.086603 0.000000
vn 0.050000 0.086603 0.000000
vn -0.000000 0.100000 0.000000
vn -0.000000 0.100000 0.000000
vn -0.050000 0.086603 0.000000
vn -0.050000 0.086603 0.000000
vn 0.000000 0.000000 0.100000
vn 0.000000 0.000000 0.100000
vn 0.000000 0.000000 0.100000
vn 0.000000 0.000000 0.100000
vn 0.000000 0.000000 0.100000
vn 0.000000 0.000000 0.100000
vn 0.000000 0.000000 0.100000
vn 0.000000 0.000000 0.100000
vn 0.000000 0.000000 0.100000
vn 0.000000 0.000000 0.100000
vn 0.000000 0.000000 0.100000
vn 0.000000 0.000000 0.100000
vn 0.000000 0.000000 0.100000
vn 0.000000 0.000000 0.100000
vn 0.000000 0.000000 0.100000
vn 0.000000 0.000000 0.100000
vn 0.000000 0.000000 0.100000
vn 0.000000 0.000000 0.100000
vn 0.000000 0.000000 0.100000
vn 0.000000 0.000000 0.100000
vn 0.000000 0.000000 0.100000
vn 0.000000 0.000000 0.100000
vn 0.000000 0.000000 0.100000
vn 0.000000 0.000000 0.100000
vn 0.086603 -0.050000 0.000000
vn 0.086603 -0.050000 0.000000
vn 0.100000 -0.000000 0.000000
vn 0.100000 -0.000000 0.000000
vn 0.086603 0.050000 0.000000
vn 0.086603 0.050000 0.000000
vn 0.050000 0.086603 0.000000
vn 0.050000 0.086603 0.000000
vn -0.000000 0.100000 0.000000
vn -0.000000 0.100000 0.000000
vn -0.050000 0.086603 0.000000
vn -0.050000 0.086603 0.000000
vn -0.086603 0.050000 0.000000
vn -0.086603 0.050000 0.000000
vn -0.100000 0.000000 0.000000
vn -0.100000 0.000000 0.000000
vn -0.086603 -0.050000 0.000000
vn -0.086603 -0.050000 0.000000
vn -0.050000 -0.086603 0.000000
vn -0.050000 -0.086603 0.000000
vn -0.000000 -0.100000 0.000000
vn -0.000000 -0.100000 0.000000
vn 0.050000 -0.086603 0.000000
vn 0.050000 -0.086603 0.000000
vn -0.063920 0.030237 -0.070711
vn -0.069641 0.012255 -0.070711
vn -0.063920 0.030237 -0.070711
vn -0.069641 0.012255 -0.070711
vn -0.070402 -0.006600 -0.070711
vn -0.070402 -0.006600 -0.070711
vn -0.066150 -0.024985 -0.070711
vn -0.066150 -0.024985 -0.070711
vn -0.057186 -0.041590 -0.070711
vn -0.057186 -0.041590 -0.070711
vn -0.032743 -0.062673 -0.070711
vn -0.032743 -0.062673 -0.070711
vn -0.001477 -0.070695 -0.070711
vn -0.001477 -0.070695 -0.070711
vn 0.030097 -0.063986 -0.070711
vn 0.030097 -0.063986 -0.070711
vn 0.055399 -0.043943 -0.070711
vn 0.055399 -0.043943 -0.070711
vn 0.069157 -0.014742 -0.070711
vn 0.069157 -0.014742 -0.070711
vn 0.068503 0.017530 -0.070711
vn 0.068503 0.017530 -0.070711
vn 0.053575 0.046149 -0.070711
vn 0.053575 0.046149 -0.070711
vn 0.027482 0.065152 -0.070711
vn 0.027482 0.065152 -0.070711
vn -0.043821 0.055495 -0.070711
vn -0.043821 0.055495 -0.070711
vn -0.014591 0.069189 -0.070711
vn -0.014591 0.069189 -0.070711
vn 0.017680 0.068465 -0.070711
vn 0.017680 0.068465 -0.070711
vn 0.046266 0.053473 -0.070711
vn 0.046266 0.053473 -0.070711
vn 0.065212 0.027339 -0.070711
vn 0.065212 0.027339 -0.070711
vn 0.070568 -0.004492 -0.070711
vn 0.070568 -0.004492 -0.070711
vn 0.061219 -0.035388 -0.070711
vn 0.061219 -0.035388 -0.070711
vn 0.039112 -0.058909 -0.070711
vn 0.039112 -0.058909 -0.070711
vn 0.042929 0.056188 -0.070711
vn 0.042929 0.056188 -0.070711
vn 0.055638 0.043639 -0.070711
vn 0.064798 0.028307 -0.070711
vn 0.064798 0.028307 -0.070711
vn 0.055638 0.043639 -0.070711
vn 0.052624 -0.047230 -0.070711
vn 0.052624 -0.047230 -0.070711
vn 0.062780 -0.032538 -0.070711
vn 0.068930 -0.015770 -0.070711
vn 0.068930 -0.015770 -0.070711
vn 0.062780 -0.032538 -0.070711
vn 0.069307 0.014021 -0.070711
vn 0.069307 0.014021 -0.070711
vn 0.070705 -0.000895 -0.070711
vn 0.070705 -0.000895 -0.070711
vn -0.057186 -0.041590 0.070711
vn -0.066150 -0.024985 0.070711
vn -0.057186 -0.041590 0.070711
vn -0.066150 -0.024985 0.070711
vn -0.070402 -0.006600 0.070711
vn -0.070402 -0.006600 0.070711
vn -0.069641 0.012255 0.070711
vn -0.069641 0.012255 0.070711
vn -0.063920 0.030237 0.070711
vn -0.063920 0.030237 0.070711
vn -0.043821 0.055495 0.070711
vn -0.043821 0.055495 0.070711
vn -0.014591 0.069189 0.070711
vn -0.014591 0.069189 0.070711
vn 0.017680 0.068465 0.070711
vn 0.017680 0.068465 0.070711
vn 0.046266 0.053473 0.070711
vn 0.046266 0.053473 0.070711
vn 0.065212 0.027339 0.070711
vn 0.065212 0.027339 0.070711
vn 0.070568 -0.004492 0.070711
vn 0.070568 -0.004492 0.070711
vn 0.061219 -0.035388 0.070711
vn 0.061219 -0.035388 0.070711
vn 0.039112 -0.058909 0.070711
vn 0.039112 -0.058909 0.070711
vn -0.032743 -0.062673 0.070711
vn -0.032743 -0.062673 0.070711
vn -0.001477 -0.070695 0.070711
vn -0.001477 -0.070695 0.070711
vn 0.030097 -0.063986 0.070711
vn 0.030097 -0.063986 0.070711
vn 0.055399 -0.043943 0.070711
vn 0.055399 -0.043943 0.070711
vn 0.069157 -0.014742 0.070711
vn 0.069157 -0.014742 0.070711
vn 0.068503 0.017530 0.070711
vn 0.068503 0.017530 0.070711
vn 0.053575 0.046149 0.070711
vn 0.053575 0.046149 0.070711
vn 0.027482 0.065152 0.070711
vn 0.027482 0.065152 0.070711
vn 0.052624 -0.047230 0.070711
vn 0.052624 -0.047230 0.070711
vn 0.062780 -0.032538 0.070711
vn 0.068930 -0.015770 0.070711
vn 0.068930 -0.015770 0.070711
vn 0.062780 -0.032538 0.070711
vn 0.042929 0.056188 0.070711
vn 0.042929 0.056188 0.070711
vn 0.055638 0.043639 0.070711
vn 0.064798 0.028307 0.070711
vn 0.064798 0.028307 0.070711
vn 0.055638 0.043639 0.070711
vn 0.070705 -0.000895 0.070711
vn 0.070705 -0.000895 0.070711
vn 0.069307 0.014021 0.070711
vn 0.069307 0.014021 0.070711
vn 0.086603 -0.050000 0.000000
vn 0.086603 -0.050000 0.000000
vn 0.100000 -0.000000 0.000000
vn 0.100000 -0.000000 0.000000
vn 0.086603 0.050000 0.000000
vn 0.086603 0.050000 0.000000
vn 0.050000 0.086603 0.000000
vn 0.050000 0.086603 0.000000
vn -0.000000 0.100000 -0.000000
vn -0.000000 0.100000 -0.000000
vn -0.050000 0.086603 -0.000000
vn -0.050000 0.086603 -0.000000
vn -0.086603 0.050000 -0.000000
vn -0.086603 0.050000 -0.000000
vn -0.100000 0.000000 -0.000000
vn -0.100000 0.000000 -0.000000
vn -0.086603 -0.050000 0.000000
vn -0.086603 -0.050000 0.000000
vn -0.050000 -0.086603 0.000000
vn -0.050000 -0.086603 0.000000
vn -0.000000 -0.100000 0.000000
vn -0.000000 -0.100000 0.000000
vn 0.050000 -0.086603 0.000000
vn 0.050000 -0.086603 0.000000
vn 0.000000 0.000000 0.100000
vn 0.000000 0.000000 0.100000
vn 0.000000 0.000000 0.100000
vn 0.000000 0.000000 0.100000
vn 0.000000 0.000000 0.100000
vn 0.000000 0.000000 0.100000
vn 0.000000 0.000000 0.100000
vn 0.000000 0.000000 0.100000
vn 0.000000 0.000000 0.100000
vn 0.000000 0.000000 0.100000
vn 0.000000 0.000000 0.100000
vn 0.000000 0.000000 0.100000
vn 0.000000 0.000000 0.100000
vn 0.000000 0.000000 0.100000
vn 0.000000 0.000000 0.100000
vn 0.000000 0.000000 0.100000
vn 0.000000 0.000000 0.100000
vn 0.000000 0.000000 0.100000
vn 0.000000 0.000000 0.100000
vn 0.000000 0.000000 0.100000
vn 0.000000 0.000000 0.100000
vn 0.000000 0.000000 0.100000
vn 0.000000 0.000000 0.100000
vn 0.000000 0.000000 0.100000
usemtl Opaque(230,230,230)
f 1/1/1 2/2/2 18/3/3
f 18/3/3 2/2/2 3/4/4
f 18/3/3 3/4/4 4/5/5
f 18/3/3 4/5/5 17/6/6
f 17/6/6 4/5/5 5/7/7
f 17/6/6 5/7/7 16/8/8
f 16/8/8 5/7/7 6/9/9
f 16/8/8 6/9/9 15/10/10
f 15/10/10 6/9/9 7/11/11
f 15/10/10 7/11/11 14/12/12
f 14/12/12 7/11/11 8/13/13
f 14/12/12 8/13/13 13/14/14
f 13/14/14 8/13/13 9/15/15
f 13/14/14 9/15/15 12/16/16
f 12/16/16 9/15/15 11/17/17
f 11/17/17 9/15/15 10/18/18
f 11/19/17 10/20/18 26/21/19
f 26/21/19 10/20/18 19/22/20
f 26/21/19 19/22/20 25/23/21
f 25/23/21 19/22/20 20/24/22
f 25/23/21 20/24/22 24/25/23
f 24/25/23 20/24/22 21/26/24
f 24/25/23 21/26/24 23/27/25
f 23/27/25 21/26/24 22/28/26
f 23/29/25 22/30/26 42/31/27
f 42/31/27 22/30/26 27/32/28
f 42/31/27 27/32/28 28/33/29
f 42/31/27 28/33/29 41/34/30
f 41/34/30 28/33/29 29/35/31
f 41/34/30 29/35/31 40/36/32
f 40/36/32 29/35/31 30/37/33
f 40/36/32 30/37/33 39/38/34
f 39/38/34 30/37/33 31/39/35
f 39/38/34 31/39/35 38/40/36
f 38/40/36 31/39/35 32/41/37
f 38/40/36 32/41/37 37/42/38
f 37/42/38 32/41/37 33/43/39
f 37/42/38 33/43/39 36/44/40
f 36/44/40 33/43/39 35/45/41
f 35/45/41 33/43/39 34/46/42
f 44/47/43 94/48/44 43/49/45
f 43/49/45 94/48/44 95/50/46
f 43/49/45 95/50/46 71/51/47
f 71/51/47 95/50/46 84/52/48
f 71/51/47 84/52/48 70/53/49
f 70/53/49 84/52/48 69/54/50
f 69/54/50 84/52/48 68/55/51
f 68/55/51 84/52/48 85/56/52
f 68/55/51 85/56/52 67/57/53
f 67/57/53 85/56/52 86/58/54
f 67/57/53 86/58/54 66/59/55
f 66/59/55 86/58/54 87/60/56
f 66/59/55 87/60/56 88/61/57
f 94/48/44 44/47/43 93/62/58
f 93/62/58 44/47/43 45/63/59
f 93/62/58 45/63/59 92/64/60
f 92/64/60 45/63/59 46/65/61
f 92/64/60 46/65/61 91/66/62
f 91/66/62 46/65/61 47/67/63
f 91/66/62 47/67/63 63/68/64
f 63/68/64 47/67/63 48/69/65
f 63/68/64 48/69/65 62/70/66
f 62/70/66 48/69/65 61/71/67
f 61/71/67 48/69/65 77/72/68
f 61/71/67 77/72/68 78/73/69
f 77/72/68 48/69/65 76/74/70
f 76/74/70 48/69/65 49/75/71
f 76/74/70 49/75/71 75/76/72
f 75/76/72 49/75/71 50/77/73
f 75/76/72 50/77/73 51/78/74
f 75/76/72 51/78/74 74/79/75
f 74/79/75 51/78/74 52/80/76
f 74/79/75 52/80/76 73/81/77
f 73/81/77 52/80/76 53/82/78
f 73/81/77 53/82/78 72/83/79
f 72/83/79 53/82/78 54/84/80
f 72/83/79 54/84/80 55/85/81
f 55/85/81 56/86/82 72/83/79
f 72/83/79 56/86/82 83/87/83
f 83/87/83 56/86/82 82/88/84
f 82/88/84 56/86/82 57/89/85
f 82/88/84 57/89/85 81/90/86
f 81/90/86 57/89/85 58/91/87
f 81/90/86 58/91/87 80/92/88
f 80/92/88 58/91/87 59/93/89
f 80/92/88 59/93/89 79/94/90
f 79/94/90 59/93/89 60/95/91
f 79/94/90 60/95/91 78/73/69
f 78/73/69 60/95/91 61/71/67
f 91/66/62 63/68/64 90/96/92
f 90/96/92 63/68/64 64/97/93
f 90/96/92 64/97/93 89/98/94
f 89/98/94 64/97/93 65/99/95
f 89/98/94 65/99/95 88/61/57
f 88/61/57 65/99/95 66/59/55
f 97/100/96 141/101/97 96/102/98
f 96/102/98 141/101/97 142/103/99
f 96/102/98 142/103/99 124/104/100
f 124/104/100 142/103/99 143/105/101
f 124/104/100 143/105/101 123/106/102
f 123/106/102 143/105/101 122/107/103
f 122/107/103 143/105/101 121/108/104
f 121/108/104 143/105/101 144/109/105
f 121/108/104 144/109/105 145/110/106
f 141/101/97 97/100/96 140/111/107
f 140/111/107 97/100/96 98/112/108
f 140/111/107 98/112/108 99/113/109
f 140/111/107 99/113/109 139/114/110
f 139/114/110 99/113/109 100/115/111
f 139/114/110 100/115/111 138/116/112
f 138/116/112 100/115/111 116/117/113
f 138/116/112 116/117/113 137/118/114
f 137/118/114 116/117/113 117/119/115
f 137/118/114 117/119/115 148/120/116
f 148/120/116 117/119/115 118/121/117
f 148/120/116 118/121/117 147/122/118
f 147/122/118 118/121/117 119/123/119
f 147/122/118 119/123/119 146/124/120
f 146/124/120 119/123/119 120/125/121
f 146/124/120 120/125/121 145/110/106
f 145/110/106 120/125/121 121/108/104
f 101/126/122 114/127/123 100/115/111
f 100/115/111 114/127/123 115/128/124
f 100/115/111 115/128/124 116/117/113
f 101/126/122 102/129/125 114/127/123
f 114/127/123 102/129/125 136/130/126
f 114/127/123 136/130/126 113/131/127
f 113/131/127 136/130/126 125/132/128
f 113/131/127 125/132/128 112/133/129
f 112/133/129 125/132/128 126/134/130
f 112/133/129 126/134/130 127/135/131
f 136/130/126 102/129/125 135/136/132
f 135/136/132 102/129/125 103/137/133
f 135/136/132 103/137/133 134/138/134
f 134/138/134 103/137/133 104/139/135
f 134/138/134 104/139/135 133/140/136
f 133/140/136 104/139/135 105/141/137
f 133/140/136 105/141/137 132/142/138
f 132/142/138 105/141/137 131/143/139
f 131/143/139 105/141/137 106/144/140
f 131/143/139 106/144/140 109/145/141
f 109/145/141 106/144/140 107/146/142
f 109/145/141 107/146/142 108/147/143
f 109/145/141 110/148/144 131/143/139
f 131/143/139 110/148/144 130/149/145
f 130/149/145 110/148/144 129/150/146
f 129/150/146 110/148/144 111/151/147
f 129/150/146 111/151/147 128/152/148
f 128/152/148 111/151/147 127/135/131
f 127/135/131 111/151/147 112/133/129
f 148/153/149 79/154/150 137/155/151
f 137/155/151 79/154/150 78/156/152
f 137/157/151 78/158/152 138/159/153
f 138/159/153 78/158/152 77/160/154
f 138/159/153 77/160/154 139/161/155
f 139/161/155 77/160/154 76/162/156
f 139/161/155 76/162/156 140/163/157
f 140/163/157 76/162/156 75/164/158
f 140/163/157 75/164/158 141/165/159
f 141/165/159 75/164/158 74/166/160
f 141/165/159 74/166/160 142/167/161
f 142/167/161 74/166/160 73/168/162
f 142/167/161 73/168/162 143/169/163
f 143/169/163 73/168/162 72/170/164
f 143/169/163 72/170/164 144/171/165
f 144/171/165 72/170/164 83/172/166
f 144/171/165 83/172/166 145/173/167
f 145/173/167 83/172/166 82/174/168
f 145/173/167 82/174/168 146/175/169
f 146/175/169 82/174/168 81/176/170
f 146/175/169 81/176/170 147/177/171
f 147/177/171 81/176/170 80/178/172
f 147/177/171 80/178/172 148/153/149
f 148/153/149 80/178/172 79/154/150
f 149/179/173 150/180/174 156/181/175
f 156/181/175 150/180/174 151/182/176
f 156/181/175 151/182/176 152/183/177
f 153/184/178 154/185/179 152/183/177
f 152/183/177 154/185/179 155/186/180
f 152/183/177 155/186/180 156/181/175
f 35/187/41 34/188/42 160/189/181
f 160/189/181 34/188/42 157/190/182
f 160/189/181 157/190/182 158/191/183
f 150/192/174 149/193/173 158/191/183
f 158/191/183 149/193/173 159/194/184
f 158/191/183 159/194/184 160/189/181
f 154/195/179 153/196/178 164/197/185
f 164/197/185 153/196/178 161/198/186
f 164/197/185 161/198/186 162/199/187
f 2/200/2 1/201/1 162/199/187
f 162/199/187 1/201/1 163/202/188
f 162/199/187 163/202/188 164/197/185
f 166/203/189 188/204/190 165/205/191
f 165/205/191 188/204/190 177/206/192
f 165/205/191 177/206/192 176/207/193
f 176/207/193 177/206/192 178/208/194
f 176/207/193 178/208/194 175/209/195
f 175/209/195 178/208/194 179/210/196
f 175/209/195 179/210/196 174/211/197
f 174/211/197 179/210/196 180/212/198
f 174/211/197 180/212/198 173/213/199
f 173/213/199 180/212/198 181/214/200
f 173/213/199 181/214/200 172/215/201
f 172/215/201 181/214/200 182/216/202
f 172/215/201 182/216/202 171/217/203
f 171/217/203 182/216/202 183/218/204
f 171/219/203 183/220/204 170/221/205
f 170/221/205 183/220/204 184/222/206
f 170/221/205 184/222/206 169/223/207
f 169/223/207 184/222/206 185/224/208
f 169/223/207 185/224/208 168/225/209
f 168/225/209 185/224/208 186/226/210
f 168/225/209 186/226/210 167/227/211
f 167/227/211 186/226/210 187/228/212
f 167/227/211 187/228/212 166/203/189
f 166/203/189 187/228/212 188/204/190
f 176/229/213 200/230/214 165/231/215
f 165/231/215 200/230/214 189/232/216
f 165/231/215 189/232/216 166/233/217
f 166/233/217 189/232/216 190/234/218
f 166/233/217 190/234/218 191/235/219
f 200/230/214 176/229/213 199/236/220
f 199/236/220 176/229/213 175/237/221
f 199/236/220 175/237/221 198/238/222
f 198/238/222 175/237/221 174/239/223
f 198/238/222 174/239/223 173/240/224
f 198/238/222 173/240/224 197/241/225
f 197/241/225 173/240/224 172/242/226
f 197/241/225 172/242/226 196/243/227
f 196/243/227 172/242/226 171/244/228
f 196/243/227 171/244/228 195/245/229
f 195/245/229 171/244/228 194/246/230
f 194/246/230 171/244/228 170/247/231
f 194/246/230 170/247/231 193/248/232
f 193/248/232 170/247/231 169/249/233
f 193/248/232 169/249/233 192/250/234
f 192/250/234 169/249/233 168/251/235
f 192/250/234 168/251/235 167/252/236
f 192/250/234 167/252/236 191/235/219
f 191/235/219 167/252/236 166/233/217
f 136/253/237 196/254/238 125/255/239
f 125/255/239 196/254/238 195/256/240
f 125/257/239 195/258/240 126/259/241
f 126/259/241 195/258/240 194/260/242
f 126/259/241 194/260/242 127/261/243
f 127/261/243 194/260/242 193/262/244
f 127/261/243 193/262/244 128/263/245
f 128/263/245 193/262/244 192/264/246
f 128/263/245 192/264/246 129/265/247
f 129/265/247 192/264/246 191/266/248
f 129/265/247 191/266/248 130/267/249
f 130/267/249 191/266/248 190/268/250
f 130/267/249 190/268/250 131/269/251
f 131/269/251 190/268/250 189/270/252
f 131/269/251 189/270/252 132/271/253
f 132/271/253 189/270/252 200/272/254
f 132/271/253 200/272/254 133/273/255
f 133/273/255 200/272/254 199/274/256
f 133/273/255 199/274/256 134/275/257
f 134/275/257 199/274/256 198/276/258
f 134/275/257 198/276/258 135/277/259
f 135/277/259 198/276/258 197/278/260
f 135/277/259 197/278/260 136/253/237
f 136/253/237 197/278/260 196/254/238
f 117/279/261 116/280/262 10/281/263
f 10/281/263 116/280/262 19/282/264
f 19/282/264 116/280/262 115/283/265
f 19/282/264 115/283/265 20/284/266
f 20/284/266 115/283/265 114/285/267
f 20/284/266 114/285/267 21/286/268
f 21/286/268 114/285/267 113/287/269
f 21/286/268 113/287/269 22/288/270
f 22/289/270 113/290/269 27/291/271
f 27/291/271 113/290/269 112/292/272
f 27/291/271 112/292/272 111/293/273
f 27/291/271 111/293/273 28/294/274
f 28/294/274 111/293/273 110/295/275
f 28/294/274 110/295/275 29/296/276
f 29/296/276 110/295/275 109/297/277
f 29/296/276 109/297/277 30/298/278
f 30/298/278 109/297/277 108/299/279
f 30/298/278 108/299/279 31/300/280
f 31/300/280 108/299/279 107/301/281
f 31/300/280 107/301/281 32/302/282
f 32/302/282 107/301/281 106/303/283
f 32/302/282 106/303/283 33/304/284
f 33/304/284 106/303/283 34/305/285
f 34/305/285 106/303/283 105/306/286
f 117/307/261 10/308/263 118/309/287
f 118/309/287 10/308/263 9/310/288
f 118/309/287 9/310/288 8/311/289
f 118/309/287 8/311/289 119/312/290
f 119/312/290 8/311/289 7/313/291
f 119/312/290 7/313/291 120/314/292
f 120/314/292 7/313/291 6/315/293
f 120/314/292 6/315/293 121/316/294
f 121/316/294 6/315/293 5/317/295
f 121/316/294 5/317/295 122/318/296
f 122/318/296 5/317/295 4/319/297
f 122/318/296 4/319/297 123/320/298
f 123/320/298 4/319/297 3/321/299
f 123/320/298 3/321/299 124/322/300
f 124/322/300 3/321/299 96/323/301
f 96/323/301 3/321/299 2/324/302
f 34/325/285 105/326/286 157/327/303
f 157/327/303 105/326/286 104/328/304
f 157/327/303 104/328/304 103/329/305
f 102/330/306 150/331/307 103/329/305
f 103/329/305 150/331/307 158/332/308
f 103/329/305 158/332/308 157/327/303
f 96/333/301 2/334/302 97/335/309
f 97/335/309 2/334/302 162/336/310
f 97/335/309 162/336/310 161/337/311
f 153/338/312 99/339/313 161/337/311
f 161/337/311 99/339/313 98/340/314
f 161/337/311 98/340/314 97/335/309
f 150/341/307 102/342/306 151/343/315
f 151/343/315 102/342/306 101/344/316
f 151/343/315 101/344/316 100/345/317
f 99/346/313 153/347/312 100/345/317
f 100/345/317 153/347/312 152/348/318
f 100/345/317 152/348/318 151/343/315
f 64/349/319 63/350/320 23/351/321
f 23/351/321 63/350/320 24/352/322
f 24/352/322 63/350/320 62/353/323
f 24/352/322 62/353/323 25/354/324
f 25/354/324 62/353/323 61/355/325
f 25/354/324 61/355/325 26/356/326
f 26/356/326 61/355/325 60/357/327
f 26/356/326 60/357/327 11/358/328
f 11/359/328 60/360/327 12/361/329
f 12/361/329 60/360/327 59/362/330
f 12/361/329 59/362/330 58/363/331
f 12/361/329 58/363/331 13/364/332
f 13/364/332 58/363/331 57/365/333
f 13/364/332 57/365/333 14/366/334
f 14/366/334 57/365/333 56/367/335
f 14/366/334 56/367/335 15/368/336
f 15/368/336 56/367/335 55/369/337
f 15/368/336 55/369/337 16/370/338
f 16/370/338 55/369/337 54/371/339
f 16/370/338 54/371/339 17/372/340
f 17/372/340 54/371/339 53/373/341
f 17/372/340 53/373/341 18/374/342
f 18/374/342 53/373/341 1/375/343
f 1/375/343 53/373/341 52/376/344
f 64/377/319 23/378/321 65/379/345
f 65/379/345 23/378/321 42/380/346
f 65/379/345 42/380/346 41/381/347
f 65/379/345 41/381/347 66/382/348
f 66/382/348 41/381/347 40/383/349
f 66/382/348 40/383/349 67/384/350
f 67/384/350 40/383/349 39/385/351
f 67/384/350 39/385/351 68/386/352
f 68/386/352 39/385/351 38/387/353
f 68/386/352 38/387/353 69/388/354
f 69/388/354 38/387/353 37/389/355
f 69/388/354 37/389/355 70/390/356
f 70/390/356 37/389/355 36/391/357
f 70/390/356 36/391/357 71/392/358
f 71/392/358 36/391/357 43/393/359
f 43/393/359 36/391/357 35/394/360
f 1/395/343 52/396/344 163/397/361
f 163/397/361 52/396/344 51/398/362
f 163/397/361 51/398/362 50/399/363
f 49/400/364 154/401/365 50/399/363
f 50/399/363 154/401/365 164/402/366
f 50/399/363 164/402/366 163/397/361
f 43/403/359 35/404/360 44/405/367
f 44/405/367 35/404/360 160/406/368
f 44/405/367 160/406/368 159/407/369
f 149/408/370 46/409/371 159/407/369
f 159/407/369 46/409/371 45/410/372
f 159/407/369 45/410/372 44/405/367
f 154/411/365 49/412/364 155/413/373
f 155/413/373 49/412/364 48/414/374
f 155/413/373 48/414/374 47/415/375
f 46/416/371 149/417/370 47/415/375
f 47/415/375 149/417/370 156/418/376
f 47/415/375 156/418/376 155/413/373
f 202/419/377 85/420/378 201/421/379
f 201/421/379 85/420/378 84/422/380
f 201/423/379 84/424/380 212/425/381
f 212/425/381 84/424/380 95/426/382
f 212/425/381 95/426/382 211/427/383
f 211/427/383 95/426/382 94/428/384
f 211/427/383 94/428/384 210/429/385
f 210/429/385 94/428/384 93/430/386
f 210/429/385 93/430/386 209/431/387
f 209/431/387 93/430/386 92/432/388
f 209/431/387 92/432/388 208/433/389
f 208/433/389 92/432/388 91/434/390
f 208/433/389 91/434/390 207/435/391
f 207/435/391 91/434/390 90/436/392
f 207/435/391 90/436/392 206/437/393
f 206/437/393 90/436/392 89/438/394
f 206/437/393 89/438/394 205/439/395
f 205/439/395 89/438/394 88/440/396
f 205/439/395 88/440/396 204/441/397
f 204/441/397 88/440/396 87/442/398
f 204/441/397 87/442/398 203/443/399
f 203/443/399 87/442/398 86/444/400
f 203/443/399 86/444/400 202/419/377
f 202/419/377 86/444/400 85/420/378
f 212/445/401 178/446/402 201/447/403
f 201/447/403 178/446/402 177/448/404
f 201/447/403 177/448/404 202/449/405
f 202/449/405 177/448/404 188/450/406
f 202/449/405 188/450/406 187/451/407
f 178/446/402 212/445/401 179/452/408
f 179/452/408 212/445/401 211/453/409
f 179/452/408 211/453/409 180/454/410
f 180/454/410 211/453/409 210/455/411
f 180/454/410 210/455/411 209/456/412
f 180/454/410 209/456/412 181/457/413
f 181/457/413 209/456/412 208/458/414
f 181/457/413 208/458/414 182/459/415
f 182/459/415 208/458/414 207/460/416
f 182/459/415 207/460/416 183/461/417
f 183/461/417 207/460/416 184/462/418
f 184/462/418 207/460/416 206/463/419
f 184/462/418 206/463/419 185/464/420
f 185/464/420 206/463/419 205/465/421
f 185/464/420 205/465/421 186/466/422
f 186/466/422 205/465/421 204/467/423
f 186/466/422 204/467/423 203/468/424
f 186/466/422 203/468/424 187/451/407
f 187/451/407 203/468/424 202/449/405
# 212 vertices
# 468 texture params
# 424 normals
# 428 facets

# 1 groups
