# WaveFront *.obj file (generated by Autodesk ATF)

mtllib drive_palonier_1.mtl

g Body1

v -25.500000 4.400000 1.600000
v -26.300000 4.400000 1.385641
v -26.885641 4.400000 0.800000
v -27.100000 4.400000 0.000000
v -26.885641 4.400000 -0.800000
v -26.300000 4.400000 -1.385641
v -25.500000 4.400000 -1.600000
v -24.700000 4.400000 -1.385641
v -24.114359 4.400000 -0.800000
v -23.900000 4.400000 0.000000
v -24.114359 4.400000 0.800000
v -24.700000 4.400000 1.385641
v -25.500000 9.450000 1.600000
v -24.700000 9.450000 1.385641
v -24.114359 9.450000 0.800000
v -23.900000 9.450000 0.000000
v -24.114359 9.450000 -0.800000
v -24.700000 9.450000 -1.385641
v -25.500000 9.450000 -1.600000
v -26.300000 9.450000 -1.385641
v -26.885641 9.450000 -0.800000
v -27.100000 9.450000 0.000000
v -26.885641 9.450000 0.800000
v -26.300000 9.450000 1.385641
v -32.500000 6.950000 1.250000
v -33.125000 6.950000 1.082532
v -33.582532 6.950000 0.625000
v -33.750000 6.950000 -0.000000
v -33.582532 6.950000 -0.625000
v -33.125000 6.950000 -1.082532
v -32.500000 6.950000 -1.250000
v -31.875000 6.950000 -1.082532
v -31.417468 6.950000 -0.625000
v -31.250000 6.950000 0.000000
v -31.417468 6.950000 0.625000
v -31.875000 6.950000 1.082532
v -32.500000 9.450000 1.250000
v -31.875000 9.450000 1.082532
v -31.417468 9.450000 0.625000
v -31.250000 9.450000 0.000000
v -31.417468 9.450000 -0.625000
v -31.875000 9.450000 -1.082532
v -32.500000 9.450000 -1.250000
v -33.125000 9.450000 -1.082532
v -33.582532 9.450000 -0.625000
v -33.750000 9.450000 -0.000000
v -33.582532 9.450000 0.625000
v -33.125000 9.450000 1.082532
v -25.500000 6.950000 8.250000
v -26.125000 6.950000 8.082532
v -26.582532 6.950000 7.625000
v -26.750000 6.950000 7.000000
v -26.582532 6.950000 6.375000
v -26.125000 6.950000 5.917468
v -25.500000 6.950000 5.750000
v -24.875000 6.950000 5.917468
v -24.417468 6.950000 6.375000
v -24.250000 6.950000 7.000000
v -24.417468 6.950000 7.625000
v -24.875000 6.950000 8.082532
v -25.500000 9.450000 8.250000
v -24.875000 9.450000 8.082532
v -24.417468 9.450000 7.625000
v -24.250000 9.450000 7.000000
v -24.417468 9.450000 6.375000
v -24.875000 9.450000 5.917468
v -25.500000 9.450000 5.750000
v -26.125000 9.450000 5.917468
v -26.582532 9.450000 6.375000
v -26.750000 9.450000 7.000000
v -26.582532 9.450000 7.625000
v -26.125000 9.450000 8.082532
v -25.500000 6.950000 -5.750000
v -26.125000 6.950000 -5.917468
v -26.582532 6.950000 -6.375000
v -26.750000 6.950000 -7.000000
v -26.582532 6.950000 -7.625000
v -26.125000 6.950000 -8.082532
v -25.500000 6.950000 -8.250000
v -24.875000 6.950000 -8.082532
v -24.417468 6.950000 -7.625000
v -24.250000 6.950000 -7.000000
v -24.417468 6.950000 -6.375000
v -24.875000 6.950000 -5.917468
v -25.500000 9.450000 -5.750000
v -24.875000 9.450000 -5.917468
v -24.417468 9.450000 -6.375000
v -24.250000 9.450000 -7.000000
v -24.417468 9.450000 -7.625000
v -24.875000 9.450000 -8.082532
v -25.500000 9.450000 -8.250000
v -26.125000 9.450000 -8.082532
v -26.582532 9.450000 -7.625000
v -26.750000 9.450000 -7.000000
v -26.582532 9.450000 -6.375000
v -26.125000 9.450000 -5.917468
v -18.500000 6.950000 1.250000
v -19.125000 6.950000 1.082532
v -19.582532 6.950000 0.625000
v -19.750000 6.950000 -0.000000
v -19.582532 6.950000 -0.625000
v -19.125000 6.950000 -1.082532
v -18.500000 6.950000 -1.250000
v -17.875000 6.950000 -1.082532
v -17.417468 6.950000 -0.625000
v -17.250000 6.950000 0.000000
v -17.417468 6.950000 0.625000
v -17.875000 6.950000 1.082532
v -18.500000 9.450000 1.250000
v -17.875000 9.450000 1.082532
v -17.417468 9.450000 0.625000
v -17.250000 9.450000 0.000000
v -17.417468 9.450000 -0.625000
v -17.875000 9.450000 -1.082532
v -18.500000 9.450000 -1.250000
v -19.125000 9.450000 -1.082532
v -19.582532 9.450000 -0.625000
v -19.750000 9.450000 -0.000000
v -19.582532 9.450000 0.625000
v -19.125000 9.450000 1.082532
v -25.500000 6.950000 9.975000
v -30.487500 6.950000 8.638603
v -34.138603 6.950000 4.987500
v -35.475000 6.950000 -0.000000
v -34.138603 6.950000 -4.987500
v -30.487500 6.950000 -8.638603
v -25.500000 6.950000 -9.975000
v -20.512500 6.950000 -8.638603
v -16.861397 6.950000 -4.987500
v -15.525000 6.950000 0.000000
v -16.861397 6.950000 4.987500
v -20.512500 6.950000 8.638603
v -28.550000 6.950000 0.000000
v -28.141377 6.950000 1.525000
v -27.025000 6.950000 2.641377
v -25.500000 6.950000 3.050000
v -23.975000 6.950000 2.641377
v -22.858623 6.950000 1.525000
v -22.450000 6.950000 0.000000
v -22.858623 6.950000 -1.525000
v -23.975000 6.950000 -2.641377
v -25.500000 6.950000 -3.050000
v -27.025000 6.950000 -2.641377
v -28.141377 6.950000 -1.525000
v -25.500000 9.450000 9.975000
v -20.512500 9.450000 8.638603
v -16.861397 9.450000 4.987500
v -15.525000 9.450000 0.000000
v -16.861397 9.450000 -4.987500
v -20.512500 9.450000 -8.638603
v -25.500000 9.450000 -9.975000
v -30.487500 9.450000 -8.638603
v -34.138603 9.450000 -4.987500
v -35.475000 9.450000 -0.000000
v -34.138603 9.450000 4.987500
v -30.487500 9.450000 8.638603
v -28.550000 4.400000 0.000000
v -28.141377 4.400000 -1.525000
v -27.025000 4.400000 -2.641377
v -25.500000 4.400000 -3.050000
v -23.975000 4.400000 -2.641377
v -22.858623 4.400000 -1.525000
v -22.450000 4.400000 0.000000
v -22.858623 4.400000 1.525000
v -23.975000 4.400000 2.641377
v -25.500000 4.400000 3.050000
v -27.025000 4.400000 2.641377
v -28.141377 4.400000 1.525000
vt 1.995000 -0.083776 0.000000
vt 2.500000 -0.083776 0.000000
vt 1.995000 0.000000 0.000000
vt 2.500000 0.000000 0.000000
vt 1.995000 0.083776 0.000000
vt 2.500000 0.083776 0.000000
vt 1.995000 0.167552 0.000000
vt 2.500000 0.167552 0.000000
vt 1.995000 0.251327 0.000000
vt 2.500000 0.251327 0.000000
vt 1.995000 0.335103 0.000000
vt 2.500000 0.335103 0.000000
vt 1.995000 0.418879 0.000000
vt 2.500000 0.418879 0.000000
vt 1.995000 0.502655 0.000000
vt 2.500000 0.502655 0.000000
vt 1.995000 -0.502655 0.000000
vt 2.500000 -0.502655 0.000000
vt 1.995000 -0.418879 0.000000
vt 2.500000 -0.418879 0.000000
vt 1.995000 -0.335103 0.000000
vt 2.500000 -0.335103 0.000000
vt 1.995000 -0.251327 0.000000
vt 2.500000 -0.251327 0.000000
vt 1.995000 -0.167552 0.000000
vt 2.500000 -0.167552 0.000000
vt 2.250000 -0.065450 0.000000
vt 2.500000 -0.065450 0.000000
vt 2.250000 0.000000 0.000000
vt 2.500000 0.000000 0.000000
vt 2.250000 0.065450 0.000000
vt 2.500000 0.065450 0.000000
vt 2.250000 0.130900 0.000000
vt 2.500000 0.130900 0.000000
vt 2.250000 0.196350 0.000000
vt 2.500000 0.196350 0.000000
vt 2.250000 0.261799 0.000000
vt 2.500000 0.261799 0.000000
vt 2.250000 0.327249 0.000000
vt 2.500000 0.327249 0.000000
vt 2.250000 0.392699 0.000000
vt 2.500000 0.392699 0.000000
vt 2.250000 -0.392699 0.000000
vt 2.500000 -0.392699 0.000000
vt 2.250000 -0.327249 0.000000
vt 2.500000 -0.327249 0.000000
vt 2.250000 -0.261799 0.000000
vt 2.500000 -0.261799 0.000000
vt 2.250000 -0.196350 0.000000
vt 2.500000 -0.196350 0.000000
vt 2.250000 -0.130900 0.000000
vt 2.500000 -0.130900 0.000000
vt 2.250000 -0.065450 0.000000
vt 2.500000 -0.065450 0.000000
vt 2.250000 0.000000 0.000000
vt 2.500000 0.000000 0.000000
vt 2.250000 0.065450 0.000000
vt 2.500000 0.065450 0.000000
vt 2.250000 0.130900 0.000000
vt 2.500000 0.130900 0.000000
vt 2.250000 0.196350 0.000000
vt 2.500000 0.196350 0.000000
vt 2.250000 0.261799 0.000000
vt 2.500000 0.261799 0.000000
vt 2.250000 0.327249 0.000000
vt 2.500000 0.327249 0.000000
vt 2.250000 0.392699 0.000000
vt 2.500000 0.392699 0.000000
vt 2.250000 -0.392699 0.000000
vt 2.500000 -0.392699 0.000000
vt 2.250000 -0.327249 0.000000
vt 2.500000 -0.327249 0.000000
vt 2.250000 -0.261799 0.000000
vt 2.500000 -0.261799 0.000000
vt 2.250000 -0.196350 0.000000
vt 2.500000 -0.196350 0.000000
vt 2.250000 -0.130900 0.000000
vt 2.500000 -0.130900 0.000000
vt 2.250000 -0.065450 0.000000
vt 2.500000 -0.065450 0.000000
vt 2.250000 0.000000 0.000000
vt 2.500000 0.000000 0.000000
vt 2.250000 0.065450 0.000000
vt 2.500000 0.065450 0.000000
vt 2.250000 0.130900 0.000000
vt 2.500000 0.130900 0.000000
vt 2.250000 0.196350 0.000000
vt 2.500000 0.196350 0.000000
vt 2.250000 0.261799 0.000000
vt 2.500000 0.261799 0.000000
vt 2.250000 0.327249 0.000000
vt 2.500000 0.327249 0.000000
vt 2.250000 0.392699 0.000000
vt 2.500000 0.392699 0.000000
vt 2.250000 -0.392699 0.000000
vt 2.500000 -0.392699 0.000000
vt 2.250000 -0.327249 0.000000
vt 2.500000 -0.327249 0.000000
vt 2.250000 -0.261799 0.000000
vt 2.500000 -0.261799 0.000000
vt 2.250000 -0.196350 0.000000
vt 2.500000 -0.196350 0.000000
vt 2.250000 -0.130900 0.000000
vt 2.500000 -0.130900 0.000000
vt 2.250000 -0.065450 0.000000
vt 2.500000 -0.065450 0.000000
vt 2.250000 0.000000 0.000000
vt 2.500000 0.000000 0.000000
vt 2.250000 0.065450 0.000000
vt 2.500000 0.065450 0.000000
vt 2.250000 0.130900 0.000000
vt 2.500000 0.130900 0.000000
vt 2.250000 0.196350 0.000000
vt 2.500000 0.196350 0.000000
vt 2.250000 0.261799 0.000000
vt 2.500000 0.261799 0.000000
vt 2.250000 0.327249 0.000000
vt 2.500000 0.327249 0.000000
vt 2.250000 0.392699 0.000000
vt 2.500000 0.392699 0.000000
vt 2.250000 -0.392699 0.000000
vt 2.500000 -0.392699 0.000000
vt 2.250000 -0.327249 0.000000
vt 2.500000 -0.327249 0.000000
vt 2.250000 -0.261799 0.000000
vt 2.500000 -0.261799 0.000000
vt 2.250000 -0.196350 0.000000
vt 2.500000 -0.196350 0.000000
vt 2.250000 -0.130900 0.000000
vt 2.500000 -0.130900 0.000000
vt -0.498750 0.863860 0.000000
vt -0.062500 0.808253 0.000000
vt -0.000000 0.997500 0.000000
vt -0.000000 0.825000 0.000000
vt 0.062500 0.808253 0.000000
vt -0.863860 0.498750 0.000000
vt -0.108253 0.637500 0.000000
vt -0.125000 0.700000 0.000000
vt -0.108253 0.762500 0.000000
vt -0.997500 -0.000000 0.000000
vt -0.808253 0.062500 0.000000
vt -0.762500 0.108253 0.000000
vt -0.700000 0.125000 0.000000
vt -0.863860 -0.498750 0.000000
vt -0.808253 -0.062500 0.000000
vt -0.825000 -0.000000 0.000000
vt -0.498750 -0.863860 0.000000
vt -0.108253 -0.637500 0.000000
vt -0.152500 -0.264138 0.000000
vt -0.264138 -0.152500 0.000000
vt -0.000000 -0.997500 0.000000
vt -0.062500 -0.808253 0.000000
vt -0.108253 -0.762500 0.000000
vt -0.125000 -0.700000 0.000000
vt 0.498750 -0.863860 0.000000
vt 0.062500 -0.808253 0.000000
vt -0.000000 -0.825000 0.000000
vt 0.863860 -0.498750 0.000000
vt 0.108253 -0.637500 0.000000
vt 0.125000 -0.700000 0.000000
vt 0.108253 -0.762500 0.000000
vt 0.997500 0.000000 0.000000
vt 0.808253 -0.062500 0.000000
vt 0.762500 -0.108253 0.000000
vt 0.700000 -0.125000 0.000000
vt 0.863860 0.498750 0.000000
vt 0.808253 0.062500 0.000000
vt 0.825000 0.000000 0.000000
vt 0.498750 0.863860 0.000000
vt 0.108253 0.637500 0.000000
vt 0.152500 0.264138 0.000000
vt 0.264138 0.152500 0.000000
vt 0.108253 0.762500 0.000000
vt 0.125000 0.700000 0.000000
vt -0.264138 0.152500 0.000000
vt -0.591747 0.062500 0.000000
vt -0.305000 0.000000 0.000000
vt -0.575000 0.000000 0.000000
vt -0.591747 -0.062500 0.000000
vt -0.152500 0.264138 0.000000
vt -0.637500 0.108253 0.000000
vt -0.000000 0.305000 0.000000
vt -0.062500 0.591747 0.000000
vt 0.062500 0.591747 0.000000
vt -0.000000 0.575000 0.000000
vt 0.305000 0.000000 0.000000
vt 0.591747 0.062500 0.000000
vt 0.637500 0.108253 0.000000
vt 0.700000 0.125000 0.000000
vt 0.762500 0.108253 0.000000
vt 0.264138 -0.152500 0.000000
vt 0.591747 -0.062500 0.000000
vt 0.575000 -0.000000 0.000000
vt 0.152500 -0.264138 0.000000
vt 0.637500 -0.108253 0.000000
vt -0.000000 -0.305000 0.000000
vt 0.062500 -0.591747 0.000000
vt -0.062500 -0.591747 0.000000
vt -0.000000 -0.575000 0.000000
vt -0.637500 -0.108253 0.000000
vt -0.700000 -0.125000 0.000000
vt -0.762500 -0.108253 0.000000
vt -0.498750 0.863860 0.000000
vt -0.062500 0.808253 0.000000
vt 0.000000 0.997500 0.000000
vt 0.000000 0.825000 0.000000
vt 0.062500 0.808253 0.000000
vt -0.863860 0.498750 0.000000
vt -0.108253 0.637500 0.000000
vt -0.125000 0.700000 0.000000
vt -0.108253 0.762500 0.000000
vt -0.997500 0.000000 0.000000
vt -0.808253 0.062500 0.000000
vt -0.762500 0.108253 0.000000
vt -0.700000 0.125000 0.000000
vt -0.863860 -0.498750 0.000000
vt -0.808253 -0.062500 0.000000
vt -0.825000 0.000000 0.000000
vt -0.498750 -0.863860 0.000000
vt -0.108253 -0.637500 0.000000
vt -0.637500 -0.108253 0.000000
vt -0.700000 -0.125000 0.000000
vt 0.000000 -0.997500 0.000000
vt -0.062500 -0.808253 0.000000
vt -0.108253 -0.762500 0.000000
vt -0.125000 -0.700000 0.000000
vt 0.498750 -0.863860 0.000000
vt 0.062500 -0.808253 0.000000
vt 0.000000 -0.825000 0.000000
vt 0.863860 -0.498750 0.000000
vt 0.108253 -0.637500 0.000000
vt 0.125000 -0.700000 0.000000
vt 0.108253 -0.762500 0.000000
vt 0.997500 -0.000000 0.000000
vt 0.808253 -0.062500 0.000000
vt 0.762500 -0.108253 0.000000
vt 0.700000 -0.125000 0.000000
vt 0.863860 0.498750 0.000000
vt 0.808253 0.062500 0.000000
vt 0.825000 -0.000000 0.000000
vt 0.498750 0.863860 0.000000
vt 0.108253 0.637500 0.000000
vt 0.637500 0.108253 0.000000
vt 0.700000 0.125000 0.000000
vt 0.108253 0.762500 0.000000
vt 0.125000 0.700000 0.000000
vt 0.080000 0.138564 0.000000
vt 0.062500 0.591747 0.000000
vt 0.000000 0.160000 0.000000
vt 0.000000 0.575000 0.000000
vt -0.062500 0.591747 0.000000
vt 0.138564 0.080000 0.000000
vt 0.591747 0.062500 0.000000
vt 0.160000 0.000000 0.000000
vt 0.575000 0.000000 0.000000
vt 0.591747 -0.062500 0.000000
vt 0.138564 -0.080000 0.000000
vt 0.637500 -0.108253 0.000000
vt 0.080000 -0.138564 0.000000
vt 0.062500 -0.591747 0.000000
vt 0.000000 -0.160000 0.000000
vt 0.000000 -0.575000 0.000000
vt -0.062500 -0.591747 0.000000
vt -0.080000 -0.138564 0.000000
vt -0.138564 -0.080000 0.000000
vt -0.591747 -0.062500 0.000000
vt -0.160000 0.000000 0.000000
vt -0.575000 -0.000000 0.000000
vt -0.591747 0.062500 0.000000
vt -0.138564 0.080000 0.000000
vt -0.637500 0.108253 0.000000
vt -0.080000 0.138564 0.000000
vt -0.762500 -0.108253 0.000000
vt 0.762500 0.108253 0.000000
vt -0.250000 2.611449 0.000000
vt -0.000000 2.611449 0.000000
vt -0.250000 3.133739 0.000000
vt -0.000000 3.133739 0.000000
vt -0.250000 -3.133739 0.000000
vt -0.000000 -3.133739 0.000000
vt -0.250000 -2.611449 0.000000
vt -0.000000 -2.611449 0.000000
vt -0.250000 -2.089159 0.000000
vt -0.000000 -2.089159 0.000000
vt -0.250000 -1.566869 0.000000
vt -0.000000 -1.566869 0.000000
vt -0.250000 -1.044580 0.000000
vt -0.000000 -1.044580 0.000000
vt -0.250000 -0.522290 0.000000
vt -0.000000 -0.522290 0.000000
vt -0.250000 0.000000 0.000000
vt -0.000000 0.000000 0.000000
vt -0.250000 0.522290 0.000000
vt -0.000000 0.522290 0.000000
vt -0.250000 1.044580 0.000000
vt -0.000000 1.044580 0.000000
vt -0.250000 1.566869 0.000000
vt -0.000000 1.566869 0.000000
vt -0.250000 2.089159 0.000000
vt -0.000000 2.089159 0.000000
vt -0.264138 -0.152500 0.000000
vt -0.138564 -0.080000 0.000000
vt -0.305000 0.000000 0.000000
vt -0.160000 0.000000 0.000000
vt -0.138564 0.080000 0.000000
vt -0.080000 -0.138564 0.000000
vt -0.152500 -0.264138 0.000000
vt -0.000000 -0.160000 0.000000
vt -0.000000 -0.305000 0.000000
vt 0.152500 -0.264138 0.000000
vt 0.080000 -0.138564 0.000000
vt 0.264138 -0.152500 0.000000
vt 0.138564 -0.080000 0.000000
vt 0.160000 0.000000 0.000000
vt 0.305000 0.000000 0.000000
vt 0.138564 0.080000 0.000000
vt 0.264138 0.152500 0.000000
vt 0.080000 0.138564 0.000000
vt 0.152500 0.264138 0.000000
vt -0.000000 0.160000 0.000000
vt -0.000000 0.305000 0.000000
vt -0.152500 0.264138 0.000000
vt -0.080000 0.138564 0.000000
vt -0.264138 0.152500 0.000000
vt -0.255000 -0.638791 0.000000
vt -0.000000 -0.638791 0.000000
vt -0.255000 -0.479093 0.000000
vt -0.000000 -0.479093 0.000000
vt -0.255000 -0.319395 0.000000
vt 0.000000 -0.319395 0.000000
vt -0.255000 -0.159698 0.000000
vt -0.000000 -0.159698 0.000000
vt -0.255000 0.000000 0.000000
vt -0.000000 0.000000 0.000000
vt -0.255000 0.159698 0.000000
vt -0.000000 0.159698 0.000000
vt -0.255000 0.319395 0.000000
vt -0.000000 0.319395 0.000000
vt -0.255000 0.479093 0.000000
vt -0.000000 0.479093 0.000000
vt -0.255000 0.638791 0.000000
vt -0.000000 0.638791 0.000000
vt -0.255000 0.798488 0.000000
vt -0.000000 0.798488 0.000000
vt -0.255000 0.958186 0.000000
vt -0.000000 0.958186 0.000000
vt -0.255000 -0.958186 0.000000
vt -0.000000 -0.958186 0.000000
vt -0.255000 -0.798488 0.000000
vt -0.000000 -0.798488 0.000000
vn 0.050000 0.000000 -0.086603
vn 0.050000 0.000000 -0.086603
vn 0.000000 0.000000 -0.100000
vn 0.000000 0.000000 -0.100000
vn -0.050000 0.000000 -0.086603
vn -0.050000 0.000000 -0.086603
vn -0.086603 0.000000 -0.050000
vn -0.086603 0.000000 -0.050000
vn -0.100000 0.000000 -0.000000
vn -0.100000 0.000000 -0.000000
vn -0.086603 0.000000 0.050000
vn -0.086603 0.000000 0.050000
vn -0.050000 0.000000 0.086603
vn -0.050000 0.000000 0.086603
vn -0.000000 0.000000 0.100000
vn -0.000000 0.000000 0.100000
vn 0.050000 -0.000000 0.086603
vn 0.050000 -0.000000 0.086603
vn 0.086603 -0.000000 0.050000
vn 0.086603 -0.000000 0.050000
vn 0.100000 -0.000000 0.000000
vn 0.100000 -0.000000 0.000000
vn 0.086603 0.000000 -0.050000
vn 0.086603 0.000000 -0.050000
vn 0.050000 0.000000 -0.086603
vn 0.050000 0.000000 -0.086603
vn 0.000000 0.000000 -0.100000
vn 0.000000 0.000000 -0.100000
vn -0.050000 0.000000 -0.086603
vn -0.050000 0.000000 -0.086603
vn -0.086603 0.000000 -0.050000
vn -0.086603 0.000000 -0.050000
vn -0.100000 0.000000 -0.000000
vn -0.100000 0.000000 -0.000000
vn -0.086603 0.000000 0.050000
vn -0.086603 0.000000 0.050000
vn -0.050000 0.000000 0.086603
vn -0.050000 0.000000 0.086603
vn -0.000000 0.000000 0.100000
vn -0.000000 0.000000 0.100000
vn 0.050000 -0.000000 0.086603
vn 0.050000 -0.000000 0.086603
vn 0.086603 -0.000000 0.050000
vn 0.086603 -0.000000 0.050000
vn 0.100000 -0.000000 0.000000
vn 0.100000 -0.000000 0.000000
vn 0.086603 0.000000 -0.050000
vn 0.086603 0.000000 -0.050000
vn 0.050000 0.000000 -0.086603
vn 0.050000 0.000000 -0.086603
vn 0.000000 0.000000 -0.100000
vn 0.000000 0.000000 -0.100000
vn -0.050000 0.000000 -0.086603
vn -0.050000 0.000000 -0.086603
vn -0.086603 0.000000 -0.050000
vn -0.086603 0.000000 -0.050000
vn -0.100000 0.000000 -0.000000
vn -0.100000 0.000000 -0.000000
vn -0.086603 0.000000 0.050000
vn -0.086603 0.000000 0.050000
vn -0.050000 0.000000 0.086603
vn -0.050000 0.000000 0.086603
vn -0.000000 0.000000 0.100000
vn -0.000000 0.000000 0.100000
vn 0.050000 -0.000000 0.086603
vn 0.050000 -0.000000 0.086603
vn 0.086603 -0.000000 0.050000
vn 0.086603 -0.000000 0.050000
vn 0.100000 0.000000 -0.000000
vn 0.100000 0.000000 -0.000000
vn 0.086603 0.000000 -0.050000
vn 0.086603 0.000000 -0.050000
vn 0.050000 0.000000 -0.086603
vn 0.050000 0.000000 -0.086603
vn 0.000000 0.000000 -0.100000
vn 0.000000 0.000000 -0.100000
vn -0.050000 0.000000 -0.086603
vn -0.050000 0.000000 -0.086603
vn -0.086603 0.000000 -0.050000
vn -0.086603 0.000000 -0.050000
vn -0.100000 0.000000 -0.000000
vn -0.100000 0.000000 -0.000000
vn -0.086603 0.000000 0.050000
vn -0.086603 0.000000 0.050000
vn -0.050000 0.000000 0.086603
vn -0.050000 0.000000 0.086603
vn -0.000000 0.000000 0.100000
vn -0.000000 0.000000 0.100000
vn 0.050000 -0.000000 0.086603
vn 0.050000 -0.000000 0.086603
vn 0.086603 -0.000000 0.050000
vn 0.086603 -0.000000 0.050000
vn 0.100000 0.000000 -0.000000
vn 0.100000 0.000000 -0.000000
vn 0.086603 0.000000 -0.050000
vn 0.086603 0.000000 -0.050000
vn 0.050000 0.000000 -0.086603
vn 0.050000 0.000000 -0.086603
vn 0.000000 0.000000 -0.100000
vn 0.000000 0.000000 -0.100000
vn -0.050000 0.000000 -0.086603
vn -0.050000 0.000000 -0.086603
vn -0.086603 0.000000 -0.050000
vn -0.086603 0.000000 -0.050000
vn -0.100000 0.000000 -0.000000
vn -0.100000 0.000000 -0.000000
vn -0.086603 0.000000 0.050000
vn -0.086603 0.000000 0.050000
vn -0.050000 0.000000 0.086603
vn -0.050000 0.000000 0.086603
vn -0.000000 0.000000 0.100000
vn -0.000000 0.000000 0.100000
vn 0.050000 -0.000000 0.086603
vn 0.050000 -0.000000 0.086603
vn 0.086603 -0.000000 0.050000
vn 0.086603 -0.000000 0.050000
vn 0.100000 -0.000000 0.000000
vn 0.100000 -0.000000 0.000000
vn 0.086603 0.000000 -0.050000
vn 0.086603 0.000000 -0.050000
vn 0.000000 -0.100000 0.000000
vn 0.000000 -0.100000 0.000000
vn 0.000000 -0.100000 0.000000
vn 0.000000 -0.100000 0.000000
vn 0.000000 -0.100000 0.000000
vn 0.000000 -0.100000 0.000000
vn 0.000000 -0.100000 0.000000
vn 0.000000 -0.100000 0.000000
vn 0.000000 -0.100000 0.000000
vn 0.000000 -0.100000 0.000000
vn 0.000000 -0.100000 0.000000
vn 0.000000 -0.100000 0.000000
vn 0.000000 -0.100000 0.000000
vn 0.000000 -0.100000 0.000000
vn 0.000000 -0.100000 0.000000
vn 0.000000 -0.100000 0.000000
vn 0.000000 -0.100000 0.000000
vn 0.000000 -0.100000 0.000000
vn 0.000000 -0.100000 0.000000
vn 0.000000 -0.100000 0.000000
vn 0.000000 -0.100000 0.000000
vn 0.000000 -0.100000 0.000000
vn 0.000000 -0.100000 0.000000
vn 0.000000 -0.100000 0.000000
vn 0.000000 -0.100000 0.000000
vn 0.000000 -0.100000 0.000000
vn 0.000000 -0.100000 0.000000
vn 0.000000 -0.100000 0.000000
vn 0.000000 -0.100000 0.000000
vn 0.000000 -0.100000 0.000000
vn 0.000000 -0.100000 0.000000
vn 0.000000 -0.100000 0.000000
vn 0.000000 -0.100000 0.000000
vn 0.000000 -0.100000 0.000000
vn 0.000000 -0.100000 0.000000
vn 0.000000 -0.100000 0.000000
vn 0.000000 -0.100000 0.000000
vn 0.000000 -0.100000 0.000000
vn 0.000000 -0.100000 0.000000
vn 0.000000 -0.100000 0.000000
vn 0.000000 -0.100000 0.000000
vn 0.000000 -0.100000 0.000000
vn 0.000000 -0.100000 0.000000
vn 0.000000 -0.100000 0.000000
vn 0.000000 -0.100000 0.000000
vn 0.000000 -0.100000 0.000000
vn 0.000000 -0.100000 0.000000
vn 0.000000 -0.100000 0.000000
vn 0.000000 -0.100000 0.000000
vn 0.000000 -0.100000 0.000000
vn 0.000000 -0.100000 0.000000
vn 0.000000 -0.100000 0.000000
vn 0.000000 -0.100000 0.000000
vn 0.000000 -0.100000 0.000000
vn 0.000000 -0.100000 0.000000
vn 0.000000 -0.100000 0.000000
vn 0.000000 -0.100000 0.000000
vn 0.000000 -0.100000 0.000000
vn 0.000000 -0.100000 0.000000
vn 0.000000 -0.100000 0.000000
vn 0.000000 -0.100000 0.000000
vn 0.000000 -0.100000 0.000000
vn 0.000000 -0.100000 0.000000
vn 0.000000 -0.100000 0.000000
vn 0.000000 -0.100000 0.000000
vn 0.000000 -0.100000 0.000000
vn 0.000000 -0.100000 0.000000
vn 0.000000 -0.100000 0.000000
vn 0.000000 -0.100000 0.000000
vn 0.000000 -0.100000 0.000000
vn 0.000000 -0.100000 0.000000
vn 0.000000 -0.100000 0.000000
vn 0.000000 0.100000 0.000000
vn 0.000000 0.100000 0.000000
vn 0.000000 0.100000 0.000000
vn 0.000000 0.100000 0.000000
vn 0.000000 0.100000 0.000000
vn 0.000000 0.100000 0.000000
vn 0.000000 0.100000 0.000000
vn 0.000000 0.100000 0.000000
vn 0.000000 0.100000 0.000000
vn 0.000000 0.100000 0.000000
vn 0.000000 0.100000 0.000000
vn 0.000000 0.100000 0.000000
vn 0.000000 0.100000 0.000000
vn 0.000000 0.100000 0.000000
vn 0.000000 0.100000 0.000000
vn 0.000000 0.100000 0.000000
vn 0.000000 0.100000 0.000000
vn 0.000000 0.100000 0.000000
vn 0.000000 0.100000 0.000000
vn 0.000000 0.100000 0.000000
vn 0.000000 0.100000 0.000000
vn 0.000000 0.100000 0.000000
vn 0.000000 0.100000 0.000000
vn 0.000000 0.100000 0.000000
vn 0.000000 0.100000 0.000000
vn 0.000000 0.100000 0.000000
vn 0.000000 0.100000 0.000000
vn 0.000000 0.100000 0.000000
vn 0.000000 0.100000 0.000000
vn 0.000000 0.100000 0.000000
vn 0.000000 0.100000 0.000000
vn 0.000000 0.100000 0.000000
vn 0.000000 0.100000 0.000000
vn 0.000000 0.100000 0.000000
vn 0.000000 0.100000 0.000000
vn 0.000000 0.100000 0.000000
vn 0.000000 0.100000 0.000000
vn 0.000000 0.100000 0.000000
vn 0.000000 0.100000 0.000000
vn 0.000000 0.100000 0.000000
vn 0.000000 0.100000 0.000000
vn 0.000000 0.100000 0.000000
vn 0.000000 0.100000 0.000000
vn 0.000000 0.100000 0.000000
vn 0.000000 0.100000 0.000000
vn 0.000000 0.100000 0.000000
vn 0.000000 0.100000 0.000000
vn 0.000000 0.100000 0.000000
vn 0.000000 0.100000 0.000000
vn 0.000000 0.100000 0.000000
vn 0.000000 0.100000 0.000000
vn 0.000000 0.100000 0.000000
vn 0.000000 0.100000 0.000000
vn 0.000000 0.100000 0.000000
vn 0.000000 0.100000 0.000000
vn 0.000000 0.100000 0.000000
vn 0.000000 0.100000 0.000000
vn 0.000000 0.100000 0.000000
vn 0.000000 0.100000 0.000000
vn 0.000000 0.100000 0.000000
vn 0.000000 0.100000 0.000000
vn 0.000000 0.100000 0.000000
vn 0.000000 0.100000 0.000000
vn 0.000000 0.100000 0.000000
vn 0.000000 0.100000 0.000000
vn 0.000000 0.100000 0.000000
vn 0.000000 0.100000 0.000000
vn 0.000000 0.100000 0.000000
vn 0.000000 0.100000 0.000000
vn 0.000000 0.100000 0.000000
vn 0.000000 0.100000 0.000000
vn 0.000000 0.100000 0.000000
vn 0.050000 0.000000 0.086603
vn 0.050000 0.000000 0.086603
vn 0.000000 0.000000 0.100000
vn 0.000000 0.000000 0.100000
vn -0.050000 0.000000 0.086603
vn -0.050000 0.000000 0.086603
vn -0.086603 0.000000 0.050000
vn -0.086603 0.000000 0.050000
vn -0.100000 0.000000 -0.000000
vn -0.100000 0.000000 -0.000000
vn -0.086603 0.000000 -0.050000
vn -0.086603 0.000000 -0.050000
vn -0.050000 0.000000 -0.086603
vn -0.050000 0.000000 -0.086603
vn 0.000000 0.000000 -0.100000
vn 0.000000 0.000000 -0.100000
vn 0.050000 0.000000 -0.086603
vn 0.050000 0.000000 -0.086603
vn 0.086603 0.000000 -0.050000
vn 0.086603 0.000000 -0.050000
vn 0.100000 0.000000 0.000000
vn 0.100000 0.000000 0.000000
vn 0.086603 0.000000 0.050000
vn 0.086603 0.000000 0.050000
vn 0.000000 -0.100000 0.000000
vn 0.000000 -0.100000 0.000000
vn 0.000000 -0.100000 0.000000
vn 0.000000 -0.100000 0.000000
vn 0.000000 -0.100000 0.000000
vn 0.000000 -0.100000 0.000000
vn 0.000000 -0.100000 0.000000
vn 0.000000 -0.100000 0.000000
vn 0.000000 -0.100000 0.000000
vn 0.000000 -0.100000 0.000000
vn 0.000000 -0.100000 0.000000
vn 0.000000 -0.100000 0.000000
vn 0.000000 -0.100000 0.000000
vn 0.000000 -0.100000 0.000000
vn 0.000000 -0.100000 0.000000
vn 0.000000 -0.100000 0.000000
vn 0.000000 -0.100000 0.000000
vn 0.000000 -0.100000 0.000000
vn 0.000000 -0.100000 0.000000
vn 0.000000 -0.100000 0.000000
vn 0.000000 -0.100000 0.000000
vn 0.000000 -0.100000 0.000000
vn 0.000000 -0.100000 0.000000
vn 0.000000 -0.100000 0.000000
vn -0.086603 0.000000 0.050000
vn -0.086603 0.000000 0.050000
vn -0.100000 0.000000 -0.000000
vn -0.100000 0.000000 -0.000000
vn -0.086603 0.000000 -0.050000
vn -0.086603 0.000000 -0.050000
vn -0.050000 0.000000 -0.086603
vn -0.050000 0.000000 -0.086603
vn 0.000000 0.000000 -0.100000
vn 0.000000 0.000000 -0.100000
vn 0.050000 0.000000 -0.086603
vn 0.050000 0.000000 -0.086603
vn 0.086603 0.000000 -0.050000
vn 0.086603 0.000000 -0.050000
vn 0.100000 0.000000 0.000000
vn 0.100000 0.000000 0.000000
vn 0.086603 0.000000 0.050000
vn 0.086603 0.000000 0.050000
vn 0.050000 0.000000 0.086603
vn 0.050000 0.000000 0.086603
vn 0.000000 0.000000 0.100000
vn 0.000000 0.000000 0.100000
vn -0.050000 0.000000 0.086603
vn -0.050000 0.000000 0.086603
usemtl Opaque(159,170,179)
f 2/1/1 24/2/2 1/3/3
f 1/3/3 24/2/2 13/4/4
f 1/3/3 13/4/4 12/5/5
f 12/5/5 13/4/4 14/6/6
f 12/5/5 14/6/6 11/7/7
f 11/7/7 14/6/6 15/8/8
f 11/7/7 15/8/8 10/9/9
f 10/9/9 15/8/8 16/10/10
f 10/9/9 16/10/10 9/11/11
f 9/11/11 16/10/10 17/12/12
f 9/11/11 17/12/12 8/13/13
f 8/13/13 17/12/12 18/14/14
f 8/13/13 18/14/14 7/15/15
f 7/15/15 18/14/14 19/16/16
f 7/17/15 19/18/16 6/19/17
f 6/19/17 19/18/16 20/20/18
f 6/19/17 20/20/18 5/21/19
f 5/21/19 20/20/18 21/22/20
f 5/21/19 21/22/20 4/23/21
f 4/23/21 21/22/20 22/24/22
f 4/23/21 22/24/22 3/25/23
f 3/25/23 22/24/22 23/26/24
f 3/25/23 23/26/24 2/1/1
f 2/1/1 23/26/24 24/2/2
f 26/27/25 48/28/26 25/29/27
f 25/29/27 48/28/26 37/30/28
f 25/29/27 37/30/28 36/31/29
f 36/31/29 37/30/28 38/32/30
f 36/31/29 38/32/30 35/33/31
f 35/33/31 38/32/30 39/34/32
f 35/33/31 39/34/32 34/35/33
f 34/35/33 39/34/32 40/36/34
f 34/35/33 40/36/34 33/37/35
f 33/37/35 40/36/34 41/38/36
f 33/37/35 41/38/36 32/39/37
f 32/39/37 41/38/36 42/40/38
f 32/39/37 42/40/38 31/41/39
f 31/41/39 42/40/38 43/42/40
f 31/43/39 43/44/40 30/45/41
f 30/45/41 43/44/40 44/46/42
f 30/45/41 44/46/42 29/47/43
f 29/47/43 44/46/42 45/48/44
f 29/47/43 45/48/44 28/49/45
f 28/49/45 45/48/44 46/50/46
f 28/49/45 46/50/46 27/51/47
f 27/51/47 46/50/46 47/52/48
f 27/51/47 47/52/48 26/27/25
f 26/27/25 47/52/48 48/28/26
f 50/53/49 72/54/50 49/55/51
f 49/55/51 72/54/50 61/56/52
f 49/55/51 61/56/52 60/57/53
f 60/57/53 61/56/52 62/58/54
f 60/57/53 62/58/54 59/59/55
f 59/59/55 62/58/54 63/60/56
f 59/59/55 63/60/56 58/61/57
f 58/61/57 63/60/56 64/62/58
f 58/61/57 64/62/58 57/63/59
f 57/63/59 64/62/58 65/64/60
f 57/63/59 65/64/60 56/65/61
f 56/65/61 65/64/60 66/66/62
f 56/65/61 66/66/62 55/67/63
f 55/67/63 66/66/62 67/68/64
f 55/69/63 67/70/64 54/71/65
f 54/71/65 67/70/64 68/72/66
f 54/71/65 68/72/66 53/73/67
f 53/73/67 68/72/66 69/74/68
f 53/73/67 69/74/68 52/75/69
f 52/75/69 69/74/68 70/76/70
f 52/75/69 70/76/70 51/77/71
f 51/77/71 70/76/70 71/78/72
f 51/77/71 71/78/72 50/53/49
f 50/53/49 71/78/72 72/54/50
f 74/79/73 96/80/74 73/81/75
f 73/81/75 96/80/74 85/82/76
f 73/81/75 85/82/76 84/83/77
f 84/83/77 85/82/76 86/84/78
f 84/83/77 86/84/78 83/85/79
f 83/85/79 86/84/78 87/86/80
f 83/85/79 87/86/80 82/87/81
f 82/87/81 87/86/80 88/88/82
f 82/87/81 88/88/82 81/89/83
f 81/89/83 88/88/82 89/90/84
f 81/89/83 89/90/84 80/91/85
f 80/91/85 89/90/84 90/92/86
f 80/91/85 90/92/86 79/93/87
f 79/93/87 90/92/86 91/94/88
f 79/95/87 91/96/88 78/97/89
f 78/97/89 91/96/88 92/98/90
f 78/97/89 92/98/90 77/99/91
f 77/99/91 92/98/90 93/100/92
f 77/99/91 93/100/92 76/101/93
f 76/101/93 93/100/92 94/102/94
f 76/101/93 94/102/94 75/103/95
f 75/103/95 94/102/94 95/104/96
f 75/103/95 95/104/96 74/79/73
f 74/79/73 95/104/96 96/80/74
f 98/105/97 120/106/98 97/107/99
f 97/107/99 120/106/98 109/108/100
f 97/107/99 109/108/100 108/109/101
f 108/109/101 109/108/100 110/110/102
f 108/109/101 110/110/102 107/111/103
f 107/111/103 110/110/102 111/112/104
f 107/111/103 111/112/104 106/113/105
f 106/113/105 111/112/104 112/114/106
f 106/113/105 112/114/106 105/115/107
f 105/115/107 112/114/106 113/116/108
f 105/115/107 113/116/108 104/117/109
f 104/117/109 113/116/108 114/118/110
f 104/117/109 114/118/110 103/119/111
f 103/119/111 114/118/110 115/120/112
f 103/121/111 115/122/112 102/123/113
f 102/123/113 115/122/112 116/124/114
f 102/123/113 116/124/114 101/125/115
f 101/125/115 116/124/114 117/126/116
f 101/125/115 117/126/116 100/127/117
f 100/127/117 117/126/116 118/128/118
f 100/127/117 118/128/118 99/129/119
f 99/129/119 118/128/118 119/130/120
f 99/129/119 119/130/120 98/105/97
f 98/105/97 119/130/120 120/106/98
f 122/131/121 50/132/122 121/133/123
f 121/133/123 50/132/122 49/134/124
f 121/133/123 49/134/124 60/135/125
f 123/136/126 53/137/127 122/131/121
f 122/131/121 53/137/127 52/138/128
f 122/131/121 52/138/128 51/139/129
f 124/140/130 27/141/131 123/136/126
f 123/136/126 27/141/131 26/142/132
f 123/136/126 26/142/132 25/143/133
f 125/144/134 29/145/135 124/140/130
f 124/140/130 29/145/135 28/146/136
f 124/140/130 28/146/136 27/141/131
f 126/147/137 75/148/138 125/144/134
f 125/144/134 75/148/138 143/149/139
f 125/144/134 143/149/139 144/150/140
f 127/151/141 78/152/142 126/147/137
f 126/147/137 78/152/142 77/153/143
f 126/147/137 77/153/143 76/154/144
f 128/155/145 80/156/146 127/151/141
f 127/151/141 80/156/146 79/157/147
f 127/151/141 79/157/147 78/152/142
f 129/158/148 83/159/149 128/155/145
f 128/155/145 83/159/149 82/160/150
f 128/155/145 82/160/150 81/161/151
f 130/162/152 105/163/153 129/158/148
f 129/158/148 105/163/153 104/164/154
f 129/158/148 104/164/154 103/165/155
f 131/166/156 107/167/157 130/162/152
f 130/162/152 107/167/157 106/168/158
f 130/162/152 106/168/158 105/163/153
f 132/169/159 57/170/160 131/166/156
f 131/166/156 57/170/160 137/171/161
f 131/166/156 137/171/161 138/172/162
f 121/133/123 60/135/125 132/169/159
f 132/169/159 60/135/125 59/173/163
f 132/169/159 59/173/163 58/174/164
f 134/175/165 35/176/166 133/177/167
f 133/177/167 35/176/166 34/178/168
f 133/177/167 34/178/168 33/179/169
f 135/180/170 123/136/126 134/175/165
f 134/175/165 123/136/126 36/181/171
f 134/175/165 36/181/171 35/176/166
f 136/182/172 54/183/173 135/180/170
f 135/180/170 54/183/173 53/137/127
f 135/180/170 53/137/127 123/136/126
f 137/171/161 56/184/174 136/182/172
f 136/182/172 56/184/174 55/185/175
f 136/182/172 55/185/175 54/183/173
f 139/186/176 99/187/177 138/172/162
f 138/172/162 99/187/177 98/188/178
f 138/172/162 98/188/178 131/166/156
f 131/166/156 98/188/178 97/189/179
f 131/166/156 97/189/179 108/190/180
f 140/191/181 101/192/182 139/186/176
f 139/186/176 101/192/182 100/193/183
f 139/186/176 100/193/183 99/187/177
f 141/194/184 129/158/148 140/191/181
f 140/191/181 129/158/148 102/195/185
f 140/191/181 102/195/185 101/192/182
f 142/196/186 84/197/187 141/194/184
f 141/194/184 84/197/187 83/159/149
f 141/194/184 83/159/149 129/158/148
f 143/149/139 74/198/188 142/196/186
f 142/196/186 74/198/188 73/199/189
f 142/196/186 73/199/189 84/197/187
f 133/177/167 33/179/169 144/150/140
f 144/150/140 33/179/169 32/200/190
f 144/150/140 32/200/190 125/144/134
f 125/144/134 32/200/190 31/201/191
f 125/144/134 31/201/191 30/202/192
f 108/190/180 107/167/157 131/166/156
f 103/165/155 102/195/185 129/158/148
f 81/161/151 80/156/146 128/155/145
f 76/154/144 75/148/138 126/147/137
f 75/148/138 74/198/188 143/149/139
f 58/174/164 57/170/160 132/169/159
f 57/170/160 56/184/174 137/171/161
f 51/139/129 50/132/122 122/131/121
f 25/143/133 36/181/171 123/136/126
f 30/202/192 29/145/135 125/144/134
f 146/203/193 62/204/194 145/205/195
f 145/205/195 62/204/194 61/206/196
f 145/205/195 61/206/196 72/207/197
f 147/208/198 65/209/199 146/203/193
f 146/203/193 65/209/199 64/210/200
f 146/203/193 64/210/200 63/211/201
f 148/212/202 111/213/203 147/208/198
f 147/208/198 111/213/203 110/214/204
f 147/208/198 110/214/204 109/215/205
f 149/216/206 113/217/207 148/212/202
f 148/212/202 113/217/207 112/218/208
f 148/212/202 112/218/208 111/213/203
f 150/219/209 87/220/210 149/216/206
f 149/216/206 87/220/210 116/221/211
f 149/216/206 116/221/211 115/222/212
f 151/223/213 90/224/214 150/219/209
f 150/219/209 90/224/214 89/225/215
f 150/219/209 89/225/215 88/226/216
f 152/227/217 92/228/218 151/223/213
f 151/223/213 92/228/218 91/229/219
f 151/223/213 91/229/219 90/224/214
f 153/230/220 95/231/221 152/227/217
f 152/227/217 95/231/221 94/232/222
f 152/227/217 94/232/222 93/233/223
f 154/234/224 45/235/225 153/230/220
f 153/230/220 45/235/225 44/236/226
f 153/230/220 44/236/226 43/237/227
f 155/238/228 47/239/229 154/234/224
f 154/234/224 47/239/229 46/240/230
f 154/234/224 46/240/230 45/235/225
f 156/241/231 69/242/232 155/238/228
f 155/238/228 69/242/232 38/243/233
f 155/238/228 38/243/233 37/244/234
f 145/205/195 72/207/197 156/241/231
f 156/241/231 72/207/197 71/245/235
f 156/241/231 71/245/235 70/246/236
f 24/247/237 68/248/238 13/249/239
f 13/249/239 68/248/238 67/250/240
f 13/249/239 67/250/240 66/251/241
f 23/252/242 38/243/233 24/247/237
f 24/247/237 38/243/233 69/242/232
f 24/247/237 69/242/232 68/248/238
f 38/243/233 23/252/242 39/253/243
f 39/253/243 23/252/242 22/254/244
f 39/253/243 22/254/244 40/255/245
f 40/255/245 22/254/244 41/256/246
f 41/256/246 22/254/244 21/257/247
f 41/256/246 21/257/247 42/258/248
f 42/258/248 21/257/247 20/259/249
f 42/258/248 20/259/249 95/231/221
f 95/231/221 20/259/249 96/260/250
f 96/260/250 20/259/249 19/261/251
f 96/260/250 19/261/251 85/262/252
f 85/262/252 19/261/251 86/263/253
f 86/263/253 19/261/251 18/264/254
f 86/263/253 18/264/254 87/220/210
f 87/220/210 18/264/254 116/221/211
f 18/264/254 17/265/255 116/221/211
f 116/221/211 17/265/255 117/266/256
f 117/266/256 17/265/255 16/267/257
f 117/266/256 16/267/257 118/268/258
f 118/268/258 16/267/257 119/269/259
f 119/269/259 16/267/257 15/270/260
f 119/269/259 15/270/260 120/271/261
f 120/271/261 15/270/260 14/272/262
f 120/271/261 14/272/262 65/209/199
f 65/209/199 14/272/262 66/251/241
f 66/251/241 14/272/262 13/249/239
f 109/215/205 120/271/261 147/208/198
f 147/208/198 120/271/261 65/209/199
f 115/222/212 114/273/263 149/216/206
f 149/216/206 114/273/263 113/217/207
f 93/233/223 92/228/218 152/227/217
f 88/226/216 87/220/210 150/219/209
f 70/246/236 69/242/232 156/241/231
f 63/211/201 62/204/194 146/203/193
f 37/244/234 48/274/264 155/238/228
f 155/238/228 48/274/264 47/239/229
f 43/237/227 42/258/248 153/230/220
f 153/230/220 42/258/248 95/231/221
f 132/275/265 146/276/266 121/277/267
f 121/277/267 146/276/266 145/278/268
f 121/279/267 145/280/268 122/281/269
f 122/281/269 145/280/268 156/282/270
f 122/281/269 156/282/270 123/283/271
f 123/283/271 156/282/270 155/284/272
f 123/283/271 155/284/272 124/285/273
f 124/285/273 155/284/272 154/286/274
f 124/285/273 154/286/274 125/287/275
f 125/287/275 154/286/274 153/288/276
f 125/287/275 153/288/276 126/289/277
f 126/289/277 153/288/276 152/290/278
f 126/289/277 152/290/278 127/291/279
f 127/291/279 152/290/278 151/292/280
f 127/291/279 151/292/280 128/293/281
f 128/293/281 151/292/280 150/294/282
f 128/293/281 150/294/282 129/295/283
f 129/295/283 150/294/282 149/296/284
f 129/295/283 149/296/284 130/297/285
f 130/297/285 149/296/284 148/298/286
f 130/297/285 148/298/286 131/299/287
f 131/299/287 148/298/286 147/300/288
f 131/299/287 147/300/288 132/275/265
f 132/275/265 147/300/288 146/276/266
f 158/301/289 5/302/290 157/303/291
f 157/303/291 5/302/290 4/304/292
f 157/303/291 4/304/292 3/305/293
f 5/302/290 158/301/289 6/306/294
f 6/306/294 158/301/289 159/307/295
f 6/306/294 159/307/295 7/308/296
f 7/308/296 159/307/295 160/309/297
f 7/308/296 160/309/297 161/310/298
f 7/308/296 161/310/298 8/311/299
f 8/311/299 161/310/298 162/312/300
f 8/311/299 162/312/300 9/313/301
f 9/313/301 162/312/300 10/314/302
f 10/314/302 162/312/300 163/315/303
f 10/314/302 163/315/303 11/316/304
f 11/316/304 163/315/303 164/317/305
f 11/316/304 164/317/305 12/318/306
f 12/318/306 164/317/305 165/319/307
f 12/318/306 165/319/307 1/320/308
f 1/320/308 165/319/307 166/321/309
f 1/320/308 166/321/309 167/322/310
f 1/320/308 167/322/310 2/323/311
f 2/323/311 167/322/310 168/324/312
f 2/323/311 168/324/312 3/305/293
f 3/305/293 168/324/312 157/303/291
f 168/325/313 134/326/314 157/327/315
f 157/327/315 134/326/314 133/328/316
f 157/327/315 133/328/316 158/329/317
f 158/329/317 133/328/316 144/330/318
f 158/329/317 144/330/318 159/331/319
f 159/331/319 144/330/318 143/332/320
f 159/331/319 143/332/320 160/333/321
f 160/333/321 143/332/320 142/334/322
f 160/333/321 142/334/322 161/335/323
f 161/335/323 142/334/322 141/336/324
f 161/335/323 141/336/324 162/337/325
f 162/337/325 141/336/324 140/338/326
f 162/337/325 140/338/326 163/339/327
f 163/339/327 140/338/326 139/340/328
f 163/339/327 139/340/328 164/341/329
f 164/341/329 139/340/328 138/342/330
f 164/341/329 138/342/330 165/343/331
f 165/343/331 138/342/330 137/344/332
f 165/343/331 137/344/332 166/345/333
f 166/345/333 137/344/332 136/346/334
f 166/347/333 136/348/334 167/349/335
f 167/349/335 136/348/334 135/350/336
f 167/349/335 135/350/336 168/325/313
f 168/325/313 135/350/336 134/326/314
# 168 vertices
# 350 texture params
# 336 normals
# 352 facets

# 1 groups
