# WaveFront *.obj file (generated by Autodesk ATF)

mtllib External_Rod_1.mtl

g Body1

v -2.250000 -40.102886 -3.700000
v -2.250000 -40.102886 3.700000
v 32.391016 -20.102886 3.700000
v 32.391016 -20.102886 -3.700000
v 2.250000 -47.897114 -3.700000
v 2.250000 -47.897114 3.700000
v -0.000000 -48.500000 3.700000
v -2.250000 -47.897114 3.700000
v -3.897114 -46.250000 3.700000
v -4.500000 -44.000000 3.700000
v -3.897114 -41.750000 3.700000
v -3.897114 -41.750000 -3.700000
v -4.500000 -44.000000 -3.700000
v -3.897114 -46.250000 -3.700000
v -2.250000 -47.897114 -3.700000
v -0.000000 -48.500000 -3.700000
v 36.891016 -27.897114 -3.700000
v 36.891016 -27.897114 3.700000
v 34.641016 -19.500000 3.700000
v 36.891016 -20.102886 3.700000
v 38.538130 -21.750000 3.700000
v 39.141016 -24.000000 3.700000
v 38.538130 -26.250000 3.700000
v 38.538130 -26.250000 -3.700000
v 39.141016 -24.000000 -3.700000
v 38.538130 -21.750000 -3.700000
v 36.891016 -20.102886 -3.700000
v 34.641016 -19.500000 -3.700000
v -2.100000 -40.362693 4.000000
v -3.637307 -41.900000 4.000000
v -4.200000 -44.000000 4.000000
v -3.637307 -46.100000 4.000000
v -2.100000 -47.637307 4.000000
v 0.000000 -48.200000 4.000000
v 2.100000 -47.637307 4.000000
v 36.741016 -27.637307 4.000000
v 38.278323 -26.100000 4.000000
v 38.841016 -24.000000 4.000000
v 38.278323 -21.900000 4.000000
v 36.741016 -20.362693 4.000000
v 34.641016 -19.800000 4.000000
v 32.541016 -20.362693 4.000000
v 1.625000 -44.000000 4.000000
v 1.407291 -44.812500 4.000000
v 0.812500 -45.407291 4.000000
v 0.000000 -45.625000 4.000000
v -0.812500 -45.407291 4.000000
v -1.407291 -44.812500 4.000000
v -1.625000 -44.000000 4.000000
v -1.407291 -43.187500 4.000000
v -0.812500 -42.592709 4.000000
v 0.000000 -42.375000 4.000000
v 0.812500 -42.592709 4.000000
v 1.407291 -43.187500 4.000000
v 36.266016 -24.000000 4.000000
v 36.048307 -24.812500 4.000000
v 35.453516 -25.407291 4.000000
v 34.641016 -25.625000 4.000000
v 33.828516 -25.407291 4.000000
v 33.233725 -24.812500 4.000000
v 33.016016 -24.000000 4.000000
v 33.233725 -23.187500 4.000000
v 33.828516 -22.592709 4.000000
v 34.641016 -22.375000 4.000000
v 35.453516 -22.592709 4.000000
v 36.048307 -23.187500 4.000000
v 32.541016 -20.362693 -4.000000
v 34.641016 -19.800000 -4.000000
v 36.741016 -20.362693 -4.000000
v 38.278323 -21.900000 -4.000000
v 38.841016 -24.000000 -4.000000
v 38.278323 -26.100000 -4.000000
v 36.741016 -27.637307 -4.000000
v 2.100000 -47.637307 -4.000000
v 0.000000 -48.200000 -4.000000
v -2.100000 -47.637307 -4.000000
v -3.637307 -46.100000 -4.000000
v -4.200000 -44.000000 -4.000000
v -3.637307 -41.900000 -4.000000
v -2.100000 -40.362693 -4.000000
v 1.625000 -44.000000 -4.000000
v 1.407291 -43.187500 -4.000000
v 0.812500 -42.592709 -4.000000
v 0.000000 -42.375000 -4.000000
v -0.812500 -42.592709 -4.000000
v -1.407291 -43.187500 -4.000000
v -1.625000 -44.000000 -4.000000
v -1.407291 -44.812500 -4.000000
v -0.812500 -45.407291 -4.000000
v 0.000000 -45.625000 -4.000000
v 0.812500 -45.407291 -4.000000
v 1.407291 -44.812500 -4.000000
v 36.266016 -24.000000 -4.000000
v 36.048307 -23.187500 -4.000000
v 35.453516 -22.592709 -4.000000
v 34.641016 -22.375000 -4.000000
v 33.828516 -22.592709 -4.000000
v 33.233725 -23.187500 -4.000000
v 33.016016 -24.000000 -4.000000
v 33.233725 -24.812500 -4.000000
v 33.828516 -25.407291 -4.000000
v 34.641016 -25.625000 -4.000000
v 35.453516 -25.407291 -4.000000
v 36.048307 -24.812500 -4.000000
vt 2.000000 -0.030000 0.000000
vt -2.000000 -0.030000 0.000000
vt 2.000000 -0.770000 0.000000
vt -2.000000 -0.770000 0.000000
vt -0.770000 -0.942478 0.000000
vt -0.030000 -0.942478 0.000000
vt -0.770000 -0.706858 0.000000
vt -0.030000 -0.706858 0.000000
vt -0.770000 -0.471239 0.000000
vt -0.030000 -0.471239 0.000000
vt -0.770000 -0.235619 0.000000
vt -0.030000 -0.235619 0.000000
vt -0.770000 0.000000 0.000000
vt -0.030000 0.000000 0.000000
vt -0.770000 0.235619 0.000000
vt -0.030000 0.235619 0.000000
vt -0.770000 0.471239 0.000000
vt -0.030000 0.471239 0.000000
vt 2.000000 -0.030000 0.000000
vt -2.000000 -0.030000 0.000000
vt 2.000000 -0.770000 0.000000
vt -2.000000 -0.770000 0.000000
vt -0.770000 0.471239 0.000000
vt -0.030000 0.471239 0.000000
vt -0.770000 0.706858 0.000000
vt -0.030000 0.706858 0.000000
vt -0.770000 0.942478 0.000000
vt -0.030000 0.942478 0.000000
vt -0.770000 1.178097 0.000000
vt -0.030000 1.178097 0.000000
vt -0.770000 1.413717 0.000000
vt -0.030000 1.413717 0.000000
vt -0.770000 1.649336 0.000000
vt -0.030000 1.649336 0.000000
vt -0.770000 1.884956 0.000000
vt -0.030000 1.884956 0.000000
vt -2.095781 -0.790000 0.000000
vt -1.813301 -0.859271 0.000000
vt -1.942051 -0.636269 0.000000
vt -1.732051 -0.837500 0.000000
vt -1.650801 -0.859271 0.000000
vt -1.872780 -0.918750 0.000000
vt -2.152051 -1.000000 0.000000
vt -1.894551 -1.000000 0.000000
vt -1.872780 -1.081250 0.000000
vt -2.095781 -1.210000 0.000000
vt -1.813301 -1.140729 0.000000
vt -1.942051 -1.363731 0.000000
vt -1.732051 -1.162500 0.000000
vt -1.732051 -1.420000 0.000000
vt -1.522051 -1.363731 0.000000
vt 1.942051 0.636269 0.000000
vt -1.569551 -1.000000 0.000000
vt -1.591322 -1.081250 0.000000
vt -1.650801 -1.140729 0.000000
vt 2.095781 0.790000 0.000000
vt 1.813301 0.859271 0.000000
vt 1.732051 0.837500 0.000000
vt 1.650801 0.859271 0.000000
vt 1.872780 0.918750 0.000000
vt 2.152051 1.000000 0.000000
vt 1.894551 1.000000 0.000000
vt 1.872780 1.081250 0.000000
vt 2.095781 1.210000 0.000000
vt 1.813301 1.140729 0.000000
vt 1.942051 1.363731 0.000000
vt 1.732051 1.162500 0.000000
vt 1.732051 1.420000 0.000000
vt 1.522051 1.363731 0.000000
vt 1.569551 1.000000 0.000000
vt 1.591322 1.081250 0.000000
vt 1.650801 1.140729 0.000000
vt -1.591322 -0.918750 0.000000
vt 1.591322 0.918750 0.000000
vt -1.732051 1.420000 0.000000
vt -1.732051 1.162500 0.000000
vt -1.522051 1.363731 0.000000
vt -1.650801 1.140729 0.000000
vt -1.591322 1.081250 0.000000
vt -1.942051 1.363731 0.000000
vt -1.813301 1.140729 0.000000
vt -2.095781 1.210000 0.000000
vt -1.872780 1.081250 0.000000
vt -2.152051 1.000000 0.000000
vt -1.894551 1.000000 0.000000
vt -1.872780 0.918750 0.000000
vt -2.095781 0.790000 0.000000
vt -1.813301 0.859271 0.000000
vt -1.942051 0.636269 0.000000
vt -1.732051 0.837500 0.000000
vt -1.650801 0.859271 0.000000
vt 1.591322 -0.918750 0.000000
vt 1.650801 -0.859271 0.000000
vt 1.569551 -1.000000 0.000000
vt 1.522051 -1.363731 0.000000
vt 1.591322 -1.081250 0.000000
vt 1.650801 -1.140729 0.000000
vt 1.732051 -1.162500 0.000000
vt 1.732051 -1.420000 0.000000
vt 1.942051 -1.363731 0.000000
vt 1.813301 -1.140729 0.000000
vt 2.095781 -1.210000 0.000000
vt 1.872780 -1.081250 0.000000
vt 2.152051 -1.000000 0.000000
vt 1.894551 -1.000000 0.000000
vt 1.872780 -0.918750 0.000000
vt 2.095781 -0.790000 0.000000
vt 1.813301 -0.859271 0.000000
vt 1.942051 -0.636269 0.000000
vt 1.732051 -0.837500 0.000000
vt -1.591322 0.918750 0.000000
vt -1.569551 1.000000 0.000000
vt 8.272365 0.085085 0.000000
vt 7.472365 0.085085 0.000000
vt 8.272365 0.000000 0.000000
vt 7.472365 0.000000 0.000000
vt 8.272365 -0.085085 0.000000
vt 7.472365 -0.085085 0.000000
vt 8.272365 -0.170170 0.000000
vt 7.472365 -0.170170 0.000000
vt 8.272365 -0.255254 0.000000
vt 7.472365 -0.255254 0.000000
vt 8.272365 -0.340339 0.000000
vt 7.472365 -0.340339 0.000000
vt 8.272365 -0.425424 0.000000
vt 7.472365 -0.425424 0.000000
vt 8.272365 -0.510509 0.000000
vt 7.472365 -0.510509 0.000000
vt 8.272365 0.510509 0.000000
vt 7.472365 0.510509 0.000000
vt 8.272365 0.425424 0.000000
vt 7.472365 0.425424 0.000000
vt 8.272365 0.340339 0.000000
vt 7.472365 0.340339 0.000000
vt 8.272365 0.255254 0.000000
vt 7.472365 0.255254 0.000000
vt 8.272365 0.170170 0.000000
vt 7.472365 0.170170 0.000000
vt 8.272365 0.085085 0.000000
vt 7.472365 0.085085 0.000000
vt 8.272365 0.000000 0.000000
vt 7.472365 0.000000 0.000000
vt 8.272365 -0.085085 0.000000
vt 7.472365 -0.085085 0.000000
vt 8.272365 -0.170170 0.000000
vt 7.472365 -0.170170 0.000000
vt 8.272365 -0.255254 0.000000
vt 7.472365 -0.255254 0.000000
vt 8.272365 -0.340339 0.000000
vt 7.472365 -0.340339 0.000000
vt 8.272365 -0.425424 0.000000
vt 7.472365 -0.425424 0.000000
vt 8.272365 -0.510509 0.000000
vt 7.472365 -0.510509 0.000000
vt 8.272365 0.510509 0.000000
vt 7.472365 0.510509 0.000000
vt 8.272365 0.425424 0.000000
vt 7.472365 0.425424 0.000000
vt 8.272365 0.340339 0.000000
vt 7.472365 0.340339 0.000000
vt 8.272365 0.255254 0.000000
vt 7.472365 0.255254 0.000000
vt 8.272365 0.170170 0.000000
vt 7.472365 0.170170 0.000000
vt -2.000000 0.000000 0.000000
vt 2.000000 -0.000000 0.000000
vt -2.000000 0.042426 0.000000
vt 2.000000 0.042426 0.000000
vt 0.042426 0.455531 0.000000
vt -0.000000 0.455531 0.000000
vt 0.042426 0.227765 0.000000
vt -0.000000 0.227765 0.000000
vt 0.042426 -0.000000 0.000000
vt -0.000000 0.000000 0.000000
vt 0.042426 -0.227765 0.000000
vt 0.000000 -0.227765 0.000000
vt 0.042426 -0.455531 0.000000
vt -0.000000 -0.455531 0.000000
vt 0.042426 -0.683296 0.000000
vt -0.000000 -0.683296 0.000000
vt 0.042426 -0.911062 0.000000
vt -0.000000 -0.911062 0.000000
vt 0.000000 0.455531 0.000000
vt 0.042426 0.455531 0.000000
vt -0.000000 0.683296 0.000000
vt 0.042426 0.683296 0.000000
vt -0.000000 0.911062 0.000000
vt 0.042426 0.911062 0.000000
vt 0.000000 1.138827 0.000000
vt 0.042426 1.138827 0.000000
vt -0.000000 1.366593 0.000000
vt 0.042426 1.366593 0.000000
vt -0.000000 1.594358 0.000000
vt 0.042426 1.594358 0.000000
vt -0.000000 1.822124 0.000000
vt 0.042426 1.822124 0.000000
vt 2.000000 0.042426 0.000000
vt -2.000000 0.042426 0.000000
vt 2.000000 -0.000000 0.000000
vt -2.000000 -0.000000 0.000000
vt -2.000000 -0.000000 0.000000
vt 2.000000 -0.000000 0.000000
vt -2.000000 0.042426 0.000000
vt 2.000000 0.042426 0.000000
vt -0.042426 0.911062 0.000000
vt 0.000000 0.911062 0.000000
vt -0.042426 1.138827 0.000000
vt -0.000000 1.138827 0.000000
vt -0.042426 1.366593 0.000000
vt -0.000000 1.366593 0.000000
vt -0.042426 1.594358 0.000000
vt -0.000000 1.594358 0.000000
vt -0.042426 1.822124 0.000000
vt 0.000000 1.822124 0.000000
vt -0.042426 2.049889 0.000000
vt 0.000000 2.049889 0.000000
vt -0.042426 2.277655 0.000000
vt 0.000000 2.277655 0.000000
vt 0.000000 0.911062 0.000000
vt -0.042426 0.911062 0.000000
vt 0.000000 0.683296 0.000000
vt -0.042426 0.683296 0.000000
vt 0.000000 0.455531 0.000000
vt -0.042426 0.455531 0.000000
vt 0.000000 0.227765 0.000000
vt -0.042426 0.227765 0.000000
vt 0.000000 0.000000 0.000000
vt -0.042426 0.000000 0.000000
vt -0.000000 -0.227765 0.000000
vt -0.042426 -0.227765 0.000000
vt -0.000000 -0.455531 0.000000
vt -0.042426 -0.455531 0.000000
vt 2.000000 0.042426 0.000000
vt -2.000000 0.042426 0.000000
vt 2.000000 -0.000000 0.000000
vt -2.000000 -0.000000 0.000000
vn -0.050000 0.086603 0.000000
vn -0.050000 0.086603 0.000000
vn -0.050000 0.086603 0.000000
vn -0.050000 0.086603 0.000000
vn 0.050000 -0.086603 0.000000
vn 0.050000 -0.086603 0.000000
vn -0.000000 -0.100000 0.000000
vn -0.000000 -0.100000 0.000000
vn -0.050000 -0.086603 0.000000
vn -0.050000 -0.086603 0.000000
vn -0.086603 -0.050000 0.000000
vn -0.086603 -0.050000 0.000000
vn -0.100000 0.000000 -0.000000
vn -0.100000 0.000000 -0.000000
vn -0.086603 0.050000 -0.000000
vn -0.086603 0.050000 -0.000000
vn 0.050000 -0.086603 0.000000
vn 0.050000 -0.086603 0.000000
vn 0.000000 0.100000 0.000000
vn 0.000000 0.100000 0.000000
vn 0.050000 0.086603 0.000000
vn 0.050000 0.086603 0.000000
vn 0.086603 0.050000 0.000000
vn 0.086603 0.050000 0.000000
vn 0.100000 0.000000 0.000000
vn 0.100000 0.000000 0.000000
vn 0.086603 -0.050000 0.000000
vn 0.086603 -0.050000 0.000000
vn 0.000000 0.000000 0.100000
vn 0.000000 0.000000 0.100000
vn 0.000000 0.000000 0.100000
vn 0.000000 0.000000 0.100000
vn 0.000000 0.000000 0.100000
vn 0.000000 0.000000 0.100000
vn 0.000000 0.000000 0.100000
vn 0.000000 0.000000 0.100000
vn 0.000000 0.000000 0.100000
vn 0.000000 0.000000 0.100000
vn 0.000000 0.000000 0.100000
vn 0.000000 0.000000 0.100000
vn 0.000000 0.000000 0.100000
vn 0.000000 0.000000 0.100000
vn 0.000000 0.000000 0.100000
vn 0.000000 0.000000 0.100000
vn 0.000000 0.000000 0.100000
vn 0.000000 0.000000 0.100000
vn 0.000000 0.000000 0.100000
vn 0.000000 0.000000 0.100000
vn 0.000000 0.000000 0.100000
vn 0.000000 0.000000 0.100000
vn 0.000000 0.000000 0.100000
vn 0.000000 0.000000 0.100000
vn 0.000000 0.000000 0.100000
vn 0.000000 0.000000 0.100000
vn 0.000000 0.000000 0.100000
vn 0.000000 0.000000 0.100000
vn 0.000000 0.000000 0.100000
vn 0.000000 0.000000 0.100000
vn 0.000000 0.000000 0.100000
vn 0.000000 0.000000 0.100000
vn 0.000000 0.000000 0.100000
vn 0.000000 0.000000 0.100000
vn 0.000000 0.000000 0.100000
vn 0.000000 0.000000 0.100000
vn 0.000000 0.000000 0.100000
vn 0.000000 0.000000 0.100000
vn 0.000000 0.000000 -0.100000
vn 0.000000 0.000000 -0.100000
vn 0.000000 0.000000 -0.100000
vn 0.000000 0.000000 -0.100000
vn 0.000000 0.000000 -0.100000
vn 0.000000 0.000000 -0.100000
vn 0.000000 0.000000 -0.100000
vn 0.000000 0.000000 -0.100000
vn 0.000000 0.000000 -0.100000
vn 0.000000 0.000000 -0.100000
vn 0.000000 0.000000 -0.100000
vn 0.000000 0.000000 -0.100000
vn 0.000000 0.000000 -0.100000
vn 0.000000 0.000000 -0.100000
vn 0.000000 0.000000 -0.100000
vn 0.000000 0.000000 -0.100000
vn 0.000000 0.000000 -0.100000
vn 0.000000 0.000000 -0.100000
vn 0.000000 0.000000 -0.100000
vn 0.000000 0.000000 -0.100000
vn 0.000000 0.000000 -0.100000
vn 0.000000 0.000000 -0.100000
vn 0.000000 0.000000 -0.100000
vn 0.000000 0.000000 -0.100000
vn 0.000000 0.000000 -0.100000
vn 0.000000 0.000000 -0.100000
vn 0.000000 0.000000 -0.100000
vn 0.000000 0.000000 -0.100000
vn 0.000000 0.000000 -0.100000
vn 0.000000 0.000000 -0.100000
vn 0.000000 0.000000 -0.100000
vn 0.000000 0.000000 -0.100000
vn 0.000000 0.000000 -0.100000
vn 0.000000 0.000000 -0.100000
vn 0.000000 0.000000 -0.100000
vn 0.000000 0.000000 -0.100000
vn 0.000000 0.000000 -0.100000
vn 0.000000 0.000000 -0.100000
vn -0.086603 -0.050000 0.000000
vn -0.086603 -0.050000 0.000000
vn -0.100000 0.000000 0.000000
vn -0.100000 0.000000 0.000000
vn -0.086603 0.050000 0.000000
vn -0.086603 0.050000 0.000000
vn -0.050000 0.086603 0.000000
vn -0.050000 0.086603 0.000000
vn -0.000000 0.100000 0.000000
vn -0.000000 0.100000 0.000000
vn 0.050000 0.086603 0.000000
vn 0.050000 0.086603 0.000000
vn 0.086603 0.050000 0.000000
vn 0.086603 0.050000 0.000000
vn 0.100000 0.000000 0.000000
vn 0.100000 0.000000 0.000000
vn 0.086603 -0.050000 0.000000
vn 0.086603 -0.050000 0.000000
vn 0.050000 -0.086603 0.000000
vn 0.050000 -0.086603 0.000000
vn -0.000000 -0.100000 0.000000
vn -0.000000 -0.100000 0.000000
vn -0.050000 -0.086603 0.000000
vn -0.050000 -0.086603 0.000000
vn -0.086603 -0.050000 0.000000
vn -0.086603 -0.050000 0.000000
vn -0.100000 0.000000 0.000000
vn -0.100000 0.000000 0.000000
vn -0.086603 0.050000 0.000000
vn -0.086603 0.050000 0.000000
vn -0.050000 0.086603 0.000000
vn -0.050000 0.086603 0.000000
vn 0.000000 0.100000 0.000000
vn 0.000000 0.100000 0.000000
vn 0.050000 0.086603 0.000000
vn 0.050000 0.086603 0.000000
vn 0.086603 0.050000 0.000000
vn 0.086603 0.050000 0.000000
vn 0.100000 0.000000 0.000000
vn 0.100000 0.000000 0.000000
vn 0.086603 -0.050000 0.000000
vn 0.086603 -0.050000 0.000000
vn 0.050000 -0.086603 0.000000
vn 0.050000 -0.086603 0.000000
vn -0.000000 -0.100000 0.000000
vn -0.000000 -0.100000 0.000000
vn -0.050000 -0.086603 0.000000
vn -0.050000 -0.086603 0.000000
vn -0.035355 0.061237 0.070711
vn -0.035355 0.061237 0.070711
vn -0.035355 0.061237 0.070711
vn -0.035355 0.061237 0.070711
vn -0.061237 0.035355 0.070711
vn -0.061237 0.035355 0.070711
vn -0.070711 -0.000000 0.070711
vn -0.070711 0.000000 0.070711
vn -0.061237 -0.035355 0.070711
vn -0.061237 -0.035355 0.070711
vn -0.035355 -0.061237 0.070711
vn -0.035355 -0.061237 0.070711
vn 0.000000 -0.070711 0.070711
vn -0.000000 -0.070711 0.070711
vn 0.035355 -0.061237 0.070711
vn 0.035355 -0.061237 0.070711
vn 0.000000 0.070711 0.070711
vn -0.000000 0.070711 0.070711
vn 0.035355 0.061237 0.070711
vn 0.035355 0.061237 0.070711
vn 0.061237 0.035355 0.070711
vn 0.061237 0.035355 0.070711
vn 0.070711 0.000000 0.070711
vn 0.070711 0.000000 0.070711
vn 0.061237 -0.035355 0.070711
vn 0.061237 -0.035355 0.070711
vn 0.035355 -0.061237 0.070711
vn 0.035355 -0.061237 0.070711
vn -0.035355 0.061237 -0.070711
vn -0.035355 0.061237 -0.070711
vn -0.035355 0.061237 -0.070711
vn -0.035355 0.061237 -0.070711
vn -0.061237 0.035355 -0.070711
vn -0.061237 0.035355 -0.070711
vn -0.070711 0.000000 -0.070711
vn -0.070711 -0.000000 -0.070711
vn -0.061237 -0.035355 -0.070711
vn -0.061237 -0.035355 -0.070711
vn -0.035355 -0.061237 -0.070711
vn -0.035355 -0.061237 -0.070711
vn -0.000000 -0.070711 -0.070711
vn 0.000000 -0.070711 -0.070711
vn 0.035355 -0.061237 -0.070711
vn 0.035355 -0.061237 -0.070711
vn -0.000000 0.070711 -0.070711
vn 0.000000 0.070711 -0.070711
vn 0.035355 0.061237 -0.070711
vn 0.035355 0.061237 -0.070711
vn 0.061237 0.035355 -0.070711
vn 0.061237 0.035355 -0.070711
vn 0.070711 0.000000 -0.070711
vn 0.070711 0.000000 -0.070711
vn 0.061237 -0.035355 -0.070711
vn 0.061237 -0.035355 -0.070711
vn 0.035355 -0.061237 -0.070711
vn 0.035355 -0.061237 -0.070711
usemtl Opaque(230,230,230)
f 2/1/1 3/2/2 1/3/3
f 1/3/3 3/2/2 4/4/4
f 5/5/5 6/6/6 16/7/7
f 16/7/7 6/6/6 7/8/8
f 16/7/7 7/8/8 15/9/9
f 15/9/9 7/8/8 8/10/10
f 15/9/9 8/10/10 14/11/11
f 14/11/11 8/10/10 9/12/12
f 14/11/11 9/12/12 13/13/13
f 13/13/13 9/12/12 10/14/14
f 13/13/13 10/14/14 12/15/15
f 12/15/15 10/14/14 11/16/16
f 12/15/15 11/16/16 1/17/3
f 1/17/3 11/16/16 2/18/1
f 18/19/17 6/20/6 17/21/18
f 17/21/18 6/20/6 5/22/5
f 4/23/4 3/24/2 28/25/19
f 28/25/19 3/24/2 19/26/20
f 28/25/19 19/26/20 27/27/21
f 27/27/21 19/26/20 20/28/22
f 27/27/21 20/28/22 26/29/23
f 26/29/23 20/28/22 21/30/24
f 26/29/23 21/30/24 25/31/25
f 25/31/25 21/30/24 22/32/26
f 25/31/25 22/32/26 24/33/27
f 24/33/27 22/32/26 23/34/28
f 24/33/27 23/34/28 17/35/18
f 17/35/18 23/34/28 18/36/17
f 30/37/29 51/38/30 29/39/31
f 29/39/31 51/38/30 52/40/32
f 29/39/31 52/40/32 53/41/33
f 51/38/30 30/37/29 50/42/34
f 50/42/34 30/37/29 31/43/35
f 50/42/34 31/43/35 49/44/36
f 49/44/36 31/43/35 48/45/37
f 48/45/37 31/43/35 32/46/38
f 48/45/37 32/46/38 47/47/39
f 47/47/39 32/46/38 33/48/40
f 47/47/39 33/48/40 46/49/41
f 46/49/41 33/48/40 34/50/42
f 46/49/41 34/50/42 35/51/43
f 36/52/44 43/53/45 35/51/43
f 35/51/43 43/53/45 44/54/46
f 35/51/43 44/54/46 45/55/47
f 37/56/48 57/57/49 36/52/44
f 36/52/44 57/57/49 58/58/50
f 36/52/44 58/58/50 59/59/51
f 57/57/49 37/56/48 56/60/52
f 56/60/52 37/56/48 38/61/53
f 56/60/52 38/61/53 55/62/54
f 55/62/54 38/61/53 66/63/55
f 66/63/55 38/61/53 39/64/56
f 66/63/55 39/64/56 65/65/57
f 65/65/57 39/64/56 40/66/58
f 65/65/57 40/66/58 64/67/59
f 64/67/59 40/66/58 41/68/60
f 64/67/59 41/68/60 42/69/61
f 29/39/31 61/70/62 42/69/61
f 42/69/61 61/70/62 62/71/63
f 42/69/61 62/71/63 63/72/64
f 45/55/47 46/49/41 35/51/43
f 54/73/65 59/59/51 53/41/33
f 53/41/33 59/59/51 60/74/66
f 53/41/33 60/74/66 29/39/31
f 29/39/31 60/74/66 61/70/62
f 59/59/51 54/73/65 36/52/44
f 36/52/44 54/73/65 43/53/45
f 63/72/64 64/67/59 42/69/61
f 68/75/67 96/76/68 67/77/69
f 67/77/69 96/76/68 97/78/70
f 67/77/69 97/78/70 98/79/71
f 68/75/67 69/80/72 96/76/68
f 96/76/68 69/80/72 95/81/73
f 95/81/73 69/80/72 70/82/74
f 95/81/73 70/82/74 94/83/75
f 94/83/75 70/82/74 71/84/76
f 94/83/75 71/84/76 93/85/77
f 93/85/77 71/84/76 104/86/78
f 104/86/78 71/84/76 72/87/79
f 104/86/78 72/87/79 103/88/80
f 103/88/80 72/87/79 73/89/81
f 103/88/80 73/89/81 102/90/82
f 102/90/82 73/89/81 101/91/83
f 101/91/83 73/89/81 82/92/84
f 101/91/83 82/92/84 83/93/85
f 82/92/84 73/89/81 81/94/86
f 81/94/86 73/89/81 74/95/87
f 81/94/86 74/95/87 92/96/88
f 92/96/88 74/95/87 91/97/89
f 91/97/89 74/95/87 90/98/90
f 90/98/90 74/95/87 75/99/91
f 90/98/90 75/99/91 76/100/92
f 90/98/90 76/100/92 89/101/93
f 89/101/93 76/100/92 77/102/94
f 89/101/93 77/102/94 88/103/95
f 88/103/95 77/102/94 78/104/96
f 88/103/95 78/104/96 87/105/97
f 87/105/97 78/104/96 86/106/98
f 86/106/98 78/104/96 79/107/99
f 86/106/98 79/107/99 85/108/100
f 85/108/100 79/107/99 80/109/101
f 85/108/100 80/109/101 84/110/102
f 84/110/102 80/109/101 83/93/85
f 83/93/85 80/109/101 100/111/103
f 83/93/85 100/111/103 101/91/83
f 100/111/103 80/109/101 99/112/104
f 99/112/104 80/109/101 67/77/69
f 99/112/104 67/77/69 98/79/71
f 66/113/105 94/114/106 55/115/107
f 55/115/107 94/114/106 93/116/108
f 55/115/107 93/116/108 56/117/109
f 56/117/109 93/116/108 104/118/110
f 56/117/109 104/118/110 57/119/111
f 57/119/111 104/118/110 103/120/112
f 57/119/111 103/120/112 58/121/113
f 58/121/113 103/120/112 102/122/114
f 58/121/113 102/122/114 59/123/115
f 59/123/115 102/122/114 101/124/116
f 59/123/115 101/124/116 60/125/117
f 60/125/117 101/124/116 100/126/118
f 60/125/117 100/126/118 61/127/119
f 61/127/119 100/126/118 99/128/120
f 61/129/119 99/130/120 62/131/121
f 62/131/121 99/130/120 98/132/122
f 62/131/121 98/132/122 63/133/123
f 63/133/123 98/132/122 97/134/124
f 63/133/123 97/134/124 64/135/125
f 64/135/125 97/134/124 96/136/126
f 64/135/125 96/136/126 65/137/127
f 65/137/127 96/136/126 95/138/128
f 65/137/127 95/138/128 66/113/105
f 66/113/105 95/138/128 94/114/106
f 54/139/129 82/140/130 43/141/131
f 43/141/131 82/140/130 81/142/132
f 43/141/131 81/142/132 44/143/133
f 44/143/133 81/142/132 92/144/134
f 44/143/133 92/144/134 45/145/135
f 45/145/135 92/144/134 91/146/136
f 45/145/135 91/146/136 46/147/137
f 46/147/137 91/146/136 90/148/138
f 46/147/137 90/148/138 47/149/139
f 47/149/139 90/148/138 89/150/140
f 47/149/139 89/150/140 48/151/141
f 48/151/141 89/150/140 88/152/142
f 48/151/141 88/152/142 49/153/143
f 49/153/143 88/152/142 87/154/144
f 49/155/143 87/156/144 50/157/145
f 50/157/145 87/156/144 86/158/146
f 50/157/145 86/158/146 51/159/147
f 51/159/147 86/158/146 85/160/148
f 51/159/147 85/160/148 52/161/149
f 52/161/149 85/160/148 84/162/150
f 52/161/149 84/162/150 53/163/151
f 53/163/151 84/162/150 83/164/152
f 53/163/151 83/164/152 54/139/129
f 54/139/129 83/164/152 82/140/130
f 3/165/153 2/166/154 42/167/155
f 42/167/155 2/166/154 29/168/156
f 29/169/156 2/170/154 30/171/157
f 30/171/157 2/170/154 11/172/158
f 30/171/157 11/172/158 31/173/159
f 31/173/159 11/172/158 10/174/160
f 31/173/159 10/174/160 32/175/161
f 32/175/161 10/174/160 9/176/162
f 32/175/161 9/176/162 33/177/163
f 33/177/163 9/176/162 8/178/164
f 33/177/163 8/178/164 34/179/165
f 34/179/165 8/178/164 7/180/166
f 34/179/165 7/180/166 35/181/167
f 35/181/167 7/180/166 6/182/168
f 3/183/153 42/184/155 19/185/169
f 19/185/169 42/184/155 41/186/170
f 19/185/169 41/186/170 20/187/171
f 20/187/171 41/186/170 40/188/172
f 20/187/171 40/188/172 21/189/173
f 21/189/173 40/188/172 39/190/174
f 21/189/173 39/190/174 22/191/175
f 22/191/175 39/190/174 38/192/176
f 22/191/175 38/192/176 23/193/177
f 23/193/177 38/192/176 37/194/178
f 23/193/177 37/194/178 18/195/179
f 18/195/179 37/194/178 36/196/180
f 6/197/168 18/198/179 35/199/167
f 35/199/167 18/198/179 36/200/180
f 67/201/181 80/202/182 4/203/183
f 4/203/183 80/202/182 1/204/184
f 1/205/184 80/206/182 12/207/185
f 12/207/185 80/206/182 79/208/186
f 12/207/185 79/208/186 13/209/187
f 13/209/187 79/208/186 78/210/188
f 13/209/187 78/210/188 14/211/189
f 14/211/189 78/210/188 77/212/190
f 14/211/189 77/212/190 15/213/191
f 15/213/191 77/212/190 76/214/192
f 15/213/191 76/214/192 16/215/193
f 16/215/193 76/214/192 75/216/194
f 16/215/193 75/216/194 5/217/195
f 5/217/195 75/216/194 74/218/196
f 67/219/181 4/220/183 68/221/197
f 68/221/197 4/220/183 28/222/198
f 68/221/197 28/222/198 69/223/199
f 69/223/199 28/222/198 27/224/200
f 69/223/199 27/224/200 70/225/201
f 70/225/201 27/224/200 26/226/202
f 70/225/201 26/226/202 71/227/203
f 71/227/203 26/226/202 25/228/204
f 71/227/203 25/228/204 72/229/205
f 72/229/205 25/228/204 24/230/206
f 72/229/205 24/230/206 73/231/207
f 73/231/207 24/230/206 17/232/208
f 74/233/196 73/234/207 5/235/195
f 5/235/195 73/234/207 17/236/208
# 104 vertices
# 236 texture params
# 208 normals
# 212 facets

# 1 groups
