# WaveFront *.obj file (generated by Autodesk ATF)

mtllib Parallel_Pin_3_x_16_2.mtl

g Body1

v -1.366025 0.000000 8.000000
v -1.183013 -0.683013 8.000000
v -0.683013 -1.183013 8.000000
v 0.000000 -1.366025 8.000000
v 0.683013 -1.183013 8.000000
v 1.183013 -0.683013 8.000000
v 1.366025 0.000000 8.000000
v 1.183013 0.683013 8.000000
v 0.683013 1.183013 8.000000
v -0.000000 1.366025 8.000000
v -0.683013 1.183013 8.000000
v -1.183013 0.683013 8.000000
v -1.500000 0.000000 7.500000
v -1.299038 -0.750000 7.500000
v -0.750000 -1.299038 7.500000
v 0.000000 -1.500000 7.500000
v 0.750000 -1.299038 7.500000
v 1.299038 -0.750000 7.500000
v 1.500000 0.000000 7.500000
v 1.299038 0.750000 7.500000
v 0.750000 1.299038 7.500000
v -0.000000 1.500000 7.500000
v -0.750000 1.299038 7.500000
v -1.299038 0.750000 7.500000
v -1.500000 0.000000 -7.500000
v -1.299038 -0.750000 -7.500000
v -0.750000 -1.299038 -7.500000
v 0.000000 -1.500000 -7.500000
v 0.750000 -1.299038 -7.500000
v 1.299038 -0.750000 -7.500000
v 1.500000 0.000000 -7.500000
v 1.299038 0.750000 -7.500000
v 0.750000 1.299038 -7.500000
v -0.000000 1.500000 -7.500000
v -0.750000 1.299038 -7.500000
v -1.299038 0.750000 -7.500000
v -1.366025 0.000000 -8.000000
v -1.183013 -0.683013 -8.000000
v -0.683013 -1.183013 -8.000000
v 0.000000 -1.366025 -8.000000
v 0.683013 -1.183013 -8.000000
v 1.183013 -0.683013 -8.000000
v 1.366025 0.000000 -8.000000
v 1.183013 0.683013 -8.000000
v 0.683013 1.183013 -8.000000
v -0.000000 1.366025 -8.000000
v -0.683013 1.183013 -8.000000
v -1.183013 0.683013 -8.000000
vt -0.050000 -0.068301 0.000000
vt 0.186603 -0.068301 0.000000
vt -0.068301 0.000000 0.000000
vt 0.204904 0.000000 0.000000
vt -0.050000 0.068301 0.000000
vt 0.186603 0.068301 0.000000
vt -0.000000 0.118301 0.000000
vt 0.136603 0.118301 0.000000
vt 0.068301 0.136603 0.000000
vt 0.136603 -0.118301 0.000000
vt 0.000000 -0.118301 0.000000
vt 0.068301 -0.136603 0.000000
vt -0.051764 -0.075032 0.000000
vt 0.000000 -0.075032 0.000000
vt -0.051764 0.000000 0.000000
vt -0.000000 0.000000 0.000000
vt -0.051764 0.075032 0.000000
vt -0.000000 0.075032 0.000000
vt -0.051764 0.150065 0.000000
vt -0.000000 0.150065 0.000000
vt -0.051764 0.225097 0.000000
vt -0.000000 0.225097 0.000000
vt -0.051764 0.300129 0.000000
vt -0.000000 0.300129 0.000000
vt -0.051764 0.375162 0.000000
vt -0.000000 0.375162 0.000000
vt -0.051764 0.450194 0.000000
vt -0.000000 0.450194 0.000000
vt -0.051764 -0.450194 0.000000
vt -0.000000 -0.450194 0.000000
vt -0.051764 -0.375162 0.000000
vt -0.000000 -0.375162 0.000000
vt -0.051764 -0.300129 0.000000
vt -0.000000 -0.300129 0.000000
vt -0.051764 -0.225097 0.000000
vt -0.000000 -0.225097 0.000000
vt -0.051764 -0.150065 0.000000
vt 0.000000 -0.150065 0.000000
vt -0.750000 -0.078540 0.000000
vt 0.750000 -0.078540 0.000000
vt -0.750000 0.000000 0.000000
vt 0.750000 0.000000 0.000000
vt -0.750000 0.078540 0.000000
vt 0.750000 0.078540 0.000000
vt -0.750000 0.157080 0.000000
vt 0.750000 0.157080 0.000000
vt -0.750000 0.235619 0.000000
vt 0.750000 0.235619 0.000000
vt -0.750000 0.314159 0.000000
vt 0.750000 0.314159 0.000000
vt -0.750000 0.392699 0.000000
vt 0.750000 0.392699 0.000000
vt -0.750000 0.471239 0.000000
vt 0.750000 0.471239 0.000000
vt -0.750000 -0.471239 0.000000
vt 0.750000 -0.471239 0.000000
vt -0.750000 -0.392699 0.000000
vt 0.750000 -0.392699 0.000000
vt -0.750000 -0.314159 0.000000
vt 0.750000 -0.314159 0.000000
vt -0.750000 -0.235619 0.000000
vt 0.750000 -0.235619 0.000000
vt -0.750000 -0.157080 0.000000
vt 0.750000 -0.157080 0.000000
vt 0.051764 -0.375162 0.000000
vt -0.000000 -0.375162 0.000000
vt 0.051764 -0.450194 0.000000
vt -0.000000 -0.450194 0.000000
vt 0.051764 0.450194 0.000000
vt -0.000000 0.450194 0.000000
vt 0.051764 0.375162 0.000000
vt -0.000000 0.375162 0.000000
vt 0.051764 0.300129 0.000000
vt -0.000000 0.300129 0.000000
vt 0.051764 0.225097 0.000000
vt -0.000000 0.225097 0.000000
vt 0.051764 0.150065 0.000000
vt -0.000000 0.150065 0.000000
vt 0.051764 0.075032 0.000000
vt -0.000000 0.075032 0.000000
vt 0.051764 0.000000 0.000000
vt -0.000000 0.000000 0.000000
vt 0.051764 -0.075032 0.000000
vt -0.000000 -0.075032 0.000000
vt 0.051764 -0.150065 0.000000
vt -0.000000 -0.150065 0.000000
vt 0.051764 -0.225097 0.000000
vt -0.000000 -0.225097 0.000000
vt 0.051764 -0.300129 0.000000
vt -0.000000 -0.300129 0.000000
vt 0.050000 0.068301 0.000000
vt -0.186603 0.068301 0.000000
vt 0.068301 0.000000 0.000000
vt -0.204904 0.000000 0.000000
vt 0.050000 -0.068301 0.000000
vt -0.186603 -0.068301 0.000000
vt -0.000000 -0.118301 0.000000
vt -0.136603 -0.118301 0.000000
vt -0.068301 -0.136603 0.000000
vt -0.136603 0.118301 0.000000
vt 0.000000 0.118301 0.000000
vt -0.068301 0.136603 0.000000
vn 0.000000 0.000000 0.100000
vn 0.000000 0.000000 0.100000
vn 0.000000 0.000000 0.100000
vn 0.000000 0.000000 0.100000
vn 0.000000 0.000000 0.100000
vn 0.000000 0.000000 0.100000
vn 0.000000 0.000000 0.100000
vn 0.000000 0.000000 0.100000
vn 0.000000 0.000000 0.100000
vn 0.000000 0.000000 0.100000
vn 0.000000 0.000000 0.100000
vn 0.000000 0.000000 0.100000
vn -0.083652 -0.048296 0.025882
vn -0.083652 -0.048296 0.025882
vn -0.096593 0.000000 0.025882
vn -0.096593 0.000000 0.025882
vn -0.083652 0.048296 0.025882
vn -0.083652 0.048296 0.025882
vn -0.048296 0.083652 0.025882
vn -0.048296 0.083652 0.025882
vn -0.000000 0.096593 0.025882
vn -0.000000 0.096593 0.025882
vn 0.048296 0.083652 0.025882
vn 0.048296 0.083652 0.025882
vn 0.083652 0.048296 0.025882
vn 0.083652 0.048296 0.025882
vn 0.096593 0.000000 0.025882
vn 0.096593 0.000000 0.025882
vn 0.083652 -0.048296 0.025882
vn 0.083652 -0.048296 0.025882
vn 0.048296 -0.083652 0.025882
vn 0.048296 -0.083652 0.025882
vn 0.000000 -0.096593 0.025882
vn 0.000000 -0.096593 0.025882
vn -0.048296 -0.083652 0.025882
vn -0.048296 -0.083652 0.025882
vn -0.086603 -0.050000 0.000000
vn -0.086603 -0.050000 0.000000
vn -0.100000 0.000000 -0.000000
vn -0.100000 0.000000 -0.000000
vn -0.086603 0.050000 -0.000000
vn -0.086603 0.050000 -0.000000
vn -0.050000 0.086603 -0.000000
vn -0.050000 0.086603 -0.000000
vn -0.000000 0.100000 -0.000000
vn -0.000000 0.100000 -0.000000
vn 0.050000 0.086603 0.000000
vn 0.050000 0.086603 0.000000
vn 0.086603 0.050000 0.000000
vn 0.086603 0.050000 0.000000
vn 0.100000 0.000000 0.000000
vn 0.100000 0.000000 0.000000
vn 0.086603 -0.050000 0.000000
vn 0.086603 -0.050000 0.000000
vn 0.050000 -0.086603 0.000000
vn 0.050000 -0.086603 0.000000
vn 0.000000 -0.100000 0.000000
vn 0.000000 -0.100000 0.000000
vn -0.050000 -0.086603 0.000000
vn -0.050000 -0.086603 0.000000
vn -0.083652 -0.048296 -0.025882
vn -0.083652 -0.048296 -0.025882
vn -0.096593 -0.000000 -0.025882
vn -0.096593 -0.000000 -0.025882
vn -0.083652 0.048296 -0.025882
vn -0.083652 0.048296 -0.025882
vn -0.048296 0.083652 -0.025882
vn -0.048296 0.083652 -0.025882
vn -0.000000 0.096593 -0.025882
vn -0.000000 0.096593 -0.025882
vn 0.048296 0.083652 -0.025882
vn 0.048296 0.083652 -0.025882
vn 0.083652 0.048296 -0.025882
vn 0.083652 0.048296 -0.025882
vn 0.096593 0.000000 -0.025882
vn 0.096593 0.000000 -0.025882
vn 0.083652 -0.048296 -0.025882
vn 0.083652 -0.048296 -0.025882
vn 0.048296 -0.083652 -0.025882
vn 0.048296 -0.083652 -0.025882
vn 0.000000 -0.096593 -0.025882
vn 0.000000 -0.096593 -0.025882
vn -0.048296 -0.083652 -0.025882
vn -0.048296 -0.083652 -0.025882
vn 0.000000 0.000000 -0.100000
vn 0.000000 0.000000 -0.100000
vn 0.000000 0.000000 -0.100000
vn 0.000000 0.000000 -0.100000
vn 0.000000 0.000000 -0.100000
vn 0.000000 0.000000 -0.100000
vn 0.000000 0.000000 -0.100000
vn 0.000000 0.000000 -0.100000
vn 0.000000 0.000000 -0.100000
vn 0.000000 0.000000 -0.100000
vn 0.000000 0.000000 -0.100000
vn 0.000000 0.000000 -0.100000
usemtl Opaque(154,165,175)
f 2/1/1 6/2/2 1/3/3
f 1/3/3 6/2/2 7/4/4
f 1/3/3 7/4/4 12/5/5
f 12/5/5 7/4/4 8/6/6
f 12/5/5 8/6/6 11/7/7
f 11/7/7 8/6/6 9/8/8
f 11/7/7 9/8/8 10/9/9
f 6/2/2 2/1/1 5/10/10
f 5/10/10 2/1/1 3/11/11
f 5/10/10 3/11/11 4/12/12
f 14/13/13 2/14/14 13/15/15
f 13/15/15 2/14/14 1/16/16
f 13/15/15 1/16/16 24/17/17
f 24/17/17 1/16/16 12/18/18
f 24/17/17 12/18/18 23/19/19
f 23/19/19 12/18/18 11/20/20
f 23/19/19 11/20/20 22/21/21
f 22/21/21 11/20/20 10/22/22
f 22/21/21 10/22/22 21/23/23
f 21/23/23 10/22/22 9/24/24
f 21/23/23 9/24/24 20/25/25
f 20/25/25 9/24/24 8/26/26
f 20/25/25 8/26/26 19/27/27
f 19/27/27 8/26/26 7/28/28
f 19/29/27 7/30/28 18/31/29
f 18/31/29 7/30/28 6/32/30
f 18/31/29 6/32/30 17/33/31
f 17/33/31 6/32/30 5/34/32
f 17/33/31 5/34/32 16/35/33
f 16/35/33 5/34/32 4/36/34
f 16/35/33 4/36/34 15/37/35
f 15/37/35 4/36/34 3/38/36
f 15/37/35 3/38/36 14/13/13
f 14/13/13 3/38/36 2/14/14
f 26/39/37 14/40/38 25/41/39
f 25/41/39 14/40/38 13/42/40
f 25/41/39 13/42/40 36/43/41
f 36/43/41 13/42/40 24/44/42
f 36/43/41 24/44/42 35/45/43
f 35/45/43 24/44/42 23/46/44
f 35/45/43 23/46/44 34/47/45
f 34/47/45 23/46/44 22/48/46
f 34/47/45 22/48/46 33/49/47
f 33/49/47 22/48/46 21/50/48
f 33/49/47 21/50/48 32/51/49
f 32/51/49 21/50/48 20/52/50
f 32/51/49 20/52/50 31/53/51
f 31/53/51 20/52/50 19/54/52
f 31/55/51 19/56/52 30/57/53
f 30/57/53 19/56/52 18/58/54
f 30/57/53 18/58/54 29/59/55
f 29/59/55 18/58/54 17/60/56
f 29/59/55 17/60/56 28/61/57
f 28/61/57 17/60/56 16/62/58
f 28/61/57 16/62/58 27/63/59
f 27/63/59 16/62/58 15/64/60
f 27/63/59 15/64/60 26/39/37
f 26/39/37 15/64/60 14/40/38
f 38/65/61 26/66/62 37/67/63
f 37/67/63 26/66/62 25/68/64
f 37/69/63 25/70/64 48/71/65
f 48/71/65 25/70/64 36/72/66
f 48/71/65 36/72/66 47/73/67
f 47/73/67 36/72/66 35/74/68
f 47/73/67 35/74/68 46/75/69
f 46/75/69 35/74/68 34/76/70
f 46/75/69 34/76/70 45/77/71
f 45/77/71 34/76/70 33/78/72
f 45/77/71 33/78/72 44/79/73
f 44/79/73 33/78/72 32/80/74
f 44/79/73 32/80/74 43/81/75
f 43/81/75 32/80/74 31/82/76
f 43/81/75 31/82/76 42/83/77
f 42/83/77 31/82/76 30/84/78
f 42/83/77 30/84/78 41/85/79
f 41/85/79 30/84/78 29/86/80
f 41/85/79 29/86/80 40/87/81
f 40/87/81 29/86/80 28/88/82
f 40/87/81 28/88/82 39/89/83
f 39/89/83 28/88/82 27/90/84
f 39/89/83 27/90/84 38/65/61
f 38/65/61 27/90/84 26/66/62
f 48/91/85 44/92/86 37/93/87
f 37/93/87 44/92/86 43/94/88
f 37/93/87 43/94/88 38/95/89
f 38/95/89 43/94/88 42/96/90
f 38/95/89 42/96/90 39/97/91
f 39/97/91 42/96/90 41/98/92
f 39/97/91 41/98/92 40/99/93
f 44/92/86 48/91/85 45/100/94
f 45/100/94 48/91/85 47/101/95
f 45/100/94 47/101/95 46/102/96
# 48 vertices
# 102 texture params
# 96 normals
# 92 facets

# 1 groups
