# WaveFront *.obj file (generated by Autodesk ATF)

mtllib Parallel_Pin_3_x_24_1.mtl

g Body1

v -1.366025 0.000000 12.000000
v -1.183013 -0.683013 12.000000
v -0.683013 -1.183013 12.000000
v 0.000000 -1.366025 12.000000
v 0.683013 -1.183013 12.000000
v 1.183013 -0.683013 12.000000
v 1.366025 0.000000 12.000000
v 1.183013 0.683013 12.000000
v 0.683013 1.183013 12.000000
v -0.000000 1.366025 12.000000
v -0.683013 1.183013 12.000000
v -1.183013 0.683013 12.000000
v -1.500000 0.000000 11.500000
v -1.299038 -0.750000 11.500000
v -0.750000 -1.299038 11.500000
v 0.000000 -1.500000 11.500000
v 0.750000 -1.299038 11.500000
v 1.299038 -0.750000 11.500000
v 1.500000 0.000000 11.500000
v 1.299038 0.750000 11.500000
v 0.750000 1.299038 11.500000
v -0.000000 1.500000 11.500000
v -0.750000 1.299038 11.500000
v -1.299038 0.750000 11.500000
v -1.500000 0.000000 -11.500000
v -1.299038 -0.750000 -11.500000
v -0.750000 -1.299038 -11.500000
v 0.000000 -1.500000 -11.500000
v 0.750000 -1.299038 -11.500000
v 1.299038 -0.750000 -11.500000
v 1.500000 0.000000 -11.500000
v 1.299038 0.750000 -11.500000
v 0.750000 1.299038 -11.500000
v -0.000000 1.500000 -11.500000
v -0.750000 1.299038 -11.500000
v -1.299038 0.750000 -11.500000
v 1.500000 -0.000000 0.000000
v -1.299038 -0.750000 0.000000
v -1.500000 0.000000 0.000000
v -0.750000 -1.299038 0.000000
v 0.000000 -1.500000 0.000000
v 0.750000 -1.299038 0.000000
v 1.299038 -0.750000 0.000000
v 1.299038 0.750000 0.000000
v 0.750000 1.299038 0.000000
v -0.000000 1.500000 0.000000
v -0.750000 1.299038 0.000000
v -1.299038 0.750000 0.000000
v -1.366025 0.000000 -12.000000
v -1.183013 -0.683013 -12.000000
v -0.683013 -1.183013 -12.000000
v 0.000000 -1.366025 -12.000000
v 0.683013 -1.183013 -12.000000
v 1.183013 -0.683013 -12.000000
v 1.366025 0.000000 -12.000000
v 1.183013 0.683013 -12.000000
v 0.683013 1.183013 -12.000000
v -0.000000 1.366025 -12.000000
v -0.683013 1.183013 -12.000000
v -1.183013 0.683013 -12.000000
vt -0.050000 -0.068301 0.000000
vt 0.186603 -0.068301 0.000000
vt -0.068301 0.000000 0.000000
vt 0.204904 0.000000 0.000000
vt -0.050000 0.068301 0.000000
vt 0.186603 0.068301 0.000000
vt -0.000000 0.118301 0.000000
vt 0.136603 0.118301 0.000000
vt 0.068301 0.136603 0.000000
vt 0.136603 -0.118301 0.000000
vt 0.000000 -0.118301 0.000000
vt 0.068301 -0.136603 0.000000
vt -0.051764 -0.075032 0.000000
vt 0.000000 -0.075032 0.000000
vt -0.051764 0.000000 0.000000
vt -0.000000 0.000000 0.000000
vt -0.051764 0.075032 0.000000
vt -0.000000 0.075032 0.000000
vt -0.051764 0.150065 0.000000
vt -0.000000 0.150065 0.000000
vt -0.051764 0.225097 0.000000
vt -0.000000 0.225097 0.000000
vt -0.051764 0.300129 0.000000
vt -0.000000 0.300129 0.000000
vt -0.051764 0.375162 0.000000
vt -0.000000 0.375162 0.000000
vt -0.051764 0.450194 0.000000
vt -0.000000 0.450194 0.000000
vt -0.051764 -0.450194 0.000000
vt -0.000000 -0.450194 0.000000
vt -0.051764 -0.375162 0.000000
vt -0.000000 -0.375162 0.000000
vt -0.051764 -0.300129 0.000000
vt -0.000000 -0.300129 0.000000
vt -0.051764 -0.225097 0.000000
vt -0.000000 -0.225097 0.000000
vt -0.051764 -0.150065 0.000000
vt 0.000000 -0.150065 0.000000
vt -1.150000 -0.078540 0.000000
vt 0.000000 -0.078540 0.000000
vt -1.150000 0.000000 0.000000
vt 0.000000 0.000000 0.000000
vt -1.150000 0.078540 0.000000
vt 0.000000 0.078540 0.000000
vt -1.150000 0.157080 0.000000
vt 0.000000 0.157080 0.000000
vt -1.150000 0.235619 0.000000
vt 0.000000 0.235619 0.000000
vt -1.150000 0.314159 0.000000
vt 0.000000 0.314159 0.000000
vt -1.150000 0.392699 0.000000
vt 0.000000 0.392699 0.000000
vt -1.150000 0.471239 0.000000
vt 0.000000 0.471239 0.000000
vt -1.150000 -0.471239 0.000000
vt 0.000000 -0.471239 0.000000
vt -1.150000 -0.392699 0.000000
vt 0.000000 -0.392699 0.000000
vt -1.150000 -0.314159 0.000000
vt 0.000000 -0.314159 0.000000
vt -1.150000 -0.235619 0.000000
vt 0.000000 -0.235619 0.000000
vt -1.150000 -0.157080 0.000000
vt 0.000000 -0.157080 0.000000
vt 1.150000 0.078540 0.000000
vt 1.150000 0.000000 0.000000
vt 1.150000 -0.078540 0.000000
vt 1.150000 -0.157080 0.000000
vt 1.150000 -0.235619 0.000000
vt 1.150000 -0.314159 0.000000
vt 1.150000 -0.392699 0.000000
vt 1.150000 -0.471239 0.000000
vt 1.150000 0.471239 0.000000
vt 1.150000 0.392699 0.000000
vt 1.150000 0.314159 0.000000
vt 1.150000 0.235619 0.000000
vt 1.150000 0.157080 0.000000
vt 0.051764 -0.375162 0.000000
vt -0.000000 -0.375162 0.000000
vt 0.051764 -0.450194 0.000000
vt -0.000000 -0.450194 0.000000
vt 0.051764 0.450194 0.000000
vt -0.000000 0.450194 0.000000
vt 0.051764 0.375162 0.000000
vt -0.000000 0.375162 0.000000
vt 0.051764 0.300129 0.000000
vt -0.000000 0.300129 0.000000
vt 0.051764 0.225097 0.000000
vt -0.000000 0.225097 0.000000
vt 0.051764 0.150065 0.000000
vt -0.000000 0.150065 0.000000
vt 0.051764 0.075032 0.000000
vt -0.000000 0.075032 0.000000
vt 0.051764 0.000000 0.000000
vt -0.000000 0.000000 0.000000
vt 0.051764 -0.075032 0.000000
vt -0.000000 -0.075032 0.000000
vt 0.051764 -0.150065 0.000000
vt -0.000000 -0.150065 0.000000
vt 0.051764 -0.225097 0.000000
vt -0.000000 -0.225097 0.000000
vt 0.051764 -0.300129 0.000000
vt -0.000000 -0.300129 0.000000
vt 0.050000 0.068301 0.000000
vt -0.186603 0.068301 0.000000
vt 0.068301 0.000000 0.000000
vt -0.204904 0.000000 0.000000
vt 0.050000 -0.068301 0.000000
vt -0.186603 -0.068301 0.000000
vt -0.000000 -0.118301 0.000000
vt -0.136603 -0.118301 0.000000
vt -0.068301 -0.136603 0.000000
vt -0.136603 0.118301 0.000000
vt 0.000000 0.118301 0.000000
vt -0.068301 0.136603 0.000000
vn 0.000000 0.000000 0.100000
vn 0.000000 0.000000 0.100000
vn 0.000000 0.000000 0.100000
vn 0.000000 0.000000 0.100000
vn 0.000000 0.000000 0.100000
vn 0.000000 0.000000 0.100000
vn 0.000000 0.000000 0.100000
vn 0.000000 0.000000 0.100000
vn 0.000000 0.000000 0.100000
vn 0.000000 0.000000 0.100000
vn 0.000000 0.000000 0.100000
vn 0.000000 0.000000 0.100000
vn -0.083652 -0.048296 0.025882
vn -0.083652 -0.048296 0.025882
vn -0.096593 0.000000 0.025882
vn -0.096593 0.000000 0.025882
vn -0.083652 0.048296 0.025882
vn -0.083652 0.048296 0.025882
vn -0.048296 0.083652 0.025882
vn -0.048296 0.083652 0.025882
vn -0.000000 0.096593 0.025882
vn -0.000000 0.096593 0.025882
vn 0.048296 0.083652 0.025882
vn 0.048296 0.083652 0.025882
vn 0.083652 0.048296 0.025882
vn 0.083652 0.048296 0.025882
vn 0.096593 0.000000 0.025882
vn 0.096593 0.000000 0.025882
vn 0.083652 -0.048296 0.025882
vn 0.083652 -0.048296 0.025882
vn 0.048296 -0.083652 0.025882
vn 0.048296 -0.083652 0.025882
vn 0.000000 -0.096593 0.025882
vn 0.000000 -0.096593 0.025882
vn -0.048296 -0.083652 0.025882
vn -0.048296 -0.083652 0.025882
vn -0.086603 -0.050000 0.000000
vn -0.086603 -0.050000 0.000000
vn -0.100000 0.000000 -0.000000
vn -0.100000 0.000000 -0.000000
vn -0.086603 0.050000 -0.000000
vn -0.086603 0.050000 -0.000000
vn -0.050000 0.086603 -0.000000
vn -0.050000 0.086603 -0.000000
vn -0.000000 0.100000 -0.000000
vn -0.000000 0.100000 -0.000000
vn 0.050000 0.086603 0.000000
vn 0.050000 0.086603 0.000000
vn 0.086603 0.050000 0.000000
vn 0.086603 0.050000 0.000000
vn 0.100000 0.000000 0.000000
vn 0.100000 0.000000 0.000000
vn 0.086603 -0.050000 0.000000
vn 0.086603 -0.050000 0.000000
vn 0.050000 -0.086603 0.000000
vn 0.050000 -0.086603 0.000000
vn 0.000000 -0.100000 0.000000
vn 0.000000 -0.100000 0.000000
vn -0.050000 -0.086603 0.000000
vn -0.050000 -0.086603 0.000000
vn -0.086603 0.050000 -0.000000
vn -0.100000 0.000000 -0.000000
vn -0.086603 -0.050000 0.000000
vn -0.050000 -0.086603 0.000000
vn 0.000000 -0.100000 0.000000
vn 0.050000 -0.086603 0.000000
vn 0.086603 -0.050000 0.000000
vn 0.100000 -0.000000 0.000000
vn 0.086603 0.050000 0.000000
vn 0.050000 0.086603 0.000000
vn -0.000000 0.100000 -0.000000
vn -0.050000 0.086603 -0.000000
vn -0.083652 -0.048296 -0.025882
vn -0.083652 -0.048296 -0.025882
vn -0.096593 -0.000000 -0.025882
vn -0.096593 -0.000000 -0.025882
vn -0.083652 0.048296 -0.025882
vn -0.083652 0.048296 -0.025882
vn -0.048296 0.083652 -0.025882
vn -0.048296 0.083652 -0.025882
vn -0.000000 0.096593 -0.025882
vn -0.000000 0.096593 -0.025882
vn 0.048296 0.083652 -0.025882
vn 0.048296 0.083652 -0.025882
vn 0.083652 0.048296 -0.025882
vn 0.083652 0.048296 -0.025882
vn 0.096593 0.000000 -0.025882
vn 0.096593 0.000000 -0.025882
vn 0.083652 -0.048296 -0.025882
vn 0.083652 -0.048296 -0.025882
vn 0.048296 -0.083652 -0.025882
vn 0.048296 -0.083652 -0.025882
vn 0.000000 -0.096593 -0.025882
vn 0.000000 -0.096593 -0.025882
vn -0.048296 -0.083652 -0.025882
vn -0.048296 -0.083652 -0.025882
vn 0.000000 0.000000 -0.100000
vn 0.000000 0.000000 -0.100000
vn 0.000000 0.000000 -0.100000
vn 0.000000 0.000000 -0.100000
vn 0.000000 0.000000 -0.100000
vn 0.000000 0.000000 -0.100000
vn 0.000000 0.000000 -0.100000
vn 0.000000 0.000000 -0.100000
vn 0.000000 0.000000 -0.100000
vn 0.000000 0.000000 -0.100000
vn 0.000000 0.000000 -0.100000
vn 0.000000 0.000000 -0.100000
usemtl Opaque(154,165,175)
f 2/1/1 6/2/2 1/3/3
f 1/3/3 6/2/2 7/4/4
f 1/3/3 7/4/4 12/5/5
f 12/5/5 7/4/4 8/6/6
f 12/5/5 8/6/6 11/7/7
f 11/7/7 8/6/6 9/8/8
f 11/7/7 9/8/8 10/9/9
f 6/2/2 2/1/1 5/10/10
f 5/10/10 2/1/1 3/11/11
f 5/10/10 3/11/11 4/12/12
f 14/13/13 2/14/14 13/15/15
f 13/15/15 2/14/14 1/16/16
f 13/15/15 1/16/16 24/17/17
f 24/17/17 1/16/16 12/18/18
f 24/17/17 12/18/18 23/19/19
f 23/19/19 12/18/18 11/20/20
f 23/19/19 11/20/20 22/21/21
f 22/21/21 11/20/20 10/22/22
f 22/21/21 10/22/22 21/23/23
f 21/23/23 10/22/22 9/24/24
f 21/23/23 9/24/24 20/25/25
f 20/25/25 9/24/24 8/26/26
f 20/25/25 8/26/26 19/27/27
f 19/27/27 8/26/26 7/28/28
f 19/29/27 7/30/28 18/31/29
f 18/31/29 7/30/28 6/32/30
f 18/31/29 6/32/30 17/33/31
f 17/33/31 6/32/30 5/34/32
f 17/33/31 5/34/32 16/35/33
f 16/35/33 5/34/32 4/36/34
f 16/35/33 4/36/34 15/37/35
f 15/37/35 4/36/34 3/38/36
f 15/37/35 3/38/36 14/13/13
f 14/13/13 3/38/36 2/14/14
f 26/39/37 38/40/38 25/41/39
f 25/41/39 38/40/38 39/42/40
f 25/41/39 39/42/40 36/43/41
f 36/43/41 39/42/40 48/44/42
f 36/43/41 48/44/42 35/45/43
f 35/45/43 48/44/42 47/46/44
f 35/45/43 47/46/44 34/47/45
f 34/47/45 47/46/44 46/48/46
f 34/47/45 46/48/46 33/49/47
f 33/49/47 46/48/46 45/50/48
f 33/49/47 45/50/48 32/51/49
f 32/51/49 45/50/48 44/52/50
f 32/51/49 44/52/50 31/53/51
f 31/53/51 44/52/50 37/54/52
f 31/55/51 37/56/52 30/57/53
f 30/57/53 37/56/52 43/58/54
f 30/57/53 43/58/54 29/59/55
f 29/59/55 43/58/54 42/60/56
f 29/59/55 42/60/56 28/61/57
f 28/61/57 42/60/56 41/62/58
f 28/61/57 41/62/58 27/63/59
f 27/63/59 41/62/58 40/64/60
f 27/63/59 40/64/60 26/39/37
f 26/39/37 40/64/60 38/40/38
f 24/65/61 48/44/42 13/66/62
f 13/66/62 48/44/42 39/42/40
f 13/66/62 39/42/40 14/67/63
f 14/67/63 39/42/40 38/40/38
f 14/67/63 38/40/38 15/68/64
f 15/68/64 38/40/38 40/64/60
f 15/68/64 40/64/60 16/69/65
f 16/69/65 40/64/60 41/62/58
f 16/69/65 41/62/58 17/70/66
f 17/70/66 41/62/58 42/60/56
f 17/70/66 42/60/56 18/71/67
f 18/71/67 42/60/56 43/58/54
f 18/71/67 43/58/54 19/72/68
f 19/72/68 43/58/54 37/56/52
f 19/73/68 37/54/52 20/74/69
f 20/74/69 37/54/52 44/52/50
f 20/74/69 44/52/50 21/75/70
f 21/75/70 44/52/50 45/50/48
f 21/75/70 45/50/48 22/76/71
f 22/76/71 45/50/48 46/48/46
f 22/76/71 46/48/46 23/77/72
f 23/77/72 46/48/46 47/46/44
f 23/77/72 47/46/44 24/65/61
f 24/65/61 47/46/44 48/44/42
f 50/78/73 26/79/74 49/80/75
f 49/80/75 26/79/74 25/81/76
f 49/82/75 25/83/76 60/84/77
f 60/84/77 25/83/76 36/85/78
f 60/84/77 36/85/78 59/86/79
f 59/86/79 36/85/78 35/87/80
f 59/86/79 35/87/80 58/88/81
f 58/88/81 35/87/80 34/89/82
f 58/88/81 34/89/82 57/90/83
f 57/90/83 34/89/82 33/91/84
f 57/90/83 33/91/84 56/92/85
f 56/92/85 33/91/84 32/93/86
f 56/92/85 32/93/86 55/94/87
f 55/94/87 32/93/86 31/95/88
f 55/94/87 31/95/88 54/96/89
f 54/96/89 31/95/88 30/97/90
f 54/96/89 30/97/90 53/98/91
f 53/98/91 30/97/90 29/99/92
f 53/98/91 29/99/92 52/100/93
f 52/100/93 29/99/92 28/101/94
f 52/100/93 28/101/94 51/102/95
f 51/102/95 28/101/94 27/103/96
f 51/102/95 27/103/96 50/78/73
f 50/78/73 27/103/96 26/79/74
f 60/104/97 56/105/98 49/106/99
f 49/106/99 56/105/98 55/107/100
f 49/106/99 55/107/100 50/108/101
f 50/108/101 55/107/100 54/109/102
f 50/108/101 54/109/102 51/110/103
f 51/110/103 54/109/102 53/111/104
f 51/110/103 53/111/104 52/112/105
f 56/105/98 60/104/97 57/113/106
f 57/113/106 60/104/97 59/114/107
f 57/113/106 59/114/107 58/115/108
# 60 vertices
# 115 texture params
# 108 normals
# 116 facets

# 1 groups
