# WaveFront *.obj file (generated by Autodesk ATF)

mtllib passive_palonier_1.mtl

g Body1

v -18.500000 -28.200000 -1.250000
v -19.125000 -28.200000 -1.082532
v -19.582532 -28.200000 -0.625000
v -19.750000 -28.200000 0.000000
v -19.582532 -28.200000 0.625000
v -19.125000 -28.200000 1.082532
v -18.500000 -28.200000 1.250000
v -17.875000 -28.200000 1.082532
v -17.417468 -28.200000 0.625000
v -17.250000 -28.200000 0.000000
v -17.417468 -28.200000 -0.625000
v -17.875000 -28.200000 -1.082532
v -18.500000 -30.300000 -1.250000
v -17.875000 -30.300000 -1.082532
v -17.417468 -30.300000 -0.625000
v -17.250000 -30.300000 0.000000
v -17.417468 -30.300000 0.625000
v -17.875000 -30.300000 1.082532
v -18.500000 -30.300000 1.250000
v -19.125000 -30.300000 1.082532
v -19.582532 -30.300000 0.625000
v -19.750000 -30.300000 0.000000
v -19.582532 -30.300000 -0.625000
v -19.125000 -30.300000 -1.082532
v -25.500000 -28.200000 5.750000
v -26.125000 -28.200000 5.917468
v -26.582532 -28.200000 6.375000
v -26.750000 -28.200000 7.000000
v -26.582532 -28.200000 7.625000
v -26.125000 -28.200000 8.082532
v -25.500000 -28.200000 8.250000
v -24.875000 -28.200000 8.082532
v -24.417468 -28.200000 7.625000
v -24.250000 -28.200000 7.000000
v -24.417468 -28.200000 6.375000
v -24.875000 -28.200000 5.917468
v -25.500000 -30.300000 5.750000
v -24.875000 -30.300000 5.917468
v -24.417468 -30.300000 6.375000
v -24.250000 -30.300000 7.000000
v -24.417468 -30.300000 7.625000
v -24.875000 -30.300000 8.082532
v -25.500000 -30.300000 8.250000
v -26.125000 -30.300000 8.082532
v -26.582532 -30.300000 7.625000
v -26.750000 -30.300000 7.000000
v -26.582532 -30.300000 6.375000
v -26.125000 -30.300000 5.917468
v -32.500000 -28.200000 -1.250000
v -33.125000 -28.200000 -1.082532
v -33.582532 -28.200000 -0.625000
v -33.750000 -28.200000 0.000000
v -33.582532 -28.200000 0.625000
v -33.125000 -28.200000 1.082532
v -32.500000 -28.200000 1.250000
v -31.875000 -28.200000 1.082532
v -31.417468 -28.200000 0.625000
v -31.250000 -28.200000 0.000000
v -31.417468 -28.200000 -0.625000
v -31.875000 -28.200000 -1.082532
v -32.500000 -30.300000 -1.250000
v -31.875000 -30.300000 -1.082532
v -31.417468 -30.300000 -0.625000
v -31.250000 -30.300000 0.000000
v -31.417468 -30.300000 0.625000
v -31.875000 -30.300000 1.082532
v -32.500000 -30.300000 1.250000
v -33.125000 -30.300000 1.082532
v -33.582532 -30.300000 0.625000
v -33.750000 -30.300000 0.000000
v -33.582532 -30.300000 -0.625000
v -33.125000 -30.300000 -1.082532
v -25.500000 -28.200000 -8.250000
v -26.125000 -28.200000 -8.082532
v -26.582532 -28.200000 -7.625000
v -26.750000 -28.200000 -7.000000
v -26.582532 -28.200000 -6.375000
v -26.125000 -28.200000 -5.917468
v -25.500000 -28.200000 -5.750000
v -24.875000 -28.200000 -5.917468
v -24.417468 -28.200000 -6.375000
v -24.250000 -28.200000 -7.000000
v -24.417468 -28.200000 -7.625000
v -24.875000 -28.200000 -8.082532
v -25.500000 -30.300000 -8.250000
v -24.875000 -30.300000 -8.082532
v -24.417468 -30.300000 -7.625000
v -24.250000 -30.300000 -7.000000
v -24.417468 -30.300000 -6.375000
v -24.875000 -30.300000 -5.917468
v -25.500000 -30.300000 -5.750000
v -26.125000 -30.300000 -5.917468
v -26.582532 -30.300000 -6.375000
v -26.750000 -30.300000 -7.000000
v -26.582532 -30.300000 -7.625000
v -26.125000 -30.300000 -8.082532
v -25.500000 -28.200000 -9.975000
v -30.487500 -28.200000 -8.638603
v -34.138603 -28.200000 -4.987500
v -35.475000 -28.200000 0.000000
v -34.138603 -28.200000 4.987500
v -30.487500 -28.200000 8.638603
v -25.500000 -28.200000 9.975000
v -20.512500 -28.200000 8.638603
v -16.861397 -28.200000 4.987500
v -15.525000 -28.200000 0.000000
v -16.861397 -28.200000 -4.987500
v -20.512500 -28.200000 -8.638603
v -25.500000 -28.200000 -4.500000
v -23.250000 -28.200000 -3.897114
v -21.602886 -28.200000 -2.250000
v -21.000000 -28.200000 -0.000000
v -21.602886 -28.200000 2.250000
v -23.250000 -28.200000 3.897114
v -25.500000 -28.200000 4.500000
v -27.750000 -28.200000 3.897114
v -29.397114 -28.200000 2.250000
v -30.000000 -28.200000 0.000000
v -29.397114 -28.200000 -2.250000
v -27.750000 -28.200000 -3.897114
v -25.500000 -30.300000 -9.975000
v -20.512500 -30.300000 -8.638603
v -16.861397 -30.300000 -4.987500
v -15.525000 -30.300000 0.000000
v -16.861397 -30.300000 4.987500
v -20.512500 -30.300000 8.638603
v -25.500000 -30.300000 9.975000
v -30.487500 -30.300000 8.638603
v -34.138603 -30.300000 4.987500
v -35.475000 -30.300000 0.000000
v -34.138603 -30.300000 -4.987500
v -30.487500 -30.300000 -8.638603
v -25.500000 -30.300000 -3.050000
v -27.025000 -30.300000 -2.641377
v -28.141377 -30.300000 -1.525000
v -28.550000 -30.300000 0.000000
v -28.141377 -30.300000 1.525000
v -27.025000 -30.300000 2.641377
v -25.500000 -30.300000 3.050000
v -23.975000 -30.300000 2.641377
v -22.858623 -30.300000 1.525000
v -22.450000 -30.300000 -0.000000
v -22.858623 -30.300000 -1.525000
v -23.975000 -30.300000 -2.641377
v -25.500000 -27.200000 -4.500000
v -27.750000 -27.200000 -3.897114
v -29.397114 -27.200000 -2.250000
v -30.000000 -27.200000 0.000000
v -29.397114 -27.200000 2.250000
v -27.750000 -27.200000 3.897114
v -25.500000 -27.200000 4.500000
v -23.250000 -27.200000 3.897114
v -21.602886 -27.200000 2.250000
v -21.000000 -27.200000 -0.000000
v -21.602886 -27.200000 -2.250000
v -23.250000 -27.200000 -3.897114
v -25.500000 -27.200000 -3.050000
v -23.975000 -27.200000 -2.641377
v -22.858623 -27.200000 -1.525000
v -22.450000 -27.200000 -0.000000
v -22.858623 -27.200000 1.525000
v -23.975000 -27.200000 2.641377
v -25.500000 -27.200000 3.050000
v -27.025000 -27.200000 2.641377
v -28.141377 -27.200000 1.525000
v -28.550000 -27.200000 0.000000
v -28.141377 -27.200000 -1.525000
v -27.025000 -27.200000 -2.641377
vt 2.290000 -0.065450 0.000000
vt 2.500000 -0.065450 0.000000
vt 2.290000 0.000000 0.000000
vt 2.500000 0.000000 0.000000
vt 2.290000 0.065450 0.000000
vt 2.500000 0.065450 0.000000
vt 2.290000 0.130900 0.000000
vt 2.500000 0.130900 0.000000
vt 2.290000 0.196350 0.000000
vt 2.500000 0.196350 0.000000
vt 2.290000 0.261799 0.000000
vt 2.500000 0.261799 0.000000
vt 2.290000 0.327249 0.000000
vt 2.500000 0.327249 0.000000
vt 2.290000 0.392699 0.000000
vt 2.500000 0.392699 0.000000
vt 2.290000 -0.392699 0.000000
vt 2.500000 -0.392699 0.000000
vt 2.290000 -0.327249 0.000000
vt 2.500000 -0.327249 0.000000
vt 2.290000 -0.261799 0.000000
vt 2.500000 -0.261799 0.000000
vt 2.290000 -0.196350 0.000000
vt 2.500000 -0.196350 0.000000
vt 2.290000 -0.130900 0.000000
vt 2.500000 -0.130900 0.000000
vt 2.290000 -0.065450 0.000000
vt 2.500000 -0.065450 0.000000
vt 2.290000 0.000000 0.000000
vt 2.500000 0.000000 0.000000
vt 2.290000 0.065450 0.000000
vt 2.500000 0.065450 0.000000
vt 2.290000 0.130900 0.000000
vt 2.500000 0.130900 0.000000
vt 2.290000 0.196350 0.000000
vt 2.500000 0.196350 0.000000
vt 2.290000 0.261799 0.000000
vt 2.500000 0.261799 0.000000
vt 2.290000 0.327249 0.000000
vt 2.500000 0.327249 0.000000
vt 2.290000 0.392699 0.000000
vt 2.500000 0.392699 0.000000
vt 2.290000 -0.392699 0.000000
vt 2.500000 -0.392699 0.000000
vt 2.290000 -0.327249 0.000000
vt 2.500000 -0.327249 0.000000
vt 2.290000 -0.261799 0.000000
vt 2.500000 -0.261799 0.000000
vt 2.290000 -0.196350 0.000000
vt 2.500000 -0.196350 0.000000
vt 2.290000 -0.130900 0.000000
vt 2.500000 -0.130900 0.000000
vt 2.290000 -0.065450 0.000000
vt 2.500000 -0.065450 0.000000
vt 2.290000 0.000000 0.000000
vt 2.500000 0.000000 0.000000
vt 2.290000 0.065450 0.000000
vt 2.500000 0.065450 0.000000
vt 2.290000 0.130900 0.000000
vt 2.500000 0.130900 0.000000
vt 2.290000 0.196350 0.000000
vt 2.500000 0.196350 0.000000
vt 2.290000 0.261799 0.000000
vt 2.500000 0.261799 0.000000
vt 2.290000 0.327249 0.000000
vt 2.500000 0.327249 0.000000
vt 2.290000 0.392699 0.000000
vt 2.500000 0.392699 0.000000
vt 2.290000 -0.392699 0.000000
vt 2.500000 -0.392699 0.000000
vt 2.290000 -0.327249 0.000000
vt 2.500000 -0.327249 0.000000
vt 2.290000 -0.261799 0.000000
vt 2.500000 -0.261799 0.000000
vt 2.290000 -0.196350 0.000000
vt 2.500000 -0.196350 0.000000
vt 2.290000 -0.130900 0.000000
vt 2.500000 -0.130900 0.000000
vt 2.290000 -0.065450 0.000000
vt 2.500000 -0.065450 0.000000
vt 2.290000 0.000000 0.000000
vt 2.500000 0.000000 0.000000
vt 2.290000 0.065450 0.000000
vt 2.500000 0.065450 0.000000
vt 2.290000 0.130900 0.000000
vt 2.500000 0.130900 0.000000
vt 2.290000 0.196350 0.000000
vt 2.500000 0.196350 0.000000
vt 2.290000 0.261799 0.000000
vt 2.500000 0.261799 0.000000
vt 2.290000 0.327249 0.000000
vt 2.500000 0.327249 0.000000
vt 2.290000 0.392699 0.000000
vt 2.500000 0.392699 0.000000
vt 2.290000 -0.392699 0.000000
vt 2.500000 -0.392699 0.000000
vt 2.290000 -0.327249 0.000000
vt 2.500000 -0.327249 0.000000
vt 2.290000 -0.261799 0.000000
vt 2.500000 -0.261799 0.000000
vt 2.290000 -0.196350 0.000000
vt 2.500000 -0.196350 0.000000
vt 2.290000 -0.130900 0.000000
vt 2.500000 -0.130900 0.000000
vt 0.498750 -0.863860 0.000000
vt 0.062500 -0.808253 0.000000
vt -0.000000 -0.997500 0.000000
vt -0.000000 -0.825000 0.000000
vt -0.062500 -0.808253 0.000000
vt 0.863860 -0.498750 0.000000
vt 0.225000 -0.389711 0.000000
vt 0.125000 -0.700000 0.000000
vt 0.108253 -0.762500 0.000000
vt 0.997500 0.000000 0.000000
vt 0.808253 -0.062500 0.000000
vt 0.762500 -0.108253 0.000000
vt 0.700000 -0.125000 0.000000
vt 0.863860 0.498750 0.000000
vt 0.808253 0.062500 0.000000
vt 0.825000 0.000000 0.000000
vt 0.498750 0.863860 0.000000
vt 0.225000 0.389711 0.000000
vt 0.389711 0.225000 0.000000
vt 0.700000 0.125000 0.000000
vt 0.637500 0.108253 0.000000
vt 0.591747 0.062500 0.000000
vt 0.450000 0.000000 0.000000
vt 0.575000 0.000000 0.000000
vt 0.591747 -0.062500 0.000000
vt 0.389711 -0.225000 0.000000
vt 0.637500 -0.108253 0.000000
vt -0.000000 0.997500 0.000000
vt 0.062500 0.808253 0.000000
vt 0.108253 0.762500 0.000000
vt 0.125000 0.700000 0.000000
vt -0.498750 0.863860 0.000000
vt -0.062500 0.808253 0.000000
vt -0.000000 0.825000 0.000000
vt -0.863860 0.498750 0.000000
vt -0.225000 0.389711 0.000000
vt -0.125000 0.700000 0.000000
vt -0.108253 0.762500 0.000000
vt -0.997500 0.000000 0.000000
vt -0.808253 0.062500 0.000000
vt -0.762500 0.108253 0.000000
vt -0.700000 0.125000 0.000000
vt -0.863860 -0.498750 0.000000
vt -0.808253 -0.062500 0.000000
vt -0.825000 0.000000 0.000000
vt -0.498750 -0.863860 0.000000
vt -0.225000 -0.389711 0.000000
vt -0.389711 -0.225000 0.000000
vt -0.700000 -0.125000 0.000000
vt -0.637500 -0.108253 0.000000
vt -0.591747 -0.062500 0.000000
vt -0.450000 -0.000000 0.000000
vt -0.575000 0.000000 0.000000
vt -0.591747 0.062500 0.000000
vt -0.389711 0.225000 0.000000
vt -0.637500 0.108253 0.000000
vt -0.108253 -0.762500 0.000000
vt -0.125000 -0.700000 0.000000
vt -0.062500 -0.591747 0.000000
vt -0.000000 -0.450000 0.000000
vt -0.000000 -0.575000 0.000000
vt 0.062500 -0.591747 0.000000
vt -0.000000 0.450000 0.000000
vt -0.062500 0.591747 0.000000
vt -0.108253 0.637500 0.000000
vt 0.062500 0.591747 0.000000
vt -0.000000 0.575000 0.000000
vt 0.108253 -0.637500 0.000000
vt -0.108253 -0.637500 0.000000
vt 0.762500 0.108253 0.000000
vt 0.108253 0.637500 0.000000
vt -0.762500 -0.108253 0.000000
vt 0.498750 -0.863860 0.000000
vt 0.062500 -0.808253 0.000000
vt 0.000000 -0.997500 0.000000
vt 0.000000 -0.825000 0.000000
vt -0.062500 -0.808253 0.000000
vt 0.863860 -0.498750 0.000000
vt 0.108253 -0.637500 0.000000
vt 0.125000 -0.700000 0.000000
vt 0.108253 -0.762500 0.000000
vt 0.997500 0.000000 0.000000
vt 0.808253 -0.062500 0.000000
vt 0.762500 -0.108253 0.000000
vt 0.700000 -0.125000 0.000000
vt 0.863860 0.498750 0.000000
vt 0.808253 0.062500 0.000000
vt 0.825000 0.000000 0.000000
vt 0.498750 0.863860 0.000000
vt 0.108253 0.637500 0.000000
vt 0.152500 0.264138 0.000000
vt 0.264138 0.152500 0.000000
vt 0.000000 0.997500 0.000000
vt 0.062500 0.808253 0.000000
vt 0.108253 0.762500 0.000000
vt 0.125000 0.700000 0.000000
vt -0.498750 0.863860 0.000000
vt -0.062500 0.808253 0.000000
vt 0.000000 0.825000 0.000000
vt -0.863860 0.498750 0.000000
vt -0.108253 0.637500 0.000000
vt -0.125000 0.700000 0.000000
vt -0.108253 0.762500 0.000000
vt -0.997500 0.000000 0.000000
vt -0.808253 0.062500 0.000000
vt -0.762500 0.108253 0.000000
vt -0.700000 0.125000 0.000000
vt -0.863860 -0.498750 0.000000
vt -0.808253 -0.062500 0.000000
vt -0.825000 0.000000 0.000000
vt -0.498750 -0.863860 0.000000
vt -0.108253 -0.637500 0.000000
vt -0.152500 -0.264138 0.000000
vt -0.264138 -0.152500 0.000000
vt -0.108253 -0.762500 0.000000
vt -0.125000 -0.700000 0.000000
vt -0.062500 -0.591747 0.000000
vt 0.000000 -0.305000 0.000000
vt 0.000000 -0.575000 0.000000
vt 0.062500 -0.591747 0.000000
vt -0.305000 0.000000 0.000000
vt -0.591747 -0.062500 0.000000
vt -0.637500 -0.108253 0.000000
vt -0.700000 -0.125000 0.000000
vt -0.762500 -0.108253 0.000000
vt -0.264138 0.152500 0.000000
vt -0.591747 0.062500 0.000000
vt -0.575000 0.000000 0.000000
vt -0.152500 0.264138 0.000000
vt -0.637500 0.108253 0.000000
vt 0.000000 0.305000 0.000000
vt -0.062500 0.591747 0.000000
vt 0.062500 0.591747 0.000000
vt 0.000000 0.575000 0.000000
vt 0.305000 -0.000000 0.000000
vt 0.591747 0.062500 0.000000
vt 0.637500 0.108253 0.000000
vt 0.700000 0.125000 0.000000
vt 0.762500 0.108253 0.000000
vt 0.264138 -0.152500 0.000000
vt 0.591747 -0.062500 0.000000
vt 0.575000 0.000000 0.000000
vt 0.152500 -0.264138 0.000000
vt 0.637500 -0.108253 0.000000
vt -0.210000 2.611449 0.000000
vt -0.000000 2.611449 0.000000
vt -0.210000 3.133739 0.000000
vt -0.000000 3.133739 0.000000
vt -0.210000 -3.133739 0.000000
vt -0.000000 -3.133739 0.000000
vt -0.210000 -2.611449 0.000000
vt -0.000000 -2.611449 0.000000
vt -0.210000 -2.089159 0.000000
vt -0.000000 -2.089159 0.000000
vt -0.210000 -1.566869 0.000000
vt -0.000000 -1.566869 0.000000
vt -0.210000 -1.044580 0.000000
vt -0.000000 -1.044580 0.000000
vt -0.210000 -0.522290 0.000000
vt -0.000000 -0.522290 0.000000
vt -0.210000 0.000000 0.000000
vt -0.000000 0.000000 0.000000
vt -0.210000 0.522290 0.000000
vt -0.000000 0.522290 0.000000
vt -0.210000 1.044580 0.000000
vt -0.000000 1.044580 0.000000
vt -0.210000 1.566869 0.000000
vt -0.000000 1.566869 0.000000
vt -0.210000 2.089159 0.000000
vt -0.000000 2.089159 0.000000
vt -0.225000 -0.389711 0.000000
vt -0.000000 -0.450000 0.000000
vt -0.000000 -0.305000 0.000000
vt 0.225000 -0.389711 0.000000
vt 0.152500 -0.264138 0.000000
vt 0.389711 -0.225000 0.000000
vt 0.264138 -0.152500 0.000000
vt 0.305000 0.000000 0.000000
vt 0.450000 0.000000 0.000000
vt 0.264138 0.152500 0.000000
vt 0.389711 0.225000 0.000000
vt 0.152500 0.264138 0.000000
vt 0.225000 0.389711 0.000000
vt -0.000000 0.305000 0.000000
vt -0.000000 0.450000 0.000000
vt -0.225000 0.389711 0.000000
vt -0.152500 0.264138 0.000000
vt -0.389711 0.225000 0.000000
vt -0.264138 0.152500 0.000000
vt -0.450000 -0.000000 0.000000
vt -0.305000 -0.000000 0.000000
vt -0.264138 -0.152500 0.000000
vt -0.389711 -0.225000 0.000000
vt -0.152500 -0.264138 0.000000
vt -0.100000 1.178097 0.000000
vt -0.000000 1.178097 0.000000
vt -0.100000 1.413717 0.000000
vt -0.000000 1.413717 0.000000
vt -0.100000 -1.413717 0.000000
vt -0.000000 -1.413717 0.000000
vt -0.100000 -1.178097 0.000000
vt -0.000000 -1.178097 0.000000
vt -0.100000 -0.942478 0.000000
vt -0.000000 -0.942478 0.000000
vt -0.100000 -0.706858 0.000000
vt -0.000000 -0.706858 0.000000
vt -0.100000 -0.471239 0.000000
vt -0.000000 -0.471239 0.000000
vt -0.100000 -0.235619 0.000000
vt -0.000000 -0.235619 0.000000
vt -0.100000 0.000000 0.000000
vt -0.000000 0.000000 0.000000
vt -0.100000 0.235619 0.000000
vt -0.000000 0.235619 0.000000
vt -0.100000 0.471239 0.000000
vt -0.000000 0.471239 0.000000
vt -0.100000 0.706858 0.000000
vt -0.000000 0.706858 0.000000
vt -0.100000 0.942478 0.000000
vt -0.000000 0.942478 0.000000
vt -0.210000 0.798488 0.000000
vt 0.100000 0.798488 0.000000
vt -0.210000 0.958186 0.000000
vt 0.100000 0.958186 0.000000
vt -0.210000 -0.958186 0.000000
vt 0.100000 -0.958186 0.000000
vt -0.210000 -0.798488 0.000000
vt 0.100000 -0.798488 0.000000
vt -0.210000 -0.638791 0.000000
vt 0.100000 -0.638791 0.000000
vt -0.210000 -0.479093 0.000000
vt 0.100000 -0.479093 0.000000
vt -0.210000 -0.319395 0.000000
vt 0.100000 -0.319395 0.000000
vt -0.210000 -0.159698 0.000000
vt 0.100000 -0.159698 0.000000
vt -0.210000 0.000000 0.000000
vt 0.100000 0.000000 0.000000
vt -0.210000 0.159698 0.000000
vt 0.100000 0.159698 0.000000
vt -0.210000 0.319395 0.000000
vt 0.100000 0.319395 0.000000
vt -0.210000 0.479093 0.000000
vt 0.100000 0.479093 0.000000
vt -0.210000 0.638791 0.000000
vt 0.100000 0.638791 0.000000
vn 0.050000 0.000000 0.086603
vn 0.050000 0.000000 0.086603
vn 0.000000 0.000000 0.100000
vn 0.000000 0.000000 0.100000
vn -0.050000 0.000000 0.086603
vn -0.050000 0.000000 0.086603
vn -0.086603 0.000000 0.050000
vn -0.086603 0.000000 0.050000
vn -0.100000 0.000000 0.000000
vn -0.100000 0.000000 0.000000
vn -0.086603 0.000000 -0.050000
vn -0.086603 0.000000 -0.050000
vn -0.050000 0.000000 -0.086603
vn -0.050000 0.000000 -0.086603
vn -0.000000 0.000000 -0.100000
vn -0.000000 0.000000 -0.100000
vn 0.050000 0.000000 -0.086603
vn 0.050000 0.000000 -0.086603
vn 0.086603 0.000000 -0.050000
vn 0.086603 0.000000 -0.050000
vn 0.100000 0.000000 -0.000000
vn 0.100000 0.000000 -0.000000
vn 0.086603 0.000000 0.050000
vn 0.086603 0.000000 0.050000
vn 0.050000 0.000000 0.086603
vn 0.050000 0.000000 0.086603
vn 0.000000 0.000000 0.100000
vn 0.000000 0.000000 0.100000
vn -0.050000 0.000000 0.086603
vn -0.050000 0.000000 0.086603
vn -0.086603 0.000000 0.050000
vn -0.086603 0.000000 0.050000
vn -0.100000 0.000000 0.000000
vn -0.100000 0.000000 0.000000
vn -0.086603 0.000000 -0.050000
vn -0.086603 0.000000 -0.050000
vn -0.050000 0.000000 -0.086603
vn -0.050000 0.000000 -0.086603
vn -0.000000 0.000000 -0.100000
vn -0.000000 0.000000 -0.100000
vn 0.050000 0.000000 -0.086603
vn 0.050000 0.000000 -0.086603
vn 0.086603 0.000000 -0.050000
vn 0.086603 0.000000 -0.050000
vn 0.100000 0.000000 0.000000
vn 0.100000 0.000000 0.000000
vn 0.086603 0.000000 0.050000
vn 0.086603 0.000000 0.050000
vn 0.050000 0.000000 0.086603
vn 0.050000 0.000000 0.086603
vn 0.000000 0.000000 0.100000
vn 0.000000 0.000000 0.100000
vn -0.050000 0.000000 0.086603
vn -0.050000 0.000000 0.086603
vn -0.086603 0.000000 0.050000
vn -0.086603 0.000000 0.050000
vn -0.100000 0.000000 0.000000
vn -0.100000 0.000000 0.000000
vn -0.086603 0.000000 -0.050000
vn -0.086603 0.000000 -0.050000
vn -0.050000 0.000000 -0.086603
vn -0.050000 0.000000 -0.086603
vn -0.000000 0.000000 -0.100000
vn -0.000000 0.000000 -0.100000
vn 0.050000 0.000000 -0.086603
vn 0.050000 0.000000 -0.086603
vn 0.086603 0.000000 -0.050000
vn 0.086603 0.000000 -0.050000
vn 0.100000 0.000000 -0.000000
vn 0.100000 0.000000 -0.000000
vn 0.086603 0.000000 0.050000
vn 0.086603 0.000000 0.050000
vn 0.050000 0.000000 0.086603
vn 0.050000 0.000000 0.086603
vn 0.000000 0.000000 0.100000
vn 0.000000 0.000000 0.100000
vn -0.050000 0.000000 0.086603
vn -0.050000 0.000000 0.086603
vn -0.086603 0.000000 0.050000
vn -0.086603 0.000000 0.050000
vn -0.100000 0.000000 0.000000
vn -0.100000 0.000000 0.000000
vn -0.086603 0.000000 -0.050000
vn -0.086603 0.000000 -0.050000
vn -0.050000 0.000000 -0.086603
vn -0.050000 0.000000 -0.086603
vn -0.000000 0.000000 -0.100000
vn -0.000000 0.000000 -0.100000
vn 0.050000 0.000000 -0.086603
vn 0.050000 0.000000 -0.086603
vn 0.086603 0.000000 -0.050000
vn 0.086603 0.000000 -0.050000
vn 0.100000 0.000000 0.000000
vn 0.100000 0.000000 0.000000
vn 0.086603 0.000000 0.050000
vn 0.086603 0.000000 0.050000
vn -0.000000 0.100000 -0.000000
vn -0.000000 0.100000 -0.000000
vn -0.000000 0.100000 -0.000000
vn -0.000000 0.100000 -0.000000
vn -0.000000 0.100000 -0.000000
vn -0.000000 0.100000 -0.000000
vn -0.000000 0.100000 -0.000000
vn -0.000000 0.100000 -0.000000
vn -0.000000 0.100000 -0.000000
vn -0.000000 0.100000 -0.000000
vn -0.000000 0.100000 -0.000000
vn -0.000000 0.100000 -0.000000
vn -0.000000 0.100000 -0.000000
vn -0.000000 0.100000 -0.000000
vn -0.000000 0.100000 -0.000000
vn -0.000000 0.100000 -0.000000
vn -0.000000 0.100000 -0.000000
vn -0.000000 0.100000 -0.000000
vn -0.000000 0.100000 -0.000000
vn -0.000000 0.100000 -0.000000
vn -0.000000 0.100000 -0.000000
vn -0.000000 0.100000 -0.000000
vn -0.000000 0.100000 -0.000000
vn -0.000000 0.100000 -0.000000
vn -0.000000 0.100000 -0.000000
vn -0.000000 0.100000 -0.000000
vn -0.000000 0.100000 -0.000000
vn -0.000000 0.100000 -0.000000
vn -0.000000 0.100000 -0.000000
vn -0.000000 0.100000 -0.000000
vn -0.000000 0.100000 -0.000000
vn -0.000000 0.100000 -0.000000
vn -0.000000 0.100000 -0.000000
vn -0.000000 0.100000 -0.000000
vn -0.000000 0.100000 -0.000000
vn -0.000000 0.100000 -0.000000
vn -0.000000 0.100000 -0.000000
vn -0.000000 0.100000 -0.000000
vn -0.000000 0.100000 -0.000000
vn -0.000000 0.100000 -0.000000
vn -0.000000 0.100000 -0.000000
vn -0.000000 0.100000 -0.000000
vn -0.000000 0.100000 -0.000000
vn -0.000000 0.100000 -0.000000
vn -0.000000 0.100000 -0.000000
vn -0.000000 0.100000 -0.000000
vn -0.000000 0.100000 -0.000000
vn -0.000000 0.100000 -0.000000
vn -0.000000 0.100000 -0.000000
vn -0.000000 0.100000 -0.000000
vn -0.000000 0.100000 -0.000000
vn -0.000000 0.100000 -0.000000
vn -0.000000 0.100000 -0.000000
vn -0.000000 0.100000 -0.000000
vn -0.000000 0.100000 -0.000000
vn -0.000000 0.100000 -0.000000
vn -0.000000 0.100000 -0.000000
vn -0.000000 0.100000 -0.000000
vn -0.000000 0.100000 -0.000000
vn -0.000000 0.100000 -0.000000
vn -0.000000 0.100000 -0.000000
vn -0.000000 0.100000 -0.000000
vn -0.000000 0.100000 -0.000000
vn -0.000000 0.100000 -0.000000
vn -0.000000 0.100000 -0.000000
vn -0.000000 0.100000 -0.000000
vn -0.000000 0.100000 -0.000000
vn -0.000000 0.100000 -0.000000
vn -0.000000 0.100000 -0.000000
vn -0.000000 0.100000 -0.000000
vn -0.000000 0.100000 -0.000000
vn -0.000000 0.100000 -0.000000
vn 0.000000 -0.100000 0.000000
vn 0.000000 -0.100000 0.000000
vn 0.000000 -0.100000 0.000000
vn 0.000000 -0.100000 0.000000
vn 0.000000 -0.100000 0.000000
vn 0.000000 -0.100000 0.000000
vn 0.000000 -0.100000 0.000000
vn 0.000000 -0.100000 0.000000
vn 0.000000 -0.100000 0.000000
vn 0.000000 -0.100000 0.000000
vn 0.000000 -0.100000 0.000000
vn 0.000000 -0.100000 0.000000
vn 0.000000 -0.100000 0.000000
vn 0.000000 -0.100000 0.000000
vn 0.000000 -0.100000 0.000000
vn 0.000000 -0.100000 0.000000
vn 0.000000 -0.100000 0.000000
vn 0.000000 -0.100000 0.000000
vn 0.000000 -0.100000 0.000000
vn 0.000000 -0.100000 0.000000
vn 0.000000 -0.100000 0.000000
vn 0.000000 -0.100000 0.000000
vn 0.000000 -0.100000 0.000000
vn 0.000000 -0.100000 0.000000
vn 0.000000 -0.100000 0.000000
vn 0.000000 -0.100000 0.000000
vn 0.000000 -0.100000 0.000000
vn 0.000000 -0.100000 0.000000
vn 0.000000 -0.100000 0.000000
vn 0.000000 -0.100000 0.000000
vn 0.000000 -0.100000 0.000000
vn 0.000000 -0.100000 0.000000
vn 0.000000 -0.100000 0.000000
vn 0.000000 -0.100000 0.000000
vn 0.000000 -0.100000 0.000000
vn 0.000000 -0.100000 0.000000
vn 0.000000 -0.100000 0.000000
vn 0.000000 -0.100000 0.000000
vn 0.000000 -0.100000 0.000000
vn 0.000000 -0.100000 0.000000
vn 0.000000 -0.100000 0.000000
vn 0.000000 -0.100000 0.000000
vn 0.000000 -0.100000 0.000000
vn 0.000000 -0.100000 0.000000
vn 0.000000 -0.100000 0.000000
vn 0.000000 -0.100000 0.000000
vn 0.000000 -0.100000 0.000000
vn 0.000000 -0.100000 0.000000
vn 0.000000 -0.100000 0.000000
vn 0.000000 -0.100000 0.000000
vn 0.000000 -0.100000 0.000000
vn 0.000000 -0.100000 0.000000
vn 0.000000 -0.100000 0.000000
vn 0.000000 -0.100000 0.000000
vn 0.000000 -0.100000 0.000000
vn 0.000000 -0.100000 0.000000
vn 0.000000 -0.100000 0.000000
vn 0.000000 -0.100000 0.000000
vn 0.000000 -0.100000 0.000000
vn 0.000000 -0.100000 0.000000
vn 0.000000 -0.100000 0.000000
vn 0.000000 -0.100000 0.000000
vn 0.000000 -0.100000 0.000000
vn 0.000000 -0.100000 0.000000
vn 0.000000 -0.100000 0.000000
vn 0.000000 -0.100000 0.000000
vn 0.000000 -0.100000 0.000000
vn 0.000000 -0.100000 0.000000
vn 0.000000 -0.100000 0.000000
vn 0.000000 -0.100000 0.000000
vn 0.000000 -0.100000 0.000000
vn 0.000000 -0.100000 0.000000
vn 0.050000 0.000000 -0.086603
vn 0.050000 0.000000 -0.086603
vn 0.000000 0.000000 -0.100000
vn 0.000000 0.000000 -0.100000
vn -0.050000 0.000000 -0.086603
vn -0.050000 0.000000 -0.086603
vn -0.086603 0.000000 -0.050000
vn -0.086603 0.000000 -0.050000
vn -0.100000 0.000000 0.000000
vn -0.100000 0.000000 0.000000
vn -0.086603 0.000000 0.050000
vn -0.086603 0.000000 0.050000
vn -0.050000 0.000000 0.086603
vn -0.050000 0.000000 0.086603
vn 0.000000 0.000000 0.100000
vn 0.000000 0.000000 0.100000
vn 0.050000 -0.000000 0.086603
vn 0.050000 -0.000000 0.086603
vn 0.086603 -0.000000 0.050000
vn 0.086603 -0.000000 0.050000
vn 0.100000 0.000000 -0.000000
vn 0.100000 0.000000 -0.000000
vn 0.086603 0.000000 -0.050000
vn 0.086603 0.000000 -0.050000
vn -0.000000 0.100000 -0.000000
vn -0.000000 0.100000 -0.000000
vn -0.000000 0.100000 -0.000000
vn -0.000000 0.100000 -0.000000
vn -0.000000 0.100000 -0.000000
vn -0.000000 0.100000 -0.000000
vn -0.000000 0.100000 -0.000000
vn -0.000000 0.100000 -0.000000
vn -0.000000 0.100000 -0.000000
vn -0.000000 0.100000 -0.000000
vn -0.000000 0.100000 -0.000000
vn -0.000000 0.100000 -0.000000
vn -0.000000 0.100000 -0.000000
vn -0.000000 0.100000 -0.000000
vn -0.000000 0.100000 -0.000000
vn -0.000000 0.100000 -0.000000
vn -0.000000 0.100000 -0.000000
vn -0.000000 0.100000 -0.000000
vn -0.000000 0.100000 -0.000000
vn -0.000000 0.100000 -0.000000
vn -0.000000 0.100000 -0.000000
vn -0.000000 0.100000 -0.000000
vn -0.000000 0.100000 -0.000000
vn -0.000000 0.100000 -0.000000
vn 0.050000 0.000000 -0.086603
vn 0.050000 0.000000 -0.086603
vn 0.000000 0.000000 -0.100000
vn 0.000000 0.000000 -0.100000
vn -0.050000 0.000000 -0.086603
vn -0.050000 0.000000 -0.086603
vn -0.086603 0.000000 -0.050000
vn -0.086603 0.000000 -0.050000
vn -0.100000 0.000000 0.000000
vn -0.100000 0.000000 0.000000
vn -0.086603 0.000000 0.050000
vn -0.086603 0.000000 0.050000
vn -0.050000 0.000000 0.086603
vn -0.050000 0.000000 0.086603
vn 0.000000 0.000000 0.100000
vn 0.000000 0.000000 0.100000
vn 0.050000 -0.000000 0.086603
vn 0.050000 -0.000000 0.086603
vn 0.086603 -0.000000 0.050000
vn 0.086603 -0.000000 0.050000
vn 0.100000 0.000000 -0.000000
vn 0.100000 0.000000 -0.000000
vn 0.086603 0.000000 -0.050000
vn 0.086603 0.000000 -0.050000
vn -0.050000 0.000000 0.086603
vn -0.050000 0.000000 0.086603
vn -0.000000 0.000000 0.100000
vn -0.000000 0.000000 0.100000
vn 0.050000 -0.000000 0.086603
vn 0.050000 -0.000000 0.086603
vn 0.086603 -0.000000 0.050000
vn 0.086603 -0.000000 0.050000
vn 0.100000 0.000000 -0.000000
vn 0.100000 0.000000 -0.000000
vn 0.086603 0.000000 -0.050000
vn 0.086603 0.000000 -0.050000
vn 0.050000 0.000000 -0.086603
vn 0.050000 0.000000 -0.086603
vn 0.000000 0.000000 -0.100000
vn 0.000000 0.000000 -0.100000
vn -0.050000 0.000000 -0.086603
vn -0.050000 0.000000 -0.086603
vn -0.086603 0.000000 -0.050000
vn -0.086603 0.000000 -0.050000
vn -0.100000 0.000000 0.000000
vn -0.100000 0.000000 0.000000
vn -0.086603 0.000000 0.050000
vn -0.086603 0.000000 0.050000
usemtl Opaque(159,170,179)
f 2/1/1 24/2/2 1/3/3
f 1/3/3 24/2/2 13/4/4
f 1/3/3 13/4/4 12/5/5
f 12/5/5 13/4/4 14/6/6
f 12/5/5 14/6/6 11/7/7
f 11/7/7 14/6/6 15/8/8
f 11/7/7 15/8/8 10/9/9
f 10/9/9 15/8/8 16/10/10
f 10/9/9 16/10/10 9/11/11
f 9/11/11 16/10/10 17/12/12
f 9/11/11 17/12/12 8/13/13
f 8/13/13 17/12/12 18/14/14
f 8/13/13 18/14/14 7/15/15
f 7/15/15 18/14/14 19/16/16
f 7/17/15 19/18/16 6/19/17
f 6/19/17 19/18/16 20/20/18
f 6/19/17 20/20/18 5/21/19
f 5/21/19 20/20/18 21/22/20
f 5/21/19 21/22/20 4/23/21
f 4/23/21 21/22/20 22/24/22
f 4/23/21 22/24/22 3/25/23
f 3/25/23 22/24/22 23/26/24
f 3/25/23 23/26/24 2/1/1
f 2/1/1 23/26/24 24/2/2
f 26/27/25 48/28/26 25/29/27
f 25/29/27 48/28/26 37/30/28
f 25/29/27 37/30/28 36/31/29
f 36/31/29 37/30/28 38/32/30
f 36/31/29 38/32/30 35/33/31
f 35/33/31 38/32/30 39/34/32
f 35/33/31 39/34/32 34/35/33
f 34/35/33 39/34/32 40/36/34
f 34/35/33 40/36/34 33/37/35
f 33/37/35 40/36/34 41/38/36
f 33/37/35 41/38/36 32/39/37
f 32/39/37 41/38/36 42/40/38
f 32/39/37 42/40/38 31/41/39
f 31/41/39 42/40/38 43/42/40
f 31/43/39 43/44/40 30/45/41
f 30/45/41 43/44/40 44/46/42
f 30/45/41 44/46/42 29/47/43
f 29/47/43 44/46/42 45/48/44
f 29/47/43 45/48/44 28/49/45
f 28/49/45 45/48/44 46/50/46
f 28/49/45 46/50/46 27/51/47
f 27/51/47 46/50/46 47/52/48
f 27/51/47 47/52/48 26/27/25
f 26/27/25 47/52/48 48/28/26
f 50/53/49 72/54/50 49/55/51
f 49/55/51 72/54/50 61/56/52
f 49/55/51 61/56/52 60/57/53
f 60/57/53 61/56/52 62/58/54
f 60/57/53 62/58/54 59/59/55
f 59/59/55 62/58/54 63/60/56
f 59/59/55 63/60/56 58/61/57
f 58/61/57 63/60/56 64/62/58
f 58/61/57 64/62/58 57/63/59
f 57/63/59 64/62/58 65/64/60
f 57/63/59 65/64/60 56/65/61
f 56/65/61 65/64/60 66/66/62
f 56/65/61 66/66/62 55/67/63
f 55/67/63 66/66/62 67/68/64
f 55/69/63 67/70/64 54/71/65
f 54/71/65 67/70/64 68/72/66
f 54/71/65 68/72/66 53/73/67
f 53/73/67 68/72/66 69/74/68
f 53/73/67 69/74/68 52/75/69
f 52/75/69 69/74/68 70/76/70
f 52/75/69 70/76/70 51/77/71
f 51/77/71 70/76/70 71/78/72
f 51/77/71 71/78/72 50/53/49
f 50/53/49 71/78/72 72/54/50
f 74/79/73 96/80/74 73/81/75
f 73/81/75 96/80/74 85/82/76
f 73/81/75 85/82/76 84/83/77
f 84/83/77 85/82/76 86/84/78
f 84/83/77 86/84/78 83/85/79
f 83/85/79 86/84/78 87/86/80
f 83/85/79 87/86/80 82/87/81
f 82/87/81 87/86/80 88/88/82
f 82/87/81 88/88/82 81/89/83
f 81/89/83 88/88/82 89/90/84
f 81/89/83 89/90/84 80/91/85
f 80/91/85 89/90/84 90/92/86
f 80/91/85 90/92/86 79/93/87
f 79/93/87 90/92/86 91/94/88
f 79/95/87 91/96/88 78/97/89
f 78/97/89 91/96/88 92/98/90
f 78/97/89 92/98/90 77/99/91
f 77/99/91 92/98/90 93/100/92
f 77/99/91 93/100/92 76/101/93
f 76/101/93 93/100/92 94/102/94
f 76/101/93 94/102/94 75/103/95
f 75/103/95 94/102/94 95/104/96
f 75/103/95 95/104/96 74/79/73
f 74/79/73 95/104/96 96/80/74
f 98/105/97 74/106/98 97/107/99
f 97/107/99 74/106/98 73/108/100
f 97/107/99 73/108/100 84/109/101
f 99/110/102 120/111/103 98/105/97
f 98/105/97 120/111/103 76/112/104
f 98/105/97 76/112/104 75/113/105
f 100/114/106 51/115/107 99/110/102
f 99/110/102 51/115/107 50/116/108
f 99/110/102 50/116/108 49/117/109
f 101/118/110 53/119/111 100/114/106
f 100/114/106 53/119/111 52/120/112
f 100/114/106 52/120/112 51/115/107
f 102/121/113 116/122/114 101/118/110
f 101/118/110 116/122/114 117/123/115
f 101/118/110 117/123/115 55/124/116
f 55/124/116 117/123/115 56/125/117
f 56/125/117 117/123/115 57/126/118
f 57/126/118 117/123/115 118/127/119
f 57/126/118 118/127/119 58/128/120
f 58/128/120 118/127/119 59/129/121
f 59/129/121 118/127/119 119/130/122
f 59/129/121 119/130/122 60/131/123
f 60/131/123 119/130/122 49/117/109
f 49/117/109 119/130/122 99/110/102
f 103/132/124 30/133/125 102/121/113
f 102/121/113 30/133/125 29/134/126
f 102/121/113 29/134/126 28/135/127
f 104/136/128 32/137/129 103/132/124
f 103/132/124 32/137/129 31/138/130
f 103/132/124 31/138/130 30/133/125
f 105/139/131 114/140/132 104/136/128
f 104/136/128 114/140/132 34/141/133
f 104/136/128 34/141/133 33/142/134
f 106/143/135 9/144/136 105/139/131
f 105/139/131 9/144/136 8/145/137
f 105/139/131 8/145/137 7/146/138
f 107/147/139 11/148/140 106/143/135
f 106/143/135 11/148/140 10/149/141
f 106/143/135 10/149/141 9/144/136
f 108/150/142 110/151/143 107/147/139
f 107/147/139 110/151/143 111/152/144
f 107/147/139 111/152/144 1/153/145
f 1/153/145 111/152/144 2/154/146
f 2/154/146 111/152/144 3/155/147
f 3/155/147 111/152/144 112/156/148
f 3/155/147 112/156/148 4/157/149
f 4/157/149 112/156/148 5/158/150
f 5/158/150 112/156/148 113/159/151
f 5/158/150 113/159/151 6/160/152
f 6/160/152 113/159/151 7/146/138
f 7/146/138 113/159/151 105/139/131
f 97/107/99 84/109/101 108/150/142
f 108/150/142 84/109/101 83/161/153
f 108/150/142 83/161/153 82/162/154
f 110/151/143 80/163/155 109/164/156
f 109/164/156 80/163/155 79/165/157
f 109/164/156 79/165/157 78/166/158
f 113/159/151 114/140/132 105/139/131
f 115/167/159 36/168/160 114/140/132
f 114/140/132 36/168/160 35/169/161
f 114/140/132 35/169/161 34/141/133
f 116/122/114 26/170/162 115/167/159
f 115/167/159 26/170/162 25/171/163
f 115/167/159 25/171/163 36/168/160
f 119/130/122 120/111/103 99/110/102
f 109/164/156 78/166/158 120/111/103
f 120/111/103 78/166/158 77/172/164
f 120/111/103 77/172/164 76/112/104
f 108/150/142 82/162/154 110/151/143
f 110/151/143 82/162/154 81/173/165
f 110/151/143 81/173/165 80/163/155
f 75/113/105 74/106/98 98/105/97
f 55/124/116 54/174/166 101/118/110
f 101/118/110 54/174/166 53/119/111
f 33/142/134 32/137/129 104/136/128
f 102/121/113 28/135/127 116/122/114
f 116/122/114 28/135/127 27/175/167
f 116/122/114 27/175/167 26/170/162
f 1/153/145 12/176/168 107/147/139
f 107/147/139 12/176/168 11/148/140
f 122/177/169 86/178/170 121/179/171
f 121/179/171 86/178/170 85/180/172
f 121/179/171 85/180/172 96/181/173
f 123/182/174 89/183/175 122/177/169
f 122/177/169 89/183/175 88/184/176
f 122/177/169 88/184/176 87/185/177
f 124/186/178 15/187/179 123/182/174
f 123/182/174 15/187/179 14/188/180
f 123/182/174 14/188/180 13/189/181
f 125/190/182 17/191/183 124/186/178
f 124/186/178 17/191/183 16/192/184
f 124/186/178 16/192/184 15/187/179
f 126/193/185 39/194/186 125/190/182
f 125/190/182 39/194/186 140/195/187
f 125/190/182 140/195/187 141/196/188
f 127/197/189 42/198/190 126/193/185
f 126/193/185 42/198/190 41/199/191
f 126/193/185 41/199/191 40/200/192
f 128/201/193 44/202/194 127/197/189
f 127/197/189 44/202/194 43/203/195
f 127/197/189 43/203/195 42/198/190
f 129/204/196 47/205/197 128/201/193
f 128/201/193 47/205/197 46/206/198
f 128/201/193 46/206/198 45/207/199
f 130/208/200 69/209/201 129/204/196
f 129/204/196 69/209/201 68/210/202
f 129/204/196 68/210/202 67/211/203
f 131/212/204 71/213/205 130/208/200
f 130/208/200 71/213/205 70/214/206
f 130/208/200 70/214/206 69/209/201
f 132/215/207 93/216/208 131/212/204
f 131/212/204 93/216/208 134/217/209
f 131/212/204 134/217/209 135/218/210
f 121/179/171 96/181/173 132/215/207
f 132/215/207 96/181/173 95/219/211
f 132/215/207 95/219/211 94/220/212
f 134/217/209 92/221/213 133/222/214
f 133/222/214 92/221/213 91/223/215
f 133/222/214 91/223/215 90/224/216
f 136/225/217 63/226/218 135/218/210
f 135/218/210 63/226/218 62/227/219
f 135/218/210 62/227/219 131/212/204
f 131/212/204 62/227/219 61/228/220
f 131/212/204 61/228/220 72/229/221
f 137/230/222 65/231/223 136/225/217
f 136/225/217 65/231/223 64/232/224
f 136/225/217 64/232/224 63/226/218
f 138/233/225 129/204/196 137/230/222
f 137/230/222 129/204/196 66/234/226
f 137/230/222 66/234/226 65/231/223
f 139/235/227 48/236/228 138/233/225
f 138/233/225 48/236/228 47/205/197
f 138/233/225 47/205/197 129/204/196
f 140/195/187 38/237/229 139/235/227
f 139/235/227 38/237/229 37/238/230
f 139/235/227 37/238/230 48/236/228
f 142/239/231 21/240/232 141/196/188
f 141/196/188 21/240/232 20/241/233
f 141/196/188 20/241/233 125/190/182
f 125/190/182 20/241/233 19/242/234
f 125/190/182 19/242/234 18/243/235
f 143/244/236 23/245/237 142/239/231
f 142/239/231 23/245/237 22/246/238
f 142/239/231 22/246/238 21/240/232
f 144/247/239 123/182/174 143/244/236
f 143/244/236 123/182/174 24/248/240
f 143/244/236 24/248/240 23/245/237
f 133/222/214 90/224/216 144/247/239
f 144/247/239 90/224/216 89/183/175
f 144/247/239 89/183/175 123/182/174
f 94/220/212 93/216/208 132/215/207
f 93/216/208 92/221/213 134/217/209
f 87/185/177 86/178/170 122/177/169
f 72/229/221 71/213/205 131/212/204
f 67/211/203 66/234/226 129/204/196
f 45/207/199 44/202/194 128/201/193
f 40/200/192 39/194/186 126/193/185
f 39/194/186 38/237/229 140/195/187
f 13/189/181 24/248/240 123/182/174
f 18/243/235 17/191/183 125/190/182
f 108/249/241 122/250/242 97/251/243
f 97/251/243 122/250/242 121/252/244
f 97/253/243 121/254/244 98/255/245
f 98/255/245 121/254/244 132/256/246
f 98/255/245 132/256/246 99/257/247
f 99/257/247 132/256/246 131/258/248
f 99/257/247 131/258/248 100/259/249
f 100/259/249 131/258/248 130/260/250
f 100/259/249 130/260/250 101/261/251
f 101/261/251 130/260/250 129/262/252
f 101/261/251 129/262/252 102/263/253
f 102/263/253 129/262/252 128/264/254
f 102/263/253 128/264/254 103/265/255
f 103/265/255 128/264/254 127/266/256
f 103/265/255 127/266/256 104/267/257
f 104/267/257 127/266/256 126/268/258
f 104/267/257 126/268/258 105/269/259
f 105/269/259 126/268/258 125/270/260
f 105/269/259 125/270/260 106/271/261
f 106/271/261 125/270/260 124/272/262
f 106/271/261 124/272/262 107/273/263
f 107/273/263 124/272/262 123/274/264
f 107/273/263 123/274/264 108/249/241
f 108/249/241 123/274/264 122/250/242
f 156/275/265 145/276/266 157/277/267
f 157/277/267 145/276/266 146/278/268
f 157/277/267 146/278/268 168/279/269
f 168/279/269 146/278/268 147/280/270
f 168/279/269 147/280/270 167/281/271
f 167/281/271 147/280/270 166/282/272
f 166/282/272 147/280/270 148/283/273
f 166/282/272 148/283/273 165/284/274
f 165/284/274 148/283/273 149/285/275
f 165/284/274 149/285/275 164/286/276
f 164/286/276 149/285/275 150/287/277
f 164/286/276 150/287/277 163/288/278
f 163/288/278 150/287/277 151/289/279
f 163/288/278 151/289/279 152/290/280
f 163/288/278 152/290/280 162/291/281
f 162/291/281 152/290/280 153/292/282
f 162/291/281 153/292/282 161/293/283
f 161/293/283 153/292/282 154/294/284
f 161/293/283 154/294/284 160/295/285
f 160/295/285 154/294/284 159/296/286
f 159/296/286 154/294/284 155/297/287
f 159/296/286 155/297/287 158/298/288
f 158/298/288 155/297/287 156/275/265
f 158/298/288 156/275/265 157/277/267
f 156/299/289 110/300/290 145/301/291
f 145/301/291 110/300/290 109/302/292
f 145/303/291 109/304/292 146/305/293
f 146/305/293 109/304/292 120/306/294
f 146/305/293 120/306/294 147/307/295
f 147/307/295 120/306/294 119/308/296
f 147/307/295 119/308/296 148/309/297
f 148/309/297 119/308/296 118/310/298
f 148/309/297 118/310/298 149/311/299
f 149/311/299 118/310/298 117/312/300
f 149/311/299 117/312/300 150/313/301
f 150/313/301 117/312/300 116/314/302
f 150/313/301 116/314/302 151/315/303
f 151/315/303 116/314/302 115/316/304
f 151/315/303 115/316/304 152/317/305
f 152/317/305 115/316/304 114/318/306
f 152/317/305 114/318/306 153/319/307
f 153/319/307 114/318/306 113/320/308
f 153/319/307 113/320/308 154/321/309
f 154/321/309 113/320/308 112/322/310
f 154/321/309 112/322/310 155/323/311
f 155/323/311 112/322/310 111/324/312
f 155/323/311 111/324/312 156/299/289
f 156/299/289 111/324/312 110/300/290
f 144/325/313 158/326/314 133/327/315
f 133/327/315 158/326/314 157/328/316
f 133/329/315 157/330/316 134/331/317
f 134/331/317 157/330/316 168/332/318
f 134/331/317 168/332/318 135/333/319
f 135/333/319 168/332/318 167/334/320
f 135/333/319 167/334/320 136/335/321
f 136/335/321 167/334/320 166/336/322
f 136/335/321 166/336/322 137/337/323
f 137/337/323 166/336/322 165/338/324
f 137/337/323 165/338/324 138/339/325
f 138/339/325 165/338/324 164/340/326
f 138/339/325 164/340/326 139/341/327
f 139/341/327 164/340/326 163/342/328
f 139/341/327 163/342/328 140/343/329
f 140/343/329 163/342/328 162/344/330
f 140/343/329 162/344/330 141/345/331
f 141/345/331 162/344/330 161/346/332
f 141/345/331 161/346/332 142/347/333
f 142/347/333 161/346/332 160/348/334
f 142/347/333 160/348/334 143/349/335
f 143/349/335 160/348/334 159/350/336
f 143/349/335 159/350/336 144/325/313
f 144/325/313 159/350/336 158/326/314
# 168 vertices
# 350 texture params
# 336 normals
# 352 facets

# 1 groups
