# WaveFront *.obj file (generated by Autodesk ATF)

mtllib Removable_Tip_1.mtl

g Body1

v 47.341016 -22.152479 -3.300000
v 47.185311 -22.242376 -4.029979
v 46.771405 -22.481345 -4.613788
v 46.192801 -22.815402 -4.976923
v 45.541016 -23.191710 -5.100000
v 39.891016 -26.453739 -5.100000
v 39.891016 -26.453739 -8.300000
v 48.391016 -21.546261 -8.300000
v 48.391016 -21.546261 8.300000
v 39.891016 -26.453739 8.300000
v 39.891016 -26.453739 5.100000
v 45.541016 -23.191710 5.100000
v 46.192801 -22.815402 4.976923
v 46.771405 -22.481345 4.613788
v 47.185311 -22.242376 4.029979
v 47.341016 -22.152479 3.300000
v 49.391016 -19.814211 -5.922876
v 49.391016 -19.814211 -8.300000
v 49.391016 -14.750000 -8.300000
v 49.391016 -14.750000 -5.922876
v 49.391016 -14.750000 5.922876
v 49.391016 -14.750000 8.300000
v 49.391016 -19.814211 8.300000
v 49.391016 -19.814211 5.922876
v 60.929143 -12.750000 8.120526
v 60.686020 -12.750000 8.219434
v 60.430569 -12.750000 8.279738
v 60.168880 -12.750000 8.300000
v 51.391016 -12.750000 8.300000
v 51.391016 -12.750000 6.600000
v 59.696744 -12.750000 6.600000
v 60.004614 -12.750000 6.576162
v 60.305144 -12.750000 6.505216
v 60.591171 -12.750000 6.388854
v 65.535443 -12.750000 3.916718
v 66.120514 -12.750000 3.473630
v 66.506357 -12.750000 2.849322
v 66.641016 -12.750000 2.127864
v 66.641016 -12.750000 -2.127864
v 66.506357 -12.750000 -2.849322
v 66.120514 -12.750000 -3.473630
v 65.535443 -12.750000 -3.916718
v 60.591171 -12.750000 -6.388854
v 60.305144 -12.750000 -6.505216
v 60.004614 -12.750000 -6.576162
v 59.696744 -12.750000 -6.600000
v 51.391016 -12.750000 -6.600000
v 51.391016 -12.750000 -8.300000
v 60.168880 -12.750000 -8.300000
v 60.430569 -12.750000 -8.279738
v 60.686020 -12.750000 -8.219434
v 60.929143 -12.750000 -8.120526
v 67.401279 -12.750000 -4.884458
v 67.898589 -12.750000 -4.507833
v 68.226556 -12.750000 -3.977172
v 68.341016 -12.750000 -3.363932
v 68.341016 -12.750000 3.363932
v 68.226556 -12.750000 3.977172
v 67.898589 -12.750000 4.507833
v 67.401279 -12.750000 4.884458
v 39.891016 -26.222799 -4.900000
v 39.891016 -9.750000 -4.900000
v 39.891016 -9.750000 4.900000
v 39.891016 -26.222799 4.900000
v 39.891016 -26.107328 8.600000
v 39.891016 -7.750000 8.600000
v 39.891016 -7.750000 -8.600000
v 39.891016 -26.107328 -8.600000
v 48.241016 -21.286454 8.600000
v 48.693292 -20.906949 8.600000
v 48.988494 -20.395645 8.600000
v 49.091016 -19.814211 8.600000
v 49.091016 -14.750000 8.600000
v 49.399158 -13.600000 8.600000
v 50.241016 -12.758142 8.600000
v 51.391016 -12.450000 8.600000
v 60.168880 -12.450000 8.600000
v 60.168880 -7.750000 8.600000
v 41.341016 -14.750000 8.600000
v 41.548677 -13.975000 8.600000
v 42.116016 -13.407661 8.600000
v 42.891016 -13.200000 8.600000
v 43.666016 -13.407661 8.600000
v 44.233356 -13.975000 8.600000
v 44.441016 -14.750000 8.600000
v 44.233356 -15.525000 8.600000
v 43.666016 -16.092339 8.600000
v 42.891016 -16.300000 8.600000
v 42.116016 -16.092339 8.600000
v 41.548677 -15.525000 8.600000
v 68.641016 -7.750000 3.363932
v 68.641016 -12.450000 3.363932
v 68.641016 -12.450000 -3.363932
v 68.641016 -7.750000 -3.363932
v 60.168880 -7.750000 -8.600000
v 60.168880 -12.450000 -8.600000
v 51.391016 -12.450000 -8.600000
v 50.241016 -12.758142 -8.600000
v 49.399158 -13.600000 -8.600000
v 49.091016 -14.750000 -8.600000
v 49.091016 -19.814211 -8.600000
v 48.988494 -20.395645 -8.600000
v 48.693292 -20.906949 -8.600000
v 48.241016 -21.286454 -8.600000
v 44.441016 -14.750000 -8.600000
v 44.233356 -13.975000 -8.600000
v 43.666016 -13.407661 -8.600000
v 42.891016 -13.200000 -8.600000
v 42.116016 -13.407661 -8.600000
v 41.548677 -13.975000 -8.600000
v 41.341016 -14.750000 -8.600000
v 41.548677 -15.525000 -8.600000
v 42.116016 -16.092339 -8.600000
v 42.891016 -16.300000 -8.600000
v 43.666016 -16.092339 -8.600000
v 44.233356 -15.525000 -8.600000
v 67.535443 -7.750000 -5.152786
v 61.063307 -7.750000 -8.388854
v 60.777280 -7.750000 -8.505216
v 60.476750 -7.750000 -8.576162
v 60.476750 -7.750000 8.576162
v 60.777280 -7.750000 8.505216
v 61.063307 -7.750000 8.388854
v 67.535443 -7.750000 5.152786
v 68.120514 -7.750000 4.709698
v 68.506357 -7.750000 4.085390
v 68.506357 -7.750000 -4.085390
v 68.120514 -7.750000 -4.709698
v 51.641016 -7.750000 2.150000
v 52.316016 -7.750000 2.330866
v 52.810150 -7.750000 2.825000
v 52.991016 -7.750000 3.500000
v 52.810150 -7.750000 4.175000
v 52.316016 -7.750000 4.669134
v 51.641016 -7.750000 4.850000
v 50.966016 -7.750000 4.669134
v 50.471882 -7.750000 4.175000
v 50.291016 -7.750000 3.500000
v 50.471882 -7.750000 2.825000
v 50.966016 -7.750000 2.330866
v 51.641016 -7.750000 -4.850000
v 52.316016 -7.750000 -4.669134
v 52.810150 -7.750000 -4.175000
v 52.991016 -7.750000 -3.500000
v 52.810150 -7.750000 -2.825000
v 52.316016 -7.750000 -2.330866
v 51.641016 -7.750000 -2.150000
v 50.966016 -7.750000 -2.330866
v 50.471882 -7.750000 -2.825000
v 50.291016 -7.750000 -3.500000
v 50.471882 -7.750000 -4.175000
v 50.966016 -7.750000 -4.669134
v 61.641016 -7.750000 -1.350000
v 62.316016 -7.750000 -1.169134
v 62.810150 -7.750000 -0.675000
v 62.991016 -7.750000 -0.000000
v 62.810150 -7.750000 0.675000
v 62.316016 -7.750000 1.169134
v 61.641016 -7.750000 1.350000
v 60.966016 -7.750000 1.169134
v 60.471882 -7.750000 0.675000
v 60.291016 -7.750000 -0.000000
v 60.471882 -7.750000 -0.675000
v 60.966016 -7.750000 -1.169134
v 61.063307 -12.450000 8.388854
v 67.535443 -12.450000 5.152786
v 67.535443 -12.450000 -5.152786
v 61.063307 -12.450000 -8.388854
v 45.391016 -23.047372 -4.900000
v 45.391016 -9.750000 -4.900000
v 41.341016 -14.750000 -4.900000
v 41.548677 -13.975000 -4.900000
v 42.116016 -13.407661 -4.900000
v 42.891016 -13.200000 -4.900000
v 43.666016 -13.407661 -4.900000
v 44.233356 -13.975000 -4.900000
v 44.441016 -14.750000 -4.900000
v 44.233356 -15.525000 -4.900000
v 43.666016 -16.092339 -4.900000
v 42.891016 -16.300000 -4.900000
v 42.116016 -16.092339 -4.900000
v 41.548677 -15.525000 -4.900000
v 46.891016 -9.750000 -3.400000
v 46.891016 -21.896625 -3.400000
v 46.891016 -21.894320 -3.366711
v 46.891016 -21.893002 -3.333367
v 46.891016 -21.892672 -3.300000
v 46.891016 -21.892672 3.300000
v 46.891016 -21.893002 3.333367
v 46.891016 -21.894320 3.366711
v 46.891016 -21.896625 3.400000
v 46.891016 -9.750000 3.400000
v 45.391016 -9.750000 4.900000
v 45.391016 -23.047372 4.900000
v 41.341016 -14.750000 4.900000
v 41.548677 -15.525000 4.900000
v 42.116016 -16.092339 4.900000
v 42.891016 -16.300000 4.900000
v 43.666016 -16.092339 4.900000
v 44.233356 -15.525000 4.900000
v 44.441016 -14.750000 4.900000
v 44.233356 -13.975000 4.900000
v 43.666016 -13.407661 4.900000
v 42.891016 -13.200000 4.900000
v 42.116016 -13.407661 4.900000
v 41.548677 -13.975000 4.900000
v 46.690054 -9.750000 4.150000
v 46.141016 -9.750000 4.699038
v 46.141016 -9.750000 -4.699038
v 46.690054 -9.750000 -4.150000
v 65.535443 -10.250000 -3.916718
v 60.591171 -10.250000 -6.388854
v 66.641016 -10.250000 2.127864
v 66.641016 -10.250000 -2.127864
v 60.591171 -10.250000 6.388854
v 65.535443 -10.250000 3.916718
v 59.696744 -10.250000 -6.600000
v 50.891016 -10.250000 -6.600000
v 50.891016 -12.813508 -6.600000
v 51.055700 -12.778310 -6.600000
v 51.222762 -12.757090 -6.600000
v 50.891016 -10.250000 6.600000
v 59.696744 -10.250000 6.600000
v 51.222762 -12.757090 6.600000
v 51.055700 -12.778310 6.600000
v 50.891016 -12.813508 6.600000
v 48.891016 -10.250000 4.600000
v 48.891016 -21.137086 4.600000
v 48.891016 -21.137086 -4.600000
v 48.891016 -10.250000 -4.600000
v 49.158965 -10.250000 -5.600000
v 49.891016 -10.250000 -6.332051
v 60.004614 -10.250000 -6.576162
v 60.305144 -10.250000 -6.505216
v 66.120514 -10.250000 -3.473630
v 66.506357 -10.250000 -2.849322
v 66.506357 -10.250000 2.849322
v 66.120514 -10.250000 3.473630
v 60.305144 -10.250000 6.505216
v 60.004614 -10.250000 6.576162
v 49.891016 -10.250000 6.332051
v 49.158965 -10.250000 5.600000
v 50.291016 -10.250000 3.500000
v 50.471882 -10.250000 4.175000
v 50.966016 -10.250000 4.669134
v 51.641016 -10.250000 4.850000
v 52.316016 -10.250000 4.669134
v 52.810150 -10.250000 4.175000
v 52.991016 -10.250000 3.500000
v 52.810150 -10.250000 2.825000
v 52.316016 -10.250000 2.330866
v 51.641016 -10.250000 2.150000
v 50.966016 -10.250000 2.330866
v 50.471882 -10.250000 2.825000
v 50.291016 -10.250000 -3.500000
v 50.471882 -10.250000 -2.825000
v 50.966016 -10.250000 -2.330866
v 51.641016 -10.250000 -2.150000
v 52.316016 -10.250000 -2.330866
v 52.810150 -10.250000 -2.825000
v 52.991016 -10.250000 -3.500000
v 52.810150 -10.250000 -4.175000
v 52.316016 -10.250000 -4.669134
v 51.641016 -10.250000 -4.850000
v 50.966016 -10.250000 -4.669134
v 50.471882 -10.250000 -4.175000
v 60.291016 -10.250000 -0.000000
v 60.471882 -10.250000 0.675000
v 60.966016 -10.250000 1.169134
v 61.641016 -10.250000 1.350000
v 62.316016 -10.250000 1.169134
v 62.810150 -10.250000 0.675000
v 62.991016 -10.250000 -0.000000
v 62.810150 -10.250000 -0.675000
v 62.316016 -10.250000 -1.169134
v 61.641016 -10.250000 -1.350000
v 60.966016 -10.250000 -1.169134
v 60.471882 -10.250000 -0.675000
v 48.964350 -21.048940 -5.136149
v 49.144237 -20.776283 -5.573594
v 49.319783 -20.343135 -5.837419
v 49.499890 -14.099175 -6.036949
v 49.803445 -13.533691 -6.278365
v 50.281486 -13.087422 -6.503913
v 49.319783 -20.343135 5.837419
v 49.144237 -20.776283 5.573594
v 48.964350 -21.048940 5.136149
v 50.281486 -13.087422 6.503913
v 49.803445 -13.533691 6.278365
v 49.499890 -14.099175 6.036949
v 49.270401 -20.498251 8.300000
v 48.923105 -21.099786 8.300000
v 48.923105 -21.099786 -8.300000
v 49.270401 -20.498251 -8.300000
v 60.777280 -12.450000 -8.505216
v 60.476750 -12.450000 -8.576162
v 68.506357 -12.450000 -4.085390
v 68.120514 -12.450000 -4.709698
v 68.120514 -12.450000 4.709698
v 68.506357 -12.450000 4.085390
v 60.476750 -12.450000 8.576162
v 60.777280 -12.450000 8.505216
v 49.658965 -13.750000 -8.300000
v 50.391016 -13.017949 -8.300000
v 50.391016 -13.017949 8.300000
v 49.658965 -13.750000 8.300000
v 46.795723 -22.007735 3.926111
v 46.512430 -22.240661 4.396231
v 46.019889 -22.609898 4.761806
v 45.440606 -23.017794 4.899180
v 45.440606 -23.017794 -4.899180
v 46.019867 -22.609914 -4.761816
v 46.512430 -22.240660 -4.396231
v 46.795776 -22.007686 -3.925967
v 46.834670 -22.197221 4.216696
v 46.095566 -22.663159 4.822339
v 46.630933 -22.325659 4.465664
v 47.042110 -22.066449 3.778923
v 46.630933 -22.325659 -4.465664
v 46.987605 -22.100809 -3.930300
v 46.095566 -22.663159 -4.822339
vt 1.026240 -0.530000 0.000000
vt 1.026240 -1.190000 0.000000
vt 1.147484 -1.690000 0.000000
vt 1.008261 -1.262998 0.000000
vt 0.960467 -1.321379 0.000000
vt 0.893656 -1.357692 0.000000
vt 0.818394 -1.370000 0.000000
vt 0.165988 -1.690000 0.000000
vt 0.165988 -1.370000 0.000000
vt 1.147484 -0.030000 0.000000
vt 1.008261 -0.457002 0.000000
vt 0.960467 -0.398621 0.000000
vt 0.893656 -0.362308 0.000000
vt 0.818394 -0.350000 0.000000
vt 0.165988 -0.030000 0.000000
vt 0.165988 -0.350000 0.000000
vt 1.452488 0.203766 0.000000
vt 1.690200 0.203766 0.000000
vt 1.452488 0.710187 0.000000
vt 1.690200 0.710187 0.000000
vt 0.267912 0.710187 0.000000
vt 0.030200 0.710187 0.000000
vt 0.267912 0.203766 0.000000
vt 0.030200 0.203766 0.000000
vt 0.642000 -0.038257 0.000000
vt 0.603913 -0.209678 0.000000
vt 0.666313 -0.048147 0.000000
vt 0.632516 -0.221315 0.000000
vt 1.126943 -0.468528 0.000000
vt 0.573860 -0.202584 0.000000
vt 0.616455 -0.032226 0.000000
vt 0.590286 -0.030200 0.000000
vt 0.543073 -0.200200 0.000000
vt -0.287500 -0.030200 0.000000
vt -0.287500 -0.200200 0.000000
vt 1.313526 -0.371754 0.000000
vt 1.185450 -0.512837 0.000000
vt 1.363257 -0.409417 0.000000
vt 1.396054 -0.462483 0.000000
vt 1.224034 -0.575268 0.000000
vt 1.407500 -0.523807 0.000000
vt 1.237500 -0.647414 0.000000
vt 1.407500 -1.196593 0.000000
vt 1.237500 -1.072986 0.000000
vt 1.224034 -1.145132 0.000000
vt 1.396054 -1.257917 0.000000
vt 1.185450 -1.207563 0.000000
vt 1.363257 -1.310983 0.000000
vt 1.313526 -1.348646 0.000000
vt 1.126943 -1.251872 0.000000
vt 0.666313 -1.672253 0.000000
vt 0.632516 -1.499085 0.000000
vt 0.603913 -1.510722 0.000000
vt 0.642000 -1.682143 0.000000
vt 0.573860 -1.517816 0.000000
vt 0.616455 -1.688174 0.000000
vt 0.590286 -1.690200 0.000000
vt 0.543073 -1.520200 0.000000
vt -0.287500 -1.690200 0.000000
vt -0.287500 -1.520200 0.000000
vt -1.370200 -1.395374 0.000000
vt -1.350200 -1.372280 0.000000
vt -1.690200 -1.395374 0.000000
vt -1.720200 -1.360733 0.000000
vt -1.350200 0.275000 0.000000
vt -1.720200 0.475000 0.000000
vt -0.370200 0.275000 0.000000
vt -0.000200 0.475000 0.000000
vt -0.000200 -1.360733 0.000000
vt -0.370200 -1.372280 0.000000
vt -0.030200 -1.395374 0.000000
vt -0.350200 -1.395374 0.000000
vt -1.175000 -0.785733 0.000000
vt -1.030000 0.350000 0.000000
vt -1.175000 1.050000 0.000000
vt -1.009234 0.427500 0.000000
vt -0.952500 0.484234 0.000000
vt -0.340000 -0.303645 0.000000
vt -0.875000 0.195000 0.000000
vt -0.952500 0.215766 0.000000
vt -1.009234 0.272500 0.000000
vt -0.294772 -0.265695 0.000000
vt -0.265252 -0.214564 0.000000
vt -0.255000 -0.156421 0.000000
vt -0.797500 0.215766 0.000000
vt -0.740766 0.272500 0.000000
vt -0.255000 0.350000 0.000000
vt -0.720000 0.350000 0.000000
vt -0.740766 0.427500 0.000000
vt -0.224186 0.465000 0.000000
vt -0.797500 0.484234 0.000000
vt -0.140000 0.549186 0.000000
vt -0.025000 0.580000 0.000000
vt 0.852786 1.050000 0.000000
vt 0.852786 0.580000 0.000000
vt -0.875000 0.505000 0.000000
vt 0.523807 0.005000 0.000000
vt 1.196593 0.005000 0.000000
vt 0.523807 0.475000 0.000000
vt 1.196593 0.475000 0.000000
vt -0.852786 0.580000 0.000000
vt 0.025000 0.580000 0.000000
vt -0.852786 1.050000 0.000000
vt 1.175000 1.050000 0.000000
vt 0.140000 0.549186 0.000000
vt 0.797500 0.484234 0.000000
vt 0.224186 0.465000 0.000000
vt 0.740766 0.427500 0.000000
vt 0.255000 0.350000 0.000000
vt 0.720000 0.350000 0.000000
vt 0.740766 0.272500 0.000000
vt 0.255000 -0.156421 0.000000
vt 0.797500 0.215766 0.000000
vt 0.340000 -0.303645 0.000000
vt 0.875000 0.195000 0.000000
vt 1.175000 -0.785733 0.000000
vt 0.952500 0.215766 0.000000
vt 1.009234 0.272500 0.000000
vt 1.030000 0.350000 0.000000
vt 1.009234 0.427500 0.000000
vt 0.952500 0.484234 0.000000
vt 0.875000 0.505000 0.000000
vt 0.265252 -0.214564 0.000000
vt 0.294772 -0.265695 0.000000
vt -0.679729 -1.699085 0.000000
vt -0.737500 -0.995200 0.000000
vt -1.326943 -1.375479 0.000000
vt -0.805000 -0.977113 0.000000
vt -1.385450 -1.331170 0.000000
vt -1.424034 -1.268739 0.000000
vt -1.437500 -1.196593 0.000000
vt -0.854413 -0.927700 0.000000
vt -0.872500 -0.860200 0.000000
vt -0.651126 -1.710722 0.000000
vt -0.590286 -1.720200 0.000000
vt 0.145587 -1.277700 0.000000
vt -0.670000 -0.977113 0.000000
vt 0.127500 -1.210200 0.000000
vt 0.145587 -1.142700 0.000000
vt -0.621073 -1.717816 0.000000
vt 1.437500 -1.720200 0.000000
vt 0.262500 -1.345200 0.000000
vt 0.195000 -1.327113 0.000000
vt 1.437500 -0.000200 0.000000
vt 0.379413 -0.577700 0.000000
vt 0.379413 -1.142700 0.000000
vt 0.397500 -1.210200 0.000000
vt -0.590286 -0.000200 0.000000
vt 0.262500 -0.375200 0.000000
vt 0.330000 -0.393287 0.000000
vt 0.379413 -0.442700 0.000000
vt -0.621073 -0.002584 0.000000
vt -0.651126 -0.009678 0.000000
vt -0.679729 -0.021315 0.000000
vt 0.145587 -0.442700 0.000000
vt -0.737500 -0.725200 0.000000
vt -0.670000 -0.743287 0.000000
vt -1.326943 -0.344921 0.000000
vt -0.805000 -0.743287 0.000000
vt -1.385450 -0.389230 0.000000
vt -1.424034 -0.451661 0.000000
vt -1.437500 -0.523807 0.000000
vt -0.854413 -0.792700 0.000000
vt 0.195000 -0.627113 0.000000
vt 0.262500 -1.075200 0.000000
vt 0.262500 -0.645200 0.000000
vt 0.330000 -1.093287 0.000000
vt 0.330000 -0.627113 0.000000
vt 0.145587 -0.577700 0.000000
vt -0.620587 -0.792700 0.000000
vt -0.602500 -0.860200 0.000000
vt 0.195000 -1.093287 0.000000
vt -0.620587 -0.927700 0.000000
vt 0.127500 -0.510200 0.000000
vt 0.195000 -0.393287 0.000000
vt 0.397500 -0.510200 0.000000
vt 0.379413 -1.277700 0.000000
vt 0.330000 -1.327113 0.000000
vt 0.475000 0.847214 0.000000
vt 0.005000 0.847214 0.000000
vt 0.475000 0.123607 0.000000
vt 0.005000 0.123607 0.000000
vt 1.050000 0.770820 0.000000
vt 0.580000 0.770820 0.000000
vt 1.050000 0.047214 0.000000
vt 0.580000 0.047214 0.000000
vt -0.350000 0.652720 0.000000
vt -0.205000 1.800000 0.000000
vt -0.350000 2.300000 0.000000
vt -0.184234 1.877500 0.000000
vt -0.127500 1.934234 0.000000
vt 0.200000 0.970263 0.000000
vt -0.050000 1.645000 0.000000
vt -0.127500 1.665766 0.000000
vt -0.184234 1.722500 0.000000
vt 0.200000 2.300000 0.000000
vt 0.105000 1.800000 0.000000
vt 0.084234 1.722500 0.000000
vt 0.027500 1.665766 0.000000
vt -0.050000 1.955000 0.000000
vt 0.027500 1.934234 0.000000
vt 0.084234 1.877500 0.000000
vt -0.100000 1.085338 0.000000
vt -0.096671 1.085568 0.000000
vt -0.100000 2.300000 0.000000
vt -0.093337 1.085700 0.000000
vt -0.090000 1.085733 0.000000
vt 0.570000 1.085733 0.000000
vt 0.580000 2.300000 0.000000
vt 0.573337 1.085700 0.000000
vt 0.576671 1.085568 0.000000
vt 0.580000 1.085338 0.000000
vt -0.200000 0.970263 0.000000
vt -0.105000 1.800000 0.000000
vt -0.200000 2.300000 0.000000
vt -0.084234 1.877500 0.000000
vt -0.027500 1.934234 0.000000
vt 0.350000 0.652720 0.000000
vt 0.050000 1.645000 0.000000
vt -0.027500 1.665766 0.000000
vt -0.084234 1.722500 0.000000
vt 0.350000 2.300000 0.000000
vt 0.205000 1.800000 0.000000
vt 0.184234 1.722500 0.000000
vt 0.127500 1.665766 0.000000
vt 0.050000 1.955000 0.000000
vt 0.127500 1.934234 0.000000
vt 0.184234 1.877500 0.000000
vt 0.350000 0.340000 0.000000
vt 0.200000 0.490000 0.000000
vt 0.350000 -0.340000 0.000000
vt 0.200000 -0.490000 0.000000
vt 0.275000 -0.469904 0.000000
vt 0.329904 0.415000 0.000000
vt 0.275000 0.469904 0.000000
vt -0.350000 0.490000 0.000000
vt -0.350000 -0.490000 0.000000
vt 0.329904 -0.415000 0.000000
vt 0.238197 2.750000 0.000000
vt -0.314590 2.750000 0.000000
vt 0.238197 2.500000 0.000000
vt -0.314590 2.500000 0.000000
vt -2.750000 -0.212786 0.000000
vt -2.500000 -0.212786 0.000000
vt -2.750000 0.212786 0.000000
vt -2.500000 0.212786 0.000000
vt 0.314590 2.750000 0.000000
vt -0.238197 2.750000 0.000000
vt 0.314590 2.500000 0.000000
vt -0.238197 2.500000 0.000000
vt 0.516680 2.500000 0.000000
vt 0.516680 2.750000 0.000000
vt -0.313893 2.500000 0.000000
vt -0.363893 2.750000 0.000000
vt -0.330719 2.499291 0.000000
vt -0.347425 2.497169 0.000000
vt -0.363893 2.493649 0.000000
vt -0.516680 2.750000 0.000000
vt 0.313893 2.500000 0.000000
vt 0.363893 2.750000 0.000000
vt 0.330719 2.499291 0.000000
vt 0.347425 2.497169 0.000000
vt -0.516680 2.500000 0.000000
vt 0.363893 2.493649 0.000000
vt 2.750000 0.460000 0.000000
vt 1.661291 0.460000 0.000000
vt 2.750000 -0.460000 0.000000
vt 1.661291 -0.460000 0.000000
vt -0.537500 -1.320200 0.000000
vt -0.379413 -0.577700 0.000000
vt -0.537500 -0.400200 0.000000
vt -0.397500 -0.510200 0.000000
vt -0.379413 -0.442700 0.000000
vt -0.510705 -1.420200 0.000000
vt -0.330000 -1.327113 0.000000
vt -0.379413 -1.277700 0.000000
vt -0.397500 -1.210200 0.000000
vt -0.437500 -1.493405 0.000000
vt -0.337500 -1.520200 0.000000
vt -0.262500 -1.345200 0.000000
vt -0.195000 -1.327113 0.000000
vt 0.543073 -1.520200 0.000000
vt -0.145587 -1.277700 0.000000
vt -0.127500 -1.210200 0.000000
vt 0.670000 -0.977113 0.000000
vt 0.620587 -0.927700 0.000000
vt 0.573860 -1.517816 0.000000
vt 0.603913 -1.510722 0.000000
vt 0.632516 -1.499085 0.000000
vt 0.737500 -0.995200 0.000000
vt 1.126943 -1.251872 0.000000
vt 0.805000 -0.977113 0.000000
vt 1.185450 -1.207563 0.000000
vt 1.224034 -1.145132 0.000000
vt 1.237500 -1.072986 0.000000
vt 0.854413 -0.927700 0.000000
vt 0.872500 -0.860200 0.000000
vt 1.237500 -0.647414 0.000000
vt 0.854413 -0.792700 0.000000
vt 0.805000 -0.743287 0.000000
vt 1.224034 -0.575268 0.000000
vt 1.185450 -0.512837 0.000000
vt 1.126943 -0.468528 0.000000
vt 0.737500 -0.725200 0.000000
vt 0.632516 -0.221315 0.000000
vt 0.670000 -0.743287 0.000000
vt 0.543073 -0.200200 0.000000
vt -0.127500 -0.510200 0.000000
vt -0.145587 -0.442700 0.000000
vt -0.195000 -0.393287 0.000000
vt -0.337500 -0.200200 0.000000
vt -0.262500 -0.375200 0.000000
vt -0.330000 -0.393287 0.000000
vt -0.437500 -0.226995 0.000000
vt -0.510705 -0.300200 0.000000
vt 0.603913 -0.209678 0.000000
vt 0.573860 -0.202584 0.000000
vt 0.620587 -0.792700 0.000000
vt -0.145587 -0.577700 0.000000
vt 0.602500 -0.860200 0.000000
vt -0.195000 -0.627113 0.000000
vt -0.195000 -1.093287 0.000000
vt -0.262500 -0.645200 0.000000
vt -0.262500 -1.075200 0.000000
vt -0.330000 -1.093287 0.000000
vt -0.330000 -0.627113 0.000000
vt -0.379413 -1.142700 0.000000
vt -0.145587 -1.142700 0.000000
vt -1.661291 -0.628319 0.000000
vt -1.670106 -0.574036 0.000000
vt -2.750000 -0.628319 0.000000
vt -2.750000 -0.523599 0.000000
vt -1.697372 -0.526622 0.000000
vt -1.740687 -0.494898 0.000000
vt -1.793579 -0.483772 0.000000
vt -2.300000 -0.483772 0.000000
vt -2.365083 -0.467999 0.000000
vt -2.750000 -0.418879 0.000000
vt -2.421631 -0.429152 0.000000
vt -2.466258 -0.376126 0.000000
vt -2.493649 -0.314159 0.000000
vt -2.750000 -0.314159 0.000000
vt -2.750000 -0.314159 0.000000
vt -2.500000 -0.314159 0.000000
vt -2.750000 -0.283249 0.000000
vt -2.500000 -0.283249 0.000000
vt -2.750000 -0.252340 0.000000
vt -2.500000 -0.252340 0.000000
vt -2.750000 -0.221430 0.000000
vt -2.500000 -0.221430 0.000000
vt -2.750000 -0.221430 0.000000
vt -2.500000 -0.221430 0.000000
vt -2.750000 -0.147620 0.000000
vt -2.500000 -0.147620 0.000000
vt -2.750000 -0.073810 0.000000
vt -2.500000 -0.073810 0.000000
vt -2.750000 0.000000 0.000000
vt -2.500000 0.000000 0.000000
vt -2.750000 -0.000000 0.000000
vt -2.500000 -0.000000 0.000000
vt -2.750000 0.073810 0.000000
vt -2.500000 0.073810 0.000000
vt -2.750000 0.147620 0.000000
vt -2.500000 0.147620 0.000000
vt -2.750000 0.221430 0.000000
vt -2.500000 0.221430 0.000000
vt -2.750000 0.221430 0.000000
vt -2.500000 0.221430 0.000000
vt -2.750000 0.252340 0.000000
vt -2.500000 0.252340 0.000000
vt -2.750000 0.283249 0.000000
vt -2.500000 0.283249 0.000000
vt -2.750000 0.314159 0.000000
vt -2.500000 0.314159 0.000000
vt -1.793579 0.483772 0.000000
vt -1.740687 0.494898 0.000000
vt -2.300000 0.483772 0.000000
vt -2.750000 0.523599 0.000000
vt -2.365083 0.467999 0.000000
vt -2.750000 0.418879 0.000000
vt -2.421631 0.429152 0.000000
vt -2.466258 0.376126 0.000000
vt -2.750000 0.314159 0.000000
vt -2.493649 0.314159 0.000000
vt -1.697372 0.526622 0.000000
vt -1.670106 0.574036 0.000000
vt -2.750000 0.628319 0.000000
vt -1.661291 0.628319 0.000000
vt -0.267912 -0.628319 0.000000
vt -0.030200 -0.628319 0.000000
vt -0.276458 -0.574789 0.000000
vt -0.030200 -0.558505 0.000000
vt -0.302841 -0.527943 0.000000
vt -0.030200 -0.488692 0.000000
vt -0.346585 -0.495240 0.000000
vt -0.400200 -0.483772 0.000000
vt -0.030200 -0.418879 0.000000
vt -1.690200 -0.418879 0.000000
vt -1.320200 -0.483772 0.000000
vt -1.690200 -0.488692 0.000000
vt -1.373815 -0.495240 0.000000
vt -1.417559 -0.527943 0.000000
vt -1.690200 -0.558505 0.000000
vt -1.443942 -0.574789 0.000000
vt -1.690200 -0.628319 0.000000
vt -1.452488 -0.628319 0.000000
vt -1.050000 0.535589 0.000000
vt -0.580000 0.535589 0.000000
vt -1.050000 0.566499 0.000000
vt -0.580000 0.566499 0.000000
vt -1.050000 0.597409 0.000000
vt -0.580000 0.597409 0.000000
vt -1.050000 0.628319 0.000000
vt -0.580000 0.628319 0.000000
vt -0.475000 0.314159 0.000000
vt -0.005000 0.314159 0.000000
vt -0.475000 0.387969 0.000000
vt -0.005000 0.387969 0.000000
vt -0.475000 0.461779 0.000000
vt -0.005000 0.461779 0.000000
vt -0.475000 0.535589 0.000000
vt -0.005000 0.535589 0.000000
vt -0.475000 0.092730 0.000000
vt -0.005000 0.092730 0.000000
vt -0.475000 0.166539 0.000000
vt -0.005000 0.166539 0.000000
vt -0.475000 0.240349 0.000000
vt -0.005000 0.240349 0.000000
vt -0.475000 0.314159 0.000000
vt -0.005000 0.314159 0.000000
vt 1.050000 -0.628319 0.000000
vt 0.580000 -0.628319 0.000000
vt 1.050000 -0.659228 0.000000
vt 0.580000 -0.659228 0.000000
vt 1.050000 -0.690138 0.000000
vt 0.580000 -0.690138 0.000000
vt 1.050000 -0.721048 0.000000
vt 0.580000 -0.721048 0.000000
vt 1.452488 0.000000 0.000000
vt 1.690200 0.000000 0.000000
vt 1.463895 0.066290 0.000000
vt 1.690200 0.104720 0.000000
vt 1.488037 0.130751 0.000000
vt 1.510591 0.196463 0.000000
vt 1.690200 0.209440 0.000000
vt 1.520200 0.263623 0.000000
vt 1.690200 0.314159 0.000000
vt 1.520200 0.280469 0.000000
vt 1.520200 0.297314 0.000000
vt 1.520200 0.314159 0.000000
vt 0.200200 0.314159 0.000000
vt 0.030200 0.314159 0.000000
vt 0.200200 0.297314 0.000000
vt 0.200200 0.280469 0.000000
vt 0.200200 0.263623 0.000000
vt 0.030200 0.209440 0.000000
vt 0.209809 0.196463 0.000000
vt 0.030200 0.104720 0.000000
vt 0.232363 0.130751 0.000000
vt 0.256505 0.066290 0.000000
vt 0.030200 0.000000 0.000000
vt 0.267912 0.000000 0.000000
vt 0.370000 0.081158 0.000000
vt 0.000000 0.081158 0.000000
vt 0.370000 0.000000 0.000000
vt 0.000000 0.000000 0.000000
vt 0.370000 -0.081158 0.000000
vt 0.000000 -0.081158 0.000000
vt 0.370000 -0.162316 0.000000
vt -0.000000 -0.162316 0.000000
vt 0.370000 -0.243473 0.000000
vt 0.000000 -0.243473 0.000000
vt 0.370000 -0.324631 0.000000
vt 0.000000 -0.324631 0.000000
vt 0.370000 -0.405789 0.000000
vt 0.000000 -0.405789 0.000000
vt 0.370000 -0.486947 0.000000
vt 0.000000 -0.486947 0.000000
vt 0.370000 0.486947 0.000000
vt 0.000000 0.486947 0.000000
vt 0.370000 0.405789 0.000000
vt 0.000000 0.405789 0.000000
vt 0.370000 0.324631 0.000000
vt 0.000000 0.324631 0.000000
vt 0.370000 0.243473 0.000000
vt 0.000000 0.243473 0.000000
vt 0.370000 0.162316 0.000000
vt 0.000000 0.162316 0.000000
vt 1.350000 -0.081158 0.000000
vt 1.720000 -0.081158 0.000000
vt 1.350000 0.000000 0.000000
vt 1.720000 0.000000 0.000000
vt 1.350000 0.081158 0.000000
vt 1.720000 0.081158 0.000000
vt 1.350000 0.162316 0.000000
vt 1.720000 0.162316 0.000000
vt 1.350000 0.243473 0.000000
vt 1.720000 0.243473 0.000000
vt 1.350000 0.324631 0.000000
vt 1.720000 0.324631 0.000000
vt 1.350000 0.405789 0.000000
vt 1.720000 0.405789 0.000000
vt 1.350000 0.486947 0.000000
vt 1.720000 0.486947 0.000000
vt 1.350000 -0.486947 0.000000
vt 1.720000 -0.486947 0.000000
vt 1.350000 -0.405789 0.000000
vt 1.720000 -0.405789 0.000000
vt 1.350000 -0.324631 0.000000
vt 1.720000 -0.324631 0.000000
vt 1.350000 -0.243473 0.000000
vt 1.720000 -0.243473 0.000000
vt 1.350000 -0.162316 0.000000
vt 1.720000 -0.162316 0.000000
vt -1.085338 0.235619 0.000000
vt -1.074226 0.289374 0.000000
vt -2.300000 0.235619 0.000000
vt -2.300000 0.314159 0.000000
vt -1.050934 0.344572 0.000000
vt -2.300000 0.392699 0.000000
vt -1.014010 0.406346 0.000000
vt -2.300000 0.471239 0.000000
vt -0.973221 0.466279 0.000000
vt -0.970263 0.471239 0.000000
vt 0.970263 -0.471239 0.000000
vt 0.973221 -0.476199 0.000000
vt 2.300000 -0.471239 0.000000
vt 1.014009 -0.536129 0.000000
vt 2.300000 -0.549779 0.000000
vt 1.050934 -0.597905 0.000000
vt 2.300000 -0.628319 0.000000
vt 1.074231 -0.653119 0.000000
vt 2.300000 -0.706858 0.000000
vt 1.085338 -0.706858 0.000000
vt -0.000000 -0.070686 0.000000
vt 0.250000 -0.070686 0.000000
vt 0.000000 0.000000 0.000000
vt 0.250000 0.000000 0.000000
vt 0.000000 0.070686 0.000000
vt 0.250000 0.070686 0.000000
vt 0.000000 0.141372 0.000000
vt 0.250000 0.141372 0.000000
vt 0.000000 0.212058 0.000000
vt 0.250000 0.212058 0.000000
vt 0.000000 0.282743 0.000000
vt 0.250000 0.282743 0.000000
vt 0.000000 0.353429 0.000000
vt 0.250000 0.353429 0.000000
vt 0.000000 0.424115 0.000000
vt 0.250000 0.424115 0.000000
vt 0.000000 -0.424115 0.000000
vt 0.250000 -0.424115 0.000000
vt 0.000000 -0.353429 0.000000
vt 0.250000 -0.353429 0.000000
vt 0.000000 -0.282743 0.000000
vt 0.250000 -0.282743 0.000000
vt 0.000000 -0.212058 0.000000
vt 0.250000 -0.212058 0.000000
vt -0.000000 -0.141372 0.000000
vt 0.250000 -0.141372 0.000000
vt -0.000000 -0.070686 0.000000
vt 0.250000 -0.070686 0.000000
vt 0.000000 0.000000 0.000000
vt 0.250000 0.000000 0.000000
vt 0.000000 0.070686 0.000000
vt 0.250000 0.070686 0.000000
vt 0.000000 0.141372 0.000000
vt 0.250000 0.141372 0.000000
vt 0.000000 0.212058 0.000000
vt 0.250000 0.212058 0.000000
vt 0.000000 0.282743 0.000000
vt 0.250000 0.282743 0.000000
vt 0.000000 0.353429 0.000000
vt 0.250000 0.353429 0.000000
vt 0.000000 0.424115 0.000000
vt 0.250000 0.424115 0.000000
vt 0.000000 -0.424115 0.000000
vt 0.250000 -0.424115 0.000000
vt 0.000000 -0.353429 0.000000
vt 0.250000 -0.353429 0.000000
vt 0.000000 -0.282743 0.000000
vt 0.250000 -0.282743 0.000000
vt 0.000000 -0.212058 0.000000
vt 0.250000 -0.212058 0.000000
vt -0.000000 -0.141372 0.000000
vt 0.250000 -0.141372 0.000000
vt -0.000000 -0.070686 0.000000
vt 0.250000 -0.070686 0.000000
vt 0.000000 0.000000 0.000000
vt 0.250000 0.000000 0.000000
vt 0.000000 0.070686 0.000000
vt 0.250000 0.070686 0.000000
vt 0.000000 0.141372 0.000000
vt 0.250000 0.141372 0.000000
vt 0.000000 0.212058 0.000000
vt 0.250000 0.212058 0.000000
vt 0.000000 0.282743 0.000000
vt 0.250000 0.282743 0.000000
vt 0.000000 0.353429 0.000000
vt 0.250000 0.353429 0.000000
vt 0.000000 0.424115 0.000000
vt 0.250000 0.424115 0.000000
vt 0.000000 -0.424115 0.000000
vt 0.250000 -0.424115 0.000000
vt 0.000000 -0.353429 0.000000
vt 0.250000 -0.353429 0.000000
vt 0.000000 -0.282743 0.000000
vt 0.250000 -0.282743 0.000000
vt 0.000000 -0.212058 0.000000
vt 0.250000 -0.212058 0.000000
vt -0.000000 -0.141372 0.000000
vt 0.250000 -0.141372 0.000000
vt -0.165988 -0.000000 0.000000
vt -0.177535 0.028284 0.000000
vt -0.818394 -0.000000 0.000000
vt -0.812621 0.028284 0.000000
vt -0.818394 0.028400 0.000000
vt 0.049360 0.785289 0.000000
vt 0.049360 0.852370 0.000000
vt 0.024433 0.781340 0.000000
vt 0.016318 0.852370 0.000000
vt 0.012711 0.782929 0.000000
vt 0.008281 0.710308 0.000000
vt 0.024433 0.710308 0.000000
vt 0.049360 0.716229 0.000000
vt 0.024433 0.674967 0.000000
vt 0.049360 0.643847 0.000000
vt 0.024433 0.621607 0.000000
vt 0.049360 0.568247 0.000000
vt 0.000342 0.580290 0.000000
vt 0.000142 0.576282 0.000000
vt 0.004376 0.644757 0.000000
vt 0.000028 0.572266 0.000000
vt 0.000000 0.568247 0.000000
vt -0.530000 0.051962 0.000000
vt -1.190000 0.051962 0.000000
vt -0.530000 0.000000 0.000000
vt -1.190000 0.000000 0.000000
vt 0.049360 1.060876 0.000000
vt 0.049360 1.136474 0.000000
vt 0.024433 1.065445 0.000000
vt 0.000000 1.136474 0.000000
vt 0.000028 1.132455 0.000000
vt 0.000142 1.128439 0.000000
vt 0.000342 1.124431 0.000000
vt 0.004375 1.059984 0.000000
vt 0.024433 0.994415 0.000000
vt 0.008281 0.994415 0.000000
vt 0.012711 0.921794 0.000000
vt 0.016318 0.852356 0.000000
vt 0.049360 0.852356 0.000000
vt 0.024433 0.923385 0.000000
vt 0.049360 0.988495 0.000000
vt 0.049360 0.919436 0.000000
vt -0.011704 0.042426 0.000000
vt -0.664110 0.042426 0.000000
vt -0.023251 0.014142 0.000000
vt -0.658336 0.014142 0.000000
vt -0.664110 0.014026 0.000000
vt -1.427767 0.042426 0.000000
vt -1.410446 0.000000 0.000000
vt -0.446271 0.042426 0.000000
vt -0.446271 -0.000000 0.000000
vt -0.042426 -0.193732 0.000000
vt 0.000000 -0.193732 0.000000
vt -0.042426 -0.129154 0.000000
vt 0.000000 -0.129154 0.000000
vt -0.000000 -0.064577 0.000000
vt 0.000000 0.000000 0.000000
vt -0.042426 0.000000 0.000000
vt -0.042426 -0.064577 0.000000
vt -0.156421 0.000000 0.000000
vt 0.350000 0.000000 0.000000
vt -0.156421 0.042426 0.000000
vt 0.350000 0.042426 0.000000
vt -0.042426 0.000000 0.000000
vt -0.000000 0.000000 0.000000
vt -0.042426 0.112574 0.000000
vt -0.000000 0.112574 0.000000
vt -0.042426 0.225147 0.000000
vt 0.000000 0.225147 0.000000
vt -0.042426 0.337721 0.000000
vt 0.000000 0.337721 0.000000
vt 0.287500 0.042426 0.000000
vt -0.590286 0.042426 0.000000
vt 0.287500 0.000000 0.000000
vt -0.590286 -0.000000 0.000000
vt 0.000000 -0.581195 0.000000
vt -0.042426 -0.581195 0.000000
vt 0.000000 -0.609786 0.000000
vt -0.042426 -0.609786 0.000000
vt 0.000000 -0.638378 0.000000
vt -0.042426 -0.638378 0.000000
vt -0.000000 -0.666969 0.000000
vt -0.042426 -0.666969 0.000000
vt 0.151886 0.042426 0.000000
vt -0.571721 0.042426 0.000000
vt 0.151886 0.000000 0.000000
vt -0.571721 -0.000000 0.000000
vt 0.000000 0.495420 0.000000
vt -0.042426 0.495420 0.000000
vt 0.000000 0.427146 0.000000
vt -0.042426 0.427146 0.000000
vt 0.000000 0.358871 0.000000
vt -0.042426 0.358871 0.000000
vt 0.000000 0.290597 0.000000
vt -0.042426 0.290597 0.000000
vt -1.196593 -0.000000 0.000000
vt -0.523807 -0.000000 0.000000
vt -1.196593 0.042426 0.000000
vt -0.523807 0.042426 0.000000
vt 0.000000 0.290597 0.000000
vt -0.042426 0.290597 0.000000
vt 0.000000 0.222323 0.000000
vt -0.042426 0.222323 0.000000
vt 0.000000 0.154049 0.000000
vt -0.042426 0.154049 0.000000
vt 0.000000 0.085775 0.000000
vt -0.042426 0.085775 0.000000
vt 1.341107 0.042426 0.000000
vt 0.617500 0.042426 0.000000
vt 1.341107 0.000000 0.000000
vt 0.617500 0.000000 0.000000
vt -0.000000 0.085775 0.000000
vt -0.042426 0.085775 0.000000
vt 0.000000 0.057183 0.000000
vt -0.042426 0.057183 0.000000
vt 0.000000 0.028592 0.000000
vt -0.042426 0.028592 0.000000
vt 0.000000 0.000000 0.000000
vt -0.042426 0.000000 0.000000
vt -0.852786 0.000000 0.000000
vt 0.025000 -0.000000 0.000000
vt -0.852786 0.042426 0.000000
vt 0.025000 0.042426 0.000000
vt -0.042426 0.337721 0.000000
vt 0.000000 0.337721 0.000000
vt -0.042426 0.450295 0.000000
vt 0.000000 0.450295 0.000000
vt -0.042426 0.562869 0.000000
vt -0.000000 0.562869 0.000000
vt -0.042426 0.675442 0.000000
vt -0.000000 0.675442 0.000000
vt 0.710187 0.042426 0.000000
vt 0.203766 0.042426 0.000000
vt 0.710187 0.000000 0.000000
vt 0.203766 0.000000 0.000000
vt -0.042426 -0.581195 0.000000
vt 0.000000 -0.581195 0.000000
vt -0.042426 -0.516617 0.000000
vt -0.000000 -0.516617 0.000000
vt 0.000000 -0.452040 0.000000
vt 0.000000 -0.387463 0.000000
vt -0.042426 -0.387463 0.000000
vt -0.042426 -0.452040 0.000000
vt 1.147484 0.042426 0.000000
vt 0.183309 0.042426 0.000000
vt 1.147484 -0.000000 0.000000
vt 0.165988 -0.000000 0.000000
vn 0.050000 -0.086603 0.000000
vn 0.050000 -0.086603 0.000000
vn 0.050000 -0.086603 0.000000
vn 0.050000 -0.086603 0.000000
vn 0.050000 -0.086603 0.000000
vn 0.050000 -0.086603 0.000000
vn 0.050000 -0.086603 0.000000
vn 0.050000 -0.086603 0.000000
vn 0.050000 -0.086603 0.000000
vn 0.050000 -0.086603 0.000000
vn 0.050000 -0.086603 0.000000
vn 0.050000 -0.086603 0.000000
vn 0.050000 -0.086603 0.000000
vn 0.050000 -0.086603 0.000000
vn 0.050000 -0.086603 0.000000
vn 0.050000 -0.086603 0.000000
vn 0.100000 0.000000 0.000000
vn 0.100000 0.000000 0.000000
vn 0.100000 0.000000 0.000000
vn 0.100000 0.000000 0.000000
vn 0.100000 0.000000 0.000000
vn 0.100000 0.000000 0.000000
vn 0.100000 0.000000 0.000000
vn 0.100000 0.000000 0.000000
vn 0.000000 -0.100000 0.000000
vn 0.000000 -0.100000 0.000000
vn 0.000000 -0.100000 0.000000
vn 0.000000 -0.100000 0.000000
vn 0.000000 -0.100000 0.000000
vn 0.000000 -0.100000 0.000000
vn 0.000000 -0.100000 0.000000
vn 0.000000 -0.100000 0.000000
vn 0.000000 -0.100000 0.000000
vn 0.000000 -0.100000 0.000000
vn 0.000000 -0.100000 0.000000
vn 0.000000 -0.100000 0.000000
vn 0.000000 -0.100000 0.000000
vn 0.000000 -0.100000 0.000000
vn 0.000000 -0.100000 0.000000
vn 0.000000 -0.100000 0.000000
vn 0.000000 -0.100000 0.000000
vn 0.000000 -0.100000 0.000000
vn 0.000000 -0.100000 0.000000
vn 0.000000 -0.100000 0.000000
vn 0.000000 -0.100000 0.000000
vn 0.000000 -0.100000 0.000000
vn 0.000000 -0.100000 0.000000
vn 0.000000 -0.100000 0.000000
vn 0.000000 -0.100000 0.000000
vn 0.000000 -0.100000 0.000000
vn 0.000000 -0.100000 0.000000
vn 0.000000 -0.100000 0.000000
vn 0.000000 -0.100000 0.000000
vn 0.000000 -0.100000 0.000000
vn 0.000000 -0.100000 0.000000
vn 0.000000 -0.100000 0.000000
vn 0.000000 -0.100000 0.000000
vn 0.000000 -0.100000 0.000000
vn 0.000000 -0.100000 0.000000
vn 0.000000 -0.100000 0.000000
vn -0.100000 0.000000 0.000000
vn -0.100000 0.000000 0.000000
vn -0.100000 0.000000 0.000000
vn -0.100000 0.000000 0.000000
vn -0.100000 0.000000 0.000000
vn -0.100000 0.000000 0.000000
vn -0.100000 0.000000 0.000000
vn -0.100000 0.000000 0.000000
vn -0.100000 0.000000 0.000000
vn -0.100000 0.000000 0.000000
vn -0.100000 0.000000 0.000000
vn -0.100000 0.000000 0.000000
vn 0.000000 0.000000 0.100000
vn 0.000000 0.000000 0.100000
vn 0.000000 0.000000 0.100000
vn 0.000000 0.000000 0.100000
vn 0.000000 0.000000 0.100000
vn 0.000000 0.000000 0.100000
vn 0.000000 0.000000 0.100000
vn 0.000000 0.000000 0.100000
vn 0.000000 0.000000 0.100000
vn 0.000000 0.000000 0.100000
vn 0.000000 0.000000 0.100000
vn 0.000000 0.000000 0.100000
vn 0.000000 0.000000 0.100000
vn 0.000000 0.000000 0.100000
vn 0.000000 0.000000 0.100000
vn 0.000000 0.000000 0.100000
vn 0.000000 0.000000 0.100000
vn 0.000000 0.000000 0.100000
vn 0.000000 0.000000 0.100000
vn 0.000000 0.000000 0.100000
vn 0.000000 0.000000 0.100000
vn 0.000000 0.000000 0.100000
vn 0.000000 0.000000 0.100000
vn 0.000000 0.000000 0.100000
vn 0.100000 0.000000 0.000000
vn 0.100000 0.000000 0.000000
vn 0.100000 0.000000 0.000000
vn 0.100000 0.000000 0.000000
vn 0.000000 0.000000 -0.100000
vn 0.000000 0.000000 -0.100000
vn 0.000000 0.000000 -0.100000
vn 0.000000 0.000000 -0.100000
vn 0.000000 0.000000 -0.100000
vn 0.000000 0.000000 -0.100000
vn 0.000000 0.000000 -0.100000
vn 0.000000 0.000000 -0.100000
vn 0.000000 0.000000 -0.100000
vn 0.000000 0.000000 -0.100000
vn 0.000000 0.000000 -0.100000
vn 0.000000 0.000000 -0.100000
vn 0.000000 0.000000 -0.100000
vn 0.000000 0.000000 -0.100000
vn 0.000000 0.000000 -0.100000
vn 0.000000 0.000000 -0.100000
vn 0.000000 0.000000 -0.100000
vn 0.000000 0.000000 -0.100000
vn 0.000000 0.000000 -0.100000
vn 0.000000 0.000000 -0.100000
vn 0.000000 0.000000 -0.100000
vn 0.000000 0.000000 -0.100000
vn 0.000000 0.000000 -0.100000
vn 0.000000 0.000000 -0.100000
vn -0.000000 0.100000 0.000000
vn -0.000000 0.100000 0.000000
vn -0.000000 0.100000 0.000000
vn -0.000000 0.100000 0.000000
vn -0.000000 0.100000 0.000000
vn -0.000000 0.100000 0.000000
vn -0.000000 0.100000 0.000000
vn -0.000000 0.100000 0.000000
vn -0.000000 0.100000 0.000000
vn -0.000000 0.100000 0.000000
vn -0.000000 0.100000 0.000000
vn -0.000000 0.100000 0.000000
vn -0.000000 0.100000 0.000000
vn -0.000000 0.100000 0.000000
vn -0.000000 0.100000 0.000000
vn -0.000000 0.100000 0.000000
vn -0.000000 0.100000 0.000000
vn -0.000000 0.100000 0.000000
vn -0.000000 0.100000 0.000000
vn -0.000000 0.100000 0.000000
vn -0.000000 0.100000 0.000000
vn -0.000000 0.100000 0.000000
vn -0.000000 0.100000 0.000000
vn -0.000000 0.100000 0.000000
vn -0.000000 0.100000 0.000000
vn -0.000000 0.100000 0.000000
vn -0.000000 0.100000 0.000000
vn -0.000000 0.100000 0.000000
vn -0.000000 0.100000 0.000000
vn -0.000000 0.100000 0.000000
vn -0.000000 0.100000 0.000000
vn -0.000000 0.100000 0.000000
vn -0.000000 0.100000 0.000000
vn -0.000000 0.100000 0.000000
vn -0.000000 0.100000 0.000000
vn -0.000000 0.100000 0.000000
vn -0.000000 0.100000 0.000000
vn -0.000000 0.100000 0.000000
vn -0.000000 0.100000 0.000000
vn -0.000000 0.100000 0.000000
vn -0.000000 0.100000 0.000000
vn -0.000000 0.100000 0.000000
vn -0.000000 0.100000 0.000000
vn -0.000000 0.100000 0.000000
vn -0.000000 0.100000 0.000000
vn -0.000000 0.100000 0.000000
vn -0.000000 0.100000 0.000000
vn -0.000000 0.100000 0.000000
vn -0.000000 0.100000 0.000000
vn -0.000000 0.100000 0.000000
vn -0.000000 0.100000 0.000000
vn -0.000000 0.100000 0.000000
vn -0.000000 0.100000 0.000000
vn -0.000000 0.100000 0.000000
vn 0.044721 -0.000000 0.089443
vn 0.044721 -0.000000 0.089443
vn 0.044721 -0.000000 0.089443
vn 0.044721 -0.000000 0.089443
vn 0.044721 0.000000 -0.089443
vn 0.044721 0.000000 -0.089443
vn 0.044721 0.000000 -0.089443
vn 0.044721 0.000000 -0.089443
vn -0.000000 0.000000 0.100000
vn -0.000000 0.000000 0.100000
vn -0.000000 0.000000 0.100000
vn -0.000000 0.000000 0.100000
vn -0.000000 0.000000 0.100000
vn -0.000000 0.000000 0.100000
vn -0.000000 0.000000 0.100000
vn -0.000000 0.000000 0.100000
vn -0.000000 0.000000 0.100000
vn -0.000000 0.000000 0.100000
vn -0.000000 0.000000 0.100000
vn -0.000000 0.000000 0.100000
vn -0.000000 0.000000 0.100000
vn -0.000000 0.000000 0.100000
vn -0.000000 0.000000 0.100000
vn -0.000000 0.000000 0.100000
vn -0.100000 0.000000 0.000000
vn -0.100000 0.000000 0.000000
vn -0.100000 0.000000 0.000000
vn -0.100000 0.000000 0.000000
vn -0.100000 0.000000 0.000000
vn -0.100000 0.000000 0.000000
vn -0.100000 0.000000 0.000000
vn -0.100000 0.000000 0.000000
vn -0.100000 0.000000 0.000000
vn -0.100000 0.000000 0.000000
vn -0.000000 0.000000 -0.100000
vn -0.000000 0.000000 -0.100000
vn -0.000000 0.000000 -0.100000
vn -0.000000 0.000000 -0.100000
vn -0.000000 0.000000 -0.100000
vn -0.000000 0.000000 -0.100000
vn -0.000000 0.000000 -0.100000
vn -0.000000 0.000000 -0.100000
vn -0.000000 0.000000 -0.100000
vn -0.000000 0.000000 -0.100000
vn -0.000000 0.000000 -0.100000
vn -0.000000 0.000000 -0.100000
vn -0.000000 0.000000 -0.100000
vn -0.000000 0.000000 -0.100000
vn -0.000000 0.000000 -0.100000
vn -0.000000 0.000000 -0.100000
vn 0.000000 -0.100000 0.000000
vn 0.000000 -0.100000 0.000000
vn 0.000000 -0.100000 0.000000
vn 0.000000 -0.100000 0.000000
vn 0.000000 -0.100000 0.000000
vn 0.000000 -0.100000 0.000000
vn 0.000000 -0.100000 0.000000
vn 0.000000 -0.100000 0.000000
vn 0.000000 -0.100000 0.000000
vn 0.000000 -0.100000 0.000000
vn -0.044721 -0.000000 0.089443
vn -0.044721 -0.000000 0.089443
vn -0.044721 -0.000000 0.089443
vn -0.044721 -0.000000 0.089443
vn -0.100000 -0.000000 0.000000
vn -0.100000 -0.000000 0.000000
vn -0.100000 -0.000000 0.000000
vn -0.100000 -0.000000 0.000000
vn -0.044721 -0.000000 -0.089443
vn -0.044721 -0.000000 -0.089443
vn -0.044721 -0.000000 -0.089443
vn -0.044721 -0.000000 -0.089443
vn 0.000000 0.000000 0.100000
vn 0.000000 0.000000 0.100000
vn 0.000000 0.000000 0.100000
vn 0.000000 0.000000 0.100000
vn 0.000000 0.000000 0.100000
vn 0.000000 0.000000 0.100000
vn 0.000000 0.000000 0.100000
vn 0.000000 0.000000 -0.100000
vn 0.000000 0.000000 -0.100000
vn 0.000000 0.000000 -0.100000
vn 0.000000 0.000000 -0.100000
vn 0.000000 0.000000 -0.100000
vn 0.000000 0.000000 -0.100000
vn 0.000000 0.000000 -0.100000
vn 0.100000 0.000000 0.000000
vn 0.100000 0.000000 0.000000
vn 0.100000 0.000000 0.000000
vn 0.100000 0.000000 0.000000
vn 0.000000 -0.100000 0.000000
vn 0.000000 -0.100000 0.000000
vn 0.000000 -0.100000 0.000000
vn 0.000000 -0.100000 0.000000
vn 0.000000 -0.100000 0.000000
vn 0.000000 -0.100000 0.000000
vn 0.000000 -0.100000 0.000000
vn 0.000000 -0.100000 0.000000
vn 0.000000 -0.100000 0.000000
vn 0.000000 -0.100000 0.000000
vn 0.000000 -0.100000 0.000000
vn 0.000000 -0.100000 0.000000
vn 0.000000 -0.100000 0.000000
vn 0.000000 -0.100000 0.000000
vn 0.000000 -0.100000 0.000000
vn 0.000000 -0.100000 0.000000
vn 0.000000 -0.100000 0.000000
vn 0.000000 -0.100000 0.000000
vn 0.000000 -0.100000 0.000000
vn 0.000000 -0.100000 0.000000
vn 0.000000 -0.100000 0.000000
vn 0.000000 -0.100000 0.000000
vn 0.000000 -0.100000 0.000000
vn 0.000000 -0.100000 0.000000
vn 0.000000 -0.100000 0.000000
vn 0.000000 -0.100000 0.000000
vn 0.000000 -0.100000 0.000000
vn 0.000000 -0.100000 0.000000
vn 0.000000 -0.100000 0.000000
vn 0.000000 -0.100000 0.000000
vn 0.000000 -0.100000 0.000000
vn 0.000000 -0.100000 0.000000
vn 0.000000 -0.100000 0.000000
vn 0.000000 -0.100000 0.000000
vn 0.000000 -0.100000 0.000000
vn 0.000000 -0.100000 0.000000
vn 0.000000 -0.100000 0.000000
vn 0.000000 -0.100000 0.000000
vn 0.000000 -0.100000 0.000000
vn 0.000000 -0.100000 0.000000
vn 0.000000 -0.100000 0.000000
vn 0.000000 -0.100000 0.000000
vn 0.000000 -0.100000 0.000000
vn 0.000000 -0.100000 0.000000
vn 0.000000 -0.100000 0.000000
vn 0.000000 -0.100000 0.000000
vn 0.000000 -0.100000 0.000000
vn 0.000000 -0.100000 0.000000
vn 0.000000 -0.100000 0.000000
vn 0.000000 -0.100000 0.000000
vn 0.000000 -0.100000 0.000000
vn 0.000000 -0.100000 0.000000
vn 0.000000 -0.100000 0.000000
vn 0.000000 -0.100000 0.000000
vn 0.000000 -0.100000 0.000000
vn 0.000000 -0.100000 0.000000
vn 0.000000 -0.100000 0.000000
vn 0.000000 -0.100000 0.000000
vn 0.000000 -0.100000 0.000000
vn 0.000000 -0.100000 0.000000
vn 0.096339 0.000000 0.026809
vn 0.086603 0.000000 0.050000
vn 0.087349 0.000000 0.048685
vn 0.078562 0.000000 0.061871
vn 0.075000 0.000000 0.066144
vn 0.075000 0.000000 0.066144
vn 0.069556 0.000000 0.071847
vn 0.050000 0.000000 0.086603
vn 0.054380 0.000000 0.083921
vn 0.030490 0.000000 0.095238
vn -0.015393 -0.000000 0.098808
vn -0.015393 -0.000000 0.098808
vn -0.030420 -0.000000 0.095261
vn -0.030420 -0.000000 0.095261
vn -0.073975 -0.000000 0.067288
vn -0.073975 -0.000000 0.067288
vn -0.093267 -0.000000 0.036073
vn -0.093267 -0.000000 0.036073
vn -0.093267 -0.000000 -0.036073
vn -0.093267 -0.000000 -0.036073
vn -0.073975 -0.000000 -0.067288
vn -0.073975 -0.000000 -0.067288
vn -0.030420 -0.000000 -0.095261
vn -0.030420 -0.000000 -0.095261
vn -0.015393 -0.000000 -0.098808
vn -0.015393 -0.000000 -0.098808
vn 0.075000 0.000000 -0.066144
vn 0.078562 0.000000 -0.061871
vn 0.075000 0.000000 -0.066144
vn 0.086603 0.000000 -0.050000
vn 0.069556 0.000000 -0.071847
vn 0.050000 0.000000 -0.086603
vn 0.054380 0.000000 -0.083921
vn 0.030490 0.000000 -0.095238
vn 0.087349 0.000000 -0.048685
vn 0.096339 0.000000 -0.026809
vn 0.096440 -0.026447 0.000000
vn 0.093969 -0.034202 0.000000
vn 0.087668 -0.048107 0.000000
vn 0.076604 -0.064279 0.000000
vn 0.078667 -0.061737 0.000000
vn 0.075000 -0.066144 0.000000
vn 0.075000 -0.066144 0.000000
vn 0.076604 -0.064279 0.000000
vn 0.078667 -0.061737 0.000000
vn 0.087668 -0.048107 0.000000
vn 0.093969 -0.034202 0.000000
vn 0.096440 -0.026447 0.000000
vn 0.030420 0.000000 -0.095261
vn 0.030420 0.000000 -0.095261
vn 0.015393 0.000000 -0.098808
vn 0.015393 0.000000 -0.098808
vn 0.093267 0.000000 -0.036073
vn 0.093267 0.000000 -0.036073
vn 0.073975 0.000000 -0.067288
vn 0.073975 0.000000 -0.067288
vn 0.073975 -0.000000 0.067288
vn 0.073975 -0.000000 0.067288
vn 0.093267 -0.000000 0.036073
vn 0.093267 -0.000000 0.036073
vn 0.015393 0.000000 0.098808
vn 0.015393 0.000000 0.098808
vn 0.030420 0.000000 0.095261
vn 0.030420 0.000000 0.095261
vn 0.094557 -0.032542 0.000000
vn 0.086603 -0.050000 0.000000
vn 0.079381 -0.060817 0.000000
vn 0.055510 -0.083179 0.000000
vn 0.050000 -0.086603 0.000000
vn 0.025000 -0.096825 0.000000
vn 0.016766 -0.098585 0.000000
vn 0.008413 -0.099646 0.000000
vn 0.008413 -0.099646 0.000000
vn 0.016766 -0.098585 0.000000
vn 0.025000 -0.096825 0.000000
vn 0.050000 -0.086603 0.000000
vn 0.055510 -0.083179 0.000000
vn 0.086603 -0.050000 0.000000
vn 0.079381 -0.060817 0.000000
vn 0.094557 -0.032542 0.000000
vn 0.086603 -0.050000 0.000000
vn 0.086603 -0.050000 0.000000
vn 0.100000 -0.000000 0.000000
vn 0.100000 -0.000000 0.000000
vn 0.086603 0.050000 0.000000
vn 0.086603 0.050000 0.000000
vn 0.050000 0.086603 0.000000
vn 0.050000 0.086603 0.000000
vn 0.000000 0.100000 0.000000
vn 0.000000 0.100000 0.000000
vn -0.050000 0.086603 0.000000
vn -0.050000 0.086603 0.000000
vn -0.086603 0.050000 0.000000
vn -0.086603 0.050000 0.000000
vn -0.100000 0.000000 0.000000
vn -0.100000 0.000000 0.000000
vn -0.086603 -0.050000 0.000000
vn -0.086603 -0.050000 0.000000
vn -0.050000 -0.086603 0.000000
vn -0.050000 -0.086603 0.000000
vn 0.000000 -0.100000 0.000000
vn 0.000000 -0.100000 0.000000
vn 0.050000 -0.086603 0.000000
vn 0.050000 -0.086603 0.000000
vn 0.086603 0.050000 0.000000
vn 0.086603 0.050000 0.000000
vn 0.100000 -0.000000 0.000000
vn 0.100000 -0.000000 0.000000
vn 0.086603 -0.050000 0.000000
vn 0.086603 -0.050000 0.000000
vn 0.050000 -0.086603 0.000000
vn 0.050000 -0.086603 0.000000
vn 0.000000 -0.100000 0.000000
vn 0.000000 -0.100000 0.000000
vn -0.050000 -0.086603 0.000000
vn -0.050000 -0.086603 0.000000
vn -0.086603 -0.050000 0.000000
vn -0.086603 -0.050000 0.000000
vn -0.100000 -0.000000 0.000000
vn -0.100000 -0.000000 0.000000
vn -0.086603 0.050000 0.000000
vn -0.086603 0.050000 0.000000
vn -0.050000 0.086603 0.000000
vn -0.050000 0.086603 0.000000
vn 0.000000 0.100000 0.000000
vn 0.000000 0.100000 0.000000
vn 0.050000 0.086603 0.000000
vn 0.050000 0.086603 0.000000
vn -0.100000 0.000000 0.000000
vn -0.093647 0.000000 -0.035074
vn -0.086603 0.000000 -0.050000
vn -0.074760 0.000000 -0.066415
vn -0.050000 0.000000 -0.086603
vn -0.041925 0.000000 -0.090787
vn -0.003306 0.000000 -0.099945
vn -0.003306 0.000000 0.099945
vn -0.041923 0.000000 0.090788
vn -0.050000 0.000000 0.086603
vn -0.074760 0.000000 0.066415
vn -0.086603 0.000000 0.050000
vn -0.093651 0.000000 0.035065
vn 0.050000 0.000000 0.086603
vn 0.050000 0.000000 0.086603
vn 0.000000 0.000000 0.100000
vn 0.000000 0.000000 0.100000
vn -0.050000 0.000000 0.086603
vn -0.050000 0.000000 0.086603
vn -0.086603 0.000000 0.050000
vn -0.086603 0.000000 0.050000
vn -0.100000 0.000000 0.000000
vn -0.100000 0.000000 -0.000000
vn -0.086603 0.000000 -0.050000
vn -0.086603 0.000000 -0.050000
vn -0.050000 0.000000 -0.086603
vn -0.050000 0.000000 -0.086603
vn -0.000000 0.000000 -0.100000
vn -0.000000 0.000000 -0.100000
vn 0.050000 0.000000 -0.086603
vn 0.050000 0.000000 -0.086603
vn 0.086603 0.000000 -0.050000
vn 0.086603 0.000000 -0.050000
vn 0.100000 0.000000 -0.000000
vn 0.100000 0.000000 0.000000
vn 0.086603 0.000000 0.050000
vn 0.086603 0.000000 0.050000
vn 0.050000 0.000000 0.086603
vn 0.050000 0.000000 0.086603
vn 0.000000 0.000000 0.100000
vn 0.000000 0.000000 0.100000
vn -0.050000 0.000000 0.086603
vn -0.050000 0.000000 0.086603
vn -0.086603 0.000000 0.050000
vn -0.086603 0.000000 0.050000
vn -0.100000 0.000000 0.000000
vn -0.100000 0.000000 0.000000
vn -0.086603 0.000000 -0.050000
vn -0.086603 0.000000 -0.050000
vn -0.050000 0.000000 -0.086603
vn -0.050000 0.000000 -0.086603
vn -0.000000 0.000000 -0.100000
vn -0.000000 0.000000 -0.100000
vn 0.050000 0.000000 -0.086603
vn 0.050000 0.000000 -0.086603
vn 0.086603 0.000000 -0.050000
vn 0.086603 0.000000 -0.050000
vn 0.100000 0.000000 0.000000
vn 0.100000 0.000000 0.000000
vn 0.086603 0.000000 0.050000
vn 0.086603 0.000000 0.050000
vn 0.050000 0.000000 0.086603
vn 0.050000 0.000000 0.086603
vn 0.000000 0.000000 0.100000
vn 0.000000 0.000000 0.100000
vn -0.050000 0.000000 0.086603
vn -0.050000 0.000000 0.086603
vn -0.086603 0.000000 0.050000
vn -0.086603 0.000000 0.050000
vn -0.100000 0.000000 0.000000
vn -0.100000 0.000000 0.000000
vn -0.086603 0.000000 -0.050000
vn -0.086603 0.000000 -0.050000
vn -0.050000 0.000000 -0.086603
vn -0.050000 0.000000 -0.086603
vn -0.000000 0.000000 -0.100000
vn -0.000000 0.000000 -0.100000
vn 0.050000 0.000000 -0.086603
vn 0.050000 0.000000 -0.086603
vn 0.086603 0.000000 -0.050000
vn 0.086603 0.000000 -0.050000
vn 0.100000 0.000000 0.000000
vn 0.100000 0.000000 0.000000
vn 0.086603 0.000000 0.050000
vn 0.086603 0.000000 0.050000
vn 0.035355 -0.061237 -0.070711
vn 0.035355 -0.061237 -0.070711
vn 0.035355 -0.061237 -0.070711
vn 0.035355 -0.061237 -0.070711
vn 0.035355 -0.061237 -0.070711
vn 0.010666 -0.067710 -0.072812
vn 0.035570 -0.061113 -0.070710
vn 0.011511 -0.066734 -0.073581
vn 0.038762 -0.059206 -0.070655
vn 0.013344 -0.065821 -0.074091
vn -0.015232 -0.074375 -0.065087
vn -0.016499 -0.075151 -0.063875
vn -0.015944 -0.075448 -0.063667
vn -0.029542 -0.079455 -0.053048
vn -0.039716 -0.083081 -0.038989
vn -0.044289 -0.084522 -0.029909
vn -0.050000 -0.086602 0.000405
vn -0.049679 -0.086484 -0.007249
vn -0.049861 -0.086554 -0.004715
vn -0.038106 -0.082172 -0.042375
vn -0.049969 -0.086594 -0.002147
vn -0.050000 -0.086602 0.000446
vn -0.050000 -0.086603 0.000000
vn -0.050000 -0.086603 0.000000
vn -0.050000 -0.086603 0.000000
vn -0.050000 -0.086603 0.000000
vn -0.039716 -0.083081 0.038989
vn -0.050000 -0.086602 -0.000405
vn -0.040220 -0.083087 0.038457
vn -0.050000 -0.086602 -0.000446
vn -0.049969 -0.086594 0.002147
vn -0.049861 -0.086554 0.004715
vn -0.049679 -0.086484 0.007249
vn -0.038111 -0.082174 0.042367
vn -0.016499 -0.075151 0.063875
vn -0.015232 -0.074375 0.065087
vn 0.013345 -0.065821 0.074091
vn 0.038762 -0.059206 0.070655
vn 0.035570 -0.061113 0.070710
vn 0.011511 -0.066734 0.073581
vn -0.015944 -0.075448 0.063667
vn 0.010666 -0.067710 0.072812
vn 0.035355 -0.061237 0.070711
vn 0.035355 -0.061237 0.070711
vn 0.035355 -0.061237 0.070711
vn 0.035355 -0.061237 0.070711
vn 0.035355 -0.061237 0.070711
vn 0.035355 -0.061237 -0.070711
vn 0.035355 -0.061237 -0.070711
vn 0.035355 -0.061237 -0.070711
vn 0.035355 -0.061237 -0.070711
vn 0.054168 -0.045452 -0.070711
vn 0.054168 -0.045452 -0.070711
vn 0.066446 -0.024184 -0.070711
vn 0.070711 0.000000 -0.070711
vn 0.070711 0.000000 -0.070711
vn 0.066446 -0.024184 -0.070711
vn 0.070711 0.000000 -0.070711
vn 0.070711 0.000000 -0.070711
vn 0.061237 -0.035355 -0.070711
vn 0.061237 -0.035355 -0.070711
vn 0.035355 -0.061237 -0.070711
vn 0.035355 -0.061237 -0.070711
vn 0.000000 -0.070711 -0.070711
vn 0.000000 -0.070711 -0.070711
vn 0.000000 -0.070711 -0.070711
vn 0.000000 -0.070711 -0.070711
vn 0.010885 -0.070711 -0.069868
vn 0.010885 -0.070711 -0.069868
vn 0.021510 -0.070711 -0.067360
vn 0.021510 -0.070711 -0.067360
vn 0.031623 -0.070711 -0.063246
vn 0.031623 -0.070711 -0.063246
vn 0.031623 -0.070711 -0.063246
vn 0.031623 -0.070711 -0.063246
vn 0.052308 -0.070711 -0.047580
vn 0.052308 -0.070711 -0.047580
vn 0.065950 -0.070711 -0.025507
vn 0.065950 -0.070711 -0.025507
vn 0.070711 -0.070711 0.000000
vn 0.070711 -0.070711 0.000000
vn 0.070711 -0.070711 0.000000
vn 0.070711 -0.070711 0.000000
vn 0.065950 -0.070711 0.025507
vn 0.065950 -0.070711 0.025507
vn 0.052308 -0.070711 0.047580
vn 0.052308 -0.070711 0.047580
vn 0.031623 -0.070711 0.063246
vn 0.031623 -0.070711 0.063246
vn 0.031623 -0.070711 0.063246
vn 0.031623 -0.070711 0.063246
vn 0.021510 -0.070711 0.067360
vn 0.021510 -0.070711 0.067360
vn 0.010885 -0.070711 0.069868
vn 0.010885 -0.070711 0.069868
vn 0.000000 -0.070711 0.070711
vn 0.000000 -0.070711 0.070711
vn 0.000000 -0.070711 0.070711
vn 0.000000 -0.070711 0.070711
vn 0.035355 -0.061237 0.070711
vn 0.035355 -0.061237 0.070711
vn 0.061237 -0.035355 0.070711
vn 0.061237 -0.035355 0.070711
vn 0.070711 -0.000000 0.070711
vn 0.070711 -0.000000 0.070711
vn 0.070711 -0.000000 0.070711
vn 0.070711 -0.000000 0.070711
vn 0.066446 -0.024184 0.070711
vn 0.066446 -0.024184 0.070711
vn 0.054168 -0.045452 0.070711
vn 0.035355 -0.061237 0.070711
vn 0.035355 -0.061237 0.070711
vn 0.054168 -0.045452 0.070711
vn 0.035355 -0.061237 0.070711
vn 0.035355 -0.061237 0.070711
usemtl Opaque(230,230,230)
f 16/1/1 1/2/2 8/3/3
f 8/3/3 1/2/2 2/4/4
f 8/3/3 2/4/4 3/5/5
f 3/5/5 4/6/6 8/3/3
f 8/3/3 4/6/6 5/7/7
f 8/3/3 5/7/7 7/8/8
f 7/8/8 5/7/7 6/9/9
f 8/3/3 9/10/10 16/1/1
f 16/1/1 9/10/10 15/11/11
f 15/11/11 9/10/10 14/12/12
f 14/12/12 9/10/10 13/13/13
f 13/13/13 9/10/10 12/14/14
f 12/14/14 9/10/10 10/15/15
f 12/14/14 10/15/15 11/16/16
f 17/17/17 18/18/18 20/19/19
f 20/19/19 18/18/18 19/20/20
f 21/21/21 22/22/22 24/23/23
f 24/23/23 22/22/22 23/24/24
f 26/25/25 33/26/26 25/27/27
f 25/27/27 33/26/26 34/28/28
f 25/27/27 34/28/28 35/29/29
f 33/26/26 26/25/25 32/30/30
f 32/30/30 26/25/25 27/31/31
f 32/30/30 27/31/31 28/32/32
f 32/30/30 28/32/32 31/33/33
f 31/33/33 28/32/32 29/34/34
f 31/33/33 29/34/34 30/35/35
f 25/27/27 35/29/29 60/36/36
f 60/36/36 35/29/29 36/37/37
f 60/36/36 36/37/37 59/38/38
f 59/38/38 36/37/37 58/39/39
f 58/39/39 36/37/37 37/40/40
f 58/39/39 37/40/40 57/41/41
f 57/41/41 37/40/40 38/42/42
f 57/41/41 38/42/42 56/43/43
f 56/43/43 38/42/42 39/44/44
f 56/43/43 39/44/44 40/45/45
f 56/43/43 40/45/45 55/46/46
f 55/46/46 40/45/45 41/47/47
f 55/46/46 41/47/47 54/48/48
f 54/48/48 41/47/47 53/49/49
f 53/49/49 41/47/47 42/50/50
f 53/49/49 42/50/50 52/51/51
f 52/51/51 42/50/50 43/52/52
f 52/51/51 43/52/52 44/53/53
f 52/51/51 44/53/53 51/54/54
f 51/54/54 44/53/53 45/55/55
f 51/54/54 45/55/55 50/56/56
f 50/56/56 45/55/55 49/57/57
f 49/57/57 45/55/55 46/58/58
f 49/57/57 46/58/58 48/59/59
f 48/59/59 46/58/58 47/60/60
f 6/61/61 61/62/62 7/63/63
f 7/63/63 61/62/62 68/64/64
f 68/64/64 61/62/62 62/65/65
f 68/64/64 62/65/65 67/66/66
f 67/66/66 62/65/65 63/67/67
f 67/66/66 63/67/67 66/68/68
f 66/68/68 63/67/67 65/69/69
f 65/69/69 63/67/67 64/70/70
f 65/69/69 64/70/70 10/71/71
f 10/71/71 64/70/70 11/72/72
f 65/73/73 79/74/74 66/75/75
f 66/75/75 79/74/74 80/76/76
f 66/75/75 80/76/76 81/77/77
f 69/78/78 88/79/79 65/73/73
f 65/73/73 88/79/79 89/80/80
f 65/73/73 89/80/80 90/81/81
f 70/82/82 71/83/83 69/78/78
f 69/78/78 71/83/83 72/84/84
f 69/78/78 72/84/84 87/85/85
f 87/85/85 72/84/84 86/86/86
f 86/86/86 72/84/84 73/87/87
f 86/86/86 73/87/87 85/88/88
f 85/88/88 73/87/87 84/89/89
f 84/89/89 73/87/87 74/90/90
f 84/89/89 74/90/90 83/91/91
f 83/91/91 74/90/90 75/92/92
f 83/91/91 75/92/92 66/75/75
f 66/75/75 75/92/92 76/93/93
f 66/75/75 76/93/93 78/94/94
f 78/94/94 76/93/93 77/95/95
f 81/77/77 82/96/96 66/75/75
f 66/75/75 82/96/96 83/91/91
f 87/85/85 88/79/79 69/78/78
f 90/81/81 79/74/74 65/73/73
f 92/97/97 93/98/98 91/99/99
f 91/99/99 93/98/98 94/100/100
f 96/101/101 97/102/102 95/103/103
f 95/103/103 97/102/102 67/104/104
f 67/104/104 97/102/102 98/105/105
f 67/104/104 98/105/105 107/106/106
f 107/106/106 98/105/105 99/107/107
f 107/106/106 99/107/107 106/108/108
f 106/108/108 99/107/107 100/109/109
f 106/108/108 100/109/109 105/110/110
f 105/110/110 100/109/109 116/111/111
f 116/111/111 100/109/109 101/112/112
f 116/111/111 101/112/112 115/113/113
f 115/113/113 101/112/112 104/114/114
f 115/113/113 104/114/114 114/115/115
f 114/115/115 104/114/114 68/116/116
f 114/115/115 68/116/116 113/117/117
f 113/117/117 68/116/116 112/118/118
f 112/118/118 68/116/116 111/119/119
f 111/119/119 68/116/116 67/104/104
f 111/119/119 67/104/104 110/120/120
f 110/120/120 67/104/104 109/121/121
f 109/121/121 67/104/104 108/122/122
f 108/122/122 67/104/104 107/106/106
f 101/112/112 102/123/123 104/114/114
f 104/114/114 102/123/123 103/124/124
f 118/125/125 153/126/126 117/127/127
f 117/127/127 153/126/126 154/128/128
f 117/127/127 154/128/128 128/129/129
f 128/129/129 154/128/128 127/130/130
f 127/130/130 154/128/128 94/131/131
f 94/131/131 154/128/128 155/132/132
f 94/131/131 155/132/132 156/133/133
f 119/134/134 95/135/135 118/125/125
f 118/125/125 95/135/135 143/136/136
f 118/125/125 143/136/136 153/126/126
f 153/126/126 143/136/136 164/137/137
f 164/137/137 143/136/136 144/138/138
f 164/137/137 144/138/138 145/139/139
f 119/134/134 120/140/140 95/135/135
f 67/141/141 141/142/142 95/135/135
f 95/135/135 141/142/142 142/143/143
f 95/135/135 142/143/143 143/136/136
f 66/144/144 139/145/145 67/141/141
f 67/141/141 139/145/145 149/146/146
f 67/141/141 149/146/146 150/147/147
f 78/148/148 135/149/149 66/144/144
f 66/144/144 135/149/149 136/150/150
f 66/144/144 136/150/150 137/151/151
f 121/152/152 122/153/153 78/148/148
f 78/148/148 122/153/153 123/154/154
f 78/148/148 123/154/154 133/155/155
f 133/155/155 123/154/154 159/156/156
f 133/155/155 159/156/156 160/157/157
f 123/154/154 124/158/158 159/156/156
f 159/156/156 124/158/158 158/159/159
f 158/159/159 124/158/158 125/160/160
f 158/159/159 125/160/160 126/161/161
f 126/161/161 91/162/162 158/159/159
f 158/159/159 91/162/162 157/163/163
f 157/163/163 91/162/162 156/133/133
f 156/133/133 91/162/162 94/131/131
f 130/164/164 147/165/165 129/166/166
f 129/166/166 147/165/165 148/167/167
f 129/166/166 148/167/167 140/168/168
f 140/168/168 148/167/167 139/145/145
f 139/145/145 148/167/167 149/146/146
f 131/169/169 161/170/170 130/164/164
f 130/164/164 161/170/170 162/171/171
f 130/164/164 162/171/171 146/172/172
f 146/172/172 162/171/171 163/173/173
f 146/172/172 163/173/173 145/139/139
f 145/139/139 163/173/173 164/137/137
f 161/170/170 131/169/169 160/157/157
f 160/157/157 131/169/169 132/174/174
f 160/157/157 132/174/174 133/155/155
f 133/155/155 134/175/175 78/148/148
f 78/148/148 134/175/175 135/149/149
f 137/151/151 138/176/176 66/144/144
f 66/144/144 138/176/176 139/145/145
f 146/172/172 147/165/165 130/164/164
f 150/147/147 151/177/177 67/141/141
f 67/141/141 151/177/177 152/178/178
f 67/141/141 152/178/178 141/142/142
f 123/179/179 165/180/180 124/181/181
f 124/181/181 165/180/180 166/182/182
f 117/183/183 167/184/184 118/185/185
f 118/185/185 167/184/184 168/186/186
f 61/187/187 171/188/188 62/189/189
f 62/189/189 171/188/188 172/190/190
f 62/189/189 172/190/190 173/191/191
f 169/192/192 180/193/193 61/187/187
f 61/187/187 180/193/193 181/194/194
f 61/187/187 181/194/194 182/195/195
f 170/196/196 177/197/197 169/192/192
f 169/192/192 177/197/197 178/198/198
f 169/192/192 178/198/198 179/199/199
f 62/189/189 174/200/200 170/196/196
f 170/196/196 174/200/200 175/201/201
f 170/196/196 175/201/201 176/202/202
f 173/191/191 174/200/200 62/189/189
f 176/202/202 177/197/197 170/196/196
f 179/199/199 180/193/193 169/192/192
f 182/195/195 171/188/188 61/187/187
f 184/203/203 185/204/204 183/205/205
f 183/205/205 185/204/204 186/206/206
f 183/205/205 186/206/206 187/207/207
f 187/207/207 188/208/208 183/205/205
f 183/205/205 188/208/208 192/209/209
f 192/209/209 188/208/208 189/210/210
f 192/209/209 189/210/210 190/211/211
f 190/211/211 191/212/212 192/209/209
f 194/213/213 201/214/214 193/215/215
f 193/215/215 201/214/214 202/216/216
f 193/215/215 202/216/216 203/217/217
f 64/218/218 198/219/219 194/213/213
f 194/213/213 198/219/219 199/220/220
f 194/213/213 199/220/220 200/221/221
f 63/222/222 195/223/223 64/218/218
f 64/218/218 195/223/223 196/224/224
f 64/218/218 196/224/224 197/225/225
f 193/215/215 204/226/226 63/222/222
f 63/222/222 204/226/226 205/227/227
f 63/222/222 205/227/227 206/228/228
f 197/225/225 198/219/219 64/218/218
f 200/221/221 201/214/214 194/213/213
f 203/217/217 204/226/226 193/215/215
f 206/228/228 195/223/223 63/222/222
f 192/229/229 193/230/230 183/231/231
f 183/231/231 193/230/230 170/232/232
f 183/231/231 170/232/232 209/233/233
f 207/234/234 208/235/235 192/229/229
f 192/229/229 208/235/235 193/230/230
f 63/236/236 62/237/237 193/230/230
f 193/230/230 62/237/237 170/232/232
f 209/233/233 210/238/238 183/231/231
f 211/239/239 212/240/240 42/241/241
f 42/241/241 212/240/240 43/242/242
f 214/243/243 39/244/244 213/245/245
f 213/245/245 39/244/244 38/246/246
f 215/247/247 216/248/248 34/249/249
f 34/249/249 216/248/248 35/250/250
f 46/251/251 217/252/252 47/253/253
f 47/253/253 217/252/252 218/254/254
f 47/253/253 218/254/254 221/255/255
f 221/255/255 218/254/254 220/256/256
f 220/256/256 218/254/254 219/257/257
f 223/258/258 30/259/259 222/260/260
f 222/260/260 30/259/259 224/261/261
f 222/260/260 224/261/261 225/262/262
f 223/258/258 31/263/263 30/259/259
f 225/262/262 226/264/264 222/260/260
f 227/265/265 228/266/266 230/267/267
f 230/267/267 228/266/266 229/268/268
f 230/269/269 254/270/270 227/271/271
f 227/271/271 254/270/270 243/272/272
f 227/271/271 243/272/272 244/273/273
f 231/274/274 265/275/275 230/269/269
f 230/269/269 265/275/275 266/276/276
f 230/269/269 266/276/276 255/277/277
f 231/274/274 232/278/278 265/275/275
f 265/275/275 232/278/278 218/279/279
f 265/275/275 218/279/279 264/280/280
f 264/280/280 218/279/279 263/281/281
f 263/281/281 218/279/279 217/282/282
f 263/281/281 217/282/282 262/283/283
f 262/283/283 217/282/282 261/284/284
f 261/284/284 217/282/282 277/285/285
f 261/284/284 277/285/285 278/286/286
f 233/287/287 234/288/288 217/282/282
f 217/282/282 234/288/288 212/289/289
f 217/282/282 212/289/289 277/285/285
f 277/285/285 212/289/289 276/290/290
f 276/290/290 212/289/289 211/291/291
f 276/290/290 211/291/291 275/292/292
f 275/292/292 211/291/291 235/293/293
f 275/292/292 235/293/293 236/294/294
f 236/294/294 214/295/295 275/292/292
f 275/292/292 214/295/295 274/296/296
f 274/296/296 214/295/295 273/297/297
f 273/297/297 214/295/295 213/298/298
f 273/297/297 213/298/298 272/299/299
f 272/299/299 213/298/298 271/300/300
f 271/300/300 213/298/298 237/301/301
f 271/300/300 237/301/301 238/302/302
f 238/302/302 216/303/303 271/300/300
f 271/300/300 216/303/303 270/304/304
f 270/304/304 216/303/303 215/305/305
f 270/304/304 215/305/305 269/306/306
f 269/306/306 215/305/305 223/307/307
f 269/306/306 223/307/307 249/308/308
f 249/308/308 223/307/307 248/309/309
f 248/309/309 223/307/307 247/310/310
f 247/310/310 223/307/307 222/311/311
f 247/310/310 222/311/311 246/312/312
f 246/312/312 222/311/311 245/313/313
f 245/313/313 222/311/311 241/314/314
f 245/313/313 241/314/314 242/315/315
f 215/305/305 239/316/316 223/307/307
f 223/307/307 239/316/316 240/317/317
f 242/315/315 227/271/271 245/313/313
f 245/313/313 227/271/271 244/273/273
f 269/306/306 249/308/308 268/318/318
f 268/318/318 249/308/308 250/319/319
f 268/318/318 250/319/319 267/320/320
f 267/320/320 250/319/319 251/321/321
f 267/320/320 251/321/321 259/322/322
f 259/322/322 251/321/321 252/323/323
f 259/322/322 252/323/323 258/324/324
f 258/324/324 252/323/323 257/325/325
f 257/325/325 252/323/323 253/326/326
f 257/325/325 253/326/326 256/327/327
f 256/327/327 253/326/326 254/270/270
f 256/327/327 254/270/270 230/269/269
f 255/277/277 256/327/327 230/269/269
f 259/322/322 260/328/328 267/320/320
f 267/320/320 260/328/328 278/286/286
f 278/286/286 260/328/328 261/284/284
f 229/329/268 279/330/329 230/331/267
f 230/331/267 279/330/329 231/332/330
f 231/332/330 279/330/329 280/333/331
f 231/332/330 280/333/331 281/334/332
f 17/335/333 20/336/334 281/334/332
f 281/334/332 20/336/334 231/332/330
f 20/336/334 282/337/335 231/332/330
f 231/332/330 282/337/335 232/338/336
f 232/338/336 282/337/335 283/339/337
f 232/338/336 283/339/337 284/340/338
f 219/341/257 218/342/254 284/340/338
f 284/340/338 218/342/254 232/338/336
f 217/343/252 46/344/251 233/345/339
f 233/345/339 46/344/251 45/346/340
f 233/345/339 45/346/340 234/347/341
f 234/347/341 45/346/340 44/348/342
f 234/347/341 44/348/342 212/349/240
f 212/349/240 44/348/342 43/350/242
f 211/351/239 42/352/241 235/353/343
f 235/353/343 42/352/241 41/354/344
f 235/353/343 41/354/344 236/355/345
f 236/355/345 41/354/344 40/356/346
f 236/355/345 40/356/346 214/357/243
f 214/357/243 40/356/346 39/358/244
f 213/359/245 38/360/246 237/361/347
f 237/361/347 38/360/246 37/362/348
f 237/361/347 37/362/348 238/363/349
f 238/363/349 37/362/348 36/364/350
f 238/363/349 36/364/350 216/365/248
f 216/365/248 36/364/350 35/366/250
f 215/367/247 34/368/249 239/369/351
f 239/369/351 34/368/249 33/370/352
f 239/369/351 33/370/352 240/371/353
f 240/371/353 33/370/352 32/372/354
f 240/371/353 32/372/354 223/373/258
f 223/373/258 32/372/354 31/374/263
f 24/375/355 285/376/356 21/377/357
f 21/377/357 285/376/356 242/378/358
f 21/377/357 242/378/358 290/379/359
f 290/379/359 242/378/358 241/380/360
f 290/379/359 241/380/360 289/381/361
f 289/381/361 241/380/360 288/382/362
f 288/382/362 241/380/360 222/383/260
f 288/382/362 222/383/260 226/384/264
f 285/376/356 286/385/363 242/378/358
f 242/378/358 286/385/363 287/386/364
f 242/378/358 287/386/364 227/387/265
f 227/387/265 287/386/364 228/388/266
f 24/389/23 23/390/24 285/391/365
f 285/391/365 23/390/24 291/392/366
f 285/391/365 291/392/366 286/393/367
f 286/393/367 291/392/366 292/394/368
f 286/393/367 292/394/368 287/395/369
f 287/395/369 292/394/368 228/396/370
f 228/396/370 292/394/368 9/397/10
f 228/396/370 9/397/10 8/398/3
f 228/396/370 8/398/3 229/399/371
f 229/399/371 8/398/3 293/400/372
f 229/399/371 293/400/372 279/401/373
f 279/401/373 293/400/372 280/402/374
f 280/402/374 293/400/372 294/403/375
f 280/402/374 294/403/375 281/404/376
f 281/404/376 294/403/375 18/405/18
f 281/404/376 18/405/18 17/406/17
f 118/407/185 168/408/186 119/409/377
f 119/409/377 168/408/186 295/410/378
f 119/409/377 295/410/378 120/411/379
f 120/411/379 295/410/378 296/412/380
f 120/411/379 296/412/380 95/413/103
f 95/413/103 296/412/380 96/414/101
f 94/415/100 93/416/98 127/417/381
f 127/417/381 93/416/98 297/418/382
f 127/417/381 297/418/382 128/419/383
f 128/419/383 297/418/382 298/420/384
f 128/419/383 298/420/384 117/421/183
f 117/421/183 298/420/384 167/422/184
f 124/423/181 166/424/182 125/425/385
f 125/425/385 166/424/182 299/426/386
f 125/425/385 299/426/386 126/427/387
f 126/427/387 299/426/386 300/428/388
f 126/427/387 300/428/388 91/429/99
f 91/429/99 300/428/388 92/430/97
f 78/431/94 77/432/95 121/433/389
f 121/433/389 77/432/95 301/434/390
f 121/433/389 301/434/390 122/435/391
f 122/435/391 301/434/390 302/436/392
f 122/435/391 302/436/392 123/437/179
f 123/437/179 302/436/392 165/438/180
f 20/439/19 19/440/20 282/441/393
f 282/441/393 19/440/20 303/442/394
f 282/441/393 303/442/394 283/443/395
f 283/443/395 303/442/394 284/444/396
f 284/444/396 303/442/394 304/445/397
f 284/444/396 304/445/397 219/446/398
f 219/446/398 304/445/397 48/447/59
f 219/446/398 48/447/59 220/448/399
f 220/448/399 48/447/59 221/449/400
f 221/449/400 48/447/59 47/450/60
f 30/451/35 29/452/34 224/453/401
f 224/453/401 29/452/34 225/454/402
f 225/454/402 29/452/34 226/455/403
f 226/455/403 29/452/34 305/456/404
f 226/455/403 305/456/404 288/457/405
f 288/457/405 305/456/404 306/458/406
f 288/457/405 306/458/406 289/459/407
f 289/459/407 306/458/406 290/460/408
f 290/460/408 306/458/406 22/461/22
f 290/460/408 22/461/22 21/462/21
f 206/463/409 80/464/410 195/465/411
f 195/465/411 80/464/410 79/466/412
f 195/465/411 79/466/412 196/467/413
f 196/467/413 79/466/412 90/468/414
f 196/467/413 90/468/414 197/469/415
f 197/469/415 90/468/414 89/470/416
f 197/469/415 89/470/416 198/471/417
f 198/471/417 89/470/416 88/472/418
f 198/471/417 88/472/418 199/473/419
f 199/473/419 88/472/418 87/474/420
f 199/473/419 87/474/420 200/475/421
f 200/475/421 87/474/420 86/476/422
f 200/475/421 86/476/422 201/477/423
f 201/477/423 86/476/422 85/478/424
f 201/479/423 85/480/424 202/481/425
f 202/481/425 85/480/424 84/482/426
f 202/481/425 84/482/426 203/483/427
f 203/483/427 84/482/426 83/484/428
f 203/483/427 83/484/428 204/485/429
f 204/485/429 83/484/428 82/486/430
f 204/485/429 82/486/430 205/487/431
f 205/487/431 82/486/430 81/488/432
f 205/487/431 81/488/432 206/463/409
f 206/463/409 81/488/432 80/464/410
f 182/489/433 112/490/434 171/491/435
f 171/491/435 112/490/434 111/492/436
f 171/491/435 111/492/436 172/493/437
f 172/493/437 111/492/436 110/494/438
f 172/493/437 110/494/438 173/495/439
f 173/495/439 110/494/438 109/496/440
f 173/495/439 109/496/440 174/497/441
f 174/497/441 109/496/440 108/498/442
f 174/497/441 108/498/442 175/499/443
f 175/499/443 108/498/442 107/500/444
f 175/499/443 107/500/444 176/501/445
f 176/501/445 107/500/444 106/502/446
f 176/501/445 106/502/446 177/503/447
f 177/503/447 106/502/446 105/504/448
f 177/505/447 105/506/448 178/507/449
f 178/507/449 105/506/448 116/508/450
f 178/507/449 116/508/450 179/509/451
f 179/509/451 116/508/450 115/510/452
f 179/509/451 115/510/452 180/511/453
f 180/511/453 115/510/452 114/512/454
f 180/511/453 114/512/454 181/513/455
f 181/513/455 114/512/454 113/514/456
f 181/513/455 113/514/456 182/489/433
f 182/489/433 113/514/456 112/490/434
f 191/515/457 307/516/458 192/517/209
f 192/517/209 307/516/458 207/518/459
f 207/518/459 307/516/458 308/519/460
f 207/518/459 308/519/460 208/520/461
f 208/520/461 308/519/460 309/521/462
f 208/520/461 309/521/462 193/522/215
f 193/522/215 309/521/462 310/523/463
f 193/522/215 310/523/463 194/524/213
f 169/525/192 311/526/464 170/527/196
f 170/527/196 311/526/464 312/528/465
f 170/527/196 312/528/465 209/529/466
f 209/529/466 312/528/465 313/530/467
f 209/529/466 313/530/467 210/531/468
f 210/531/468 313/530/467 314/532/469
f 210/531/468 314/532/469 183/533/205
f 183/533/205 314/532/469 184/534/203
f 164/535/470 277/536/471 153/537/472
f 153/537/472 277/536/471 276/538/473
f 153/537/472 276/538/473 154/539/474
f 154/539/474 276/538/473 275/540/475
f 154/539/474 275/540/475 155/541/476
f 155/541/476 275/540/475 274/542/477
f 155/541/476 274/542/477 156/543/478
f 156/543/478 274/542/477 273/544/479
f 156/543/478 273/544/479 157/545/480
f 157/545/480 273/544/479 272/546/481
f 157/545/480 272/546/481 158/547/482
f 158/547/482 272/546/481 271/548/483
f 158/547/482 271/548/483 159/549/484
f 159/549/484 271/548/483 270/550/485
f 159/551/484 270/552/485 160/553/486
f 160/553/486 270/552/485 269/554/487
f 160/553/486 269/554/487 161/555/488
f 161/555/488 269/554/487 268/556/489
f 161/555/488 268/556/489 162/557/490
f 162/557/490 268/556/489 267/558/491
f 162/557/490 267/558/491 163/559/492
f 163/559/492 267/558/491 278/560/493
f 163/559/492 278/560/493 164/535/470
f 164/535/470 278/560/493 277/536/471
f 152/561/494 265/562/495 141/563/496
f 141/563/496 265/562/495 264/564/497
f 141/563/496 264/564/497 142/565/498
f 142/565/498 264/564/497 263/566/499
f 142/565/498 263/566/499 143/567/500
f 143/567/500 263/566/499 262/568/501
f 143/567/500 262/568/501 144/569/502
f 144/569/502 262/568/501 261/570/503
f 144/569/502 261/570/503 145/571/504
f 145/571/504 261/570/503 260/572/505
f 145/571/504 260/572/505 146/573/506
f 146/573/506 260/572/505 259/574/507
f 146/573/506 259/574/507 147/575/508
f 147/575/508 259/574/507 258/576/509
f 147/577/508 258/578/509 148/579/510
f 148/579/510 258/578/509 257/580/511
f 148/579/510 257/580/511 149/581/512
f 149/581/512 257/580/511 256/582/513
f 149/581/512 256/582/513 150/583/514
f 150/583/514 256/582/513 255/584/515
f 150/583/514 255/584/515 151/585/516
f 151/585/516 255/584/515 266/586/517
f 151/585/516 266/586/517 152/561/494
f 152/561/494 266/586/517 265/562/495
f 140/587/518 253/588/519 129/589/520
f 129/589/520 253/588/519 252/590/521
f 129/589/520 252/590/521 130/591/522
f 130/591/522 252/590/521 251/592/523
f 130/591/522 251/592/523 131/593/524
f 131/593/524 251/592/523 250/594/525
f 131/593/524 250/594/525 132/595/526
f 132/595/526 250/594/525 249/596/527
f 132/595/526 249/596/527 133/597/528
f 133/597/528 249/596/527 248/598/529
f 133/597/528 248/598/529 134/599/530
f 134/599/530 248/598/529 247/600/531
f 134/599/530 247/600/531 135/601/532
f 135/601/532 247/600/531 246/602/533
f 135/603/532 246/604/533 136/605/534
f 136/605/534 246/604/533 245/606/535
f 136/605/534 245/606/535 137/607/536
f 137/607/536 245/606/535 244/608/537
f 137/607/536 244/608/537 138/609/538
f 138/609/538 244/608/537 243/610/539
f 138/609/538 243/610/539 139/611/540
f 139/611/540 243/610/539 254/612/541
f 139/611/540 254/612/541 140/587/518
f 140/587/518 254/612/541 253/588/519
f 11/613/542 64/614/543 12/615/544
f 12/615/544 64/614/543 194/616/545
f 12/615/544 194/616/545 310/617/546
f 13/618/547 12/619/548 316/620/549
f 316/620/549 12/619/548 310/621/550
f 316/620/549 310/621/550 309/622/551
f 309/622/551 308/623/552 316/620/549
f 316/620/549 308/623/552 317/624/553
f 316/620/549 317/624/553 14/625/554
f 14/625/554 317/624/553 315/626/555
f 14/625/554 315/626/555 15/627/556
f 15/627/556 315/626/555 318/628/557
f 15/627/556 318/628/557 16/629/558
f 16/629/558 318/628/557 191/630/559
f 16/629/558 191/630/559 190/631/560
f 317/624/553 308/623/552 315/626/555
f 315/626/555 308/623/552 307/632/561
f 315/626/555 307/632/561 318/628/557
f 318/628/557 307/632/561 191/630/559
f 190/631/560 189/633/562 16/629/558
f 16/629/558 189/633/562 188/634/563
f 14/625/554 13/618/547 316/620/549
f 188/635/564 187/636/565 16/637/566
f 16/637/566 187/636/565 1/638/567
f 2/639/568 1/640/569 320/641/570
f 320/641/570 1/640/569 187/642/571
f 320/641/570 187/642/571 186/643/572
f 186/643/572 185/644/573 320/641/570
f 320/641/570 185/644/573 184/645/574
f 320/641/570 184/645/574 314/646/575
f 320/641/570 314/646/575 319/647/576
f 319/647/576 314/646/575 313/648/577
f 319/647/576 313/648/577 312/649/578
f 311/650/579 5/651/580 312/649/578
f 312/649/578 5/651/580 321/652/581
f 312/649/578 321/652/581 319/647/576
f 319/647/576 321/652/581 3/653/582
f 319/647/576 3/653/582 2/639/568
f 5/651/580 4/654/583 321/652/581
f 321/652/581 4/654/583 3/653/582
f 319/647/576 2/639/568 320/641/570
f 6/655/584 5/656/585 61/657/586
f 61/657/586 5/656/585 169/658/587
f 169/658/587 5/656/585 311/659/588
f 7/660/589 68/661/590 8/662/591
f 8/662/591 68/661/590 104/663/592
f 8/664/591 104/665/592 293/666/593
f 293/666/593 104/665/592 103/667/594
f 293/666/593 103/667/594 102/668/595
f 101/669/596 18/670/597 102/668/595
f 102/668/595 18/670/597 294/671/598
f 102/668/595 294/671/598 293/666/593
f 101/672/596 100/673/599 18/674/597
f 18/674/597 100/673/599 19/675/600
f 19/676/600 100/677/599 303/678/601
f 303/678/601 100/677/599 99/679/602
f 303/678/601 99/679/602 304/680/603
f 304/680/603 99/679/602 98/681/604
f 304/680/603 98/681/604 48/682/605
f 48/682/605 98/681/604 97/683/606
f 97/684/606 96/685/607 48/686/605
f 48/686/605 96/685/607 49/687/608
f 49/688/608 96/689/607 50/690/609
f 50/690/609 96/689/607 296/691/610
f 50/690/609 296/691/610 51/692/611
f 51/692/611 296/691/610 295/693/612
f 51/692/611 295/693/612 52/694/613
f 52/694/613 295/693/612 168/695/614
f 168/696/614 167/697/615 52/698/613
f 52/698/613 167/697/615 53/699/616
f 53/700/616 167/701/615 54/702/617
f 54/702/617 167/701/615 298/703/618
f 54/702/617 298/703/618 55/704/619
f 55/704/619 298/703/618 297/705/620
f 55/704/619 297/705/620 56/706/621
f 56/706/621 297/705/620 93/707/622
f 93/708/622 92/709/623 56/710/621
f 56/710/621 92/709/623 57/711/624
f 57/712/624 92/713/623 58/714/625
f 58/714/625 92/713/623 300/715/626
f 58/714/625 300/715/626 59/716/627
f 59/716/627 300/715/626 299/717/628
f 59/716/627 299/717/628 60/718/629
f 60/718/629 299/717/628 166/719/630
f 166/720/630 165/721/631 60/722/629
f 60/722/629 165/721/631 25/723/632
f 25/724/632 165/725/631 26/726/633
f 26/726/633 165/725/631 302/727/634
f 26/726/633 302/727/634 27/728/635
f 27/728/635 302/727/634 301/729/636
f 27/728/635 301/729/636 28/730/637
f 28/730/637 301/729/636 77/731/638
f 77/732/638 76/733/639 28/734/637
f 28/734/637 76/733/639 29/735/640
f 29/736/640 76/737/639 305/738/641
f 305/738/641 76/737/639 75/739/642
f 305/738/641 75/739/642 306/740/643
f 306/740/643 75/739/642 74/741/644
f 306/740/643 74/741/644 22/742/645
f 22/742/645 74/741/644 73/743/646
f 73/744/646 72/745/647 22/746/645
f 22/746/645 72/745/647 23/747/648
f 23/748/648 72/749/647 291/750/649
f 291/750/649 72/749/647 71/751/650
f 291/750/649 71/751/650 70/752/651
f 69/753/652 9/754/653 70/752/651
f 70/752/651 9/754/653 292/755/654
f 70/752/651 292/755/654 291/750/649
f 69/756/652 65/757/655 9/758/653
f 9/758/653 65/757/655 10/759/656
# 321 vertices
# 759 texture params
# 656 normals
# 658 facets

# 1 groups
