# WaveFront *.obj file (generated by Autodesk ATF)

mtllib WJ-WK00-0123MIDDLECASE_56_1.mtl

g Body1

v 8.863781 -1.200000 10.250000
v 8.863781 -1.200000 -10.250000
v 8.863781 -15.100000 -10.250000
v 8.863781 -15.100000 10.250000
v 7.500000 -1.200000 11.613781
v 8.181891 -1.200000 11.431069
v 8.681069 -1.200000 10.931891
v 8.681069 -15.100000 10.931891
v 8.181891 -15.100000 11.431069
v 7.500000 -15.100000 11.613781
v -13.964432 -1.200000 11.613781
v -13.964432 -15.100000 11.613781
v -17.077965 -1.200000 11.613781
v -16.042951 -1.200000 11.746628
v -14.999446 -1.200000 11.746628
v -13.996236 -15.100000 11.619881
v -14.028065 -15.100000 11.625856
v -14.059917 -15.100000 11.631704
v -14.059917 -14.100000 11.631704
v -15.031768 -14.100000 11.748629
v -16.010628 -14.100000 11.748629
v -16.982480 -14.100000 11.631704
v -16.982480 -15.100000 11.631704
v -17.014332 -15.100000 11.625856
v -17.046160 -15.100000 11.619881
v -17.077965 -15.100000 11.613781
v -32.071573 -1.200000 11.613781
v -32.071573 -15.100000 11.613781
v -33.035912 -1.200000 11.214339
v -32.753463 -1.200000 11.431069
v -32.424545 -1.200000 11.567312
v -32.424545 -15.100000 11.567312
v -32.753463 -15.100000 11.431069
v -33.035912 -15.100000 11.214339
v -32.593469 -8.150000 11.509970
v -34.464339 -1.200000 9.785912
v -34.464339 -15.100000 9.785912
v -34.863781 -1.200000 8.821573
v -34.817312 -1.200000 9.174545
v -34.681069 -1.200000 9.503463
v -34.681069 -15.100000 9.503463
v -34.817312 -15.100000 9.174545
v -34.863781 -15.100000 8.821573
v -34.759970 -8.150000 9.343469
v -34.863781 -1.200000 -8.821573
v -34.863781 -15.100000 -8.821573
v -34.464339 -1.200000 -9.785912
v -34.681069 -1.200000 -9.503463
v -34.817312 -1.200000 -9.174545
v -34.817312 -15.100000 -9.174545
v -34.681069 -15.100000 -9.503463
v -34.464339 -15.100000 -9.785912
v -34.759970 -8.150000 -9.343469
v -33.035912 -1.200000 -11.214339
v -33.035912 -15.100000 -11.214339
v -32.071573 -1.200000 -11.613781
v -32.424545 -1.200000 -11.567312
v -32.753463 -1.200000 -11.431069
v -32.753463 -15.100000 -11.431069
v -32.424545 -15.100000 -11.567312
v -32.071573 -15.100000 -11.613781
v -32.593469 -8.150000 -11.509970
v -12.079082 -1.200000 -11.613781
v -12.079082 -15.100000 -11.613781
v -10.134153 -1.200000 -11.613781
v -10.781762 -1.200000 -11.665982
v -11.431472 -1.200000 -11.665982
v -12.025325 -15.100000 -11.620116
v -11.971528 -15.100000 -11.626090
v -11.917691 -15.100000 -11.631704
v -11.917691 -14.100000 -11.631704
v -11.377380 -14.100000 -11.667977
v -10.835854 -14.100000 -11.667977
v -10.295543 -14.100000 -11.631704
v -10.295543 -15.100000 -11.631704
v -10.241707 -15.100000 -11.626090
v -10.187909 -15.100000 -11.620116
v -10.134153 -15.100000 -11.613781
v 7.500000 -1.200000 -11.613781
v 7.500000 -15.100000 -11.613781
v 8.681069 -1.200000 -10.931891
v 8.181891 -1.200000 -11.431069
v 8.181891 -15.100000 -11.431069
v 8.681069 -15.100000 -10.931891
v 7.612144 -15.100000 -11.631704
v 8.246924 -15.100000 -11.461615
v 8.711615 -15.100000 -10.996924
v 8.881704 -15.100000 -10.362144
v 8.881704 -15.100000 10.362144
v 8.711615 -15.100000 10.996924
v 8.246924 -15.100000 11.461615
v 7.612144 -15.100000 11.631704
v -32.118024 -15.100000 11.631704
v -32.446611 -15.100000 11.588445
v -32.752804 -15.100000 11.461615
v -33.015739 -15.100000 11.259858
v -34.509858 -15.100000 9.765739
v -34.711615 -15.100000 9.502804
v -34.838445 -15.100000 9.196611
v -34.881704 -15.100000 8.868024
v -34.881704 -15.100000 -8.868024
v -34.838445 -15.100000 -9.196611
v -34.711615 -15.100000 -9.502804
v -34.509858 -15.100000 -9.765739
v -33.015739 -15.100000 -11.259858
v -32.752804 -15.100000 -11.461615
v -32.446611 -15.100000 -11.588445
v -32.118024 -15.100000 -11.631704
v -32.118024 -14.100000 11.631704
v 7.612144 -14.100000 11.631704
v -33.015739 -14.100000 11.259858
v -32.446611 -14.100000 11.588445
v -32.752804 -14.100000 11.461615
v -33.563547 -14.100000 11.742016
v -34.992016 -14.100000 10.313547
v -35.327323 -14.100000 9.876567
v -35.538106 -14.100000 9.367692
v -35.610000 -14.100000 8.821602
v -35.610000 -14.100000 -8.821602
v -35.538106 -14.100000 -9.367692
v -35.327323 -14.100000 -9.876567
v -34.992016 -14.100000 -10.313547
v -33.563547 -14.100000 -11.742016
v -33.126567 -14.100000 -12.077323
v -32.617692 -14.100000 -12.288106
v -32.071602 -14.100000 -12.360000
v 7.500071 -14.100000 -12.360000
v 8.555036 -14.100000 -12.077323
v 9.327323 -14.100000 -11.305036
v 9.610000 -14.100000 -10.250071
v 9.610000 -14.100000 10.250071
v 9.327323 -14.100000 11.305036
v 8.555036 -14.100000 12.077323
v 7.500071 -14.100000 12.360000
v -32.071602 -14.100000 12.360000
v -32.617692 -14.100000 12.288106
v -33.126567 -14.100000 12.077323
v -32.118024 -14.100000 -11.631704
v -32.446611 -14.100000 -11.588445
v -32.752804 -14.100000 -11.461615
v -33.015739 -14.100000 -11.259858
v -34.509858 -14.100000 -9.765739
v -34.711615 -14.100000 -9.502804
v -34.838445 -14.100000 -9.196611
v -34.881704 -14.100000 -8.868024
v -34.881704 -14.100000 8.868024
v -34.838445 -14.100000 9.196611
v -34.711615 -14.100000 9.502804
v -34.509858 -14.100000 9.765739
v 8.246924 -14.100000 11.461615
v 8.711615 -14.100000 10.996924
v 8.881704 -14.100000 10.362144
v 8.881704 -14.100000 -10.362144
v 8.711615 -14.100000 -10.996924
v 8.246924 -14.100000 -11.461615
v 7.612144 -14.100000 -11.631704
v -33.563547 -1.200000 11.742016
v -32.071602 -1.200000 12.360000
v -32.617692 -1.200000 12.288106
v -33.126567 -1.200000 12.077323
v -35.610000 -1.200000 8.821602
v -35.538106 -1.200000 9.367692
v -35.327323 -1.200000 9.876567
v -34.992016 -1.200000 10.313547
v 7.500071 -1.200000 12.360000
v 8.555036 -1.200000 12.077323
v 9.327323 -1.200000 11.305036
v 9.610000 -1.200000 10.250071
v 9.610000 -1.200000 -10.250071
v 9.327323 -1.200000 -11.305036
v 8.555036 -1.200000 -12.077323
v 7.500071 -1.200000 -12.360000
v -32.071602 -1.200000 -12.360000
v -32.617692 -1.200000 -12.288106
v -33.126567 -1.200000 -12.077323
v -33.563547 -1.200000 -11.742016
v -34.992016 -1.200000 -10.313547
v -35.327323 -1.200000 -9.876567
v -35.538106 -1.200000 -9.367692
v -35.610000 -1.200000 -8.821602
vt 0.000000 0.100000 0.000000
vt -2.050000 0.100000 0.000000
vt -0.000000 -1.290000 0.000000
vt -2.050000 -1.290000 0.000000
vt -1.290000 -0.214222 0.000000
vt 0.100000 -0.214222 0.000000
vt -1.290000 -0.142815 0.000000
vt 0.100000 -0.142815 0.000000
vt -1.290000 -0.071407 0.000000
vt 0.100000 -0.071407 0.000000
vt -1.290000 0.000000 0.000000
vt 0.100000 -0.000000 0.000000
vt 0.000000 0.100000 0.000000
vt -2.146443 0.100000 0.000000
vt 0.000000 -1.290000 0.000000
vt -2.146443 -1.290000 0.000000
vt 0.100000 -1.337122 0.000000
vt -1.190000 -1.431828 0.000000
vt 0.100000 -1.441543 0.000000
vt -1.290000 -1.438305 0.000000
vt -1.290000 -1.441543 0.000000
vt 0.100000 -1.232701 0.000000
vt -1.190000 -1.235939 0.000000
vt -1.190000 -1.333884 0.000000
vt -1.190000 -1.137995 0.000000
vt 0.100000 -1.128279 0.000000
vt -1.290000 -1.128279 0.000000
vt -1.290000 -1.131518 0.000000
vt -1.290000 -1.134756 0.000000
vt -1.290000 -1.137995 0.000000
vt -1.290000 -1.431828 0.000000
vt -1.290000 -1.435067 0.000000
vt 1.810714 0.100000 0.000000
vt 0.311353 0.100000 0.000000
vt 1.810714 -1.290000 0.000000
vt 0.311353 -1.290000 0.000000
vt 0.100000 -0.285630 0.000000
vt -0.595000 -0.267778 0.000000
vt 0.100000 -0.321333 0.000000
vt -1.290000 -0.285630 0.000000
vt -1.290000 -0.321333 0.000000
vt 0.100000 -0.249926 0.000000
vt -1.290000 -0.214222 0.000000
vt -1.290000 -0.249926 0.000000
vt 0.100000 -0.214222 0.000000
vt 0.000000 0.100000 0.000000
vt -0.202010 0.100000 0.000000
vt -0.000000 -1.290000 0.000000
vt -0.202010 -1.290000 0.000000
vt 0.100000 0.464148 0.000000
vt -0.595000 0.482000 0.000000
vt 0.100000 0.428445 0.000000
vt -1.290000 0.464148 0.000000
vt -1.290000 0.428445 0.000000
vt 0.100000 0.499852 0.000000
vt -1.290000 0.535556 0.000000
vt -1.290000 0.499852 0.000000
vt 0.100000 0.535556 0.000000
vt -0.000000 0.100000 0.000000
vt -1.764315 0.100000 0.000000
vt -0.000000 -1.290000 0.000000
vt -1.764315 -1.290000 0.000000
vt 0.100000 0.357037 0.000000
vt -0.595000 0.374889 0.000000
vt 0.100000 0.321333 0.000000
vt -1.290000 0.357037 0.000000
vt -1.290000 0.321333 0.000000
vt 0.100000 0.392741 0.000000
vt -1.290000 0.428445 0.000000
vt -1.290000 0.392741 0.000000
vt 0.100000 0.428445 0.000000
vt 0.000000 0.100000 0.000000
vt -0.202010 0.100000 0.000000
vt -0.000000 -1.290000 0.000000
vt -0.202010 -1.290000 0.000000
vt 0.100000 0.249926 0.000000
vt -0.595000 0.267778 0.000000
vt 0.100000 0.214222 0.000000
vt -1.290000 0.249926 0.000000
vt -1.290000 0.214222 0.000000
vt 0.100000 0.285630 0.000000
vt -1.290000 0.321333 0.000000
vt -1.290000 0.285630 0.000000
vt 0.100000 0.321333 0.000000
vt 0.000000 0.100000 0.000000
vt -1.999249 0.100000 0.000000
vt 0.000000 -1.290000 0.000000
vt -1.999249 -1.290000 0.000000
vt 0.100000 1.236709 0.000000
vt -1.190000 1.187959 0.000000
vt 0.100000 1.171721 0.000000
vt -1.290000 1.177134 0.000000
vt -1.290000 1.171721 0.000000
vt 0.100000 1.301698 0.000000
vt -1.190000 1.296285 0.000000
vt -1.190000 1.242122 0.000000
vt -1.190000 1.350448 0.000000
vt 0.100000 1.366686 0.000000
vt -1.290000 1.361273 0.000000
vt -1.290000 1.366686 0.000000
vt -1.290000 1.355861 0.000000
vt -1.290000 1.350448 0.000000
vt -1.290000 1.187959 0.000000
vt -1.290000 1.182546 0.000000
vt 1.957908 0.100000 0.000000
vt 0.194493 0.100000 0.000000
vt 1.957908 -1.290000 0.000000
vt 0.194493 -1.290000 0.000000
vt -1.290000 0.000000 0.000000
vt 0.100000 0.000000 0.000000
vt -1.290000 0.071407 0.000000
vt 0.100000 0.071407 0.000000
vt -1.290000 0.142815 0.000000
vt 0.100000 0.142815 0.000000
vt -1.290000 0.214222 0.000000
vt 0.100000 0.214222 0.000000
vt 0.886378 1.025000 0.000000
vt 0.886378 -1.025000 0.000000
vt 0.888170 -1.036214 0.000000
vt 0.868107 -1.093189 0.000000
vt 0.871162 -1.099692 0.000000
vt 0.824692 -1.146162 0.000000
vt 0.818189 -1.143107 0.000000
vt 0.761214 -1.163170 0.000000
vt 0.750000 -1.161378 0.000000
vt -1.013415 -1.161378 0.000000
vt -1.018791 -1.162012 0.000000
vt -1.024171 -1.162609 0.000000
vt -1.029554 -1.163170 0.000000
vt 0.888170 1.036214 0.000000
vt 0.868107 1.093189 0.000000
vt 0.871162 1.099692 0.000000
vt 0.824692 1.146162 0.000000
vt 0.818189 1.143107 0.000000
vt 0.761214 1.163170 0.000000
vt 0.750000 1.161378 0.000000
vt -1.405992 1.163170 0.000000
vt -1.402806 1.162586 0.000000
vt -1.399624 1.161988 0.000000
vt -1.396443 1.161378 0.000000
vt -1.202533 -1.162012 0.000000
vt -1.207908 -1.161378 0.000000
vt -3.211802 -1.163170 0.000000
vt -3.207157 -1.161378 0.000000
vt -3.242455 -1.156731 0.000000
vt -3.244661 -1.158844 0.000000
vt -3.275346 -1.143107 0.000000
vt -3.275280 -1.146162 0.000000
vt -3.301574 -1.125986 0.000000
vt -3.303591 -1.121434 0.000000
vt -3.446434 -0.978591 0.000000
vt -3.450986 -0.976574 0.000000
vt -3.468107 -0.950346 0.000000
vt -3.471162 -0.950280 0.000000
vt -3.481731 -0.917455 0.000000
vt -3.483844 -0.919661 0.000000
vt -3.488170 -0.886802 0.000000
vt -3.486378 -0.882157 0.000000
vt -3.486378 0.882157 0.000000
vt -3.488170 0.886802 0.000000
vt -3.481731 0.917455 0.000000
vt -3.483844 0.919661 0.000000
vt -3.471162 0.950280 0.000000
vt -3.468107 0.950346 0.000000
vt -3.450986 0.976574 0.000000
vt -3.446434 0.978591 0.000000
vt -3.301574 1.125986 0.000000
vt -3.303591 1.121434 0.000000
vt -3.275346 1.143107 0.000000
vt -3.242455 1.156731 0.000000
vt -3.244661 1.158844 0.000000
vt -3.275280 1.146162 0.000000
vt -3.211802 1.163170 0.000000
vt -3.207157 1.161378 0.000000
vt -1.707796 1.161378 0.000000
vt -1.704616 1.161988 0.000000
vt -1.701433 1.162586 0.000000
vt -1.698248 1.163170 0.000000
vt -1.191769 -1.163170 0.000000
vt -1.197153 -1.162609 0.000000
vt 2.459426 0.010000 0.000000
vt 3.972980 0.010000 0.000000
vt 2.459426 0.110000 0.000000
vt 3.972980 0.110000 0.000000
vt 2.167170 0.110000 0.000000
vt -0.000036 0.110000 0.000000
vt 2.167170 0.010000 0.000000
vt -0.000036 0.010000 0.000000
vt -0.010000 0.109663 0.000000
vt -0.110000 0.109663 0.000000
vt -0.010000 0.076426 0.000000
vt -0.110000 0.076426 0.000000
vt -0.110000 0.043189 0.000000
vt -0.110000 0.009952 0.000000
vt -0.010000 0.009952 0.000000
vt -0.010000 0.043189 0.000000
vt -4.824878 3.256355 0.000000
vt -4.627250 3.350986 0.000000
vt -4.682031 3.399202 0.000000
vt -4.600956 3.371162 0.000000
vt -4.638333 3.432732 0.000000
vt -4.570337 3.383844 0.000000
vt -4.587445 3.453811 0.000000
vt -4.537478 3.388170 0.000000
vt -4.532836 3.461000 0.000000
vt -3.023924 3.388170 0.000000
vt -2.926739 3.399863 0.000000
vt -4.776662 3.201574 0.000000
vt -4.858408 3.212657 0.000000
vt -4.796837 3.175280 0.000000
vt -4.879487 3.161769 0.000000
vt -4.809520 3.144661 0.000000
vt -4.886676 3.107160 0.000000
vt -4.813846 3.111802 0.000000
vt -4.813846 1.338198 0.000000
vt -4.886676 1.342840 0.000000
vt -4.809520 1.305339 0.000000
vt -4.879487 1.288231 0.000000
vt -4.796837 1.274720 0.000000
vt -4.858408 1.237343 0.000000
vt -4.776662 1.248426 0.000000
vt -4.824878 1.193645 0.000000
vt -4.627250 1.099014 0.000000
vt -4.682031 1.050798 0.000000
vt -4.600956 1.078838 0.000000
vt -4.638333 1.017268 0.000000
vt -4.570337 1.066156 0.000000
vt -4.587445 0.996189 0.000000
vt -4.537478 1.061830 0.000000
vt -4.532836 0.989000 0.000000
vt -2.517445 1.061830 0.000000
vt -2.463414 1.058202 0.000000
vt -0.575669 0.989000 0.000000
vt -2.409261 1.058202 0.000000
vt -2.355230 1.061830 0.000000
vt -0.564462 1.061830 0.000000
vt -0.470172 1.017268 0.000000
vt -0.500984 1.078838 0.000000
vt -0.392944 1.094496 0.000000
vt -0.454514 1.125308 0.000000
vt -0.364676 1.199993 0.000000
vt -0.437506 1.188786 0.000000
vt -0.364676 3.250007 0.000000
vt -0.437506 3.261214 0.000000
vt -0.454514 3.324692 0.000000
vt -0.392944 3.355504 0.000000
vt -0.500984 3.371162 0.000000
vt -0.470172 3.432732 0.000000
vt -0.564462 3.388170 0.000000
vt -0.575669 3.461000 0.000000
vt -2.731668 3.388170 0.000000
vt -2.828853 3.399863 0.000000
vt -1.290000 0.168966 0.000000
vt -1.290000 0.113729 0.000000
vt -0.000000 0.168966 0.000000
vt -0.000000 0.113729 0.000000
vt -1.290000 0.058491 0.000000
vt -0.000000 0.058491 0.000000
vt -1.290000 0.003253 0.000000
vt -0.000000 0.003253 0.000000
vt -0.858980 3.161769 0.000000
vt -0.931060 3.142455 0.000000
vt -0.851791 3.107160 0.000000
vt -0.926413 3.107157 0.000000
vt -0.851791 1.342840 0.000000
vt -0.926413 1.342843 0.000000
vt -0.931060 1.307545 0.000000
vt -0.944684 3.175346 0.000000
vt -0.880058 3.212657 0.000000
vt -0.966357 3.203591 0.000000
vt -0.913589 3.256355 0.000000
vt -1.109200 3.346434 0.000000
vt -1.056436 3.399202 0.000000
vt -1.137444 3.368107 0.000000
vt -1.100134 3.432732 0.000000
vt -1.170336 3.381731 0.000000
vt -1.151022 3.453811 0.000000
vt -1.205633 3.386378 0.000000
vt -1.205630 3.461000 0.000000
vt -2.704994 3.386378 0.000000
vt -2.808496 3.399663 0.000000
vt -2.912846 3.399663 0.000000
vt -5.162798 3.461000 0.000000
vt -3.016348 3.386378 0.000000
vt -5.162791 3.386378 0.000000
vt -5.268294 3.432732 0.000000
vt -5.230980 3.368107 0.000000
vt -5.345523 3.355504 0.000000
vt -5.280898 3.318189 0.000000
vt -5.373791 3.250007 0.000000
vt -5.299169 3.250000 0.000000
vt -5.373791 1.199993 0.000000
vt -5.299169 1.200000 0.000000
vt -5.280898 1.131811 0.000000
vt -5.345523 1.094496 0.000000
vt -5.230980 1.081893 0.000000
vt -5.268294 1.017268 0.000000
vt -5.162791 1.063622 0.000000
vt -5.162798 0.989000 0.000000
vt -3.399375 1.063622 0.000000
vt -3.334615 1.058402 0.000000
vt -3.269644 1.058402 0.000000
vt -1.205630 0.989000 0.000000
vt -3.204883 1.063622 0.000000
vt -1.205633 1.063622 0.000000
vt -1.151022 0.996189 0.000000
vt -1.170336 1.068269 0.000000
vt -1.100134 1.017268 0.000000
vt -1.137444 1.081893 0.000000
vt -1.056436 1.050798 0.000000
vt -1.109200 1.103566 0.000000
vt -0.913589 1.193645 0.000000
vt -0.966357 1.246409 0.000000
vt -0.880058 1.237343 0.000000
vt -0.944684 1.274654 0.000000
vt -0.858980 1.288231 0.000000
vt -1.764321 -1.290000 0.000000
vt -0.000000 -1.290000 0.000000
vt -1.764321 0.000000 0.000000
vt -0.000000 0.000000 0.000000
vt 0.000000 0.168966 0.000000
vt -1.290000 0.168966 0.000000
vt -0.000000 0.113729 0.000000
vt -1.290000 0.113729 0.000000
vt -1.290000 0.058491 0.000000
vt -1.290000 0.003253 0.000000
vt -0.000000 0.003253 0.000000
vt -0.000000 0.058491 0.000000
vt -0.202016 -1.290000 0.000000
vt -0.000000 -1.290000 0.000000
vt -0.202016 0.000000 0.000000
vt -0.000000 0.000000 0.000000
vt 0.000000 0.168966 0.000000
vt -1.290000 0.168966 0.000000
vt -0.000000 0.113729 0.000000
vt -1.290000 0.113729 0.000000
vt -1.290000 0.058491 0.000000
vt -1.290000 0.003253 0.000000
vt 0.000000 0.003253 0.000000
vt -0.000000 0.058491 0.000000
vt -0.202016 -1.290000 0.000000
vt -0.000000 -1.290000 0.000000
vt -0.202016 0.000000 0.000000
vt -0.000000 0.000000 0.000000
vt -0.000000 0.168966 0.000000
vt -1.290000 0.168966 0.000000
vt -0.000000 0.113729 0.000000
vt -1.290000 0.113729 0.000000
vt -1.290000 0.058491 0.000000
vt -1.290000 0.003253 0.000000
vt 0.000000 0.003253 0.000000
vt 0.000000 0.058491 0.000000
vt -3.957168 -1.290000 0.000000
vt -0.000000 -1.290000 0.000000
vt -3.957168 0.000000 0.000000
vt -0.000000 0.000000 0.000000
vt 0.645000 0.334743 0.000000
vt -0.645000 0.334743 0.000000
vt 0.645000 0.224268 0.000000
vt -0.645000 0.224268 0.000000
vt 0.645000 0.113792 0.000000
vt -0.645000 0.113792 0.000000
vt 0.645000 0.003317 0.000000
vt -0.645000 0.003317 0.000000
vt -2.050015 -1.290000 0.000000
vt -0.000000 -1.290000 0.000000
vt -2.050015 0.000000 0.000000
vt -0.000000 0.000000 0.000000
vt 0.645000 0.334743 0.000000
vt -0.645000 0.334743 0.000000
vt 0.645000 0.224268 0.000000
vt -0.645000 0.224268 0.000000
vt 0.645000 0.113792 0.000000
vt -0.645000 0.113792 0.000000
vt 0.645000 0.003317 0.000000
vt -0.645000 0.003317 0.000000
vt -3.957168 -1.290000 0.000000
vt -0.000000 -1.290000 0.000000
vt -3.957168 0.000000 0.000000
vt -0.000000 0.000000 0.000000
vt 2.182233 0.010000 0.000000
vt 3.973002 0.010000 0.000000
vt 2.182233 0.110000 0.000000
vt 3.973002 0.110000 0.000000
vt 2.020018 0.110000 0.000000
vt -0.000015 0.110000 0.000000
vt 2.020018 0.010000 0.000000
vt -0.000015 0.010000 0.000000
vt -0.050000 0.003226 0.000000
vt 0.050000 0.003226 0.000000
vt -0.050000 0.069700 0.000000
vt 0.050000 0.069700 0.000000
vt -0.050000 0.136174 0.000000
vt 0.050000 0.136174 0.000000
vt -0.050000 0.202648 0.000000
vt 0.050000 0.202648 0.000000
vt 2.072392 0.110000 0.000000
vt -0.000036 0.110000 0.000000
vt 2.072392 0.010000 0.000000
vt -0.000036 0.010000 0.000000
vt -0.050000 0.003226 0.000000
vt 0.050000 0.003226 0.000000
vt -0.050000 0.069700 0.000000
vt 0.050000 0.069700 0.000000
vt -0.050000 0.136174 0.000000
vt 0.050000 0.136174 0.000000
vt -0.050000 0.202648 0.000000
vt 0.050000 0.202648 0.000000
vt -0.010000 0.109663 0.000000
vt -0.110000 0.109663 0.000000
vt -0.010000 0.076426 0.000000
vt -0.110000 0.076426 0.000000
vt -0.110000 0.043189 0.000000
vt -0.110000 0.009952 0.000000
vt -0.010000 0.009952 0.000000
vt -0.010000 0.043189 0.000000
vt 0.211285 0.110000 0.000000
vt -0.000015 0.110000 0.000000
vt 0.211285 0.010000 0.000000
vt -0.000015 0.010000 0.000000
vt -0.010000 0.109663 0.000000
vt -0.110000 0.109663 0.000000
vt -0.010000 0.076426 0.000000
vt -0.110000 0.076426 0.000000
vt -0.110000 0.043189 0.000000
vt -0.110000 0.009952 0.000000
vt -0.010000 0.009952 0.000000
vt -0.010000 0.043189 0.000000
vt 1.773590 0.110000 0.000000
vt -0.000015 0.110000 0.000000
vt 1.773590 0.010000 0.000000
vt -0.000015 0.010000 0.000000
vt -0.010000 0.109663 0.000000
vt -0.110000 0.109663 0.000000
vt -0.010000 0.076426 0.000000
vt -0.110000 0.076426 0.000000
vt -0.110000 0.043189 0.000000
vt -0.110000 0.009952 0.000000
vt -0.010000 0.009952 0.000000
vt -0.010000 0.043189 0.000000
vt 0.211285 0.110000 0.000000
vt -0.000015 0.110000 0.000000
vt 0.211285 0.010000 0.000000
vt -0.000015 0.010000 0.000000
vn -0.100000 0.000000 0.000000
vn -0.100000 0.000000 0.000000
vn -0.100000 0.000000 0.000000
vn -0.100000 0.000000 0.000000
vn 0.000000 0.000000 -0.100000
vn 0.000000 0.000000 -0.100000
vn -0.050000 0.000000 -0.086603
vn -0.050000 0.000000 -0.086603
vn -0.086603 0.000000 -0.050000
vn -0.086603 0.000000 -0.050000
vn -0.100000 0.000000 -0.000000
vn 0.000000 0.000000 -0.100000
vn 0.000000 0.000000 -0.100000
vn 0.000000 0.000000 -0.100000
vn 0.000000 0.000000 -0.100000
vn 0.006378 0.000000 -0.099796
vn 0.017864 0.000000 -0.098391
vn 0.019031 0.000000 -0.098172
vn 0.018643 0.000000 -0.098247
vn 0.019031 0.000000 -0.098172
vn -0.006378 0.000000 -0.099796
vn -0.005983 0.000000 -0.099821
vn 0.005983 0.000000 -0.099821
vn -0.017864 0.000000 -0.098391
vn -0.019031 0.000000 -0.098172
vn -0.019031 0.000000 -0.098172
vn -0.018643 0.000000 -0.098247
vn -0.018253 0.000000 -0.098320
vn -0.017864 0.000000 -0.098391
vn 0.017864 0.000000 -0.098391
vn 0.018253 0.000000 -0.098320
vn 0.000000 0.000000 -0.100000
vn 0.000000 0.000000 -0.100000
vn 0.000000 0.000000 -0.100000
vn 0.000000 0.000000 -0.100000
vn 0.050000 0.000000 -0.086603
vn 0.038268 0.000000 -0.092388
vn 0.070711 0.000000 -0.070711
vn 0.050000 0.000000 -0.086603
vn 0.070711 0.000000 -0.070711
vn 0.025882 0.000000 -0.096593
vn -0.000000 0.000000 -0.100000
vn 0.025882 0.000000 -0.096593
vn -0.000000 0.000000 -0.100000
vn 0.070711 0.000000 -0.070711
vn 0.070711 0.000000 -0.070711
vn 0.070711 0.000000 -0.070711
vn 0.070711 0.000000 -0.070711
vn 0.096593 0.000000 -0.025882
vn 0.092388 0.000000 -0.038268
vn 0.100000 -0.000000 0.000000
vn 0.096593 0.000000 -0.025882
vn 0.100000 -0.000000 0.000000
vn 0.086603 0.000000 -0.050000
vn 0.070711 0.000000 -0.070711
vn 0.086603 0.000000 -0.050000
vn 0.070711 0.000000 -0.070711
vn 0.100000 0.000000 0.000000
vn 0.100000 0.000000 0.000000
vn 0.100000 0.000000 0.000000
vn 0.086603 -0.000000 0.050000
vn 0.092388 -0.000000 0.038268
vn 0.070711 -0.000000 0.070711
vn 0.086603 -0.000000 0.050000
vn 0.070711 -0.000000 0.070711
vn 0.096593 -0.000000 0.025882
vn 0.100000 0.000000 -0.000000
vn 0.096593 -0.000000 0.025882
vn 0.100000 0.000000 -0.000000
vn 0.070711 -0.000000 0.070711
vn 0.070711 -0.000000 0.070711
vn 0.070711 -0.000000 0.070711
vn 0.070711 -0.000000 0.070711
vn 0.025882 -0.000000 0.096593
vn 0.038268 -0.000000 0.092388
vn -0.000000 0.000000 0.100000
vn 0.025882 -0.000000 0.096593
vn -0.000000 0.000000 0.100000
vn 0.050000 -0.000000 0.086603
vn 0.070711 -0.000000 0.070711
vn 0.050000 -0.000000 0.086603
vn 0.070711 -0.000000 0.070711
vn 0.000000 0.000000 0.100000
vn 0.000000 0.000000 0.100000
vn 0.000000 0.000000 0.100000
vn 0.000000 0.000000 0.100000
vn -0.004020 0.000000 0.099919
vn -0.010038 0.000000 0.099495
vn -0.012035 0.000000 0.099273
vn -0.011370 0.000000 0.099351
vn -0.012035 0.000000 0.099273
vn 0.004020 -0.000000 0.099919
vn 0.003351 -0.000000 0.099944
vn -0.003351 0.000000 0.099944
vn 0.010038 -0.000000 0.099495
vn 0.012035 -0.000000 0.099273
vn 0.011370 -0.000000 0.099351
vn 0.012035 -0.000000 0.099273
vn 0.010704 -0.000000 0.099425
vn 0.010038 -0.000000 0.099495
vn -0.010038 0.000000 0.099495
vn -0.010704 0.000000 0.099425
vn 0.000000 0.000000 0.100000
vn 0.000000 0.000000 0.100000
vn 0.000000 0.000000 0.100000
vn 0.000000 0.000000 0.100000
vn -0.086603 0.000000 0.050000
vn -0.086603 0.000000 0.050000
vn -0.050000 0.000000 0.086603
vn -0.050000 0.000000 0.086603
vn 0.000000 -0.000000 0.100000
vn 0.000000 -0.000000 0.100000
vn 0.000000 -0.100000 0.000000
vn 0.000000 -0.100000 0.000000
vn 0.000000 -0.100000 0.000000
vn 0.000000 -0.100000 0.000000
vn 0.000000 -0.100000 0.000000
vn 0.000000 -0.100000 0.000000
vn 0.000000 -0.100000 0.000000
vn 0.000000 -0.100000 0.000000
vn 0.000000 -0.100000 0.000000
vn 0.000000 -0.100000 0.000000
vn 0.000000 -0.100000 0.000000
vn 0.000000 -0.100000 0.000000
vn 0.000000 -0.100000 0.000000
vn 0.000000 -0.100000 0.000000
vn 0.000000 -0.100000 0.000000
vn 0.000000 -0.100000 0.000000
vn 0.000000 -0.100000 0.000000
vn 0.000000 -0.100000 0.000000
vn 0.000000 -0.100000 0.000000
vn 0.000000 -0.100000 0.000000
vn 0.000000 -0.100000 0.000000
vn 0.000000 -0.100000 0.000000
vn 0.000000 -0.100000 0.000000
vn 0.000000 -0.100000 0.000000
vn 0.000000 -0.100000 0.000000
vn 0.000000 -0.100000 0.000000
vn 0.000000 -0.100000 0.000000
vn 0.000000 -0.100000 0.000000
vn 0.000000 -0.100000 0.000000
vn 0.000000 -0.100000 0.000000
vn 0.000000 -0.100000 0.000000
vn 0.000000 -0.100000 0.000000
vn 0.000000 -0.100000 0.000000
vn 0.000000 -0.100000 0.000000
vn 0.000000 -0.100000 0.000000
vn 0.000000 -0.100000 0.000000
vn 0.000000 -0.100000 0.000000
vn 0.000000 -0.100000 0.000000
vn 0.000000 -0.100000 0.000000
vn 0.000000 -0.100000 0.000000
vn 0.000000 -0.100000 0.000000
vn 0.000000 -0.100000 0.000000
vn 0.000000 -0.100000 0.000000
vn 0.000000 -0.100000 0.000000
vn 0.000000 -0.100000 0.000000
vn 0.000000 -0.100000 0.000000
vn 0.000000 -0.100000 0.000000
vn 0.000000 -0.100000 0.000000
vn 0.000000 -0.100000 0.000000
vn 0.000000 -0.100000 0.000000
vn 0.000000 -0.100000 0.000000
vn 0.000000 -0.100000 0.000000
vn 0.000000 -0.100000 0.000000
vn 0.000000 -0.100000 0.000000
vn 0.000000 -0.100000 0.000000
vn 0.000000 -0.100000 0.000000
vn 0.000000 -0.100000 0.000000
vn 0.000000 -0.100000 0.000000
vn 0.000000 -0.100000 0.000000
vn 0.000000 -0.100000 0.000000
vn 0.000000 -0.100000 0.000000
vn 0.000000 -0.100000 0.000000
vn 0.000000 -0.100000 0.000000
vn 0.000000 -0.100000 0.000000
vn 0.000000 0.000000 0.100000
vn 0.000000 0.000000 0.100000
vn 0.000000 0.000000 0.100000
vn 0.000000 0.000000 0.100000
vn 0.000000 0.000000 0.100000
vn 0.000000 0.000000 0.100000
vn 0.000000 0.000000 0.100000
vn 0.000000 0.000000 0.100000
vn -0.070711 0.000000 0.070711
vn -0.070711 0.000000 0.070711
vn -0.050000 0.000000 0.086603
vn -0.050000 0.000000 0.086603
vn -0.025882 0.000000 0.096593
vn -0.025882 0.000000 0.096593
vn 0.000000 -0.100000 0.000000
vn 0.000000 -0.100000 0.000000
vn 0.000000 -0.100000 0.000000
vn 0.000000 -0.100000 0.000000
vn 0.000000 -0.100000 0.000000
vn 0.000000 -0.100000 0.000000
vn 0.000000 -0.100000 0.000000
vn 0.000000 -0.100000 0.000000
vn 0.000000 -0.100000 0.000000
vn 0.000000 -0.100000 0.000000
vn 0.000000 -0.100000 0.000000
vn 0.000000 -0.100000 0.000000
vn 0.000000 -0.100000 0.000000
vn 0.000000 -0.100000 0.000000
vn 0.000000 -0.100000 0.000000
vn 0.000000 -0.100000 0.000000
vn 0.000000 -0.100000 0.000000
vn 0.000000 -0.100000 0.000000
vn 0.000000 -0.100000 0.000000
vn 0.000000 -0.100000 0.000000
vn 0.000000 -0.100000 0.000000
vn 0.000000 -0.100000 0.000000
vn 0.000000 -0.100000 0.000000
vn 0.000000 -0.100000 0.000000
vn 0.000000 -0.100000 0.000000
vn 0.000000 -0.100000 0.000000
vn 0.000000 -0.100000 0.000000
vn 0.000000 -0.100000 0.000000
vn 0.000000 -0.100000 0.000000
vn 0.000000 -0.100000 0.000000
vn 0.000000 -0.100000 0.000000
vn 0.000000 -0.100000 0.000000
vn 0.000000 -0.100000 0.000000
vn 0.000000 -0.100000 0.000000
vn 0.000000 -0.100000 0.000000
vn 0.000000 -0.100000 0.000000
vn 0.000000 -0.100000 0.000000
vn 0.000000 -0.100000 0.000000
vn 0.000000 -0.100000 0.000000
vn 0.000000 -0.100000 0.000000
vn 0.000000 -0.100000 0.000000
vn 0.000000 -0.100000 0.000000
vn 0.000000 -0.100000 0.000000
vn 0.000000 -0.100000 0.000000
vn 0.000000 -0.100000 0.000000
vn 0.000000 -0.100000 0.000000
vn 0.000000 -0.100000 0.000000
vn 0.000000 -0.100000 0.000000
vn 0.000000 -0.100000 0.000000
vn 0.000000 -0.100000 0.000000
vn 0.000000 -0.100000 0.000000
vn 0.000000 -0.100000 0.000000
vn 0.000000 -0.100000 0.000000
vn 0.000000 -0.100000 0.000000
vn 0.000000 -0.100000 0.000000
vn 0.000000 -0.100000 0.000000
vn -0.070711 0.000000 0.070711
vn -0.050000 0.000000 0.086603
vn -0.070711 0.000000 0.070711
vn -0.050000 0.000000 0.086603
vn -0.025882 0.000000 0.096593
vn -0.025882 0.000000 0.096593
vn 0.000000 0.000000 0.100000
vn 0.000000 0.000000 0.100000
vn -0.000000 0.100000 -0.000000
vn -0.000000 0.100000 -0.000000
vn -0.000000 0.100000 -0.000000
vn -0.000000 0.100000 -0.000000
vn -0.000000 0.100000 -0.000000
vn -0.000000 0.100000 -0.000000
vn -0.000000 0.100000 -0.000000
vn -0.000000 0.100000 -0.000000
vn -0.000000 0.100000 -0.000000
vn -0.000000 0.100000 -0.000000
vn -0.000000 0.100000 -0.000000
vn -0.000000 0.100000 -0.000000
vn -0.000000 0.100000 -0.000000
vn -0.000000 0.100000 -0.000000
vn -0.000000 0.100000 -0.000000
vn -0.000000 0.100000 -0.000000
vn -0.000000 0.100000 -0.000000
vn -0.000000 0.100000 -0.000000
vn -0.000000 0.100000 -0.000000
vn -0.000000 0.100000 -0.000000
vn -0.000000 0.100000 -0.000000
vn -0.000000 0.100000 -0.000000
vn -0.000000 0.100000 -0.000000
vn -0.000000 0.100000 -0.000000
vn -0.000000 0.100000 -0.000000
vn -0.000000 0.100000 -0.000000
vn -0.000000 0.100000 -0.000000
vn -0.000000 0.100000 -0.000000
vn -0.000000 0.100000 -0.000000
vn -0.000000 0.100000 -0.000000
vn -0.000000 0.100000 -0.000000
vn -0.000000 0.100000 -0.000000
vn -0.000000 0.100000 -0.000000
vn -0.000000 0.100000 -0.000000
vn -0.000000 0.100000 -0.000000
vn -0.000000 0.100000 -0.000000
vn -0.000000 0.100000 -0.000000
vn -0.000000 0.100000 -0.000000
vn -0.000000 0.100000 -0.000000
vn -0.000000 0.100000 -0.000000
vn -0.000000 0.100000 -0.000000
vn -0.000000 0.100000 -0.000000
vn -0.000000 0.100000 -0.000000
vn -0.000000 0.100000 -0.000000
vn -0.000000 0.100000 -0.000000
vn -0.000000 0.100000 -0.000000
vn -0.000000 0.100000 -0.000000
vn -0.000000 0.100000 -0.000000
vn -0.000000 0.100000 -0.000000
vn -0.000000 0.100000 -0.000000
vn -0.000000 0.100000 -0.000000
vn -0.000000 0.100000 -0.000000
vn -0.000000 0.100000 -0.000000
vn -0.000000 0.100000 -0.000000
vn -0.000000 0.100000 -0.000000
vn -0.000000 0.100000 -0.000000
vn -0.100000 0.000000 0.000000
vn -0.100000 0.000000 0.000000
vn -0.100000 0.000000 0.000000
vn -0.100000 0.000000 0.000000
vn -0.100000 0.000000 -0.000000
vn -0.100000 0.000000 -0.000000
vn -0.096593 0.000000 0.025882
vn -0.096593 0.000000 0.025882
vn -0.086603 0.000000 0.050000
vn -0.070711 0.000000 0.070711
vn -0.070711 0.000000 0.070711
vn -0.086603 0.000000 0.050000
vn -0.070711 0.000000 0.070711
vn -0.070711 0.000000 0.070711
vn -0.070711 0.000000 0.070711
vn -0.070711 0.000000 0.070711
vn -0.070711 0.000000 -0.070711
vn -0.070711 0.000000 -0.070711
vn -0.086603 0.000000 -0.050000
vn -0.086603 0.000000 -0.050000
vn -0.096593 0.000000 -0.025882
vn -0.100000 0.000000 -0.000000
vn -0.100000 0.000000 -0.000000
vn -0.096593 0.000000 -0.025882
vn -0.070711 0.000000 -0.070711
vn -0.070711 0.000000 -0.070711
vn -0.070711 0.000000 -0.070711
vn -0.070711 0.000000 -0.070711
vn 0.000000 0.000000 -0.100000
vn 0.000000 0.000000 -0.100000
vn -0.025882 0.000000 -0.096593
vn -0.025882 0.000000 -0.096593
vn -0.050000 0.000000 -0.086603
vn -0.070711 0.000000 -0.070711
vn -0.070711 0.000000 -0.070711
vn -0.050000 0.000000 -0.086603
vn 0.000000 0.000000 -0.100000
vn 0.000000 0.000000 -0.100000
vn 0.000000 0.000000 -0.100000
vn 0.000000 0.000000 -0.100000
vn 0.100000 0.000000 0.000000
vn 0.100000 0.000000 0.000000
vn 0.086603 0.000000 -0.050000
vn 0.086603 0.000000 -0.050000
vn 0.050000 0.000000 -0.086603
vn 0.050000 0.000000 -0.086603
vn 0.000000 0.000000 -0.100000
vn 0.000000 0.000000 -0.100000
vn 0.100000 0.000000 0.000000
vn 0.100000 0.000000 0.000000
vn 0.100000 0.000000 0.000000
vn 0.100000 0.000000 0.000000
vn 0.000000 0.000000 0.100000
vn 0.000000 0.000000 0.100000
vn 0.050000 0.000000 0.086603
vn 0.050000 0.000000 0.086603
vn 0.086603 0.000000 0.050000
vn 0.086603 0.000000 0.050000
vn 0.100000 0.000000 0.000000
vn 0.100000 0.000000 0.000000
vn 0.000000 0.000000 0.100000
vn 0.000000 0.000000 0.100000
vn 0.000000 0.000000 0.100000
vn 0.000000 0.000000 0.100000
vn 0.000000 0.000000 -0.100000
vn 0.000000 0.000000 -0.100000
vn 0.000000 0.000000 -0.100000
vn 0.000000 0.000000 -0.100000
vn 0.000000 0.000000 -0.100000
vn 0.000000 0.000000 -0.100000
vn 0.000000 0.000000 -0.100000
vn 0.000000 0.000000 -0.100000
vn 0.050000 0.000000 -0.086603
vn 0.050000 0.000000 -0.086603
vn 0.086603 0.000000 -0.050000
vn 0.086603 0.000000 -0.050000
vn 0.100000 0.000000 -0.000000
vn 0.100000 0.000000 -0.000000
vn 0.100000 0.000000 0.000000
vn 0.100000 0.000000 0.000000
vn 0.086603 0.000000 0.050000
vn 0.086603 0.000000 0.050000
vn 0.050000 0.000000 0.086603
vn 0.050000 0.000000 0.086603
vn -0.025882 0.000000 -0.096593
vn -0.025882 0.000000 -0.096593
vn -0.050000 0.000000 -0.086603
vn -0.070711 0.000000 -0.070711
vn -0.070711 0.000000 -0.070711
vn -0.050000 0.000000 -0.086603
vn -0.070711 0.000000 -0.070711
vn -0.070711 0.000000 -0.070711
vn -0.086603 0.000000 -0.050000
vn -0.086603 0.000000 -0.050000
vn -0.096593 0.000000 -0.025882
vn -0.100000 0.000000 0.000000
vn -0.100000 0.000000 0.000000
vn -0.096593 0.000000 -0.025882
vn -0.100000 0.000000 0.000000
vn -0.100000 0.000000 0.000000
vn -0.096593 0.000000 0.025882
vn -0.096593 0.000000 0.025882
vn -0.086603 0.000000 0.050000
vn -0.070711 0.000000 0.070711
vn -0.070711 0.000000 0.070711
vn -0.086603 0.000000 0.050000
usemtl Opaque(63,62,62)
f 1/1/1 2/2/2 4/3/3
f 4/3/3 2/2/2 3/4/4
f 10/5/5 5/6/6 9/7/7
f 9/7/7 5/6/6 6/8/8
f 9/7/7 6/8/8 8/9/9
f 8/9/9 6/8/8 7/10/10
f 8/9/9 7/10/10 4/11/3
f 4/11/3 7/10/10 1/12/11
f 11/13/12 5/14/13 12/15/14
f 12/15/14 5/14/13 10/16/15
f 14/17/16 22/18/17 13/19/18
f 13/19/18 22/18/17 25/20/19
f 13/19/18 25/20/19 26/21/20
f 15/22/21 20/23/22 14/17/16
f 14/17/16 20/23/22 21/24/23
f 14/17/16 21/24/23 22/18/17
f 20/23/22 15/22/21 19/25/24
f 19/25/24 15/22/21 11/26/25
f 19/25/24 11/26/25 12/27/26
f 12/27/26 16/28/27 19/25/24
f 19/25/24 16/28/27 17/29/28
f 19/25/24 17/29/28 18/30/29
f 23/31/30 24/32/31 22/18/17
f 22/18/17 24/32/31 25/20/19
f 27/33/32 13/34/33 28/35/34
f 28/35/34 13/34/33 26/36/35
f 30/37/36 35/38/37 29/39/38
f 29/39/38 35/38/37 33/40/39
f 29/39/38 33/40/39 34/41/40
f 30/37/36 31/42/41 35/38/37
f 35/38/37 31/42/41 28/43/42
f 35/38/37 28/43/42 32/44/43
f 31/42/41 27/45/44 28/43/42
f 32/44/43 33/40/39 35/38/37
f 36/46/45 29/47/46 37/48/47
f 37/48/47 29/47/46 34/49/48
f 39/50/49 44/51/50 38/52/51
f 38/52/51 44/51/50 42/53/52
f 38/52/51 42/53/52 43/54/53
f 39/50/49 40/55/54 44/51/50
f 44/51/50 40/55/54 37/56/55
f 44/51/50 37/56/55 41/57/56
f 40/55/54 36/58/57 37/56/55
f 41/57/56 42/53/52 44/51/50
f 45/59/58 38/60/59 46/61/60
f 46/61/60 38/60/59 43/62/53
f 48/63/61 53/64/62 47/65/63
f 47/65/63 53/64/62 51/66/64
f 47/65/63 51/66/64 52/67/65
f 48/63/61 49/68/66 53/64/62
f 53/64/62 49/68/66 46/69/67
f 53/64/62 46/69/67 50/70/68
f 49/68/66 45/71/69 46/69/67
f 50/70/68 51/66/64 53/64/62
f 54/72/70 47/73/71 55/74/72
f 55/74/72 47/73/71 52/75/73
f 57/76/74 62/77/75 56/78/76
f 56/78/76 62/77/75 60/79/77
f 56/78/76 60/79/77 61/80/78
f 57/76/74 58/81/79 62/77/75
f 62/77/75 58/81/79 55/82/80
f 62/77/75 55/82/80 59/83/81
f 58/81/79 54/84/82 55/82/80
f 59/83/81 60/79/77 62/77/75
f 63/85/83 56/86/84 64/87/85
f 64/87/85 56/86/84 61/88/86
f 66/89/87 74/90/88 65/91/89
f 65/91/89 74/90/88 77/92/90
f 65/91/89 77/92/90 78/93/91
f 67/94/92 72/95/93 66/89/87
f 66/89/87 72/95/93 73/96/94
f 66/89/87 73/96/94 74/90/88
f 72/95/93 67/94/92 71/97/95
f 71/97/95 67/94/92 63/98/96
f 71/97/95 63/98/96 68/99/97
f 68/99/97 63/98/96 64/100/98
f 68/99/97 69/101/99 71/97/95
f 71/97/95 69/101/99 70/102/100
f 75/103/101 76/104/102 74/90/88
f 74/90/88 76/104/102 77/92/90
f 79/105/103 65/106/104 80/107/105
f 80/107/105 65/106/104 78/108/106
f 3/109/4 2/110/2 84/111/107
f 84/111/107 2/110/2 81/112/108
f 84/111/107 81/112/108 83/113/109
f 83/113/109 81/112/108 82/114/110
f 83/113/109 82/114/110 80/115/111
f 80/115/111 82/114/110 79/116/112
f 4/117/113 3/118/114 88/119/115
f 88/119/115 3/118/114 84/120/116
f 88/119/115 84/120/116 87/121/117
f 87/121/117 84/120/116 86/122/118
f 86/122/118 84/120/116 83/123/119
f 86/122/118 83/123/119 85/124/120
f 85/124/120 83/123/119 80/125/121
f 85/124/120 80/125/121 78/126/122
f 78/126/122 77/127/123 85/124/120
f 85/124/120 77/127/123 76/128/124
f 85/124/120 76/128/124 75/129/125
f 88/119/115 89/130/126 4/117/113
f 4/117/113 89/130/126 8/131/127
f 8/131/127 89/130/126 90/132/128
f 8/131/127 90/132/128 91/133/129
f 8/131/127 91/133/129 9/134/130
f 9/134/130 91/133/129 92/135/131
f 9/134/130 92/135/131 10/136/132
f 10/136/132 92/135/131 18/137/133
f 10/136/132 18/137/133 17/138/134
f 17/138/134 16/139/135 10/136/132
f 10/136/132 16/139/135 12/140/136
f 68/141/137 64/142/138 108/143/139
f 108/143/139 64/142/138 61/144/140
f 108/143/139 61/144/140 60/145/141
f 108/143/139 60/145/141 107/146/142
f 107/146/142 60/145/141 59/147/143
f 107/146/142 59/147/143 106/148/144
f 106/148/144 59/147/143 105/149/145
f 105/149/145 59/147/143 55/150/146
f 105/149/145 55/150/146 52/151/147
f 105/149/145 52/151/147 104/152/148
f 104/152/148 52/151/147 51/153/149
f 104/152/148 51/153/149 103/154/150
f 103/154/150 51/153/149 50/155/151
f 103/154/150 50/155/151 102/156/152
f 102/156/152 50/155/151 101/157/153
f 101/157/153 50/155/151 46/158/154
f 101/157/153 46/158/154 43/159/155
f 101/157/153 43/159/155 100/160/156
f 100/160/156 43/159/155 42/161/157
f 100/160/156 42/161/157 99/162/158
f 99/162/158 42/161/157 98/163/159
f 98/163/159 42/161/157 41/164/160
f 98/163/159 41/164/160 97/165/161
f 97/165/161 41/164/160 37/166/162
f 97/165/161 37/166/162 96/167/163
f 96/167/163 37/166/162 34/168/164
f 96/167/163 34/168/164 33/169/165
f 32/170/166 94/171/167 33/169/165
f 33/169/165 94/171/167 95/172/168
f 33/169/165 95/172/168 96/167/163
f 94/171/167 32/170/166 93/173/169
f 93/173/169 32/170/166 28/174/170
f 93/173/169 28/174/170 26/175/171
f 26/175/171 25/176/172 93/173/169
f 93/173/169 25/176/172 24/177/173
f 93/173/169 24/177/173 23/178/174
f 70/179/175 69/180/176 108/143/139
f 108/143/139 69/180/176 68/141/137
f 22/181/177 109/182/178 23/183/179
f 23/183/179 109/182/178 93/184/180
f 18/185/181 92/186/182 19/187/183
f 19/187/183 92/186/182 110/188/184
f 111/189/185 96/190/186 113/191/187
f 113/191/187 96/190/186 95/192/188
f 113/191/187 95/192/188 94/193/189
f 93/194/180 109/195/178 94/193/189
f 94/193/189 109/195/178 112/196/190
f 94/193/189 112/196/190 113/191/187
f 115/197/191 111/198/192 114/199/193
f 114/199/193 111/198/192 113/200/194
f 114/199/193 113/200/194 137/201/195
f 137/201/195 113/200/194 112/202/196
f 137/201/195 112/202/196 136/203/197
f 136/203/197 112/202/196 109/204/198
f 136/203/197 109/204/198 135/205/199
f 135/205/199 109/204/198 22/206/200
f 135/205/199 22/206/200 21/207/201
f 111/198/192 115/197/191 149/208/202
f 149/208/202 115/197/191 116/209/203
f 149/208/202 116/209/203 148/210/204
f 148/210/204 116/209/203 117/211/205
f 148/210/204 117/211/205 147/212/206
f 147/212/206 117/211/205 118/213/207
f 147/212/206 118/213/207 146/214/208
f 146/214/208 118/213/207 145/215/209
f 145/215/209 118/213/207 119/216/210
f 145/215/209 119/216/210 144/217/211
f 144/217/211 119/216/210 120/218/212
f 144/217/211 120/218/212 143/219/213
f 143/219/213 120/218/212 121/220/214
f 143/219/213 121/220/214 142/221/215
f 142/221/215 121/220/214 122/222/216
f 142/221/215 122/222/216 141/223/217
f 141/223/217 122/222/216 123/224/218
f 141/223/217 123/224/218 140/225/219
f 140/225/219 123/224/218 124/226/220
f 140/225/219 124/226/220 139/227/221
f 139/227/221 124/226/220 125/228/222
f 139/227/221 125/228/222 138/229/223
f 138/229/223 125/228/222 126/230/224
f 138/229/223 126/230/224 71/231/225
f 71/231/225 126/230/224 72/232/226
f 72/232/226 126/230/224 127/233/227
f 72/232/226 127/233/227 73/234/228
f 73/234/228 127/233/227 74/235/229
f 74/235/229 127/233/227 156/236/230
f 156/236/230 127/233/227 128/237/231
f 156/236/230 128/237/231 155/238/232
f 155/238/232 128/237/231 129/239/233
f 155/238/232 129/239/233 154/240/234
f 154/240/234 129/239/233 130/241/235
f 154/240/234 130/241/235 153/242/236
f 153/242/236 130/241/235 131/243/237
f 153/242/236 131/243/237 152/244/238
f 152/244/238 131/243/237 151/245/239
f 151/245/239 131/243/237 132/246/240
f 151/245/239 132/246/240 150/247/241
f 150/247/241 132/246/240 133/248/242
f 150/247/241 133/248/242 110/249/243
f 110/249/243 133/248/242 134/250/244
f 110/249/243 134/250/244 19/251/245
f 19/251/245 134/250/244 20/252/246
f 20/252/246 134/250/244 135/205/199
f 20/252/246 135/205/199 21/207/201
f 114/253/247 137/254/248 157/255/249
f 157/255/249 137/254/248 160/256/250
f 160/256/250 137/254/248 136/257/251
f 160/256/250 136/257/251 159/258/252
f 159/258/252 136/257/251 135/259/253
f 159/258/252 135/259/253 158/260/254
f 162/261/255 39/262/256 161/263/257
f 161/263/257 39/262/256 38/264/258
f 161/263/257 38/264/258 180/265/259
f 180/265/259 38/264/258 45/266/260
f 180/265/259 45/266/260 49/267/261
f 39/262/256 162/261/255 40/268/262
f 40/268/262 162/261/255 163/269/263
f 40/268/262 163/269/263 36/270/264
f 36/270/264 163/269/263 164/271/265
f 36/270/264 164/271/265 29/272/266
f 29/272/266 164/271/265 157/273/267
f 29/272/266 157/273/267 30/274/268
f 30/274/268 157/273/267 160/275/269
f 30/274/268 160/275/269 31/276/270
f 31/276/270 160/275/269 159/277/271
f 31/276/270 159/277/271 27/278/272
f 27/278/272 159/277/271 158/279/273
f 27/278/272 158/279/273 13/280/274
f 13/280/274 158/279/273 14/281/275
f 14/281/275 158/279/273 15/282/276
f 15/282/276 158/279/273 165/283/277
f 15/282/276 165/283/277 11/284/278
f 11/284/278 165/283/277 5/285/279
f 5/285/279 165/283/277 166/286/280
f 5/285/279 166/286/280 6/287/281
f 6/287/281 166/286/280 167/288/282
f 6/287/281 167/288/282 7/289/283
f 7/289/283 167/288/282 168/290/284
f 7/289/283 168/290/284 1/291/285
f 1/291/285 168/290/284 169/292/286
f 1/291/285 169/292/286 2/293/287
f 2/293/287 169/292/286 81/294/288
f 81/294/288 169/292/286 170/295/289
f 81/294/288 170/295/289 82/296/290
f 82/296/290 170/295/289 171/297/291
f 82/296/290 171/297/291 79/298/292
f 79/298/292 171/297/291 172/299/293
f 79/298/292 172/299/293 65/300/294
f 65/300/294 172/299/293 66/301/295
f 66/301/295 172/299/293 67/302/296
f 67/302/296 172/299/293 173/303/297
f 67/302/296 173/303/297 63/304/298
f 63/304/298 173/303/297 56/305/299
f 56/305/299 173/303/297 174/306/300
f 56/305/299 174/306/300 57/307/301
f 57/307/301 174/306/300 175/308/302
f 57/307/301 175/308/302 58/309/303
f 58/309/303 175/308/302 176/310/304
f 58/309/303 176/310/304 54/311/305
f 54/311/305 176/310/304 177/312/306
f 54/311/305 177/312/306 47/313/307
f 47/313/307 177/312/306 178/314/308
f 47/313/307 178/314/308 48/315/309
f 48/315/309 178/314/308 179/316/310
f 48/315/309 179/316/310 49/267/261
f 49/267/261 179/316/310 180/265/259
f 119/317/311 118/318/312 180/319/313
f 180/319/313 118/318/312 161/320/314
f 161/321/315 118/322/316 162/323/317
f 162/323/317 118/322/316 117/324/318
f 162/323/317 117/324/318 116/325/319
f 115/326/320 164/327/321 116/325/319
f 116/325/319 164/327/321 163/328/322
f 116/325/319 163/328/322 162/323/317
f 115/329/323 114/330/324 164/331/325
f 164/331/325 114/330/324 157/332/326
f 177/333/327 122/334/328 178/335/329
f 178/335/329 122/334/328 121/336/330
f 178/335/329 121/336/330 120/337/331
f 119/338/332 180/339/333 120/337/331
f 120/337/331 180/339/333 179/340/334
f 120/337/331 179/340/334 178/335/329
f 123/341/335 122/342/336 176/343/337
f 176/343/337 122/342/336 177/344/338
f 173/345/339 126/346/340 174/347/341
f 174/347/341 126/346/340 125/348/342
f 174/347/341 125/348/342 124/349/343
f 123/350/344 176/351/345 124/349/343
f 124/349/343 176/351/345 175/352/346
f 124/349/343 175/352/346 174/347/341
f 127/353/347 126/354/348 172/355/349
f 172/355/349 126/354/348 173/356/350
f 169/357/351 130/358/352 170/359/353
f 170/359/353 130/358/352 129/360/354
f 170/359/353 129/360/354 171/361/355
f 171/361/355 129/360/354 128/362/356
f 171/361/355 128/362/356 172/363/357
f 172/363/357 128/362/356 127/364/358
f 131/365/359 130/366/360 168/367/361
f 168/367/361 130/366/360 169/368/362
f 165/369/363 134/370/364 166/371/365
f 166/371/365 134/370/364 133/372/366
f 166/371/365 133/372/366 167/373/367
f 167/373/367 133/372/366 132/374/368
f 167/373/367 132/374/368 168/375/369
f 168/375/369 132/374/368 131/376/370
f 135/377/371 134/378/372 158/379/373
f 158/379/373 134/378/372 165/380/374
f 74/381/375 156/382/376 75/383/377
f 75/383/377 156/382/376 85/384/378
f 70/385/379 108/386/380 71/387/381
f 71/387/381 108/386/380 138/388/382
f 85/389/378 156/390/376 86/391/383
f 86/391/383 156/390/376 155/392/384
f 86/391/383 155/392/384 87/393/385
f 87/393/385 155/392/384 154/394/386
f 87/393/385 154/394/386 88/395/387
f 88/395/387 154/394/386 153/396/388
f 89/397/389 88/398/387 152/399/390
f 152/399/390 88/398/387 153/400/388
f 89/401/389 152/402/390 90/403/391
f 90/403/391 152/402/390 151/404/392
f 90/403/391 151/404/392 91/405/393
f 91/405/393 151/404/392 150/406/394
f 91/405/393 150/406/394 92/407/182
f 92/407/182 150/406/394 110/408/184
f 138/409/382 108/410/380 139/411/395
f 139/411/395 108/410/380 107/412/396
f 139/411/395 107/412/396 106/413/397
f 105/414/398 141/415/399 106/413/397
f 106/413/397 141/415/399 140/416/400
f 106/413/397 140/416/400 139/411/395
f 105/417/398 104/418/401 141/419/399
f 141/419/399 104/418/401 142/420/402
f 142/421/402 104/422/401 143/423/403
f 143/423/403 104/422/401 103/424/404
f 143/423/403 103/424/404 102/425/405
f 101/426/406 145/427/407 102/425/405
f 102/425/405 145/427/407 144/428/408
f 102/425/405 144/428/408 143/423/403
f 101/429/406 100/430/409 145/431/407
f 145/431/407 100/430/409 146/432/410
f 146/433/410 100/434/409 147/435/411
f 147/435/411 100/434/409 99/436/412
f 147/435/411 99/436/412 98/437/413
f 97/438/414 149/439/415 98/437/413
f 98/437/413 149/439/415 148/440/416
f 98/437/413 148/440/416 147/435/411
f 97/441/414 96/442/186 149/443/415
f 149/443/415 96/442/186 111/444/185
# 180 vertices
# 444 texture params
# 416 normals
# 360 facets

# 1 groups
